<?xml version="1.0" encoding="UTF-8"?>
<svg id="Layer_1" xmlns="http://www.w3.org/2000/svg" version="1.1" viewBox="0 0 512 512">
  <!-- Generator: Adobe Illustrator 29.1.0, SVG Export Plug-In . SVG Version: 2.1.0 Build 142)  -->
  <defs>
    <style>
      .st0 {
        fill: #79d2f4;
      }

      .st1 {
        fill: #fe815c;
      }

      .st2 {
        fill: #b5eafe;
      }

      .st3 {
        fill: #c8effe;
      }

      .st4 {
        fill: #b6e9fd;
      }

      .st5 {
        fill: #b9e2f3;
      }

      .st6 {
        fill: #b6eafe;
      }

      .st7 {
        fill: #fd825e;
      }

      .st8 {
        fill: #79d2f5;
      }
    </style>
  </defs>
  <path class="st3" d="M382,38c.2-.6.5-1.2.7-1.8,1.5-2.6,3-3.7,5.6-5.4.8-.5,1.5-1,2.3-1.5,5.9-3.1,12.6-3,18.9-1.1,6.1,2.2,10.6,5.8,13.9,11.4,3.6,8,2.1,17.4-.4,25.5.4.4.8.8,1.3,1.2,1.9,1.8,3.9,3.6,5.8,5.4.7.6,1.3,1.2,2,1.8.7.6,1.3,1.2,2,1.8q1,.9,2,1.9c1.3,1.3,2.6,2.6,3.9,4q.9,1,1.8,2c.5.6,1.1,1.2,1.6,1.8q1.6,1.4,3.7.9c1.4-.6,2.9-1.2,4.3-1.8,6.4-2.3,14.9-2.2,21.2.6,6.2,3.8,10.4,9.5,12.5,16.4.9,7.5,0,13.6-4,20q-2.2,2.6-4,4c1.2,4.3,3,7.8,5.2,11.7,21.2,35.8,30.3,77.7,30.1,119,0,1,0,1.9,0,2.9,0,14.3-.4,28.4-3.3,42.4-.2,1-.4,2-.6,3-10.7,51.5-35.6,94.2-72.5,131.2-.7.7-1.3,1.3-2,2-.6.6-1.2,1.2-1.9,1.9-.5.5-1.1,1.1-1.7,1.7q-1.4,1.3-3.4,2.3c.5,1.2,1,2.4,1.5,3.7,2.6,7.9,2.9,16.1-.5,23.8-3.5,6.1-8.1,9.4-14.5,11.9-8.2,1.5-14.2.7-21.5-3.4-2.3-1.9-4.1-3.8-6-6-3.9,1.2-7.4,2.6-10.9,4.6-51.7,27.6-115.1,30.4-171.1,16.4q-1.1-.3-2.3-.6c-18.4-4.6-36.1-12.6-52.7-21.4-.3.6-.5,1.2-.8,1.8-2.3,4-5.9,5.7-10.2,7.2-8,1.1-15.4.9-22-4-4.4-3.6-7.4-7.6-9-13-.7-7.1-.5-13.3,2-20-.4-.4-.8-.8-1.2-1.2-11-10.2-21.5-20.1-30.8-31.8-.8-.9-1.5-1.9-2.3-2.9-7.8-9.8-14.3-20.4-20.7-31.1-.4-.7-.8-1.3-1.2-2-22.6-38.3-30.5-83.1-29.8-127-1.2-.1-2.5-.2-3.7-.4-5.9-.8-10-3.2-14.1-7.6-5.7-7.4-5.9-13.8-5.2-23,1.7-6.7,6.5-11.2,12-15,3.8-1.8,7.1-2.3,11.3-2.6q1.6-.1,3.2-.2c.8,0,1.6,0,2.4-.1.2-.6.3-1.2.5-1.9,5.6-20.3,12.6-39.5,22.5-58.1.3-.6.7-1.3,1-2,8.5-16,19-30.5,31-44,.8-.9,1.5-1.8,2.3-2.7,7.4-8.3,15.1-16.2,23.7-23.3-.5-1.2-1-2.4-1.5-3.6-2.5-7.5-3.2-16.6,0-23.9,3.9-6.3,9.2-10,16.2-12,6.5-1.4,12.2-.3,18.2,2.5,3.2,2.2,6.2,4.5,8,8,4.6-1.4,8.8-3.3,13.1-5.3C229,1.8,319.4-1.4,382,38Z"/>
  <path class="st3" d="M474,126c4.9,1.6,6.2,6.1,8.6,10.5.5,1,1.1,2,1.6,3,19.1,36.2,28.3,75.4,28.1,116.2,0,1,0,1.9,0,2.9,0,14.3-.4,28.4-3.3,42.4q-.3,1.5-.6,3c-10.7,51.5-35.6,94.2-72.5,131.2-.7.7-1.3,1.3-2,2-.6.6-1.2,1.2-1.9,1.9-.5.5-1.1,1.1-1.7,1.7q-1.4,1.3-3.4,2.3c.5,1.2,1,2.4,1.5,3.7,2.6,7.9,2.9,16.1-.5,23.8-3.5,6.1-8.1,9.4-14.5,11.9-8.2,1.5-14.2.7-21.5-3.4-2.3-1.9-4.1-3.8-6-6-3.9,1.2-7.4,2.6-10.9,4.6-51.7,27.6-115.1,30.4-171.1,16.4q-1.1-.3-2.3-.6c-18-4.5-35.8-12-51.7-21.4.2-.6.4-1.2.7-1.8,2.5-7.3,4.2-14.5,1.3-21.9-3.2-5.9-6.9-9.3-12.9-12.3-.7-.3-1.3-.7-2-1-2.1,0-4.2-.1-6.3-.1-1.1,0-2.3,0-3.4,0-2.9.1-5.5.5-8.3,1.1-2.3-15.2-2.3-30.7-2.3-46,0-1,0-2,0-3,0-18.3,1.4-35.9,4.3-54,.2-1,.3-2,.5-3,5.8-36.5,18.9-71.2,35.5-104,.5.4,1,.8,1.6,1.2.7.5,1.4,1.1,2.1,1.6.7.5,1.4,1.1,2.1,1.6,6.3,4.3,12.8,4.5,20.2,3.5,7.4-2.9,11.7-7.1,15.1-14.3,1-2.9,1.2-5.1,1.1-8.2,0-.9,0-1.8,0-2.8-.2-2.7-.6-5.1-1.2-7.7,13.1,1.2,26.1,2.7,39,5,.9.2,1.7.3,2.6.5,41.6,7.6,82.1,21.9,120.2,40,1.1.5,2.1,1,3.3,1.5q1.5.7,3,1.5c.9.4,1.8.8,2.7,1.3,2.2,1.2,3.6,2.4,5.3,4.3-.3.5-.7.9-1.1,1.4-.5.6-.9,1.2-1.4,1.9-.5.6-.9,1.2-1.4,1.8-3.3,5.3-2.8,12-2.2,17.9,2.2,7.1,5.6,11.3,12,15,6.9,2.3,14.8,2,21.5-1,4.8-2.7,7.2-6.1,9.5-11,.4-.7.7-1.5,1.1-2.2.3-.6.6-1.2.9-1.8,17.3,10.5,33.2,23,48.6,36,.6.5,1.1.9,1.7,1.4,1.5,1.3,3,2.5,4.5,3.8q2,1.9,4.3,1.7,3.5-13.4,6-27c.2-1.2.4-2.3.6-3.5,3.2-22.2,2.6-46.3-.6-68.5q-.2-1.3-.4-2.6c-3.2-21.6-8.3-47.9-20.6-66.4q-.3.9-.7,1.9c-11.2,32.3-24.8,63.7-42.2,93.1-.5.8-1,1.7-1.5,2.5-.4.7-.9,1.5-1.4,2.2-.4.6-.8,1.3-1.2,1.9-.4.4-.8.9-1.2,1.3-4,0-5.7-1.8-9-4-1.6-.7-3.3-1.4-5-2,1.3-4.6,3.2-8.2,5.8-12.2,21-34.2,34.9-71.8,47.2-109.8.8.3,1.7.6,2.6,1,3.6,1.1,6.6,1.3,10.4,1.3,1.2,0,2.4,0,3.6,0,3.8-.4,6.1-1.6,9.4-3.4Z"/>
  <path class="st3" d="M381,38c-.3.9-.7,1.9-1,2.8-2.2,7.8-1.3,15.6,1,23.2-1.2.4-2.5.8-3.7,1.2-.8.3-1.7.6-2.5.8-1.8.6-3.7,1.2-5.5,1.8-25.1,8.2-51.8,18.4-73.7,33.4q-2.5,1.7-4.5,1.7-.5-.9-.9-1.8c-4.2-7.9-8-12.4-16.5-15.5-7.1-2-11.8-.7-18.3,2.8-5.4,3.5-8.3,8.3-10.3,14.5-1.2,7.7.6,13.6,5,20,1.9,2,3.7,3.4,6,5-3.2,4.1-6.7,7.6-10.7,11-14.5,12.4-27.5,26.1-39,41.3-1.4,1.8-2.8,3.7-4.2,5.5-2.4,3.1-4.7,6.2-7.1,9.2-3.4-.7-5.2-1.9-8-4-6.1-2.8-12.4-3.2-18.8-1.1-4.8,2.3-8.4,4.4-11.2,9.1-.6.9-1.1,1.8-1.7,2.8-1.2,2.9-1.6,4.9-1.9,8,0,.8-.2,1.6-.2,2.4,0,.6-.1,1.2-.2,1.9-1.1,0-2.2,0-3.3.1-23.7.9-47.1,2.3-70.7,5.9-1,.1-2,.3-3,.4-6.5,1-12.9,2-19.3,3.6-3.4.8-6.2,1.1-9.8.9,0-.6-.1-1.3-.2-1.9-1.2-7.6-3.6-13-9.9-17.7-2.6-1.6-5.2-3.1-7.9-4.4,8.4-40.4,27.7-77.2,55-108,.8-.9,1.5-1.8,2.3-2.7,7.4-8.3,15.1-16.2,23.7-23.3-.5-1.2-1-2.4-1.5-3.6-2.5-7.5-3.2-16.6,0-23.9,3.9-6.3,9.2-10,16.2-12,6.5-1.4,12.2-.3,18.2,2.5,3.2,2.2,6.2,4.5,8,8,4.6-1.4,8.8-3.3,13.1-5.3,58.3-27.7,162.8-39.8,216.9,5.3Z"/>
  <path class="st3" d="M381,38c-.3.9-.7,1.9-1,2.8-2.2,7.8-1.3,15.6,1,23.2-1.2.4-2.5.8-3.7,1.2-.8.3-1.7.6-2.5.8-1.8.6-3.7,1.2-5.5,1.8-25.1,8.2-51.8,18.4-73.7,33.4q-2.5,1.7-4.5,1.7c-.3-.6-.6-1.2-.9-1.8-4.2-7.9-8-12.4-16.5-15.5-7.1-2-11.8-.7-18.3,2.8-5.5,3.6-8,8.5-10.3,14.5-4.5-1.4-8.3-3.2-12.4-5.6-7.1-4.1-14.3-7.9-21.7-11.4-1.8-.9-3.6-1.8-5.4-2.7-15.9-7.7-32.8-13.4-49.7-18.3q-2.8-1-4.8-3c.3-.8.7-1.5,1-2.3,1.9-7.2,1.6-13.7-1-20.7,61.6-32.1,171.1-50.1,230-1Z"/>
  <path class="st3" d="M278.7,86.8c3.1,1.6,5.1,3.4,7.3,6.2.5.6.9,1.1,1.4,1.7,4.3,5.8,4.4,11.3,3.6,18.3-1.3,7.2-5.7,11.3-11,16,.7.6,1.5,1.2,2.3,1.8,8.3,6.8,16,14.2,23.6,21.7.5.5,1,1,1.5,1.5,6.7,6.6,12.8,13.6,18.7,21,1,1.2,2.1,2.5,3.1,3.7,7.7,9.3,14.4,19.1,20.9,29.3.4.6.8,1.2,1.2,1.9,6.9,10.9,12.7,22.3,18.6,33.7.7,1.5,1.5,2.9,2.3,4.3.7,1.3,1.3,2.7,1.9,4.1l-1,2q-.7-.4-1.5-.8c-47.7-25.1-100.3-41.2-153.5-49.2-1.9-.3-3.8-.6-5.6-.9-4.8-.7-9.6-1.4-14.4-2.1.3.7.6,1.4,1,2.2,2.3,6.4,1.8,12.9-1,19.1-2.7,4.9-6.2,7.9-11,10.7-.6.4-1.2.7-1.9,1.1-5.3,2.1-12.1,1.7-17.6.2-6.3-2.8-10-7.7-13.5-13.5-2.1-7-2.5-14,.9-20.7,3.8-6,9.3-9.9,16-12.1,7.2-.9,13-.1,19,4l2,2q2,0,4-1t3.7-4.9c6.7-9.7,14.4-18.4,22.3-27.1,1.5-1.7,3-3.4,4.6-5.1,6.4-7.1,13.2-13.6,20.4-19.9,1.5-1.3,3-2.6,4.5-3.9,1.2-1,2.3-2,3.5-3.1-.7-.7-1.5-1.4-2.2-2.1-5.3-5.5-8.7-10.9-9.2-18.6.2-6.7,2.7-12.2,7.1-17.2,8.7-7.9,17.6-8.9,28.1-4.3Z"/>
  <path class="st2" d="M474,126c4.9,1.6,6.2,6.1,8.6,10.5.5,1,1.1,2,1.6,3,19.1,36.2,28.3,75.4,28.1,116.2q0,1.5,0,2.9c0,14.3-.4,28.4-3.3,42.4-.2,1-.4,2-.6,3-3.9,19-9.3,37.8-18.4,55-4.1-.5-5.9-2.6-8.7-5.4-.9-.9-1.8-1.8-2.7-2.8-.9-1-1.9-1.9-2.8-2.9-6.1-6.2-12.1-12.3-18.8-17.9-1-.9-2-1.8-3-2.6-15.3-13.1-31.5-26.3-49-36.4.3,1.1.6,2.2.9,3.3,6,22,10,44,12.1,66.7,0,1,.2,2.1.3,3.1.7,8.3.9,16.6.9,24.9q0,1,0,2.1,0,36.4-3.2,45.9c-5-.7-9.9-1.3-15-2,0-4.4,0-8.6.5-13,.6-5.4.7-10.8.8-16.2,0-1.1,0-2.1,0-3.2.3-35.3-2.5-68.2-11.7-102.3q-.6-2.3-.6-4.3c.9-.3,1.8-.6,2.7-.9,10.8-3.9,15.2-8,20.3-18.1,17.3,10.5,33.2,23,48.6,36,.6.5,1.1.9,1.7,1.4,1.5,1.3,3,2.5,4.5,3.8q2,1.9,4.3,1.7,3.5-13.4,6-27,.3-1.7.6-3.5c3.2-22.2,2.6-46.3-.6-68.5-.1-.9-.2-1.7-.4-2.6-3.2-21.6-8.3-47.9-20.6-66.4-.2.6-.4,1.2-.7,1.9-11.2,32.3-24.8,63.7-42.2,93.1q-.7,1.2-1.5,2.5t-1.4,2.2c-.4.6-.8,1.3-1.2,1.9-.4.4-.8.9-1.2,1.3-4,0-5.7-1.8-9-4-1.6-.7-3.3-1.4-5-2,1.3-4.6,3.2-8.2,5.8-12.2,21-34.2,34.9-71.8,47.2-109.8q1.3.5,2.6,1c3.6,1.1,6.6,1.3,10.4,1.3,1.2,0,2.4,0,3.6,0,3.8-.4,6.1-1.6,9.4-3.4Z"/>
  <path class="st3" d="M457,151c14.6,16.8,19,48.7,22,70,.1.8.2,1.6.4,2.5,4,29.7,2.1,59.4-4.1,88.5-.2.9-.4,1.7-.6,2.6-.6,2.3-1.5,4.3-2.7,6.4-3.4-1.5-5.9-3.5-8.8-5.8-1-.8-1.9-1.6-2.9-2.4-.5-.4-1.1-.9-1.6-1.3-10.3-8.6-20.7-16.8-31.7-24.4-1.3-.9-2.5-1.7-3.8-2.6-3.1-2.1-6.2-4.3-9.2-6.4q-1.9,2.8-3.2,5.1c-3.7,6.4-7.7,9.9-14.8,11.9-6.8.8-13.2,1.1-19-3-.8-.5-1.7-1-2.6-1.6-5.3-5.3-7.7-11.2-7.9-18.6.3-6.9,2.1-12.1,6.9-17.4,4.4-3.8,9.9-6.7,15.7-6.9,7.5.9,12.8,3.2,18.9,7.5,19.3-31.8,35.2-65,47-100.3q1-2.7,2-3.7Z"/>
  <path class="st3" d="M405,291c4.9,1.6,8.8,4.4,12.9,7.4.7.5,1.5,1.1,2.3,1.6,7.1,5.1,14,10.5,20.8,15.9q1.4,1.2,2.9,2.3c5.6,4.5,11,9.2,16.3,14.1,2.2,2,4.4,3.9,6.6,5.8,4.4,3.8,8.4,7.9,12.5,12,1.4,1.4,2.8,2.8,4.2,4.2.6.6,1.2,1.2,1.8,1.9q1.8,1.8,4.7,3.6c-7.6,15.9-16.2,31.1-27,45-.6.8-1.2,1.6-1.9,2.5-7.7,9.8-16.3,18.8-25,27.7-.6.7-1.3,1.3-1.9,2-3.2,3.2-5.7,5.7-10.2,6.9l-4.5-3.8q-1.5-1.3-3.5-2.2,0-1.2.2-2.4c2.2-29.4,2.8-58.3-.8-87.6-.3-2.4-.5-4.8-.8-7.2-.6-6.6-1.8-12.9-3.2-19.3-.2-.7-.3-1.4-.5-2.1-.8-3.5-1.6-7-2.4-10.5-.2-.7-.3-1.3-.5-2-.4-1.8-.9-3.6-1.3-5.4-.7-3.5-1.3-6.9-1.7-10.4Z"/>
  <path class="st8" d="M369,284c1.1.9,2.1,1.8,3.2,2.7.6.5,1.2,1,1.8,1.5,2.4,2.2,4.7,4.5,7,6.8-13.9,18.5-29.4,35.5-45.8,51.9-.5.5-1,1-1.5,1.5-5.7,5.8-11.6,11.3-17.7,16.6-1.1,1-2.2,1.9-3.3,2.9-7.9,6.9-16.1,13.4-24.6,19.6-2.2,1.6-4.3,3.2-6.5,4.8-36.8,27.1-82.7,55.3-127.7,65.8-.1-.6-.2-1.2-.4-1.8-.2-.8-.3-1.6-.5-2.4-.2-.8-.3-1.5-.5-2.3-.7-2.9-1.7-5.7-2.6-8.6,6.1-2.6,12.2-5.1,18.4-7.4,35.4-13.6,68.8-31.5,99.6-53.6.8-.6,1.6-1.2,2.4-1.7,9-6.5,17.9-13.1,26.3-20.4,2.1-1.8,4.3-3.7,6.4-5.5,8.5-7.2,16.5-14.8,24.4-22.7,2-2,3.9-4,5.9-5.9,6.1-6.1,12.1-12.2,17.6-18.8.6-.7,1.2-1.4,1.8-2.1,1.8-2.2,3.6-4.3,5.4-6.5q.9-1.1,1.8-2.2c3.2-3.9,6.3-7.9,9-12.2Z"/>
  <path class="st0" d="M413,277c16,9.7,30.7,21,45,33q.9.8,1.8,1.5,33.8,28.4,36.2,35.5-1.2,2.9-2.9,6.2c-.6,1.1-1.1,2.2-1.7,3.3-.4.8-.9,1.7-1.3,2.5-4.1-.5-5.9-2.6-8.7-5.4-.9-.9-1.8-1.8-2.7-2.8-.9-1-1.9-1.9-2.8-2.9-6.1-6.2-12.1-12.3-18.8-17.9-1-.9-2-1.8-3-2.6-15.3-13.1-31.5-26.3-49-36.4.3,1.1.6,2.2.9,3.3,6,22,10,44,12.1,66.7,0,1,.2,2.1.3,3.1.7,8.3.9,16.6.9,24.9q0,1,0,2.1,0,36.4-3.2,45.9c-5-.7-9.9-1.3-15-2,0-4.4,0-8.6.5-13,.6-5.4.7-10.8.8-16.2,0-1.1,0-2.1,0-3.2.3-35.3-2.5-68.2-11.7-102.3q-.6-2.3-.6-4.3c.9-.3,1.8-.6,2.7-.9,10.8-3.9,15.2-8,20.3-18.1Z"/>
  <path class="st8" d="M157,226q.8.6,1.6,1.2c3.7,2.8,6.9,5.4,11.4,6.8-.6,3.5-1.5,6.4-3.2,9.5-.4.9-.9,1.8-1.3,2.7-.5.9-1,1.9-1.4,2.9-9.6,19.5-16.4,40.1-21.4,61.2-.6,2.7-1.3,5.4-2,8.1-6.1,24.6-7.8,49.9-7.8,75.2q0,1.1,0,2.2c0,12.8.7,25.5,2.2,38.2-.7,0-1.5.1-2.2.2-1,0-2,.2-3,.3-1,0-1.9.2-2.9.2-2.7.3-5.3.7-7.9,1.3-2.3-15.2-2.3-30.7-2.3-46,0-1,0-2,0-3,0-18.3,1.4-35.9,4.3-54,.2-1,.3-2,.5-3,5.8-36.5,18.9-71.2,35.5-104Z"/>
  <path class="st8" d="M198,201c13.1,1.2,26.1,2.7,39,5,.9.2,1.7.3,2.6.5,41.6,7.6,82.1,21.9,120.2,40,1.1.5,2.1,1,3.3,1.5,1,.5,2,1,3,1.5q1.3.6,2.7,1.3c2.2,1.2,3.6,2.4,5.3,4.3-1.2,1.6-2.5,3.3-3.7,4.9-1.6,2.6-2.4,5.2-3.3,8.1-1.1-.5-2.3-1.1-3.5-1.7-5.2-2.5-10.4-4.9-15.5-7.3-.8-.4-1.6-.8-2.4-1.1-36.7-17.3-75.8-29.1-115.6-36.3-1.9-.4-3.9-.7-5.8-1.1-5.6-1-11.1-1.9-16.8-2.6-.7,0-1.4-.2-2.2-.3-1.7-.2-3.4-.4-5.2-.6,0-.7-.1-1.5-.2-2.2,0-1-.2-2-.3-3,0-1-.2-1.9-.2-2.9-.3-2.7-.7-5.3-1.3-7.9Z"/>
  <path class="st2" d="M466,338c5,4.2,9.7,8.6,14.2,13.2,1.2,1.2,2.4,2.5,3.6,3.7q.8.8,1.6,1.6t4.5,3.4c-7.6,15.9-16.2,31.1-27,45-.6.8-1.2,1.6-1.9,2.5-7.7,9.8-16.3,18.8-25,27.7-.6.7-1.3,1.3-1.9,2-3.2,3.2-5.7,5.7-10.2,6.9-1.5-1.3-3-2.5-4.5-3.8q-1.5-1.3-3.5-2.2c.3-6.6.7-13.2,1-20h3q1.5-1.3,2.9-3.1c.5-.7,1.1-1.3,1.6-2,.6-.7,1.1-1.4,1.7-2.2.6-.7,1.2-1.5,1.8-2.2,4.7-6,9-12.1,13-18.5.7-1,1.3-2.1,2-3.1,5.2-8.2,9.6-16.9,13.8-25.7.6-1.1,1.1-2.3,1.7-3.5,3.1-6.5,5.7-12.8,7.4-19.7Z"/>
  <path class="st0" d="M289,117c5.4,3.9,10.4,8,15.2,12.6.6.6,1.3,1.2,1.9,1.8,9,8.5,18,17.1,25.9,26.6.4.5.9,1.1,1.3,1.6q54.7,65.4,54.7,88.4c-.7.3-1.4.5-2,.8q-1.3.5-2.7,1.1c-.9.3-1.8.7-2.7,1.1-2.3.9-4.4,2-6.6,3.1-.4-.7-.7-1.5-1.1-2.2-13.5-27.9-28.8-54.1-48.9-77.8q-1.2-1.5-2.4-3c-6.5-7.8-13.5-15.1-20.6-22.3-.9-.9-1.8-1.8-2.8-2.8-6.1-6.1-12.4-11.6-19.2-16.9.8-.8,1.6-1.5,2.4-2.3,2.9-3,5.8-5.9,7.6-9.7Z"/>
  <path class="st0" d="M448,127c.9.3,1.8.6,2.7,1,2.8.9,5.2,1.4,8.2,1.7.8,0,1.6.1,2.4.2.6,0,1.2,0,1.8.1-8.3,40.8-27.8,81.4-48.8,117q-.7,1.2-1.5,2.5t-1.4,2.2-1.2,1.9c-.4.4-.8.9-1.2,1.3-4,0-5.7-1.8-9-4-1.6-.7-3.3-1.4-5-2,1.3-4.6,3.2-8.2,5.8-12.2,21-34.2,34.9-71.8,47.2-109.8Z"/>
  <path class="st7" d="M278.7,86.8c3.1,1.6,5.1,3.4,7.3,6.2.5.6.9,1.1,1.4,1.7,4.3,5.8,4.4,11.3,3.6,18.3-1.3,6.6-4.8,10.9-10,15-6.4,4-13.6,4-21,3-6.4-2.6-10.7-7.1-14-13-.4-.8-.9-1.5-1.3-2.3-1.9-7.5-1-13.6,2.8-20.4,7.7-11.2,19.2-13.7,31.3-8.5Z"/>
  <path class="st0" d="M140.9,198.9c1.5,0,3,0,4.4,0,3.6,0,7.1,0,10.7,0q-.5,1.2-.9,2.4c-1.2,4.2-1.7,8.2-2.1,12.6-1.1,0-2.2,0-3.3.1-23.7.9-47.1,2.3-70.7,5.9q-1.5.2-3,.4c-6.5,1-12.9,2-19.3,3.6-3.4.8-6.2,1.1-9.8.9-.1-.7-.2-1.3-.4-2-.2-.9-.3-1.8-.5-2.7-.2-.9-.3-1.7-.5-2.6-.6-2.7-1.6-5.1-2.6-7.7,16.6-3.6,33.2-6.5,50.1-8.3.7,0,1.5-.2,2.3-.2,15.2-1.6,30.3-2.6,45.6-2.5Z"/>
  <path class="st0" d="M154,48c31.7,7.7,62,20.4,90.3,36.7.7.4,1.4.8,2.1,1.2q1.9,1.1,4.6,3.1c0,3.4-.6,4.3-2.4,7-1.6,2.4-2.6,4.2-3.6,7-4.5-1.4-8.3-3.2-12.4-5.6-7.1-4.1-14.3-7.9-21.7-11.4-1.8-.9-3.6-1.8-5.4-2.7-15.9-7.7-32.8-13.4-49.7-18.3q-2.8-1-4.8-3,.5-1.2.9-2.5c.8-2.7,1.3-4.9,1.6-7.7.1-1.2.3-2.5.4-3.8Z"/>
  <path class="st0" d="M378,49l3,15c-1.2.4-2.5.8-3.7,1.2q-1.2.4-2.5.8c-1.8.6-3.7,1.2-5.5,1.8-25.1,8.2-51.8,18.4-73.7,33.4q-2.5,1.7-4.5,1.7c-.8-1.4-1.6-2.8-2.4-4.2-.4-.8-.9-1.6-1.3-2.4-1.1-2.1-2.2-4.2-3.3-6.4,23.5-16.2,64.4-41,94-41Z"/>
  <path class="st0" d="M247,118q1.5,1.6,3,3.8c1.8,2.6,3.7,4.9,6,7.2q-14.7,13.8-19.4,17.9c-6.8,5.8-12.8,12.3-18.6,19.1-.8.9-1.6,1.9-2.5,2.8-7.3,8.4-14,17.2-20.5,26.2-3.4-.7-5.2-1.9-8-4-2-1-4-2-6-3,4.8-8.2,10.4-15.3,16.7-22.5,1.9-2.2,3.7-4.5,5.5-6.8,4.1-5,8.4-9.8,12.9-14.5.7-.7,1.3-1.4,2-2.1,3.8-4.1,7.8-7.8,12-11.5,1.8-1.5,3.5-3.1,5.2-4.7.5-.5,1-.9,1.5-1.4,1-1,2-1.9,3-2.9q3.8-3.6,7.1-3.6Z"/>
  <path class="st6" d="M383,453c0,.8,0,1.6.1,2.4q.1,1.6.2,3.2t.2,3.1c.5,3.6,1.3,6.8,2.4,10.3-41.9,21.4-83.9,31.1-131,30v-2c1.2,0,2.5-.2,3.8-.3,20.4-1.6,40-5.9,59.2-12.7.8-.3,1.6-.6,2.4-.8,21.6-7.8,41.7-18.6,60.2-32.2q1.5-1,2.5-1Z"/>
  <path class="st6" d="M256,10c38.7-.6,93.7,1.9,125,28-.3,1.8-.7,3.6-1.1,5.4-.2,1-.4,2-.6,3q-1.3,2.6-4.4,4.2c-5.4.5-8-1.4-12.4-4.3-1.7-1-3.4-2.1-5.1-3.1-.9-.5-1.8-1.1-2.7-1.6-14.4-8.4-29.9-14.7-45.8-19.6-.9-.3-1.8-.5-2.7-.8-16.8-5.1-33.8-8-51.3-9.2l1-2Z"/>
  <path class="st4" d="M420,65c4.5.4,7.1,3.5,10.2,6.5.6.5,1.1,1.1,1.7,1.6,4.8,4.5,9.5,9.2,14.1,13.9-1.2,2.5-2.5,4.7-4.1,7-3.9,6.1-3.7,13-2.9,20,1.6,4.2,4.1,7.1,7.3,10.2q1.7,1.8,1.7,5.8h-2q-1.3-1.7-2.8-4c-.6-.9-1.1-1.7-1.7-2.6q-.9-1.4-1.8-2.8c-10.9-16.6-23.6-31.5-37.7-45.5.8-.2,1.6-.4,2.4-.7q7.3-2.1,13.1-6.6c.8-.9,1.6-1.8,2.5-2.7Z"/>
  <path class="st5" d="M438,117c3.4,1.1,4.4,2.2,6.7,4.8.6.7,1.2,1.4,1.9,2.1q1.4,2.1,1.4,6.1h-2c-1.4-1.9-2.8-3.9-4.1-5.9-.7-1.1-1.4-2.2-2.2-3.3q-1.7-2.7-1.7-3.7Z"/>
  <circle class="st1" cx="130.5" cy="51.2" r="23.9"/>
  <circle class="st1" cx="267.6" cy="107.9" r="23.9"/>
  <circle class="st1" cx="402" cy="50.7" r="23.9"/>
  <circle class="st1" cx="462" cy="106.9" r="23.9"/>
  <circle class="st1" cx="23.7" cy="222.9" r="23.9"/>
  <circle class="st1" cx="176" cy="210.9" r="23.9"/>
  <circle class="st1" cx="389.1" cy="271.5" r="23.9"/>
  <circle class="st1" cx="406.6" cy="459" r="23.9"/>
  <circle class="st1" cx="130.3" cy="458" r="23.9"/>
</svg>