<svg version="1.1" viewBox="0.0 0.0 680.0 149.0" fill="none" stroke="none" stroke-linecap="square" stroke-miterlimit="10" preserveAspectRatio="none" width="680" height="149" xmlns:xlink="http://www.w3.org/1999/xlink" xmlns="http://www.w3.org/2000/svg"><clipPath id="id_0"><path d="M0 0L680.0 0L680.0 149.0L0 149.0L0 0Z" clip-rule="nonzero"/></clipPath><path fill="#000000" fill-opacity="0.0" clip-path="url(#id_0)" d="M-98.975334 -83.82953L781.7686 -83.82953L781.7686 565.98016L-98.975334 565.98016Z" fill-rule="evenodd"/><path fill="#000000" fill-opacity="0.0" clip-path="url(#id_0)" d="M98.49392 84.310394L573.8876 84.310394" fill-rule="evenodd"/><path stroke="#595959" stroke-width="3.639787675131235" stroke-linejoin="round" stroke-linecap="butt" clip-path="url(#id_0)" d="M98.49393 84.310394L551.86896 84.310394" fill-rule="evenodd"/><path fill="#595959" stroke="#595959" stroke-width="3.639787675131235" stroke-linecap="butt" clip-path="url(#id_0)" d="M551.86896 90.27324L568.5227 84.310394L551.86896 78.34755Z" fill-rule="evenodd"/><path fill="#000000" fill-opacity="0.0" clip-path="url(#id_0)" d="M570.8002 112.418594L98.209404 112.418594" fill-rule="evenodd"/><path stroke="#595959" stroke-width="3.639787675131235" stroke-linejoin="round" stroke-linecap="butt" clip-path="url(#id_0)" d="M570.80023 112.418594L120.228004 112.418594" fill-rule="evenodd"/><path fill="#595959" stroke="#595959" stroke-width="3.639787675131235" stroke-linecap="butt" clip-path="url(#id_0)" d="M120.228004 106.45575L103.57424 112.418594L120.228004 118.38144Z" fill-rule="evenodd"/><path fill="#000000" fill-opacity="0.0" clip-path="url(#id_0)" d="M9.697133 71.29146L98.49392 71.29146L98.49392 97.32933L9.697133 97.32933Z" fill-rule="evenodd"/><path fill="#595959" clip-path="url(#id_0)" d="M27.805174 92.36194Q26.285662 92.36194 24.895164 91.86838Q23.504667 91.37482 22.54422 90.726135L23.504667 89.33006Q24.465113 89.978745 25.56891 90.35949Q26.687042 90.726135 28.091875 90.726135Q29.324686 90.726135 29.926758 90.28898Q30.52883 89.85182 30.52883 89.27365Q30.52883 88.991615 30.414148 88.751884Q30.299469 88.51215 29.969763 88.314735Q29.654392 88.1032 29.023651 87.90578Q28.39291 87.70836 27.389458 87.496826Q25.25354 87.05968 24.221418 86.31228Q23.20363 85.55078 23.20363 84.352135Q23.20363 83.01247 24.379103 82.13815Q25.554575 81.24974 27.805174 81.24974Q29.080992 81.24974 30.227793 81.6728Q31.388931 82.09585 32.206028 82.64582L31.202576 83.98549Q30.428484 83.49193 29.511042 83.195786Q28.593601 82.89965 27.604485 82.89965Q26.787388 82.89965 26.299997 83.08298Q25.82694 83.2663 25.59758 83.57654Q25.382555 83.87267 25.382555 84.23932Q25.382555 84.845695 26.070637 85.184135Q26.773052 85.52258 28.33557 85.846924Q30.098778 86.21357 31.04489 86.678925Q32.005337 87.13018 32.363712 87.72246Q32.736423 88.314735 32.736423 89.146736Q32.736423 90.03515 32.16302 90.76844Q31.58962 91.50173 30.500158 91.93889Q29.410698 92.36194 27.805174 92.36194ZM42.937195 92.36194Q41.303 92.36194 40.356888 91.81197Q39.425114 91.2479 39.02373 90.24667Q38.636684 89.24545 38.636684 87.93398L38.636684 83.2522L35.68367 83.2522L35.68367 81.64459L38.722694 81.51768L39.009396 78.17556L40.81561 78.17556L40.81561 81.51768L45.904545 81.51768L45.904545 83.2522L40.81561 83.2522L40.81561 87.93398Q40.81561 88.822395 41.059303 89.44287Q41.303 90.04925 41.8764 90.34539Q42.449802 90.641525 43.410248 90.641525Q44.141335 90.641525 44.729073 90.52871Q45.331142 90.401794 45.875874 90.20437L46.32026 91.75556Q45.603508 91.99529 44.772076 92.17862Q43.940643 92.36194 42.937195 92.36194ZM53.367325 92.36194Q51.27441 92.36194 49.998592 90.90946Q48.722775 89.44287 48.722775 86.81995Q48.722775 85.11363 49.41086 83.87267Q50.113274 82.617615 51.202736 81.94073Q52.30653 81.24974 53.539345 81.24974Q54.485455 81.24974 55.230877 81.60229Q55.99063 81.954834 56.621372 82.57531L56.69305 82.57531L56.57837 80.699776L56.57837 76.75128L58.757294 76.75128L58.757294 92.10811L56.979748 92.10811L56.807728 90.810745L56.736053 90.810745Q56.105312 91.43122 55.21654 91.89658Q54.342106 92.36194 53.367325 92.36194ZM53.86905 90.58512Q54.600136 90.58512 55.27388 90.232574Q55.947628 89.88003 56.57837 89.160835L56.57837 84.14061Q55.947628 83.54833 55.30255 83.3086Q54.67181 83.05477 54.026733 83.05477Q53.195305 83.05477 52.492886 83.50603Q51.804806 83.95728 51.38909 84.80339Q50.973373 85.6495 50.973373 86.80584Q50.973373 88.62497 51.73313 89.6121Q52.50722 90.58512 53.86905 90.58512ZM67.43855 92.10811L67.43855 83.2522L62.621983 83.2522L62.621983 81.51768L69.61748 81.51768L69.61748 92.10811L67.43855 92.10811ZM68.34166 79.45882Q67.639244 79.45882 67.16618 79.03577Q66.707466 78.61271 66.707466 77.92172Q66.707466 77.230736 67.16618 76.807686Q67.639244 76.384636 68.34166 76.384636Q69.044075 76.384636 69.50279 76.807686Q69.96152 77.230736 69.96152 77.92172Q69.96152 78.61271 69.50279 79.03577Q69.044075 79.45882 68.34166 79.45882ZM75.84744 92.10811L75.84744 81.51768L77.63932 81.51768L77.81134 83.22399L77.897354 83.22399Q78.71445 82.40609 79.66056 81.82792Q80.60667 81.24974 81.85382 81.24974Q83.731705 81.24974 84.620476 82.377884Q85.50925 83.49193 85.50925 85.55078L85.50925 92.10811L83.33032 92.10811L83.33032 85.83282Q83.33032 84.436745 82.81426 83.78806Q82.2982 83.12528 81.09406 83.12528Q80.23396 83.12528 79.545876 83.54833Q78.87213 83.95728 78.02637 84.80339L78.02637 92.10811L75.84744 92.10811Z" fill-rule="nonzero"/><path fill="#000000" fill-opacity="0.0" clip-path="url(#id_0)" d="M0 99.39966L98.21682 99.39966L98.21682 125.43753L0 125.43753Z" fill-rule="evenodd"/><path fill="#595959" clip-path="url(#id_0)" d="M16.212494 120.470146Q14.692981 120.470146 13.302483 119.97658Q11.911985 119.48302 10.951539 118.834335L11.911985 117.43826Q12.872433 118.086945 13.97623 118.46769Q15.094361 118.834335 16.499193 118.834335Q17.732006 118.834335 18.334076 118.39718Q18.936148 117.96003 18.936148 117.38185Q18.936148 117.099815 18.821468 116.86009Q18.706787 116.62036 18.37708 116.422935Q18.06171 116.21141 17.430971 116.013985Q16.80023 115.81656 15.796778 115.605034Q13.660859 115.16788 12.6287365 114.42048Q11.61095 113.65899 11.61095 112.460335Q11.61095 111.12067 12.786422 110.24636Q13.961894 109.35795 16.212494 109.35795Q17.48831 109.35795 18.635113 109.781Q19.79625 110.204056 20.613346 110.75402L19.609894 112.09369Q18.835802 111.60013 17.918362 111.30399Q17.00092 111.00785 16.011803 111.00785Q15.194706 111.00785 14.707315 111.19118Q14.23426 111.3745 14.004899 111.68474Q13.789874 111.98087 13.789874 112.34752Q13.789874 112.953896 14.477955 113.29234Q15.180371 113.63078 16.74289 113.955124Q18.506098 114.32177 19.45221 114.787125Q20.412655 115.23839 20.77103 115.83066Q21.143742 116.422935 21.143742 117.25494Q21.143742 118.14335 20.570341 118.87664Q19.996939 119.60993 18.907478 120.04709Q17.818016 120.470146 16.212494 120.470146ZM31.344511 120.470146Q29.71032 120.470146 28.764208 119.92017Q27.83243 119.3561 27.43105 118.35487Q27.044004 117.35365 27.044004 116.04218L27.044004 111.3604L24.09099 111.3604L24.09099 109.75279L27.130014 109.62588L27.416716 106.28376L29.222927 106.28376L29.222927 109.62588L34.311863 109.62588L34.311863 111.3604L29.222927 111.3604L29.222927 116.04218Q29.222927 116.930595 29.466623 117.55108Q29.71032 118.157455 30.28372 118.45359Q30.85712 118.749725 31.817568 118.749725Q32.548653 118.749725 33.13639 118.63691Q33.73846 118.509995 34.28319 118.31257L34.727577 119.86377Q34.010826 120.1035 33.179394 120.28682Q32.347965 120.470146 31.344511 120.470146ZM41.774643 120.470146Q39.68173 120.470146 38.40591 119.01766Q37.130093 117.55108 37.130093 114.92815Q37.130093 113.22183 37.818176 111.98087Q38.52059 110.725815 39.610054 110.048935Q40.713852 109.35795 41.946663 109.35795Q42.892773 109.35795 43.638195 109.71049Q44.397953 110.063034 45.028694 110.68351L45.10037 110.68351L44.985687 108.807976L44.985687 104.85948L47.16461 104.85948L47.16461 120.21631L45.38707 120.21631L45.21505 118.918945L45.14337 118.918945Q44.51263 119.53943 43.62386 120.00478Q42.749424 120.470146 41.774643 120.470146ZM42.276367 118.69332Q43.007454 118.69332 43.681202 118.340775Q44.354946 117.98823 44.985687 117.26904L44.985687 112.24881Q44.354946 111.65653 43.70987 111.4168Q43.07913 111.16297 42.43405 111.16297Q41.602623 111.16297 40.900208 111.61423Q40.212124 112.06548 39.79641 112.91159Q39.38069 113.7577 39.38069 114.91405Q39.38069 116.73317 40.14045 117.7203Q40.91454 118.69332 42.276367 118.69332ZM55.716854 120.470146Q54.297688 120.470146 53.07921 119.821465Q51.860733 119.17278 51.100975 117.93182Q50.34122 116.690865 50.34122 114.92815Q50.34122 113.17953 51.100975 111.93857Q51.860733 110.68351 53.07921 110.02073Q54.297688 109.35795 55.716854 109.35795Q57.121685 109.35795 58.340164 110.02073Q59.572975 110.68351 60.332733 111.93857Q61.092487 113.17953 61.092487 114.92815Q61.092487 116.690865 60.332733 117.93182Q59.572975 119.17278 58.340164 119.821465Q57.121685 120.470146 55.716854 120.470146ZM55.716854 118.72152Q56.662964 118.72152 57.365383 118.242065Q58.0678 117.7626 58.45484 116.930595Q58.84189 116.08449 58.84189 114.92815Q58.84189 113.8 58.45484 112.953896Q58.0678 112.09369 57.365383 111.61423Q56.662964 111.134766 55.716854 111.134766Q54.77074 111.134766 54.05399 111.61423Q53.351574 112.09369 52.964527 112.953896Q52.59182 113.8 52.59182 114.92815Q52.59182 116.08449 52.964527 116.930595Q53.351574 117.7626 54.05399 118.242065Q54.77074 118.72152 55.716854 118.72152ZM67.60915 120.470146Q65.716934 120.470146 64.81383 119.3702Q63.925056 118.27026 63.925056 116.183205L63.925056 109.62588L66.10398 109.62588L66.10398 115.90117Q66.10398 117.31135 66.62004 117.97413Q67.1361 118.63691 68.354576 118.63691Q69.214676 118.63691 69.88843 118.22796Q70.57651 117.81901 71.36494 116.87419L71.36494 109.62588L73.54385 109.62588L73.54385 120.21631L71.76631 120.21631L71.59429 118.46769L71.508286 118.46769Q70.70552 119.3561 69.77374 119.92017Q68.84197 120.470146 67.60915 120.470146ZM84.18901 120.470146Q82.55482 120.470146 81.60871 119.92017Q80.67693 119.3561 80.27555 118.35487Q79.888504 117.35365 79.888504 116.04218L79.888504 111.3604L76.93549 111.3604L76.93549 109.75279L79.97452 109.62588L80.261215 106.28376L82.06743 106.28376L82.06743 109.62588L87.156364 109.62588L87.156364 111.3604L82.06743 111.3604L82.06743 116.04218Q82.06743 116.930595 82.31113 117.55108Q82.55482 118.157455 83.12822 118.45359Q83.70162 118.749725 84.66207 118.749725Q85.39316 118.749725 85.98089 118.63691Q86.58296 118.509995 87.12769 118.31257L87.572075 119.86377Q86.85532 120.1035 86.023895 120.28682Q85.19247 120.470146 84.18901 120.470146Z" fill-rule="nonzero"/><path fill="#000000" fill-opacity="0.0" clip-path="url(#id_0)" d="M573.89307 71.29146L679.9985 71.29146L679.9985 97.32933L573.89307 97.32933Z" fill-rule="evenodd"/><path fill="#595959" clip-path="url(#id_0)" d="M594.04987 92.36194Q592.53033 92.36194 591.13983 91.86838Q589.7493 91.37482 588.7889 90.726135L589.7493 89.33006Q590.7098 89.978745 591.8136 90.35949Q592.9317 90.726135 594.33655 90.726135Q595.5694 90.726135 596.17145 90.28898Q596.7735 89.85182 596.7735 89.27365Q596.7735 88.991615 596.6588 88.751884Q596.5441 88.51215 596.2145 88.314735Q595.8991 88.1032 595.2683 87.90578Q594.6376 87.70836 593.63416 87.496826Q591.4982 87.05968 590.4661 86.31228Q589.4483 85.55078 589.4483 84.352135Q589.4483 83.01247 590.6238 82.13815Q591.79926 81.24974 594.04987 81.24974Q595.3257 81.24974 596.4725 81.6728Q597.6336 82.09585 598.4507 82.64582L597.44727 83.98549Q596.67316 83.49193 595.75574 83.195786Q594.83826 82.89965 593.8492 82.89965Q593.03204 82.89965 592.5447 83.08298Q592.07166 83.2663 591.8423 83.57654Q591.62726 83.87267 591.62726 84.23932Q591.62726 84.845695 592.3153 85.184135Q593.01776 85.52258 594.58026 85.846924Q596.34344 86.21357 597.28955 86.678925Q598.25 87.13018 598.6084 87.72246Q598.9811 88.314735 598.9811 89.146736Q598.9811 90.03515 598.4077 90.76844Q597.8343 91.50173 596.7449 91.93889Q595.6554 92.36194 594.04987 92.36194ZM609.1819 92.36194Q607.54767 92.36194 606.60156 91.81197Q605.6698 91.2479 605.26843 90.24667Q604.88135 89.24545 604.88135 87.93398L604.88135 83.2522L601.92834 83.2522L601.92834 81.64459L604.9674 81.51768L605.2541 78.17556L607.0603 78.17556L607.0603 81.51768L612.14923 81.51768L612.14923 83.2522L607.0603 83.2522L607.0603 87.93398Q607.0603 88.822395 607.304 89.44287Q607.54767 90.04925 608.1211 90.34539Q608.69446 90.641525 609.6549 90.641525Q610.38605 90.641525 610.97375 90.52871Q611.5758 90.401794 612.12054 90.20437L612.56494 91.75556Q611.8482 91.99529 611.0168 92.17862Q610.1853 92.36194 609.1819 92.36194ZM619.612 92.36194Q617.5191 92.36194 616.2433 90.90946Q614.96747 89.44287 614.96747 86.81995Q614.96747 85.11363 615.6555 83.87267Q616.358 82.617615 617.44745 81.94073Q618.5512 81.24974 619.78406 81.24974Q620.73016 81.24974 621.4756 81.60229Q622.2353 81.954834 622.8661 82.57531L622.93774 82.57531L622.82306 80.699776L622.82306 76.75128L625.00195 76.75128L625.00195 92.10811L623.2244 92.10811L623.0524 90.810745L622.9807 90.810745Q622.35 91.43122 621.46124 91.89658Q620.5868 92.36194 619.612 92.36194ZM620.1137 90.58512Q620.84485 90.58512 621.51855 90.232574Q622.1923 89.88003 622.82306 89.160835L622.82306 84.14061Q622.1923 83.54833 621.54724 83.3086Q620.9165 83.05477 620.2714 83.05477Q619.44 83.05477 618.73755 83.50603Q618.0495 83.95728 617.6338 84.80339Q617.2181 85.6495 617.2181 86.80584Q617.2181 88.62497 617.97784 89.6121Q618.7519 90.58512 620.1137 90.58512ZM633.5542 92.36194Q632.1351 92.36194 630.91656 91.71326Q629.6981 91.064575 628.93835 89.82362Q628.1786 88.582664 628.1786 86.81995Q628.1786 85.07133 628.93835 83.83037Q629.6981 82.57531 630.91656 81.91253Q632.1351 81.24974 633.5542 81.24974Q634.95905 81.24974 636.17755 81.91253Q637.41034 82.57531 638.1701 83.83037Q638.9299 85.07133 638.9299 86.81995Q638.9299 88.582664 638.1701 89.82362Q637.41034 91.064575 636.17755 91.71326Q634.95905 92.36194 633.5542 92.36194ZM633.5542 90.61332Q634.5003 90.61332 635.20276 90.13386Q635.90515 89.6544 636.29224 88.822395Q636.67926 87.97629 636.67926 86.81995Q636.67926 85.6918 636.29224 84.845695Q635.90515 83.98549 635.20276 83.50603Q634.5003 83.026566 633.5542 83.026566Q632.6081 83.026566 631.89136 83.50603Q631.18896 83.98549 630.8019 84.845695Q630.4292 85.6918 630.4292 86.81995Q630.4292 87.97629 630.8019 88.822395Q631.18896 89.6544 631.89136 90.13386Q632.6081 90.61332 633.5542 90.61332ZM645.44653 92.36194Q643.5543 92.36194 642.6512 91.262Q641.7624 90.16206 641.7624 88.075005L641.7624 81.51768L643.94135 81.51768L643.94135 87.79297Q643.94135 89.20314 644.4574 89.86593Q644.97345 90.52871 646.19196 90.52871Q647.05206 90.52871 647.72577 90.11976Q648.4139 89.71081 649.2023 88.76599L649.2023 81.51768L651.3812 81.51768L651.3812 92.10811L649.6037 92.10811L649.43164 90.35949L649.34564 90.35949Q648.5429 91.2479 647.6111 91.81197Q646.6793 92.36194 645.44653 92.36194ZM662.02637 92.36194Q660.3922 92.36194 659.44604 91.81197Q658.5143 91.2479 658.1129 90.24667Q657.7259 89.24545 657.7259 87.93398L657.7259 83.2522L654.7728 83.2522L654.7728 81.64459L657.8119 81.51768L658.0986 78.17556L659.9048 78.17556L659.9048 81.51768L664.9937 81.51768L664.9937 83.2522L659.9048 83.2522L659.9048 87.93398Q659.9048 88.822395 660.1485 89.44287Q660.3922 90.04925 660.9656 90.34539Q661.539 90.641525 662.49945 90.641525Q663.2305 90.641525 663.81824 90.52871Q664.42035 90.401794 664.965 90.20437L665.4094 91.75556Q664.6927 91.99529 663.86127 92.17862Q663.02985 92.36194 662.02637 92.36194Z" fill-rule="nonzero"/><path fill="#000000" fill-opacity="0.0" clip-path="url(#id_0)" d="M570.8002 99.39966L669.017 99.39966L669.017 125.43753L570.8002 125.43753Z" fill-rule="evenodd"/><path fill="#595959" clip-path="url(#id_0)" d="M593.6182 120.470146Q592.09875 120.470146 590.70825 119.97658Q589.31775 119.48302 588.3573 118.834335L589.31775 117.43826Q590.2782 118.086945 591.38196 118.46769Q592.5001 118.834335 593.90497 118.834335Q595.13776 118.834335 595.7398 118.39718Q596.3419 117.96003 596.3419 117.38185Q596.3419 117.099815 596.22723 116.86009Q596.11255 116.62036 595.78284 116.422935Q595.46747 116.21141 594.83673 116.013985Q594.206 115.81656 593.2025 115.605034Q591.0666 115.16788 590.0345 114.42048Q589.0167 113.65899 589.0167 112.460335Q589.0167 111.12067 590.1922 110.24636Q591.3676 109.35795 593.6182 109.35795Q594.89404 109.35795 596.04083 109.781Q597.202 110.204056 598.0191 110.75402L597.0156 112.09369Q596.2416 111.60013 595.3241 111.30399Q594.4067 111.00785 593.41754 111.00785Q592.60046 111.00785 592.11304 111.19118Q591.64 111.3745 591.41064 111.68474Q591.1956 111.98087 591.1956 112.34752Q591.1956 112.953896 591.8837 113.29234Q592.5861 113.63078 594.1486 113.955124Q595.91187 114.32177 596.858 114.787125Q597.8184 115.23839 598.17676 115.83066Q598.5495 116.422935 598.5495 117.25494Q598.5495 118.14335 597.9761 118.87664Q597.4027 119.60993 596.31323 120.04709Q595.22375 120.470146 593.6182 120.470146ZM608.75024 120.470146Q607.1161 120.470146 606.17 119.92017Q605.23816 119.3561 604.8368 118.35487Q604.44977 117.35365 604.44977 116.04218L604.44977 111.3604L601.49677 111.3604L601.49677 109.75279L604.53577 109.62588L604.82245 106.28376L606.62866 106.28376L606.62866 109.62588L611.7176 109.62588L611.7176 111.3604L606.62866 111.3604L606.62866 116.04218Q606.62866 116.930595 606.8724 117.55108Q607.1161 118.157455 607.68945 118.45359Q608.2629 118.749725 609.2233 118.749725Q609.9544 118.749725 610.5421 118.63691Q611.1442 118.509995 611.68896 118.31257L612.1333 119.86377Q611.41656 120.1035 610.58514 120.28682Q609.7537 120.470146 608.75024 120.470146ZM619.1804 120.470146Q617.08746 120.470146 615.81165 119.01766Q614.5358 117.55108 614.5358 114.92815Q614.5358 113.22183 615.22394 111.98087Q615.92633 110.725815 617.0158 110.048935Q618.11957 109.35795 619.3524 109.35795Q620.2985 109.35795 621.04395 109.71049Q621.8037 110.063034 622.43445 110.68351L622.5061 110.68351L622.3914 108.807976L622.3914 104.85948L624.5704 104.85948L624.5704 120.21631L622.79285 120.21631L622.6208 118.918945L622.54913 118.918945Q621.9184 119.53943 621.0296 120.00478Q620.15515 120.470146 619.1804 120.470146ZM619.6821 118.69332Q620.4132 118.69332 621.087 118.340775Q621.7607 117.98823 622.3914 117.26904L622.3914 112.24881Q621.7607 111.65653 621.1156 111.4168Q620.48486 111.16297 619.8398 111.16297Q619.00836 111.16297 618.30597 111.61423Q617.61786 112.06548 617.20215 112.91159Q616.78644 113.7577 616.78644 114.91405Q616.78644 116.73317 617.5462 117.7203Q618.3203 118.69332 619.6821 118.69332ZM633.2516 120.21631L633.2516 111.3604L628.43506 111.3604L628.43506 109.62588L635.43054 109.62588L635.43054 120.21631L633.2516 120.21631ZM634.1547 107.567024Q633.45233 107.567024 632.97925 107.14397Q632.5205 106.72092 632.5205 106.02993Q632.5205 105.33894 632.97925 104.915886Q633.45233 104.492836 634.1547 104.492836Q634.8571 104.492836 635.31586 104.915886Q635.7746 105.33894 635.7746 106.02993Q635.7746 106.72092 635.31586 107.14397Q634.8571 107.567024 634.1547 107.567024ZM641.6605 120.21631L641.6605 109.62588L643.4524 109.62588L643.6244 111.33219L643.7104 111.33219Q644.5275 110.51429 645.47363 109.93612Q646.41974 109.35795 647.6669 109.35795Q649.5448 109.35795 650.43353 110.486084Q651.3223 111.60013 651.3223 113.65899L651.3223 120.21631L649.1434 120.21631L649.1434 113.941025Q649.1434 112.544945 648.6273 111.89626Q648.11127 111.23348 646.9071 111.23348Q646.047 111.23348 645.35895 111.65653Q644.6852 112.06548 643.8394 112.91159L643.8394 120.21631L641.6605 120.21631Z" fill-rule="nonzero"/><path fill="#000000" fill-opacity="0.0" clip-path="url(#id_0)" d="M191.71278 0L480.67078 0L480.67078 43.747032L191.71278 43.747032Z" fill-rule="evenodd"/><path fill="#595959" clip-path="url(#id_0)" d="M266.42365 28.916533L266.42365 13.757127L273.2328 13.757127Q274.80966 13.757127 275.91345 14.208384Q277.01724 14.645538 277.5763 15.477543Q278.13538 16.309547 278.13538 17.479994Q278.13538 18.777357 277.4903 19.66577Q276.8452 20.554182 275.6124 20.86442L275.5694 20.441366Q276.60153 20.666996 277.36127 21.216965Q278.12103 21.752832 278.53674 22.542532Q278.95248 23.33223 278.95248 24.319355Q278.95248 25.4757 278.5511 26.335909Q278.16403 27.182014 277.4043 27.774288Q276.65887 28.35246 275.65543 28.634497Q274.6663 28.916533 273.4478 28.916533L266.42365 28.916533ZM269.95007 25.842346L273.31882 25.842346Q273.9352 25.842346 274.36526 25.64492Q274.79532 25.447496 275.039 25.066748Q275.2827 24.686 275.2827 24.150133Q275.2827 23.65657 275.02466 23.318129Q274.76663 22.965584 274.30792 22.78226Q273.8492 22.584837 273.20413 22.584837L269.95007 22.584837L269.95007 25.842346ZM269.95007 19.834991L272.7024 19.834991Q273.2758 19.834991 273.6772 19.651669Q274.0929 19.468344 274.29358 19.144003Q274.5086 18.805561 274.5086 18.326101Q274.5086 17.635115 274.0212 17.240265Q273.53384 16.831312 272.5734 16.831312L269.95007 16.831312L269.95007 19.834991ZM281.6866 28.916533L281.6866 17.409485L285.21304 17.409485L285.21304 28.916533L281.6866 28.916533ZM283.44983 15.1391Q282.46072 15.1391 281.88733 14.673741Q281.32825 14.208384 281.32825 13.348175Q281.32825 12.5584755 281.90164 12.064914Q282.47504 11.571352 283.44983 11.571352Q284.43893 11.571352 284.98367 12.03671Q285.54276 12.5020685 285.54276 13.348175Q285.54276 14.137875 284.96933 14.645538Q284.41028 15.1391 283.44983 15.1391ZM292.93936 29.156263Q291.41986 29.156263 290.23004 28.394768Q289.05457 27.61917 288.3665 26.2654Q287.69275 24.911629 287.69275 23.17711Q287.69275 21.442593 288.3665 20.088823Q289.05457 18.735052 290.2444 17.959455Q291.43417 17.169756 292.98236 17.169756Q293.77078 17.169756 294.5019 17.409485Q295.23297 17.649216 295.8207 18.07227Q296.40845 18.48122 296.78116 19.017088Q297.1682 19.538853 297.22552 20.102924L296.3941 20.300348L296.3941 12.882816L299.93484 12.882816L299.93484 28.916533L296.65213 28.916533L296.4658 26.293602L297.1682 26.406418Q297.09653 26.942284 296.72382 27.449947Q296.36545 27.94351 295.79202 28.324259Q295.23297 28.705006 294.48755 28.930634Q293.75647 29.156263 292.93936 29.156263ZM293.84247 26.279501Q294.65958 26.279501 295.2473 25.884651Q295.84937 25.489801 296.16473 24.798815Q296.4801 24.107828 296.4801 23.17711Q296.4801 22.218191 296.16473 21.527203Q295.84937 20.836216 295.2473 20.45547Q294.65958 20.06062 293.84247 20.06062Q293.0254 20.06062 292.43765 20.45547Q291.86423 20.836216 291.5202 21.527203Q291.1905 22.218191 291.1905 23.17711Q291.1905 24.107828 291.5202 24.798815Q291.86423 25.489801 292.43765 25.884651Q293.0254 26.279501 293.84247 26.279501ZM303.11066 28.916533L303.11066 17.409485L306.6371 17.409485L306.6371 28.916533L303.11066 28.916533ZM304.87387 15.1391Q303.88474 15.1391 303.31134 14.673741Q302.7523 14.208384 302.7523 13.348175Q302.7523 12.5584755 303.32568 12.064914Q303.89908 11.571352 304.87387 11.571352Q305.86298 11.571352 306.4077 12.03671Q306.96677 12.5020685 306.96677 13.348175Q306.96677 14.137875 306.39337 14.645538Q305.83432 15.1391 304.87387 15.1391ZM309.93387 28.916533L309.93387 17.409485L313.28827 17.409485L313.4316 21.160557L312.77222 20.441366Q313.0446 19.51065 313.64664 18.777357Q314.24872 18.044065 315.06583 17.60691Q315.8829 17.169756 316.80035 17.169756Q317.20172 17.169756 317.54578 17.240265Q317.8898 17.310774 318.1765 17.395384L317.20172 21.231066Q316.95804 21.075947 316.54233 20.977234Q316.14093 20.878521 315.69656 20.878521Q315.2235 20.878521 314.79346 21.047743Q314.37775 21.202862 314.09103 21.513102Q313.80432 21.809238 313.63232 22.232292Q313.47464 22.641243 313.47464 23.148907L313.47464 28.916533L309.93387 28.916533ZM325.04422 29.12806Q323.09467 29.12806 321.66116 28.366564Q320.24197 27.590965 319.43924 26.2654Q318.6508 24.925732 318.6508 23.219416Q318.6508 21.89385 319.09518 20.793911Q319.53958 19.693974 320.328 18.87607Q321.11642 18.058167 322.2059 17.621012Q323.29535 17.169756 324.59982 17.169756Q325.83264 17.169756 326.85043 17.60691Q327.88257 18.044065 328.628 18.833765Q329.3734 19.609362 329.77478 20.666996Q330.17615 21.724628 330.11884 22.979687L330.1045 23.910402L320.7867 23.910402L320.285 21.96436L327.2375 21.96436L326.86478 22.37331L326.86478 21.936155Q326.82178 21.400288 326.52072 20.977234Q326.23404 20.554182 325.74664 20.314451Q325.25925 20.07472 324.64285 20.07472Q323.78275 20.07472 323.18066 20.413164Q322.57858 20.751606 322.2632 21.400288Q321.9622 22.034866 321.9622 22.965584Q321.9622 23.910402 322.3636 24.615492Q322.76495 25.32058 323.55338 25.71543Q324.3418 26.096178 325.41693 26.096178Q326.16235 26.096178 326.73575 25.884651Q327.3235 25.673124 328.01157 25.15136L329.6601 27.449947Q328.98636 28.02812 328.21225 28.394768Q327.43817 28.761414 326.6354 28.944736Q325.83264 29.12806 325.04422 29.12806ZM337.50272 29.12806Q335.81116 29.12806 334.46368 28.35246Q333.11618 27.576864 332.32776 26.223093Q331.55368 24.869324 331.55368 23.148907Q331.55368 21.442593 332.32776 20.088823Q333.11618 18.735052 334.46368 17.959455Q335.81116 17.169756 337.50272 17.169756Q339.06522 17.169756 340.36972 17.719725Q341.68854 18.255592 342.46262 19.228615L340.54172 21.484898Q340.22635 21.146456 339.81064 20.850319Q339.39493 20.54008 338.87888 20.370857Q338.37714 20.187534 337.8324 20.187534Q337.00098 20.187534 336.3559 20.568283Q335.72516 20.94903 335.3668 21.625916Q335.00842 22.2887 335.00842 23.148907Q335.00842 23.980911 335.3668 24.657797Q335.7395 25.32058 336.37024 25.71543Q337.01532 26.096178 337.8324 26.096178Q338.40582 26.096178 338.8932 25.95516Q339.38058 25.814142 339.78198 25.532106Q340.18335 25.250072 340.54172 24.84112L342.43396 27.125607Q341.68854 28.056324 340.35538 28.592192Q339.02222 29.12806 337.50272 29.12806ZM345.34564 28.916533L345.34564 14.518622L348.85773 14.518622L348.85773 28.916533L345.34564 28.916533ZM343.26706 20.441366L343.26706 17.409485L351.137 17.409485L351.137 20.441366L343.26706 20.441366ZM353.33493 28.916533L353.33493 17.409485L356.86133 17.409485L356.86133 28.916533L353.33493 28.916533ZM355.09814 15.1391Q354.109 15.1391 353.5356 14.673741Q352.97656 14.208384 352.97656 13.348175Q352.97656 12.5584755 353.54996 12.064914Q354.12335 11.571352 355.09814 11.571352Q356.08725 11.571352 356.632 12.03671Q357.19104 12.5020685 357.19104 13.348175Q357.19104 14.137875 356.61765 14.645538Q356.0586 15.1391 355.09814 15.1391ZM365.66278 29.12806Q363.84225 29.12806 362.40875 28.35246Q360.98956 27.576864 360.15814 26.237196Q359.34103 24.883425 359.34103 23.148907Q359.34103 21.428492 360.15814 20.088823Q360.98956 18.735052 362.40875 17.959455Q363.84225 17.169756 365.66278 17.169756Q367.49768 17.169756 368.91684 17.959455Q370.336 18.735052 371.13876 20.088823Q371.95587 21.428492 371.95587 23.148907Q371.95587 24.883425 371.13876 26.237196Q370.336 27.576864 368.91684 28.35246Q367.49768 29.12806 365.66278 29.12806ZM365.66278 26.138483Q366.45123 26.138483 367.06763 25.757736Q367.68402 25.362886 368.04242 24.700102Q368.4008 24.023218 368.3721 23.148907Q368.4008 22.2887 368.04242 21.611814Q367.68402 20.920828 367.06763 20.54008Q366.45123 20.14523 365.66278 20.14523Q364.87436 20.14523 364.24362 20.54008Q363.61288 20.920828 363.25452 21.611814Q362.91046 22.2887 362.93915 23.148907Q362.91046 24.023218 363.25452 24.700102Q363.61288 25.362886 364.24362 25.757736Q364.87436 26.138483 365.66278 26.138483ZM374.27203 28.916533L374.27203 17.409485L377.62643 17.409485L377.72678 19.75038L377.02435 20.018314Q377.26804 19.228615 377.8988 18.594034Q378.52954 17.959455 379.40396 17.564606Q380.2784 17.169756 381.25317 17.169756Q382.57202 17.169756 383.47513 17.705624Q384.37823 18.24149 384.83694 19.299124Q385.31 20.342655 385.31 21.851543L385.31 28.916533L381.7549 28.916533L381.7549 22.13358Q381.7549 21.442593 381.55423 20.991337Q381.36786 20.54008 380.95215 20.314451Q380.55078 20.07472 379.9487 20.102924Q379.49 20.102924 379.0886 20.243942Q378.70154 20.38496 378.41486 20.652893Q378.12814 20.920828 377.95612 21.27337Q377.79843 21.611814 377.79843 22.034866L377.79843 28.916533L376.04956 28.916533Q375.43317 28.916533 374.98877 28.916533Q374.55872 28.916533 374.27203 28.916533ZM392.56863 29.113956Q391.09213 29.113956 389.931 28.35246Q388.7842 27.576864 388.0961 26.223093Q387.42236 24.869324 387.42236 23.148907Q387.42236 21.400288 388.0961 20.06062Q388.7842 18.720951 389.974 17.945353Q391.16382 17.169756 392.68332 17.169756Q393.51474 17.169756 394.20285 17.409485Q394.90524 17.649216 395.43564 18.07227Q395.96603 18.495323 396.33875 19.059393Q396.71146 19.609362 396.88348 20.229841L396.1524 20.14523L396.1524 17.409485L399.6645 17.409485L399.6645 28.916533L396.09506 28.916533L396.09506 26.138483L396.88348 26.124382Q396.71146 26.730757 396.3101 27.280727Q395.92303 27.816595 395.34964 28.225546Q394.77625 28.634497 394.05948 28.874228Q393.35706 29.113956 392.56863 29.113956ZM393.54343 26.180788Q394.36053 26.180788 394.94824 25.814142Q395.53598 25.447496 395.8657 24.77061Q396.20975 24.079624 396.20975 23.148907Q396.20975 22.218191 395.8657 21.541306Q395.53598 20.86442 394.94824 20.483673Q394.36053 20.102924 393.54343 20.102924Q392.74066 20.102924 392.15292 20.483673Q391.57953 20.86442 391.24982 21.541306Q390.9201 22.218191 390.9201 23.148907Q390.9201 24.079624 391.24982 24.77061Q391.57953 25.447496 392.15292 25.814142Q392.74066 26.180788 393.54343 26.180788ZM402.7927 28.916533L402.7927 12.882816L406.30475 12.882816L406.30475 28.916533L402.7927 28.916533Z" fill-rule="nonzero"/><path fill="#a4c2f4" clip-path="url(#id_0)" d="M138.26031 60.50271L224.54936 60.50271L224.54936 145.38771L138.26031 145.38771Z" fill-rule="evenodd"/><path stroke="#a4c2f4" stroke-width="7.27957535026247" stroke-linejoin="round" stroke-linecap="butt" clip-path="url(#id_0)" d="M138.26031 60.50271L224.54936 60.50271L224.54936 145.38771L138.26031 145.38771Z" fill-rule="evenodd"/><path fill="#a4c2f4" clip-path="url(#id_0)" d="M125.399925 65.24688L181.40483 13.043966L237.40974 65.24688Z" fill-rule="evenodd"/><path stroke="#a4c2f4" stroke-width="7.27957535026247" stroke-linejoin="round" stroke-linecap="butt" clip-path="url(#id_0)" d="M125.399925 65.24688L181.40483 13.043966L237.40974 65.24688Z" fill-rule="evenodd"/><path fill="#3c78d8" clip-path="url(#id_0)" d="M134.01381 56.03508L220.30286 56.03508L220.30286 140.92007L134.01381 140.92007Z" fill-rule="evenodd"/><path stroke="#3c78d8" stroke-width="7.27957535026247" stroke-linejoin="round" stroke-linecap="butt" clip-path="url(#id_0)" d="M134.01381 56.03508L220.30286 56.03508L220.30286 140.92007L134.01381 140.92007Z" fill-rule="evenodd"/><path fill="#ffffff" clip-path="url(#id_0)" d="M152.4787 107.11463Q150.64381 107.11463 149.09564 106.508255Q147.54745 105.90188 146.415 104.80194Q145.28252 103.6879 144.66612 102.16491Q144.04971 100.641914 144.04971 98.822784Q144.04971 97.03186 144.69478 95.52297Q145.33986 94.014084 146.48666 92.91415Q147.6478 91.8001 149.21031 91.193726Q150.78717 90.57325 152.63638 90.57325Q153.81186 90.57325 154.91566 90.869385Q156.03378 91.16553 156.99423 91.7437Q157.96902 92.32187 158.6571 93.12567L156.24881 95.84731Q155.76143 95.33965 155.21669 94.97301Q154.67197 94.592255 154.01256 94.39483Q153.36748 94.183304 152.62206 94.183304Q151.69028 94.183304 150.85884 94.52174Q150.04175 94.846085 149.42534 95.45246Q148.80894 96.05884 148.45056 96.93315Q148.10652 97.79336 148.10652 98.86509Q148.10652 99.92273 148.45056 100.782936Q148.80894 101.62904 149.43968 102.24952Q150.07042 102.869995 150.9592 103.194336Q151.84796 103.50458 152.95177 103.50458Q153.68285 103.50458 154.3566 103.30715Q155.03033 103.09563 155.60374 102.74308Q156.17714 102.39053 156.62152 101.92518L158.52809 104.90065Q157.94035 105.53523 156.9799 106.04289Q156.01945 106.55056 154.84398 106.832596Q153.66852 107.11463 152.4787 107.11463ZM160.85 106.889L160.85 89.96687L164.56277 89.96687L164.56277 106.889L160.85 106.889ZM168.10045 106.889L168.10045 94.747375L171.81322 94.747375L171.81322 106.889L168.10045 106.889ZM169.94968 92.350075Q168.90321 92.350075 168.31548 91.856514Q167.72774 91.36295 167.72774 90.446335Q167.72774 89.62843 168.32982 89.10667Q168.93188 88.5849 169.94968 88.5849Q170.99612 88.5849 171.56953 89.07846Q172.15726 89.55792 172.15726 90.446335Q172.15726 91.29244 171.56953 91.82831Q170.9818 92.350075 169.94968 92.350075ZM181.17542 107.11463Q179.13985 107.11463 177.62033 106.31083Q176.11516 105.49293 175.2694 104.09685Q174.43796 102.686676 174.43796 100.881645Q174.43796 99.48557 174.89668 98.315125Q175.36974 97.14468 176.20117 96.29857Q177.04694 95.43836 178.19374 94.97301Q179.34055 94.493546 180.7167 94.493546Q182.0212 94.493546 183.09631 94.9589Q184.17145 95.41016 184.95987 96.242165Q185.76263 97.06007 186.17834 98.18821Q186.59406 99.302246 186.55106 100.627815L186.52238 101.61494L176.68855 101.61494L176.15816 99.55608L183.4977 99.55608L183.11066 99.97913L183.11066 99.52788Q183.06764 98.963806 182.75227 98.51255Q182.4369 98.061295 181.92084 97.82156Q181.40479 97.56773 180.7597 97.56773Q179.8566 97.56773 179.21152 97.92027Q178.58078 98.27282 178.25108 98.94971Q177.92137 99.62659 177.92137 100.59961Q177.92137 101.61494 178.35143 102.362335Q178.78148 103.09563 179.59857 103.50458Q180.43001 103.91353 181.5768 103.91353Q182.36523 103.91353 182.98163 103.6879Q183.59804 103.46227 184.31479 102.9123L186.06366 105.33781Q185.33258 105.95828 184.51549 106.353134Q183.71272 106.73388 182.86696 106.917206Q182.0212 107.11463 181.17542 107.11463ZM188.91501 106.889L188.91501 94.747375L192.44142 94.747375L192.57043 97.21519L191.82501 97.49722Q192.08304 96.665215 192.74246 96.00243Q193.40187 95.32555 194.33365 94.916595Q195.26543 94.493546 196.28322 94.493546Q197.6737 94.493546 198.61983 95.05762Q199.58026 95.62169 200.06766 96.735725Q200.55505 97.83566 200.55505 99.44327L200.55505 106.889L196.81361 106.889L196.81361 99.7394Q196.81361 99.00611 196.59859 98.52665Q196.39789 98.04719 195.96783 97.80746Q195.5378 97.56773 194.90704 97.58183Q194.41966 97.58183 194.00394 97.73695Q193.58823 97.87797 193.28719 98.1741Q192.98616 98.45614 192.7998 98.822784Q192.62778 99.18943 192.62778 99.62659L192.62778 106.889L190.7929 106.889Q190.14781 106.889 189.67476 106.889Q189.21603 106.889 188.91501 106.889ZM204.68835 106.889L204.68835 91.687294L208.41545 91.687294L208.41545 106.889L204.68835 106.889ZM202.50943 97.94848L202.50943 94.747375L210.8094 94.747375L210.8094 97.94848L202.50943 97.94848Z" fill-rule="nonzero"/><path fill="#3c78d8" clip-path="url(#id_0)" d="M121.15342 60.77925L177.15834 8.576338L233.16324 60.77925Z" fill-rule="evenodd"/><path stroke="#3c78d8" stroke-width="7.27957535026247" stroke-linejoin="round" stroke-linecap="butt" clip-path="url(#id_0)" d="M121.15342 60.77925L177.15834 8.576338L233.16324 60.77925Z" fill-rule="evenodd"/><path fill="#a4c2f4" clip-path="url(#id_0)" d="M446.5207 60.50271L532.80975 60.50271L532.80975 145.38771L446.5207 145.38771Z" fill-rule="evenodd"/><path stroke="#a4c2f4" stroke-width="7.27957535026247" stroke-linejoin="round" stroke-linecap="butt" clip-path="url(#id_0)" d="M446.5207 60.50271L532.80975 60.50271L532.80975 145.38771L446.5207 145.38771Z" fill-rule="evenodd"/><path fill="#a4c2f4" clip-path="url(#id_0)" d="M433.6603 65.24688L489.66522 13.043966L545.6701 65.24688Z" fill-rule="evenodd"/><path stroke="#a4c2f4" stroke-width="7.27957535026247" stroke-linejoin="round" stroke-linecap="butt" clip-path="url(#id_0)" d="M433.6603 65.24688L489.66522 13.043966L545.6701 65.24688Z" fill-rule="evenodd"/><path fill="#3c78d8" clip-path="url(#id_0)" d="M442.27417 56.03508L528.56323 56.03508L528.56323 140.92007L442.27417 140.92007Z" fill-rule="evenodd"/><path stroke="#3c78d8" stroke-width="7.27957535026247" stroke-linejoin="round" stroke-linecap="butt" clip-path="url(#id_0)" d="M442.27417 56.03508L528.56323 56.03508L528.56323 140.92007L442.27417 140.92007Z" fill-rule="evenodd"/><path fill="#ffffff" clip-path="url(#id_0)" d="M458.84897 105.425804Q457.50146 105.425804 456.41202 105.11556Q455.32254 104.79122 454.47678 104.184845Q453.64536 103.57847 452.9716 102.74647L454.99283 100.49018Q455.96762 101.787544 456.95673 102.2247Q457.94586 102.66186 459.00665 102.66186Q459.53705 102.66186 459.9671 102.534935Q460.39716 102.39392 460.6265 102.14009Q460.85587 101.872154 460.85587 101.49141Q460.85587 101.20937 460.71252 100.98374Q460.56915 100.74401 460.31113 100.57479Q460.0531 100.39147 459.69473 100.25045Q459.35068 100.109436 458.96365 100.01072Q458.5766 99.8979 458.1609 99.81329Q457.0284 99.57356 456.18265 99.20692Q455.33688 98.84027 454.7778 98.31851Q454.2331 97.78264 453.94638 97.10576Q453.674 96.41477 453.674 95.568665Q453.674 94.666145 454.08972 93.904655Q454.51978 93.14316 455.23654 92.593185Q455.95328 92.04322 456.88507 91.747086Q457.83118 91.45094 458.84897 91.45094Q460.19644 91.45094 461.1569 91.73298Q462.13168 92.000916 462.81976 92.52268Q463.5222 93.04445 464.00958 93.77774L461.95966 95.723785Q461.54395 95.21612 461.05655 94.89178Q460.5835 94.56744 460.03876 94.39822Q459.50836 94.21489 458.9493 94.21489Q458.36157 94.21489 457.93152 94.37001Q457.5158 94.51103 457.2721 94.77896Q457.04276 95.0328 457.04276 95.38534Q457.04276 95.723785 457.24344 95.94941Q457.44412 96.17504 457.77383 96.35836Q458.10355 96.54169 458.5336 96.6686Q458.96365 96.79552 459.4367 96.88013Q460.5118 97.09165 461.37192 97.4442Q462.24637 97.78264 462.8771 98.290306Q463.5222 98.78387 463.8662 99.47485Q464.21027 100.15174 464.21027 101.05425Q464.21027 102.450325 463.50784 103.42335Q462.81976 104.39637 461.61563 104.91814Q460.41147 105.425804 458.84897 105.425804ZM471.32635 105.425804Q469.60614 105.425804 468.33032 104.74892Q467.06885 104.05793 466.3521 102.87338Q465.6497 101.688835 465.6497 100.16584Q465.6497 98.99539 466.03674 98.02237Q466.4381 97.03525 467.14053 96.316055Q467.84296 95.58276 468.80338 95.18791Q469.77817 94.79307 470.9393 94.79307Q472.02878 94.79307 472.9319 95.18791Q473.8493 95.568665 474.50873 96.25965Q475.18246 96.95064 475.52652 97.895454Q475.8849 98.84027 475.85623 99.954315L475.82755 100.786316L467.55624 100.786316L467.09753 99.0518L473.29025 99.0518L472.96054 99.41845L472.96054 99.0236Q472.91754 98.544136 472.64517 98.17749Q472.38715 97.796745 471.9571 97.58521Q471.52704 97.37369 470.9823 97.37369Q470.20822 97.37369 469.66348 97.66983Q469.1331 97.965965 468.86072 98.544136Q468.58838 99.10821 468.58838 99.94021Q468.58838 100.786316 468.94675 101.4068Q469.31946 102.027275 470.00754 102.37982Q470.70996 102.73236 471.65607 102.73236Q472.3298 102.73236 472.84586 102.534935Q473.36194 102.33752 473.97833 101.872154L475.44052 103.916916Q474.83844 104.438675 474.15036 104.763016Q473.46228 105.08736 472.7455 105.256584Q472.02878 105.425804 471.32635 105.425804ZM477.84726 105.22838L477.84726 95.00459L480.8146 95.00459L480.95798 98.33261L480.37024 97.69803Q480.59958 96.88013 481.12997 96.231445Q481.6747 95.568665 482.39148 95.18791Q483.12256 94.79307 483.95398 94.79307Q484.29803 94.79307 484.59906 94.84947Q484.91443 94.905876 485.15814 94.990486L484.29803 98.389015Q484.083 98.2621 483.72464 98.17749Q483.36624 98.09288 482.97922 98.09288Q482.54916 98.09288 482.17645 98.233894Q481.80374 98.374916 481.54572 98.64285Q481.28766 98.91078 481.14432 99.27743Q481.00098 99.64407 481.00098 100.109436L481.00098 105.22838L477.84726 105.22838ZM490.9114 105.22838L486.5679 95.00459L490.03696 95.00459L492.61728 102.64775L491.8575 102.73236L494.52383 95.00459L497.93558 95.00459L493.377 105.22838L490.9114 105.22838ZM504.21927 105.425804Q502.49908 105.425804 501.22327 104.74892Q499.9618 104.05793 499.24503 102.87338Q498.5426 101.688835 498.5426 100.16584Q498.5426 98.99539 498.92966 98.02237Q499.33105 97.03525 500.03345 96.316055Q500.73587 95.58276 501.69632 95.18791Q502.6711 94.79307 503.83224 94.79307Q504.9217 94.79307 505.8248 95.18791Q506.74225 95.568665 507.40167 96.25965Q508.0754 96.95064 508.41943 97.895454Q508.77783 98.84027 508.74915 99.954315L508.7205 100.786316L500.4492 100.786316L499.99045 99.0518L506.18317 99.0518L505.8535 99.41845L505.8535 99.0236Q505.8105 98.544136 505.53812 98.17749Q505.2801 97.796745 504.85004 97.58521Q504.41998 97.37369 503.87524 97.37369Q503.10117 97.37369 502.55643 97.66983Q502.02603 97.965965 501.75366 98.544136Q501.4813 99.10821 501.4813 99.94021Q501.4813 100.786316 501.83966 101.4068Q502.21237 102.027275 502.90045 102.37982Q503.60287 102.73236 504.54898 102.73236Q505.22275 102.73236 505.7388 102.534935Q506.25485 102.33752 506.87128 101.872154L508.33344 103.916916Q507.73135 104.438675 507.04327 104.763016Q506.3552 105.08736 505.63846 105.256584Q504.9217 105.425804 504.21927 105.425804ZM510.7402 105.22838L510.7402 95.00459L513.7075 95.00459L513.8509 98.33261L513.2632 97.69803Q513.4925 96.88013 514.0229 96.231445Q514.5676 95.568665 515.2844 95.18791Q516.0155 94.79307 516.8469 94.79307Q517.191 94.79307 517.492 94.84947Q517.8074 94.905876 518.0511 94.990486L517.191 98.389015Q516.97595 98.2621 516.61755 98.17749Q516.25916 98.09288 515.87213 98.09288Q515.4421 98.09288 515.0694 98.233894Q514.69666 98.374916 514.43866 98.64285Q514.1806 98.91078 514.03723 99.27743Q513.8939 99.64407 513.8939 100.109436L513.8939 105.22838L510.7402 105.22838Z" fill-rule="nonzero"/><path fill="#3c78d8" clip-path="url(#id_0)" d="M429.4138 60.77925L485.4187 8.576338L541.42365 60.77925Z" fill-rule="evenodd"/><path stroke="#3c78d8" stroke-width="7.27957535026247" stroke-linejoin="round" stroke-linecap="butt" clip-path="url(#id_0)" d="M429.4138 60.77925L485.4187 8.576338L541.42365 60.77925Z" fill-rule="evenodd"/></svg>