<svg version="1.1" viewBox="0.0 0.0 1280.0 960.0" fill="none" stroke="none" stroke-linecap="square" stroke-miterlimit="10" xmlns:xlink="http://www.w3.org/1999/xlink" xmlns="http://www.w3.org/2000/svg"><clipPath id="p.0"><path d="m0 0l1280.0 0l0 960.0l-1280.0 0l0 -960.0z" clip-rule="nonzero"/></clipPath><g clip-path="url(#p.0)"><path fill="#000000" fill-opacity="0.0" d="m0 0l1280.0 0l0 960.0l-1280.0 0z" fill-rule="evenodd"/><path fill="#3c78d8" d="m360.90552 817.80316l78.61417 0l0 78.614136l-78.61417 0z" fill-rule="evenodd"/><path stroke="#3c78d8" stroke-width="8.0" stroke-linejoin="round" stroke-linecap="butt" d="m360.90552 817.80316l78.61417 0l0 78.614136l-78.61417 0z" fill-rule="evenodd"/><path fill="#ffffff" d="m376.93753 863.12646q-1.109375 0 -2.0 -0.265625q-0.890625 -0.265625 -1.578125 -0.765625q-0.6875 -0.5 -1.234375 -1.1875l1.65625 -1.875q0.796875 1.078125 1.609375 1.453125q0.8125 0.359375 1.671875 0.359375q0.4375 0 0.78125 -0.109375q0.359375 -0.125 0.546875 -0.328125q0.1875 -0.21875 0.1875 -0.546875q0 -0.234375 -0.125 -0.421875q-0.109375 -0.203125 -0.328125 -0.34375q-0.203125 -0.140625 -0.5 -0.25q-0.28125 -0.125 -0.609375 -0.21875q-0.3125 -0.09375 -0.640625 -0.15625q-0.9375 -0.203125 -1.625 -0.5q-0.6875 -0.3125 -1.140625 -0.75q-0.453125 -0.4375 -0.6875 -1.0q-0.21875 -0.578125 -0.21875 -1.28125q0 -0.75 0.34375 -1.375q0.34375 -0.640625 0.921875 -1.09375q0.59375 -0.453125 1.359375 -0.703125q0.765625 -0.25 1.609375 -0.25q1.09375 0 1.890625 0.234375q0.796875 0.234375 1.359375 0.671875q0.5625 0.421875 0.96875 1.03125l-1.6875 1.609375q-0.328125 -0.40625 -0.71875 -0.671875q-0.390625 -0.28125 -0.84375 -0.421875q-0.4375 -0.15625 -0.890625 -0.15625q-0.484375 0 -0.828125 0.125q-0.34375 0.125 -0.546875 0.34375q-0.1875 0.203125 -0.1875 0.515625q0 0.265625 0.15625 0.46875q0.171875 0.1875 0.4375 0.34375q0.28125 0.140625 0.625 0.25q0.359375 0.09375 0.734375 0.171875q0.890625 0.171875 1.59375 0.46875q0.71875 0.28125 1.234375 0.703125q0.515625 0.40625 0.796875 0.984375q0.28125 0.5625 0.28125 1.3125q0 1.171875 -0.5625 1.984375q-0.5625 0.796875 -1.546875 1.21875q-0.984375 0.421875 -2.265625 0.421875zm10.206543 0q-1.40625 0 -2.453125 -0.5625q-1.03125 -0.5625 -1.609375 -1.546875q-0.578125 -0.984375 -0.578125 -2.25q0 -0.984375 0.3125 -1.796875q0.328125 -0.8125 0.90625 -1.40625q0.578125 -0.609375 1.359375 -0.9375q0.796875 -0.328125 1.734375 -0.328125q0.90625 0 1.640625 0.328125q0.75 0.3125 1.296875 0.890625q0.546875 0.578125 0.828125 1.359375q0.28125 0.78125 0.25 1.703125l-0.015625 0.6875l-6.765625 0l-0.359375 -1.4375l5.046875 0l-0.265625 0.3125l0 -0.328125q-0.03125 -0.390625 -0.25 -0.703125q-0.21875 -0.3125 -0.578125 -0.484375q-0.34375 -0.1875 -0.796875 -0.1875q-0.625 0 -1.0625 0.25q-0.4375 0.25 -0.671875 0.71875q-0.21875 0.46875 -0.21875 1.15625q0 0.703125 0.296875 1.234375q0.296875 0.515625 0.859375 0.8125q0.578125 0.28125 1.359375 0.28125q0.546875 0 0.96875 -0.15625q0.421875 -0.171875 0.921875 -0.546875l1.203125 1.6875q-0.5 0.4375 -1.0625 0.71875q-0.5625 0.265625 -1.140625 0.390625q-0.578125 0.140625 -1.15625 0.140625zm5.329132 -0.15625l0 -8.5l2.421875 0l0.078125 1.734375l-0.5 0.1875q0.171875 -0.578125 0.625 -1.046875q0.453125 -0.46875 1.09375 -0.75q0.640625 -0.296875 1.34375 -0.296875q0.96875 0 1.625 0.390625q0.65625 0.390625 0.984375 1.171875q0.34375 0.765625 0.34375 1.890625l0 5.21875l-2.578125 0l0 -5.015625q0 -0.5 -0.15625 -0.828125q-0.140625 -0.34375 -0.4375 -0.515625q-0.28125 -0.171875 -0.71875 -0.15625q-0.34375 0 -0.625 0.109375q-0.28125 0.109375 -0.5 0.3125q-0.203125 0.1875 -0.328125 0.453125q-0.109375 0.25 -0.109375 0.546875l0 5.09375l-1.265625 0q-0.453125 0 -0.78125 0q-0.3125 0 -0.515625 0zm13.378784 0.171875q-1.109375 0 -1.96875 -0.5625q-0.859375 -0.5625 -1.359375 -1.5625q-0.484375 -1.0 -0.484375 -2.28125q0 -1.28125 0.484375 -2.28125q0.5 -1.0 1.359375 -1.578125q0.875 -0.578125 2.0 -0.578125q0.5625 0 1.09375 0.1875q0.53125 0.171875 0.953125 0.46875q0.4375 0.296875 0.703125 0.703125q0.28125 0.390625 0.328125 0.796875l-0.609375 0.140625l0 -5.46875l2.578125 0l0 11.84375l-2.375 0l-0.15625 -1.9375l0.515625 0.078125q-0.046875 0.40625 -0.3125 0.78125q-0.265625 0.359375 -0.6875 0.640625q-0.40625 0.28125 -0.953125 0.4375q-0.53125 0.171875 -1.109375 0.171875zm0.65625 -2.125q0.578125 0 1.015625 -0.28125q0.4375 -0.296875 0.65625 -0.796875q0.234375 -0.515625 0.234375 -1.203125q0 -0.703125 -0.234375 -1.21875q-0.21875 -0.515625 -0.65625 -0.796875q-0.4375 -0.296875 -1.015625 -0.296875q-0.59375 0 -1.03125 0.296875q-0.421875 0.28125 -0.65625 0.796875q-0.234375 0.515625 -0.234375 1.21875q0 0.6875 0.234375 1.203125q0.234375 0.5 0.65625 0.796875q0.4375 0.28125 1.03125 0.28125zm10.635895 2.109375q-1.40625 0 -2.453125 -0.5625q-1.03125 -0.5625 -1.609375 -1.546875q-0.578125 -0.984375 -0.578125 -2.25q0 -0.984375 0.3125 -1.796875q0.328125 -0.8125 0.90625 -1.40625q0.578125 -0.609375 1.359375 -0.9375q0.796875 -0.328125 1.734375 -0.328125q0.90625 0 1.640625 0.328125q0.75 0.3125 1.296875 0.890625q0.546875 0.578125 0.828125 1.359375q0.28125 0.78125 0.25 1.703125l-0.015625 0.6875l-6.765625 0l-0.359375 -1.4375l5.046875 0l-0.265625 0.3125l0 -0.328125q-0.03125 -0.390625 -0.25 -0.703125q-0.21875 -0.3125 -0.578125 -0.484375q-0.34375 -0.1875 -0.796875 -0.1875q-0.625 0 -1.0625 0.25q-0.4375 0.25 -0.671875 0.71875q-0.21875 0.46875 -0.21875 1.15625q0 0.703125 0.296875 1.234375q0.296875 0.515625 0.859375 0.8125q0.578125 0.28125 1.359375 0.28125q0.546875 0 0.96875 -0.15625q0.421875 -0.171875 0.921875 -0.546875l1.203125 1.6875q-0.5 0.4375 -1.0625 0.71875q-0.5625 0.265625 -1.140625 0.390625q-0.578125 0.140625 -1.15625 0.140625zm5.329132 -0.15625l0 -8.5l2.421875 0l0.125 2.765625l-0.484375 -0.515625q0.1875 -0.6875 0.625 -1.234375q0.4375 -0.546875 1.03125 -0.859375q0.59375 -0.328125 1.265625 -0.328125q0.296875 0 0.53125 0.046875q0.25 0.046875 0.46875 0.109375l-0.703125 2.828125q-0.1875 -0.109375 -0.484375 -0.171875q-0.296875 -0.078125 -0.609375 -0.078125q-0.359375 0 -0.65625 0.125q-0.296875 0.109375 -0.515625 0.34375q-0.203125 0.21875 -0.328125 0.53125q-0.109375 0.296875 -0.109375 0.6875l0 4.25l-2.578125 0z" fill-rule="nonzero"/><path fill="#3c78d8" d="m349.18896 822.19684l51.02362 -48.346436l51.02362 48.346436z" fill-rule="evenodd"/><path stroke="#3c78d8" stroke-width="8.0" stroke-linejoin="round" stroke-linecap="butt" d="m349.18896 822.19684l51.02362 -48.346436l51.02362 48.346436z" fill-rule="evenodd"/><path fill="#3c78d8" d="m766.94226 580.37006l78.6142 0l0 78.6142l-78.6142 0z" fill-rule="evenodd"/><path stroke="#3c78d8" stroke-width="8.0" stroke-linejoin="round" stroke-linecap="butt" d="m766.94226 580.37006l78.6142 0l0 78.6142l-78.6142 0z" fill-rule="evenodd"/><path fill="#ffffff" d="m778.4394 624.4772l0 -9.328125l4.203125 0q0.890625 0 1.609375 0.390625q0.734375 0.375 1.140625 1.0625q0.421875 0.671875 0.421875 1.515625q0 0.875 -0.421875 1.578125q-0.40625 0.703125 -1.125 1.109375q-0.71875 0.390625 -1.625 0.390625l-2.046875 0l0 3.28125l-2.15625 0zm5.171875 0l-2.375 -4.21875l2.328125 -0.328125l2.640625 4.546875l-2.59375 0zm-3.015625 -5.015625l1.84375 0q0.34375 0 0.59375 -0.140625q0.265625 -0.15625 0.40625 -0.4375q0.140625 -0.28125 0.140625 -0.640625q0 -0.359375 -0.15625 -0.625q-0.15625 -0.28125 -0.46875 -0.421875q-0.296875 -0.15625 -0.71875 -0.15625l-1.640625 0l0 2.421875zm10.074036 5.15625q-1.171875 0 -2.046875 -0.46875q-0.859375 -0.484375 -1.34375 -1.296875q-0.46875 -0.828125 -0.46875 -1.875q0 -0.8125 0.265625 -1.484375q0.265625 -0.6875 0.75 -1.1875q0.484375 -0.5 1.140625 -0.765625q0.65625 -0.28125 1.4375 -0.28125q0.75 0 1.359375 0.265625q0.625 0.265625 1.078125 0.75q0.453125 0.46875 0.6875 1.125q0.25 0.65625 0.21875 1.421875l0 0.578125l-5.640625 0l-0.3125 -1.203125l4.21875 0l-0.234375 0.25l0 -0.265625q-0.03125 -0.328125 -0.21875 -0.578125q-0.171875 -0.265625 -0.46875 -0.40625q-0.28125 -0.15625 -0.65625 -0.15625q-0.515625 0 -0.890625 0.203125q-0.359375 0.203125 -0.546875 0.609375q-0.1875 0.390625 -0.1875 0.953125q0 0.59375 0.25 1.03125q0.25 0.421875 0.71875 0.671875q0.46875 0.234375 1.125 0.234375q0.453125 0 0.796875 -0.125q0.359375 -0.140625 0.78125 -0.453125l1.0 1.40625q-0.421875 0.359375 -0.890625 0.59375q-0.46875 0.21875 -0.953125 0.328125q-0.484375 0.125 -0.96875 0.125zm7.5446167 0q-1.015625 0 -1.828125 -0.484375q-0.8125 -0.484375 -1.296875 -1.3125q-0.46875 -0.84375 -0.46875 -1.890625q0 -1.046875 0.46875 -1.875q0.484375 -0.84375 1.296875 -1.3125q0.8125 -0.484375 1.828125 -0.484375q0.953125 0 1.734375 0.328125q0.796875 0.328125 1.265625 0.9375l-1.15625 1.375q-0.1875 -0.203125 -0.4375 -0.390625q-0.25 -0.1875 -0.5625 -0.296875q-0.3125 -0.109375 -0.640625 -0.109375q-0.5 0 -0.890625 0.234375q-0.390625 0.234375 -0.609375 0.65625q-0.203125 0.40625 -0.203125 0.9375q0 0.515625 0.21875 0.921875q0.21875 0.40625 0.609375 0.65625q0.390625 0.234375 0.875 0.234375q0.34375 0 0.640625 -0.078125q0.296875 -0.09375 0.53125 -0.265625q0.25 -0.171875 0.46875 -0.421875l1.140625 1.390625q-0.453125 0.578125 -1.265625 0.921875q-0.796875 0.328125 -1.71875 0.328125zm7.529419 0q-1.171875 0 -2.046875 -0.46875q-0.859375 -0.484375 -1.34375 -1.296875q-0.46875 -0.828125 -0.46875 -1.875q0 -0.8125 0.265625 -1.484375q0.265625 -0.6875 0.75 -1.1875q0.484375 -0.5 1.140625 -0.765625q0.65625 -0.28125 1.4375 -0.28125q0.75 0 1.359375 0.265625q0.625 0.265625 1.078125 0.75q0.453125 0.46875 0.6875 1.125q0.25 0.65625 0.21875 1.421875l0 0.578125l-5.640625 0l-0.3125 -1.203125l4.21875 0l-0.234375 0.25l0 -0.265625q-0.03125 -0.328125 -0.21875 -0.578125q-0.171875 -0.265625 -0.46875 -0.40625q-0.28125 -0.15625 -0.65625 -0.15625q-0.515625 0 -0.890625 0.203125q-0.359375 0.203125 -0.546875 0.609375q-0.1875 0.390625 -0.1875 0.953125q0 0.59375 0.25 1.03125q0.25 0.421875 0.71875 0.671875q0.46875 0.234375 1.125 0.234375q0.453125 0 0.796875 -0.125q0.359375 -0.140625 0.78125 -0.453125l1.0 1.40625q-0.421875 0.359375 -0.890625 0.59375q-0.46875 0.21875 -0.953125 0.328125q-0.484375 0.125 -0.96875 0.125zm4.5602417 -0.140625l0 -7.078125l2.140625 0l0 7.078125l-2.140625 0zm1.0625 -8.484375q-0.59375 0 -0.9375 -0.28125q-0.328125 -0.28125 -0.328125 -0.8125q0 -0.484375 0.34375 -0.78125q0.34375 -0.3125 0.921875 -0.3125q0.609375 0 0.9375 0.28125q0.34375 0.28125 0.34375 0.8125q0 0.484375 -0.34375 0.796875q-0.34375 0.296875 -0.9375 0.296875zm5.251709 8.484375l-2.96875 -7.078125l2.359375 0l1.765625 5.296875l-0.515625 0.046875l1.8125 -5.34375l2.328125 0l-3.109375 7.078125l-1.671875 0zm9.050964 0.140625q-1.171875 0 -2.046875 -0.46875q-0.859375 -0.484375 -1.34375 -1.296875q-0.46875 -0.828125 -0.46875 -1.875q0 -0.8125 0.265625 -1.484375q0.265625 -0.6875 0.75 -1.1875q0.484375 -0.5 1.140625 -0.765625q0.65625 -0.28125 1.4375 -0.28125q0.75 0 1.359375 0.265625q0.625 0.265625 1.078125 0.75q0.453125 0.46875 0.6875 1.125q0.25 0.65625 0.21875 1.421875l0 0.578125l-5.640625 0l-0.3125 -1.203125l4.21875 0l-0.234375 0.25l0 -0.265625q-0.03125 -0.328125 -0.21875 -0.578125q-0.171875 -0.265625 -0.46875 -0.40625q-0.28125 -0.15625 -0.65625 -0.15625q-0.515625 0 -0.890625 0.203125q-0.359375 0.203125 -0.546875 0.609375q-0.1875 0.390625 -0.1875 0.953125q0 0.59375 0.25 1.03125q0.25 0.421875 0.71875 0.671875q0.46875 0.234375 1.125 0.234375q0.453125 0 0.796875 -0.125q0.359375 -0.140625 0.78125 -0.453125l1.0 1.40625q-0.421875 0.359375 -0.890625 0.59375q-0.46875 0.21875 -0.953125 0.328125q-0.484375 0.125 -0.96875 0.125zm4.4508667 -0.140625l0 -7.078125l2.015625 0l0.09375 2.3125l-0.390625 -0.453125q0.15625 -0.5625 0.515625 -1.015625q0.375 -0.453125 0.859375 -0.71875q0.5 -0.265625 1.0625 -0.265625q0.234375 0 0.4375 0.046875q0.203125 0.03125 0.390625 0.078125l-0.59375 2.359375q-0.140625 -0.09375 -0.390625 -0.140625q-0.25 -0.0625 -0.515625 -0.0625q-0.296875 0 -0.546875 0.09375q-0.25 0.09375 -0.421875 0.28125q-0.171875 0.1875 -0.28125 0.453125q-0.09375 0.25 -0.09375 0.5625l0 3.546875l-2.140625 0z" fill-rule="nonzero"/><path fill="#3c78d8" d="m755.2257 584.7638l51.02362 -48.346497l51.02362 48.346497z" fill-rule="evenodd"/><path stroke="#3c78d8" stroke-width="8.0" stroke-linejoin="round" stroke-linecap="butt" d="m755.2257 584.7638l51.02362 -48.346497l51.02362 48.346497z" fill-rule="evenodd"/><path fill="#000000" fill-opacity="0.0" d="m439.5092 530.2553l327.43307 122.5827" fill-rule="evenodd"/><path stroke="#999999" stroke-width="4.0" stroke-linejoin="round" stroke-linecap="butt" d="m439.5092 530.2553l304.9565 114.16803" fill-rule="evenodd"/><path fill="#999999" stroke="#999999" stroke-width="4.0" stroke-linecap="butt" d="m742.1493 650.61084l19.316528 0.17687988l-14.683594 -12.551941z" fill-rule="evenodd"/><path fill="#3c78d8" d="m766.94226 231.23622l78.6142 0l0 78.61418l-78.6142 0z" fill-rule="evenodd"/><path stroke="#3c78d8" stroke-width="8.0" stroke-linejoin="round" stroke-linecap="butt" d="m766.94226 231.23622l78.6142 0l0 78.61418l-78.6142 0z" fill-rule="evenodd"/><path fill="#ffffff" d="m778.4394 275.3433l0 -9.328125l4.203125 0q0.890625 0 1.609375 0.390625q0.734375 0.375 1.140625 1.0625q0.421875 0.671875 0.421875 1.515625q0 0.875 -0.421875 1.578125q-0.40625 0.703125 -1.125 1.109375q-0.71875 0.390625 -1.625 0.390625l-2.046875 0l0 3.28125l-2.15625 0zm5.171875 0l-2.375 -4.21875l2.328125 -0.328125l2.640625 4.546875l-2.59375 0zm-3.015625 -5.015625l1.84375 0q0.34375 0 0.59375 -0.140625q0.265625 -0.15625 0.40625 -0.4375q0.140625 -0.28125 0.140625 -0.640625q0 -0.359375 -0.15625 -0.625q-0.15625 -0.28125 -0.46875 -0.421875q-0.296875 -0.15625 -0.71875 -0.15625l-1.640625 0l0 2.421875zm10.074036 5.15625q-1.171875 0 -2.046875 -0.46875q-0.859375 -0.484375 -1.34375 -1.296875q-0.46875 -0.828125 -0.46875 -1.875q0 -0.8125 0.265625 -1.484375q0.265625 -0.6875 0.75 -1.1875q0.484375 -0.5 1.140625 -0.765625q0.65625 -0.28125 1.4375 -0.28125q0.75 0 1.359375 0.265625q0.625 0.265625 1.078125 0.75q0.453125 0.46875 0.6875 1.125q0.25 0.65625 0.21875 1.421875l0 0.578125l-5.640625 0l-0.3125 -1.203125l4.21875 0l-0.234375 0.25l0 -0.265625q-0.03125 -0.328125 -0.21875 -0.578125q-0.171875 -0.265625 -0.46875 -0.40625q-0.28125 -0.15625 -0.65625 -0.15625q-0.515625 0 -0.890625 0.203125q-0.359375 0.203125 -0.546875 0.609375q-0.1875 0.390625 -0.1875 0.953125q0 0.59375 0.25 1.03125q0.25 0.421875 0.71875 0.671875q0.46875 0.234375 1.125 0.234375q0.453125 0 0.796875 -0.125q0.359375 -0.140625 0.78125 -0.453125l1.0 1.40625q-0.421875 0.359375 -0.890625 0.59375q-0.46875 0.21875 -0.953125 0.328125q-0.484375 0.125 -0.96875 0.125zm7.5446167 0q-1.015625 0 -1.828125 -0.484375q-0.8125 -0.484375 -1.296875 -1.3125q-0.46875 -0.84375 -0.46875 -1.890625q0 -1.046875 0.46875 -1.875q0.484375 -0.84375 1.296875 -1.3125q0.8125 -0.484375 1.828125 -0.484375q0.953125 0 1.734375 0.328125q0.796875 0.328125 1.265625 0.9375l-1.15625 1.375q-0.1875 -0.203125 -0.4375 -0.390625q-0.25 -0.1875 -0.5625 -0.296875q-0.3125 -0.109375 -0.640625 -0.109375q-0.5 0 -0.890625 0.234375q-0.390625 0.234375 -0.609375 0.65625q-0.203125 0.40625 -0.203125 0.9375q0 0.515625 0.21875 0.921875q0.21875 0.40625 0.609375 0.65625q0.390625 0.234375 0.875 0.234375q0.34375 0 0.640625 -0.078125q0.296875 -0.09375 0.53125 -0.265625q0.25 -0.171875 0.46875 -0.421875l1.140625 1.390625q-0.453125 0.578125 -1.265625 0.921875q-0.796875 0.328125 -1.71875 0.328125zm7.529419 0q-1.171875 0 -2.046875 -0.46875q-0.859375 -0.484375 -1.34375 -1.296875q-0.46875 -0.828125 -0.46875 -1.875q0 -0.8125 0.265625 -1.484375q0.265625 -0.6875 0.75 -1.1875q0.484375 -0.5 1.140625 -0.765625q0.65625 -0.28125 1.4375 -0.28125q0.75 0 1.359375 0.265625q0.625 0.265625 1.078125 0.75q0.453125 0.46875 0.6875 1.125q0.25 0.65625 0.21875 1.421875l0 0.578125l-5.640625 0l-0.3125 -1.203125l4.21875 0l-0.234375 0.25l0 -0.265625q-0.03125 -0.328125 -0.21875 -0.578125q-0.171875 -0.265625 -0.46875 -0.40625q-0.28125 -0.15625 -0.65625 -0.15625q-0.515625 0 -0.890625 0.203125q-0.359375 0.203125 -0.546875 0.609375q-0.1875 0.390625 -0.1875 0.953125q0 0.59375 0.25 1.03125q0.25 0.421875 0.71875 0.671875q0.46875 0.234375 1.125 0.234375q0.453125 0 0.796875 -0.125q0.359375 -0.140625 0.78125 -0.453125l1.0 1.40625q-0.421875 0.359375 -0.890625 0.59375q-0.46875 0.21875 -0.953125 0.328125q-0.484375 0.125 -0.96875 0.125zm4.5602417 -0.140625l0 -7.078125l2.140625 0l0 7.078125l-2.140625 0zm1.0625 -8.484375q-0.59375 0 -0.9375 -0.28125q-0.328125 -0.28125 -0.328125 -0.8125q0 -0.484375 0.34375 -0.78125q0.34375 -0.3125 0.921875 -0.3125q0.609375 0 0.9375 0.28125q0.34375 0.28125 0.34375 0.8125q0 0.484375 -0.34375 0.796875q-0.34375 0.296875 -0.9375 0.296875zm5.251709 8.484375l-2.96875 -7.078125l2.359375 0l1.765625 5.296875l-0.515625 0.046875l1.8125 -5.34375l2.328125 0l-3.109375 7.078125l-1.671875 0zm9.050964 0.140625q-1.171875 0 -2.046875 -0.46875q-0.859375 -0.484375 -1.34375 -1.296875q-0.46875 -0.828125 -0.46875 -1.875q0 -0.8125 0.265625 -1.484375q0.265625 -0.6875 0.75 -1.1875q0.484375 -0.5 1.140625 -0.765625q0.65625 -0.28125 1.4375 -0.28125q0.75 0 1.359375 0.265625q0.625 0.265625 1.078125 0.75q0.453125 0.46875 0.6875 1.125q0.25 0.65625 0.21875 1.421875l0 0.578125l-5.640625 0l-0.3125 -1.203125l4.21875 0l-0.234375 0.25l0 -0.265625q-0.03125 -0.328125 -0.21875 -0.578125q-0.171875 -0.265625 -0.46875 -0.40625q-0.28125 -0.15625 -0.65625 -0.15625q-0.515625 0 -0.890625 0.203125q-0.359375 0.203125 -0.546875 0.609375q-0.1875 0.390625 -0.1875 0.953125q0 0.59375 0.25 1.03125q0.25 0.421875 0.71875 0.671875q0.46875 0.234375 1.125 0.234375q0.453125 0 0.796875 -0.125q0.359375 -0.140625 0.78125 -0.453125l1.0 1.40625q-0.421875 0.359375 -0.890625 0.59375q-0.46875 0.21875 -0.953125 0.328125q-0.484375 0.125 -0.96875 0.125zm4.4508667 -0.140625l0 -7.078125l2.015625 0l0.09375 2.3125l-0.390625 -0.453125q0.15625 -0.5625 0.515625 -1.015625q0.375 -0.453125 0.859375 -0.71875q0.5 -0.265625 1.0625 -0.265625q0.234375 0 0.4375 0.046875q0.203125 0.03125 0.390625 0.078125l-0.59375 2.359375q-0.140625 -0.09375 -0.390625 -0.140625q-0.25 -0.0625 -0.515625 -0.0625q-0.296875 0 -0.546875 0.09375q-0.25 0.09375 -0.421875 0.28125q-0.171875 0.1875 -0.28125 0.453125q-0.09375 0.25 -0.09375 0.5625l0 3.546875l-2.140625 0z" fill-rule="nonzero"/><path fill="#3c78d8" d="m755.2257 235.62993l51.02362 -48.346466l51.02362 48.346466z" fill-rule="evenodd"/><path stroke="#3c78d8" stroke-width="8.0" stroke-linejoin="round" stroke-linecap="butt" d="m755.2257 235.62993l51.02362 -48.346466l51.02362 48.346466z" fill-rule="evenodd"/><path fill="#000000" fill-opacity="0.0" d="m439.51968 99.97638l327.43307 122.58267" fill-rule="evenodd"/><path stroke="#999999" stroke-width="4.0" stroke-linejoin="round" stroke-linecap="butt" d="m439.51968 99.97638l304.9565 114.168045" fill-rule="evenodd"/><path fill="#999999" stroke="#999999" stroke-width="4.0" stroke-linecap="butt" d="m742.1598 220.33194l19.316528 0.17687988l-14.683594 -12.551941z" fill-rule="evenodd"/><path fill="#000000" fill-opacity="0.0" d="m527.16003 89.75125l162.45673 61.417328l-16.944885 44.7874l-162.4567 -61.417328z" fill-rule="evenodd"/><path fill="#999999" d="m578.26337 141.55597q-1.1692505 -0.44203186 -1.9880981 -1.2360382q-0.8189087 -0.79400635 -1.2787476 -1.7863617l1.1778564 -0.6405029q0.37249756 0.82572937 1.038147 1.4949646q0.6656494 0.6692505 1.5717773 1.0118256q1.0961304 0.41441345 1.8723145 0.17330933q0.7907715 -0.23558044 1.0727539 -0.980896q0.2156372 -0.56996155 0.09436035 -1.0000153q-0.121276855 -0.4300537 -0.47680664 -0.8150177q-0.33538818 -0.39405823 -0.8023071 -0.8378601l-1.2712402 -1.2322693q-0.4376831 -0.43273926 -0.8512573 -0.9732971q-0.39343262 -0.5496521 -0.545166 -1.208374q-0.1517334 -0.65870667 0.14129639 -1.433258q0.30407715 -0.803772 0.98583984 -1.2810211q0.6963501 -0.47174072 1.6238403 -0.53871155q0.9274292 -0.066986084 1.9359131 0.31427002q1.0084839 0.3812561 1.7033081 1.061554q0.70947266 0.68582153 1.072937 1.4914093l-1.0479126 0.60609436q-0.33459473 -0.66104126 -0.8781738 -1.1672058q-0.52337646 -0.5152588 -1.3418579 -0.8246918q-0.92077637 -0.34809875 -1.651123 -0.13978577q-0.7247925 0.19371033 -1.0012817 0.92440796q-0.18798828 0.49687195 -0.031921387 0.92337036q0.1706543 0.4320221 0.5261841 0.8169861q0.36108398 0.37036133 0.74224854 0.7316284l1.2420044 1.2212219q0.5581665 0.5117035 0.9460449 1.0759735q0.4025879 0.56977844 0.50494385 1.226532q0.12243652 0.64767456 -0.17059326 1.4222107q-0.3206787 0.8476105 -1.0482178 1.357666q-0.71295166 0.51556396 -1.7154541 0.6042938q-0.98236084 0.07962036 -2.1516113 -0.3624115zm6.6984863 2.315216l4.0195923 -10.62439l6.5915527 2.4919586l-0.4257202 1.1252747l-5.2177124 -1.9725647l-1.2661743 3.3466034l4.399292 1.663147l-0.4312744 1.1398926l-4.399231 -1.663147l-1.4597168 3.8581085l5.378479 2.0333557l-0.43676758 1.1545105l-6.7523193 -2.5527496zm12.678528 5.01033q-1.1984253 -0.45307922 -1.8850098 -1.4643402q-0.6664429 -1.02034 -0.7281494 -2.4468384q-0.04156494 -1.4355774 0.6218872 -3.1892548q0.6524658 -1.7244568 1.6229248 -2.7440338q0.9906006 -1.0286713 2.154602 -1.3235779q1.1842041 -0.3040161 2.3826904 0.14907837q1.1984253 0.45307922 1.8704224 1.4588013q0.67749023 0.9911194 0.7246094 2.412094q0.06719971 1.4118805 -0.5852051 3.1363373q-0.6635132 1.7536774 -1.6596069 2.7969666q-0.9760132 1.0341797 -2.151123 1.3583221q-1.1695557 0.3095398 -2.368042 -0.14355469zm0.42022705 -1.1106567q0.803833 0.30389404 1.6021118 0.004333496q0.7982788 -0.29956055 1.510437 -1.1662292q0.7267456 -0.861145 1.2575073 -2.2640991q0.5031738 -1.3298798 0.517334 -2.4270172q0.028747559 -1.0915985 -0.37695312 -1.8296356q-0.40576172 -0.7380371 -1.2095947 -1.0419312q-0.81848145 -0.30941772 -1.611206 -0.024475098q-0.7927246 0.28494263 -1.4938354 1.1223907q-0.7010498 0.8374481 -1.2042236 2.1673126q-0.5307617 1.4029541 -0.5706177 2.5237885q-0.039794922 1.1208344 0.3604126 1.8734894q0.40014648 0.7526398 1.2186279 1.0620728zm1.5739746 4.6708984q-1.432312 -0.54148865 -2.0509644 -1.6439972q-0.6095581 -1.082367 -0.5784302 -2.3568268l1.4326782 0.40800476q-0.038269043 0.58688354 0.16522217 1.0646973q0.19793701 0.4924469 0.6138916 0.85014343q0.4159546 0.3577118 1.0005493 0.57873535q0.24847412 0.09391785 0.47521973 0.11282349q0.23577881 0.03904724 0.38946533 0.030319214l-0.16070557 1.1753693q-0.2871704 0.008361816 -0.61621094 -0.049209595q-0.3199463 -0.03744507 -0.67071533 -0.1700592zm14.239319 2.3597412l0.41467285 -1.0960541l2.9815674 1.127182l2.8861694 -7.628525l-2.3238525 -0.87854004l0.3206787 -0.8476105q0.6470337 0.14437866 1.1534424 0.21890259q0.52648926 0.06542969 0.9562988 0.077560425q0.44989014 0.003036499 0.84332275 -0.06538391l0.99383545 0.37573242l-3.499939 9.250687l2.7038574 1.0222015l-0.41467285 1.0960388l-7.015381 -2.6521912z" fill-rule="nonzero"/><path fill="#000000" fill-opacity="0.0" d="m442.8133 389.84644l291.43304 -113.5748l17.385864 44.629913l-291.43307 113.57483z" fill-rule="evenodd"/><path fill="#999999" d="m571.75104 371.99774l-4.123291 -10.584625l1.4849854 -0.57870483l5.9783936 5.3170776l1.8754883 1.8013l0.02911377 -0.0113220215q-0.33538818 -0.7748718 -0.74279785 -1.6054993q-0.41308594 -0.8451843 -0.73638916 -1.6750793l-2.1381836 -5.4888306l1.2811279 -0.4992981l4.123291 10.584625l-1.4849243 0.57870483l-5.9695435 -5.337311l-1.8754883 -1.8013l-0.043701172 0.016998291q0.3612671 0.7983093 0.7630615 1.6143799q0.39605713 0.8015137 0.71936035 1.6313782l2.1552124 5.5325317l-1.2957153 0.50497437zm8.871887 -3.457489l-0.5418701 -11.980316l1.5140991 -0.5900574l7.6901245 9.19455l-1.4267578 0.5560303l-4.1427 -5.2107544q-0.6226196 -0.7803345 -1.239502 -1.5460815q-0.6080322 -0.7859802 -1.1983032 -1.6124573l-0.072753906 0.028381348q0.109802246 1.0136719 0.19372559 2.0039368q0.07824707 0.9756775 0.14758301 1.9715881l0.45941162 6.646179l-1.3830566 0.53900146zm0.6189575 -3.9640808l-0.41967773 -1.0773621l4.862549 -1.894989l0.41967773 1.0773621l-4.862549 1.894989zm14.295715 -1.6303406q-0.97546387 0.38015747 -1.9616089 0.34524536q-0.9918823 -0.049468994 -1.8901367 -0.504364q-0.8982544 -0.4548645 -1.6446533 -1.3378601q-0.7520752 -0.8975525 -1.256897 -2.1933289q-0.65789795 -1.6888733 -0.5285034 -3.1647034q0.1293335 -1.4758301 0.93688965 -2.545166q0.8164673 -1.0895691 2.199524 -1.6285706q0.9608154 -0.3744812 1.8621216 -0.25616455q0.8956299 0.103759766 1.5397949 0.42288208l-0.42242432 1.1540222q-0.5834961 -0.29248047 -1.2242432 -0.3446045q-0.62615967 -0.05783081 -1.2958984 0.20315552q-1.019043 0.39715576 -1.5719604 1.2163086q-0.53826904 0.8135071 -0.5861206 1.9389648q-0.053588867 1.1108704 0.4625244 2.4357605q0.5218506 1.3394775 1.3240356 2.1503906q0.7965088 0.7963867 1.7488403 1.0457153q0.9612427 0.22912598 1.9803467 -0.16802979q0.7279053 -0.2836914 1.1911621 -0.81637573q0.4631958 -0.5326843 0.7369995 -1.293396l1.0803223 0.5348511q-0.32788086 0.96624756 -0.98431396 1.6916199q-0.647583 0.7051697 -1.6958008 1.1136475zm5.5370483 -2.3758545l-4.123291 -10.584595l1.3539429 -0.5276489l2.0645142 5.299591l0.043640137 -0.017028809l2.390442 -7.0357056l1.5432129 -0.6014099l-3.234314 9.561401l1.3157959 3.3777466l-1.3539429 0.5276489zm6.260193 -2.4396667l-5.578369 -4.634491l0.40124512 -1.3805542l6.691223 5.424988l-1.5140991 0.5900574zm13.09967 -5.105072l-0.42541504 -1.0919495l2.9699707 -1.1574097l-2.9606323 -7.5999756l-2.3148193 0.9021301l-0.32891846 -0.8444519q0.5773926 -0.32565308 1.0036011 -0.60910034q0.4350586 -0.30371094 0.7625122 -0.5822754q0.33636475 -0.2987671 0.5829468 -0.612854l0.98999023 -0.38580322l3.590149 9.216034l2.6932983 -1.0496216l0.425354 1.0919495l-6.988037 2.7233276z" fill-rule="nonzero"/><path fill="#000000" fill-opacity="0.0" d="m441.09097 488.1118l292.6299 110.61417l-16.944885 44.787415l-292.6299 -110.6142z" fill-rule="evenodd"/><path fill="#999999" d="m534.55505 555.70844l4.0195923 -10.624451l1.3592529 0.513855l-2.0125732 5.319458l0.043884277 0.016601562l6.4849854 -3.6289673l1.5492554 0.5856323l-8.802429 4.941223l-1.2827148 3.390442l-1.3592529 -0.51379395zm6.284729 2.3756104l-1.0437622 -7.1763306l1.2221069 -0.7574463l1.3416748 8.508362l-1.5200195 -0.57458496zm3.6889038 1.3944092l4.0196533 -10.62439l6.591675 2.4916382l-0.4257202 1.1253052l-5.2178345 -1.9723511l-1.2661133 3.3466187l4.399292 1.6629639l-0.4312744 1.1398926l-4.399292 -1.6629639l-1.4597168 3.8580933l5.378601 2.033142l-0.4368286 1.15448l-6.7524414 -2.5524292zm9.72522 3.6761475l4.0196533 -10.62439l6.591675 2.4916382l-0.4257202 1.1253052l-5.2178345 -1.9723511l-1.2661133 3.3466187l4.399292 1.6629639l-0.4312744 1.1398926l-4.399292 -1.6629639l-1.4597168 3.8580933l5.378601 2.033081l-0.4368286 1.154541l-6.7524414 -2.5524292zm9.535217 3.604309l4.0196533 -10.62439l3.215454 1.2154541q1.1838989 0.44750977 1.9447021 1.0858765q0.78100586 0.62927246 1.003418 1.4984741q0.24261475 0.8600464 -0.19970703 2.0291748q-0.42022705 1.1106567 -1.1936035 1.6535645q-0.75323486 0.53375244 -1.78302 0.56207275q-1.0297852 0.028381348 -2.1990356 -0.41363525l-1.8708496 -0.7071533l-1.5923462 4.2088623l-1.3446655 -0.5083008zm3.3572388 -4.8112183l1.710022 0.6463623q1.3884888 0.5248413 2.2598877 0.2529297q0.8768921 -0.2866211 1.2971191 -1.3972778q0.43676758 -1.15448 -0.08428955 -1.8526001q-0.5009155 -0.7071533 -1.8748169 -1.2265015l-1.710022 -0.6463623l-1.5979004 4.2234497zm5.2279663 8.0564575l7.6151123 -9.26532l1.5200195 0.5745239l-0.43878174 11.977966l-1.432373 -0.54138184l0.40881348 -6.644043q0.059570312 -0.99645996 0.113586426 -1.9782715q0.07421875 -0.99090576 0.18865967 -1.999939l-0.07305908 -0.027648926q-0.59680176 0.8267822 -1.1971436 1.6187744q-0.59484863 0.7774048 -1.2097778 1.5639038l-4.1065674 5.246277l-1.3884888 -0.5248413zm3.112915 -2.5316772l0.40911865 -1.0814209l4.881653 1.8452759l-0.4091797 1.0814209l-4.881592 -1.8452759zm8.278503 6.8375854l4.0196533 -10.62439l1.3300171 0.5027466l-3.5828247 9.46991l5.2615967 1.9888916l-0.43676758 1.154541l-6.591675 -2.4916992zm9.082153 3.4330444l0.43676758 -1.15448l2.6454468 0.99993896l3.1571045 -8.3446045l-2.6454468 -0.99993896l0.4257202 -1.1253052l6.6501465 2.513733l-0.4257202 1.1253052l-2.6454468 -1.0l-3.1571045 8.344666l2.6454468 0.99993896l-0.4368286 1.154541l-6.6500854 -2.513794zm12.268311 4.637451l0.6434326 -11.900635l1.4177246 0.5359497l-0.44274902 6.380615q-0.061523438 1.0457764 -0.1519165 1.9470215q-0.09039307 0.9012451 -0.1574707 1.9616699l0.058410645 0.022094727q0.6663208 -0.8338623 1.1951904 -1.569397q0.5288696 -0.73553467 1.1604614 -1.5658569l3.862793 -5.0878296l1.3884888 0.5248413l-7.395874 9.348206l-1.5784912 -0.5966797zm7.4890137 2.8308716l4.0196533 -10.62439l6.591675 2.4916382l-0.4257202 1.1252441l-5.2178345 -1.97229l-1.2661133 3.3466187l4.399292 1.6629028l-0.4312744 1.1398926l-4.399292 -1.6629028l-1.4597168 3.8580933l5.378601 2.033081l-0.4368286 1.154541l-6.7524414 -2.5524292z" fill-rule="nonzero"/><path fill="#000000" fill-opacity="0.0" d="m439.51968 139.97638l244.56693 90.29921" fill-rule="evenodd"/><path stroke="#cc0000" stroke-width="4.0" stroke-linejoin="round" stroke-linecap="butt" d="m439.51968 139.97638l222.05252 81.98642" fill-rule="evenodd"/><path fill="#cc0000" stroke="#cc0000" stroke-width="4.0" stroke-linecap="butt" d="m659.2838 228.16077l19.317139 0.089416504l-14.740295 -12.485336z" fill-rule="evenodd"/><path fill="#000000" fill-opacity="0.0" d="m513.4817 124.0729l162.45667 61.41732l-16.944824 44.7874l-162.45673 -61.417328z" fill-rule="evenodd"/><path fill="#999999" d="m564.585 175.87761q-1.1692505 -0.44203186 -1.9881592 -1.2360382q-0.81884766 -0.79400635 -1.2786865 -1.7863617l1.1778564 -0.6404877q0.37249756 0.8257141 1.038147 1.4949646q0.6655884 0.6692505 1.5717773 1.0118256q1.0961304 0.4143982 1.8723145 0.17329407q0.7907715 -0.23558044 1.0727539 -0.980896q0.2156372 -0.5699463 0.09436035 -1.0q-0.12133789 -0.4300537 -0.47686768 -0.81503296q-0.33532715 -0.39405823 -0.8022461 -0.83784485l-1.2712402 -1.2322845q-0.4376831 -0.43273926 -0.8512573 -0.9732971q-0.39349365 -0.5496521 -0.545166 -1.208374q-0.1517334 -0.65870667 0.14129639 -1.433258q0.30407715 -0.803772 0.98583984 -1.2810211q0.6963501 -0.47172546 1.6238403 -0.53871155q0.9274292 -0.066970825 1.9359131 0.31428528q1.0084229 0.38124084 1.7033081 1.0615387q0.70947266 0.6858368 1.072937 1.4914093l-1.0479126 0.60609436q-0.33459473 -0.66104126 -0.8781738 -1.1672058q-0.5234375 -0.5152588 -1.3418579 -0.8246765q-0.92077637 -0.348114 -1.651123 -0.13978577q-0.7248535 0.19369507 -1.0012817 0.9243927q-0.18798828 0.4968872 -0.031921387 0.92337036q0.1706543 0.4320221 0.5261841 0.8169861q0.36102295 0.37036133 0.74224854 0.7316437l1.2419434 1.2212219q0.5581665 0.51168823 0.94610596 1.0759583q0.4025879 0.5697937 0.5048828 1.2265472q0.12249756 0.6476593 -0.17053223 1.4221954q-0.3206787 0.84762573 -1.0482178 1.357666q-0.71295166 0.5155792 -1.7154541 0.6042938q-0.98236084 0.07963562 -2.1516113 -0.3624115zm6.6984253 2.3152313l4.0196533 -10.624405l6.5915527 2.4919586l-0.4257202 1.1252747l-5.2177124 -1.9725647l-1.2661743 3.3466187l4.399231 1.663147l-0.43121338 1.1398926l-4.399292 -1.663147l-1.4596558 3.8580933l5.378479 2.0333557l-0.4368286 1.1545105l-6.7523193 -2.5527344zm12.678589 5.01033q-1.1984863 -0.45309448 -1.8850708 -1.4643402q-0.66638184 -1.0203552 -0.7281494 -2.4468384q-0.04156494 -1.4355927 0.62194824 -3.18927q0.6524048 -1.7244568 1.6228638 -2.7440338q0.9906006 -1.0286713 2.154663 -1.3235779q1.1842041 -0.30400085 2.3826904 0.14907837q1.1984253 0.45307922 1.8704224 1.4588165q0.67749023 0.9911194 0.72454834 2.4120789q0.06726074 1.4118805 -0.58514404 3.1363373q-0.6635132 1.7536926 -1.659668 2.7969666q-0.97595215 1.0341797 -2.151062 1.3583374q-1.1695557 0.30952454 -2.368042 -0.14355469zm0.42022705 -1.110672q0.803833 0.30389404 1.6021118 0.004333496q0.7982788 -0.29956055 1.510437 -1.1662292q0.7267456 -0.861145 1.2575073 -2.2640991q0.5031738 -1.3298645 0.51727295 -2.427002q0.028808594 -1.0916138 -0.37695312 -1.8296509q-0.40570068 -0.7380371 -1.2095337 -1.0419312q-0.81848145 -0.30941772 -1.611206 -0.024475098q-0.79278564 0.2849579 -1.4938354 1.1223907q-0.7010498 0.8374481 -1.2042236 2.167328q-0.5307617 1.4029388 -0.5706177 2.5237885q-0.039794922 1.1208344 0.36035156 1.8734741q0.40020752 0.752655 1.218689 1.0620728zm1.5739746 4.6709137q-1.432312 -0.5415039 -2.0509644 -1.6439972q-0.6095581 -1.082367 -0.5784302 -2.356842l1.4326782 0.40800476q-0.038269043 0.58688354 0.16522217 1.0647125q0.19787598 0.49243164 0.6138916 0.85014343q0.4159546 0.35769653 1.0005493 0.5787201q0.24847412 0.093933105 0.47521973 0.11282349q0.23577881 0.03904724 0.38946533 0.030319214l-0.16070557 1.1753693q-0.2871704 0.008361816 -0.61621094 -0.049209595q-0.3199463 -0.03744507 -0.67071533 -0.17004395zm13.844666 2.2105408l0.29858398 -0.78915405q2.3399658 -0.8860321 3.980713 -1.6020813q1.6553955 -0.71051025 2.6377563 -1.4082184q0.987854 -0.7123108 1.3140869 -1.5745392q0.33721924 -0.89146423 -0.0025024414 -1.6713715q-0.32513428 -0.77438354 -1.4797363 -1.2108917q-0.7307739 -0.27627563 -1.4974976 -0.1485138q-0.746521 0.1186676 -1.4480591 0.4715271l-0.47247314 -1.0472565q0.95788574 -0.45639038 1.9220581 -0.5763092q0.96972656 -0.13452148 2.065857 0.27989197q1.0377197 0.39230347 1.6539307 1.0595856q0.616272 0.6672821 0.765625 1.5088654q0.15490723 0.8269501 -0.19897461 1.7622528q-0.3649292 0.9645233 -1.3400879 1.7317352q-0.96972656 0.752594 -2.4659424 1.4397736q-1.4815674 0.692688 -3.3913574 1.4573822q0.49890137 0.13848877 0.99224854 0.29159546q0.5079956 0.15864563 0.975647 0.33544922l3.4053955 1.2874298l-0.43676758 1.1545105l-7.2785034 -2.7516632z" fill-rule="nonzero"/><path fill="#cc0000" d="m688.23267 235.96445l0 0c0 -10.9674225 9.03186 -19.858276 20.173218 -19.858276l0 0c5.350281 0 10.481384 2.0922089 14.264648 5.8163605c3.7832031 3.7241516 5.9085693 8.775177 5.9085693 14.041916l0 0c0 10.9674225 -9.03186 19.858261 -20.173218 19.858261l0 0c-11.141357 0 -20.173218 -8.890839 -20.173218 -19.858261zm31.341736 5.9502106c2.7020264 -4.8237762 1.8289185 -10.806274 -2.145874 -14.703217c-3.9747925 -3.8969421 -10.104431 -4.7800293 -15.064819 -2.1703796zm-22.337036 -11.900421c-2.7020264 4.8237762 -1.8289185 10.806259 2.145874 14.703201c3.9747925 3.8969574 10.104431 4.7800446 15.064819 2.170395z" fill-rule="evenodd"/><path fill="#000000" fill-opacity="0.0" d="m439.51968 174.29802l327.43307 122.58269" fill-rule="evenodd"/><path stroke="#cc0000" stroke-width="4.0" stroke-linejoin="round" stroke-linecap="butt" d="m439.51968 174.29802l304.9565 114.168045" fill-rule="evenodd"/><path fill="#cc0000" stroke="#cc0000" stroke-width="4.0" stroke-linecap="butt" d="m742.1598 294.6536l19.316528 0.17687988l-14.683594 -12.551941z" fill-rule="evenodd"/><path fill="#000000" fill-opacity="0.0" d="m500.96417 156.07289l162.45667 61.417328l-16.944885 44.7874l-162.45667 -61.417328z" fill-rule="evenodd"/><path fill="#999999" d="m552.0675 207.87761q-1.1692505 -0.44203186 -1.9881592 -1.2360382q-0.81884766 -0.79400635 -1.2787476 -1.7863617l1.1778564 -0.6404877q0.3725586 0.8257141 1.038208 1.4949646q0.6655884 0.6692505 1.5717773 1.0118256q1.0961304 0.4143982 1.8723145 0.17329407q0.7907715 -0.23558044 1.0727539 -0.980896q0.2156372 -0.5699463 0.09429932 -1.0q-0.121276855 -0.4300537 -0.47680664 -0.81503296q-0.33538818 -0.39405823 -0.8023071 -0.83784485l-1.2711792 -1.2322845q-0.4376831 -0.43273926 -0.85131836 -0.9732971q-0.39343262 -0.5496521 -0.545166 -1.208374q-0.1517334 -0.65870667 0.14135742 -1.433258q0.30407715 -0.803772 0.98583984 -1.2810211q0.6963501 -0.47172546 1.6237793 -0.53871155q0.92749023 -0.066970825 1.9359131 0.31428528q1.0084839 0.38124084 1.7033691 1.0615387q0.7094116 0.6858368 1.072876 1.4914093l-1.0479126 0.60609436q-0.33459473 -0.66104126 -0.8781128 -1.1672058q-0.5234375 -0.5152588 -1.341919 -0.8246765q-0.92077637 -0.348114 -1.651123 -0.13978577q-0.7247925 0.19369507 -1.0012207 0.9243927q-0.18798828 0.4968872 -0.031982422 0.92337036q0.17071533 0.4320221 0.5262451 0.8169861q0.36102295 0.37036133 0.74224854 0.7316437l1.2419434 1.2212219q0.5581665 0.51168823 0.94610596 1.0759583q0.40252686 0.5697937 0.5048828 1.2265472q0.12249756 0.6476593 -0.17053223 1.4221954q-0.3206787 0.84762573 -1.0482788 1.357666q-0.71295166 0.5155792 -1.7154541 0.6042938q-0.98236084 0.07963562 -2.1515503 -0.3624115zm6.6984253 2.3152313l4.0196533 -10.624405l6.5915527 2.4919586l-0.4257202 1.1252747l-5.2177124 -1.9725647l-1.2661743 3.3466187l4.399231 1.663147l-0.4312744 1.1398926l-4.399231 -1.663147l-1.4596558 3.8580933l5.378479 2.0333557l-0.4368286 1.1545105l-6.7523193 -2.5527344zm12.678589 5.01033q-1.1984863 -0.45309448 -1.8850708 -1.4643402q-0.6664429 -1.0203552 -0.7281494 -2.4468384q-0.04156494 -1.4355927 0.62194824 -3.18927q0.6524048 -1.7244568 1.6228638 -2.7440338q0.9906006 -1.0286713 2.154663 -1.3235779q1.1842041 -0.30400085 2.3826294 0.14907837q1.1984863 0.45307922 1.8704224 1.4588165q0.67749023 0.9911194 0.7246094 2.4120789q0.06726074 1.4118805 -0.5852051 3.1363373q-0.66345215 1.7536926 -1.6596069 2.7969666q-0.97595215 1.0341797 -2.151062 1.3583374q-1.1696167 0.30952454 -2.368042 -0.14355469zm0.42016602 -1.110672q0.80389404 0.30389404 1.6021729 0.004333496q0.7982788 -0.29956055 1.510376 -1.1662292q0.7267456 -0.861145 1.2575684 -2.2640991q0.5031128 -1.3298645 0.51727295 -2.427002q0.028747559 -1.0916138 -0.37695312 -1.8296509q-0.40570068 -0.7380371 -1.2095337 -1.0419312q-0.81848145 -0.30941772 -1.611206 -0.024475098q-0.79278564 0.2849579 -1.4938354 1.1223907q-0.70111084 0.8374481 -1.2042236 2.167328q-0.53082275 1.4029388 -0.5706177 2.5237885q-0.039855957 1.1208344 0.36035156 1.8734741q0.40020752 0.752655 1.2186279 1.0620728zm1.5740356 4.6709137q-1.432312 -0.5415039 -2.0509644 -1.6439972q-0.6095581 -1.082367 -0.5784302 -2.356842l1.4326782 0.40800476q-0.038269043 0.58688354 0.16516113 1.0647125q0.19793701 0.49243164 0.6138916 0.85014343q0.4159546 0.35769653 1.0006104 0.5787201q0.24847412 0.093933105 0.4751587 0.11282349q0.23583984 0.03904724 0.38946533 0.030319214l-0.16064453 1.1753693q-0.2871704 0.008361816 -0.61621094 -0.049209595q-0.3199463 -0.03744507 -0.67071533 -0.17004395zm17.236633 3.7100525q-0.8915405 -0.3370514 -1.515686 -0.8068695q-0.6039429 -0.4788971 -1.0084839 -0.9993286q-0.40454102 -0.52041626 -0.6498413 -1.0641937l1.0131226 -0.6025238q0.32910156 0.6756439 0.9161377 1.3318787q0.5925293 0.6416321 1.5863647 1.0173492q0.7161865 0.27075195 1.3599854 0.2468872q0.64385986 -0.023849487 1.1257324 -0.32609558q0.48742676 -0.316864 0.70306396 -0.8868103q0.23223877 -0.61380005 0.023620605 -1.210495q-0.18847656 -0.6057739 -0.9219971 -1.1837769q-0.7189331 -0.57247925 -2.078186 -1.0863495l0.38702393 -1.0229797q1.2277222 0.46414185 2.0670776 0.49749756q0.84490967 0.018737793 1.3414307 -0.27798462q0.50201416 -0.31132507 0.71209717 -0.8666687q0.28753662 -0.7599335 -0.13122559 -1.4193573q-0.40411377 -0.6539154 -1.354126 -1.0130768q-0.7307739 -0.27626038 -1.4990234 -0.23262024q-0.76831055 0.043624878 -1.4476929 0.33802795l-0.39544678 -1.1183624q0.8587036 -0.326828 1.8300171 -0.37722778q0.9713135 -0.05039978 1.9651489 0.32533264q0.97924805 0.37019348 1.6231079 0.9644165q0.6585083 0.59973145 0.8904419 1.3555908q0.2319336 0.7558441 -0.08874512 1.6034546q-0.35388184 0.93530273 -1.2090454 1.2968903q-0.84051514 0.36709595 -1.9267578 0.32392883l-0.027648926 0.07307434q0.6315918 0.405838 1.0834961 0.97758484q0.47210693 0.56266785 0.60369873 1.2304688q0.1461792 0.67333984 -0.11920166 1.3748016q-0.35388184 0.93530273 -1.1142578 1.3995514q-0.74572754 0.46975708 -1.7260742 0.5000305q-0.9804077 0.030258179 -2.0181274 -0.3620453z" fill-rule="nonzero"/><path fill="#3c78d8" d="m360.90552 108.66929l78.61417 0l0 78.614174l-78.61417 0z" fill-rule="evenodd"/><path stroke="#3c78d8" stroke-width="8.0" stroke-linejoin="round" stroke-linecap="butt" d="m360.90552 108.66929l78.61417 0l0 78.614174l-78.61417 0z" fill-rule="evenodd"/><path fill="#ffffff" d="m376.93753 153.99263q-1.109375 0 -2.0 -0.265625q-0.890625 -0.265625 -1.578125 -0.765625q-0.6875 -0.5 -1.234375 -1.1875l1.65625 -1.875q0.796875 1.078125 1.609375 1.453125q0.8125 0.359375 1.671875 0.359375q0.4375 0 0.78125 -0.109375q0.359375 -0.125 0.546875 -0.328125q0.1875 -0.21875 0.1875 -0.546875q0 -0.234375 -0.125 -0.421875q-0.109375 -0.203125 -0.328125 -0.34375q-0.203125 -0.140625 -0.5 -0.25q-0.28125 -0.125 -0.609375 -0.21875q-0.3125 -0.09375 -0.640625 -0.15625q-0.9375 -0.203125 -1.625 -0.5q-0.6875 -0.3125 -1.140625 -0.75q-0.453125 -0.4375 -0.6875 -1.0q-0.21875 -0.578125 -0.21875 -1.28125q0 -0.75 0.34375 -1.375q0.34375 -0.640625 0.921875 -1.09375q0.59375 -0.453125 1.359375 -0.703125q0.765625 -0.25 1.609375 -0.25q1.09375 0 1.890625 0.234375q0.796875 0.234375 1.359375 0.671875q0.5625 0.421875 0.96875 1.03125l-1.6875 1.609375q-0.328125 -0.40625 -0.71875 -0.671875q-0.390625 -0.28125 -0.84375 -0.421875q-0.4375 -0.15625 -0.890625 -0.15625q-0.484375 0 -0.828125 0.125q-0.34375 0.125 -0.546875 0.34375q-0.1875 0.203125 -0.1875 0.515625q0 0.265625 0.15625 0.46875q0.171875 0.1875 0.4375 0.34375q0.28125 0.140625 0.625 0.25q0.359375 0.09375 0.734375 0.171875q0.890625 0.171875 1.59375 0.46875q0.71875 0.28125 1.234375 0.703125q0.515625 0.40625 0.796875 0.984375q0.28125 0.5625 0.28125 1.3125q0 1.171875 -0.5625 1.984375q-0.5625 0.796875 -1.546875 1.21875q-0.984375 0.421875 -2.265625 0.421875zm10.206543 0q-1.40625 0 -2.453125 -0.5625q-1.03125 -0.5625 -1.609375 -1.546875q-0.578125 -0.984375 -0.578125 -2.25q0 -0.984375 0.3125 -1.796875q0.328125 -0.8125 0.90625 -1.40625q0.578125 -0.609375 1.359375 -0.9375q0.796875 -0.328125 1.734375 -0.328125q0.90625 0 1.640625 0.328125q0.75 0.3125 1.296875 0.890625q0.546875 0.578125 0.828125 1.359375q0.28125 0.78125 0.25 1.703125l-0.015625 0.6875l-6.765625 0l-0.359375 -1.4375l5.046875 0l-0.265625 0.3125l0 -0.328125q-0.03125 -0.390625 -0.25 -0.703125q-0.21875 -0.3125 -0.578125 -0.484375q-0.34375 -0.1875 -0.796875 -0.1875q-0.625 0 -1.0625 0.25q-0.4375 0.25 -0.671875 0.71875q-0.21875 0.46875 -0.21875 1.15625q0 0.703125 0.296875 1.234375q0.296875 0.515625 0.859375 0.8125q0.578125 0.28125 1.359375 0.28125q0.546875 0 0.96875 -0.15625q0.421875 -0.171875 0.921875 -0.546875l1.203125 1.6875q-0.5 0.4375 -1.0625 0.71875q-0.5625 0.265625 -1.140625 0.390625q-0.578125 0.140625 -1.15625 0.140625zm5.329132 -0.15625l0 -8.5l2.421875 0l0.078125 1.734375l-0.5 0.1875q0.171875 -0.578125 0.625 -1.046875q0.453125 -0.46875 1.09375 -0.75q0.640625 -0.296875 1.34375 -0.296875q0.96875 0 1.625 0.390625q0.65625 0.390625 0.984375 1.171875q0.34375 0.765625 0.34375 1.890625l0 5.21875l-2.578125 0l0 -5.015625q0 -0.5 -0.15625 -0.828125q-0.140625 -0.34375 -0.4375 -0.515625q-0.28125 -0.171875 -0.71875 -0.15625q-0.34375 0 -0.625 0.109375q-0.28125 0.109375 -0.5 0.3125q-0.203125 0.1875 -0.328125 0.453125q-0.109375 0.25 -0.109375 0.546875l0 5.09375l-1.265625 0q-0.453125 0 -0.78125 0q-0.3125 0 -0.515625 0zm13.378784 0.171875q-1.109375 0 -1.96875 -0.5625q-0.859375 -0.5625 -1.359375 -1.5625q-0.484375 -1.0 -0.484375 -2.28125q0 -1.28125 0.484375 -2.28125q0.5 -1.0 1.359375 -1.578125q0.875 -0.578125 2.0 -0.578125q0.5625 0 1.09375 0.1875q0.53125 0.171875 0.953125 0.46875q0.4375 0.296875 0.703125 0.703125q0.28125 0.390625 0.328125 0.796875l-0.609375 0.140625l0 -5.46875l2.578125 0l0 11.84375l-2.375 0l-0.15625 -1.9375l0.515625 0.078125q-0.046875 0.40625 -0.3125 0.78125q-0.265625 0.359375 -0.6875 0.640625q-0.40625 0.28125 -0.953125 0.4375q-0.53125 0.171875 -1.109375 0.171875zm0.65625 -2.125q0.578125 0 1.015625 -0.28125q0.4375 -0.296875 0.65625 -0.796875q0.234375 -0.515625 0.234375 -1.203125q0 -0.703125 -0.234375 -1.21875q-0.21875 -0.515625 -0.65625 -0.796875q-0.4375 -0.296875 -1.015625 -0.296875q-0.59375 0 -1.03125 0.296875q-0.421875 0.28125 -0.65625 0.796875q-0.234375 0.515625 -0.234375 1.21875q0 0.6875 0.234375 1.203125q0.234375 0.5 0.65625 0.796875q0.4375 0.28125 1.03125 0.28125zm10.635895 2.109375q-1.40625 0 -2.453125 -0.5625q-1.03125 -0.5625 -1.609375 -1.546875q-0.578125 -0.984375 -0.578125 -2.25q0 -0.984375 0.3125 -1.796875q0.328125 -0.8125 0.90625 -1.40625q0.578125 -0.609375 1.359375 -0.9375q0.796875 -0.328125 1.734375 -0.328125q0.90625 0 1.640625 0.328125q0.75 0.3125 1.296875 0.890625q0.546875 0.578125 0.828125 1.359375q0.28125 0.78125 0.25 1.703125l-0.015625 0.6875l-6.765625 0l-0.359375 -1.4375l5.046875 0l-0.265625 0.3125l0 -0.328125q-0.03125 -0.390625 -0.25 -0.703125q-0.21875 -0.3125 -0.578125 -0.484375q-0.34375 -0.1875 -0.796875 -0.1875q-0.625 0 -1.0625 0.25q-0.4375 0.25 -0.671875 0.71875q-0.21875 0.46875 -0.21875 1.15625q0 0.703125 0.296875 1.234375q0.296875 0.515625 0.859375 0.8125q0.578125 0.28125 1.359375 0.28125q0.546875 0 0.96875 -0.15625q0.421875 -0.171875 0.921875 -0.546875l1.203125 1.6875q-0.5 0.4375 -1.0625 0.71875q-0.5625 0.265625 -1.140625 0.390625q-0.578125 0.140625 -1.15625 0.140625zm5.329132 -0.15625l0 -8.5l2.421875 0l0.125 2.765625l-0.484375 -0.515625q0.1875 -0.6875 0.625 -1.234375q0.4375 -0.546875 1.03125 -0.859375q0.59375 -0.328125 1.265625 -0.328125q0.296875 0 0.53125 0.046875q0.25 0.046875 0.46875 0.109375l-0.703125 2.828125q-0.1875 -0.109375 -0.484375 -0.171875q-0.296875 -0.078125 -0.609375 -0.078125q-0.359375 0 -0.65625 0.125q-0.296875 0.109375 -0.515625 0.34375q-0.203125 0.21875 -0.328125 0.53125q-0.109375 0.296875 -0.109375 0.6875l0 4.25l-2.578125 0z" fill-rule="nonzero"/><path fill="#3c78d8" d="m349.18896 113.062996l51.02362 -48.34646l51.02362 48.34646z" fill-rule="evenodd"/><path stroke="#3c78d8" stroke-width="8.0" stroke-linejoin="round" stroke-linecap="butt" d="m349.18896 113.062996l51.02362 -48.34646l51.02362 48.34646z" fill-rule="evenodd"/><path fill="#000000" fill-opacity="0.0" d="m628.9642 236.07289l162.45667 61.417313l-16.944885 44.787415l-162.45667 -61.417328z" fill-rule="evenodd"/><path fill="#999999" d="m671.9591 284.59506l4.0196533 -10.62439l3.3031006 1.2487488q1.081543 0.4088745 1.8095703 1.0014954q0.74261475 0.59814453 0.96154785 1.4325867q0.23345947 0.8399658 -0.18670654 1.9506226q-0.4036255 1.0668335 -1.1513672 1.585968q-0.72753906 0.5100403 -1.7079468 0.5403137q-0.9657593 0.0357666 -2.0473022 -0.3731079l-1.9584961 -0.74038696l-1.6973877 4.486511l-1.3446655 -0.5083618zm3.4622803 -5.0888367l1.7684937 0.6685791q1.2423096 0.46966553 2.0879517 0.22143555q0.8512573 -0.2628479 1.2437744 -1.3004456q0.39257812 -1.0375977 -0.10473633 -1.7100525q-0.49188232 -0.68707275 -1.7341919 -1.1567078l-1.7684326 -0.6685791l-1.4928589 3.9457703zm1.4042969 1.3661194l1.3323364 -0.2980957l1.1380615 6.794586l-1.5346069 -0.5801697l-0.935791 -5.916321zm5.077759 7.4822083l4.0195923 -10.62442l6.5915527 2.4919739l-0.4257202 1.1252747l-5.2177124 -1.9725647l-1.2661743 3.3466187l4.399292 1.663147l-0.4312744 1.1398926l-4.399231 -1.663147l-1.4597168 3.8580933l5.378479 2.0333557l-0.43676758 1.1545105l-6.7523193 -2.5527344zm12.283936 4.861145q-0.8915405 -0.33706665 -1.59906 -1.0722656q-0.6873169 -0.7442627 -0.888855 -1.8895264l1.1427002 -0.5034485q0.19677734 0.8929138 0.66326904 1.4701843q0.48669434 0.56817627 1.1005249 0.80026245q1.1254272 0.42544556 1.8928833 0.030700684q0.77301025 -0.40933228 1.2706299 -1.7246094l2.2669067 -5.9917297l-4.4577026 -1.6852722l0.4312744 -1.1398926l5.802307 2.1936035l-2.7424316 7.2485657q-0.37597656 0.9937439 -1.0217285 1.6850281q-0.63116455 0.6968384 -1.5882568 0.886261q-0.9425049 0.19494629 -2.272461 -0.30786133zm7.1661377 2.492035l4.0196533 -10.62442l6.5915527 2.4919739l-0.42578125 1.1252747l-5.2176514 -1.9725647l-1.2661743 3.3465881l4.399231 1.6631775l-0.4312744 1.1398926l-4.399231 -1.663147l-1.4596558 3.8580933l5.378418 2.0333557l-0.43676758 1.1545105l-6.7523193 -2.5527344zm13.497009 5.3197327q-0.97924805 -0.37020874 -1.6886597 -1.0560303q-0.7039795 -0.70043945 -1.0670166 -1.6394958q-0.36309814 -0.9390564 -0.32684326 -2.0946655q0.041809082 -1.1701965 0.53393555 -2.4708557q0.6413574 -1.695221 1.7251587 -2.7053528q1.0838013 -1.0101318 2.3995361 -1.2644043q1.3358765 -0.2633667 2.7243652 0.26156616q0.9645996 0.36468506 1.5551758 1.0556641q0.5961304 0.6763611 0.86120605 1.3445435l-1.0862427 0.57489014q-0.23779297 -0.60772705 -0.67907715 -1.0752258q-0.42663574 -0.4619751 -1.098938 -0.716156q-1.0230713 -0.3867798 -1.9821167 -0.14797974q-0.944397 0.24429321 -1.7332153 1.048584q-0.7832031 0.78970337 -1.286377 2.1195679q-0.508667 1.3444824 -0.45526123 2.4838562q0.05895996 1.1247864 0.59973145 1.9472961q0.5609741 0.8134155 1.5840454 1.2001953q0.7307739 0.27627563 1.4315186 0.19039917q0.7006836 -0.085876465 1.413269 -0.46795654l0.44482422 1.1203003q-0.8902588 0.49865723 -1.8635864 0.5984192q-0.953125 0.090667725 -2.0054321 -0.30715942zm8.291565 2.9174805l3.593872 -9.499115l-3.493042 -1.3205566l0.4257202 -1.1252747l8.359985 3.1605225l-0.4257202 1.1252747l-3.5076904 -1.3260803l-3.593933 9.499115l-1.3591919 -0.5138855z" fill-rule="nonzero"/><path fill="#000000" fill-opacity="0.0" d="m439.5092 490.2553l327.43307 122.5827" fill-rule="evenodd"/><path stroke="#999999" stroke-width="4.0" stroke-linejoin="round" stroke-linecap="butt" d="m439.5092 490.25528l304.9565 114.16806" fill-rule="evenodd"/><path fill="#999999" stroke="#999999" stroke-width="4.0" stroke-linecap="butt" d="m742.1493 610.61084l19.316528 0.17687988l-14.683594 -12.551941z" fill-rule="evenodd"/><path fill="#000000" fill-opacity="0.0" d="m454.89508 451.34274l292.62994 110.61417l-16.944885 44.787415l-292.62994 -110.6142z" fill-rule="evenodd"/><path fill="#999999" d="m571.0847 527.74677q-1.1693115 -0.44195557 -1.9882202 -1.2359009q-0.81884766 -0.79400635 -1.2787476 -1.7863159l1.1778564 -0.6405029q0.3725586 0.8256836 1.038208 1.494873q0.6656494 0.66918945 1.5718384 1.0117798q1.0961304 0.41430664 1.8723145 0.17321777q0.7907715 -0.23565674 1.0727539 -0.98095703q0.2156372 -0.5699463 0.09436035 -1.0q-0.121276855 -0.4300537 -0.47680664 -0.81500244q-0.33538818 -0.39404297 -0.80236816 -0.83776855l-1.2711792 -1.2322388q-0.43774414 -0.43267822 -0.85131836 -0.97320557q-0.39349365 -0.5496826 -0.54522705 -1.208374q-0.1517334 -0.6586914 0.14135742 -1.4332275q0.30407715 -0.803772 0.98583984 -1.2810669q0.6963501 -0.47174072 1.6238403 -0.5387573q0.9274292 -0.0670166 1.9359131 0.31420898q1.0084839 0.3812256 1.7033691 1.0614624q0.70947266 0.685791 1.072937 1.491333l-1.0479126 0.60614014q-0.33459473 -0.66101074 -0.8781738 -1.1671753q-0.5234375 -0.51519775 -1.341919 -0.82458496q-0.92077637 -0.3480835 -1.651123 -0.13970947q-0.7248535 0.19372559 -1.0012817 0.9244385q-0.18798828 0.49682617 -0.031921387 0.92333984q0.1706543 0.43200684 0.5261841 0.81695557q0.36108398 0.3703003 0.7423096 0.7315674l1.2419434 1.2211304q0.55822754 0.51171875 0.946167 1.0759277q0.40252686 0.5697632 0.5048828 1.2265015q0.12249756 0.64764404 -0.17053223 1.4221802q-0.3206787 0.84765625 -1.0482788 1.357727q-0.71295166 0.51556396 -1.7154541 0.6043091q-0.98236084 0.079711914 -2.1516113 -0.3623047zm6.6985474 2.3149414l4.0196533 -10.62439l6.591675 2.4916382l-0.42578125 1.1252441l-5.2177734 -1.97229l-1.2661743 3.3466187l4.399353 1.6629028l-0.4312744 1.1398926l-4.399353 -1.6629028l-1.4596558 3.8580933l5.37854 2.033081l-0.43676758 1.154541l-6.7524414 -2.5524292zm12.678772 5.0097046q-1.1984863 -0.45300293 -1.8850708 -1.4642334q-0.6664429 -1.0202637 -0.7281494 -2.4467773q-0.041625977 -1.4355469 0.6218872 -3.189209q0.6524658 -1.7244873 1.6229248 -2.7440796q0.9906006 -1.0286865 2.154663 -1.3236694q1.1842041 -0.3040161 2.3826904 0.14898682q1.1984863 0.45306396 1.8704834 1.4587402q0.67749023 0.99108887 0.7246094 2.4119873q0.06719971 1.4118652 -0.5852051 3.1363525q-0.6635132 1.7536621 -1.6596069 2.796997q-0.9760132 1.0341797 -2.151123 1.3583984q-1.1696167 0.3095703 -2.368103 -0.14349365zm0.42022705 -1.1106567q0.803833 0.30389404 1.6021729 0.004272461q0.7982788 -0.29956055 1.510376 -1.1662598q0.72680664 -0.861145 1.2575684 -2.2640991q0.5031738 -1.329895 0.51727295 -2.427002q0.028747559 -1.0916138 -0.37695312 -1.8295898q-0.40570068 -0.7380371 -1.2095947 -1.0418701q-0.81848145 -0.3093872 -1.611206 -0.024414062q-0.79278564 0.28497314 -1.4938354 1.1224365q-0.70111084 0.8374634 -1.2042236 2.1672974q-0.53082275 1.4029541 -0.5706177 2.5238037q-0.039855957 1.1207886 0.36035156 1.8734131q0.40020752 0.7526245 1.218689 1.0620117zm1.5740356 4.6707764q-1.432312 -0.5414429 -2.0510254 -1.6438599q-0.6095581 -1.0823364 -0.5784302 -2.3568115l1.4327393 0.40795898q-0.038269043 0.586853 0.16516113 1.0646973q0.19793701 0.4923706 0.6138916 0.85009766q0.41601562 0.35766602 1.0006104 0.5786743q0.24847412 0.093933105 0.47521973 0.11279297q0.23583984 0.039001465 0.38946533 0.030273438l-0.16070557 1.175354q-0.2871704 0.008422852 -0.61621094 -0.0491333q-0.3199463 -0.037475586 -0.67071533 -0.17004395zm17.236938 3.7092896q-0.8915405 -0.3369751 -1.515686 -0.8067627q-0.6040039 -0.47888184 -1.0085449 -0.9992676q-0.40447998 -0.5204468 -0.6498413 -1.064148l1.0131226 -0.6026001q0.32910156 0.6756592 0.9161377 1.3318481q0.59259033 0.64160156 1.5864258 1.017273q0.7161865 0.27069092 1.3600464 0.24682617q0.64385986 -0.023864746 1.1257324 -0.32617188q0.48742676 -0.3168335 0.70306396 -0.8867798q0.23223877 -0.61383057 0.023620605 -1.2105103q-0.18847656 -0.6057739 -0.9220581 -1.1837158q-0.7189331 -0.57244873 -2.078186 -1.0862427l0.38702393 -1.0229492q1.2277222 0.4640503 2.0671387 0.4973755q0.84490967 0.018676758 1.3413696 -0.27801514q0.5020752 -0.31134033 0.7121582 -0.8666992q0.28753662 -0.75994873 -0.13122559 -1.4193726q-0.4041748 -0.6538696 -1.354187 -1.0129395q-0.7307739 -0.27624512 -1.4990234 -0.23260498q-0.76831055 0.043701172 -1.4476929 0.33807373l-0.3955078 -1.1182861q0.85876465 -0.32684326 1.8300781 -0.37731934q0.9713135 -0.05041504 1.9651489 0.32525635q0.97924805 0.37017822 1.623169 0.96435547q0.6585083 0.5996704 0.8904419 1.3555298q0.2319336 0.75579834 -0.08874512 1.6033936q-0.35388184 0.93530273 -1.2090454 1.296936q-0.8405762 0.36712646 -1.9268188 0.32403564l-0.027648926 0.07305908q0.63165283 0.40576172 1.0835571 0.97753906q0.47210693 0.5626221 0.60369873 1.2304077q0.1461792 0.6732788 -0.11920166 1.3747559q-0.35388184 0.93530273 -1.1142578 1.3995972q-0.74572754 0.4697876 -1.7261353 0.50006104q-0.9804077 0.030334473 -2.0181274 -0.36193848z" fill-rule="nonzero"/><path fill="#000000" fill-opacity="0.0" d="m439.5092 450.2553l327.43307 122.5827" fill-rule="evenodd"/><path stroke="#999999" stroke-width="4.0" stroke-linejoin="round" stroke-linecap="butt" d="m439.5092 450.25528l304.9565 114.16806" fill-rule="evenodd"/><path fill="#999999" stroke="#999999" stroke-width="4.0" stroke-linecap="butt" d="m742.1493 570.61084l19.316528 0.17687988l-14.683594 -12.551941z" fill-rule="evenodd"/><path fill="#000000" fill-opacity="0.0" d="m466.2518 417.14685l292.6299 110.614136l-16.944885 44.787415l-292.6299 -110.61417z" fill-rule="evenodd"/><path fill="#999999" d="m582.4414 493.5509q-1.1692505 -0.44198608 -1.9881592 -1.2359619q-0.8189087 -0.7939453 -1.2787476 -1.7862854l1.1778564 -0.64053345q0.3725586 0.8257141 1.038147 1.4949036q0.6656494 0.66922 1.5718384 1.0117493q1.0961914 0.41436768 1.8723145 0.17321777q0.7908325 -0.2355957 1.072815 -0.9809265q0.2156372 -0.5699463 0.09429932 -0.9999695q-0.121276855 -0.4300537 -0.47680664 -0.81500244q-0.33538818 -0.39404297 -0.8023071 -0.8377991l-1.2712402 -1.2322083q-0.4376831 -0.43270874 -0.85131836 -0.9732666q-0.39343262 -0.5496216 -0.545166 -1.208313q-0.1517334 -0.6586914 0.14129639 -1.433258q0.30407715 -0.803772 0.98583984 -1.2810364q0.6963501 -0.47174072 1.6238403 -0.5387573q0.92749023 -0.0670166 1.9359741 0.31417847q1.0084839 0.38119507 1.7033081 1.0614624q0.7095337 0.685791 1.072998 1.491333l-1.0479126 0.60614014q-0.33465576 -0.66101074 -0.87823486 -1.1671448q-0.52337646 -0.5152283 -1.3418579 -0.8246155q-0.9208374 -0.3480835 -1.6511841 -0.13973999q-0.7247925 0.1937561 -1.0012817 0.9244385q-0.18798828 0.4968872 -0.031921387 0.92337036q0.17071533 0.43200684 0.5262451 0.81695557q0.36102295 0.3703308 0.74224854 0.7315674l1.2420044 1.2211609q0.5581665 0.5116577 0.94610596 1.0758972q0.40252686 0.5697632 0.5048828 1.226532q0.12249756 0.64764404 -0.17053223 1.4221802q-0.3206787 0.84762573 -1.0482178 1.357666q-0.71295166 0.5155945 -1.7155151 0.6043701q-0.98236084 0.07965088 -2.1516113 -0.3623047zm6.6985474 2.314911l4.0196533 -10.62442l6.591675 2.4916687l-0.4257202 1.1252747l-5.2178345 -1.9723206l-1.2661133 3.3466187l4.399292 1.6629333l-0.4312744 1.1398926l-4.399292 -1.6629333l-1.4597168 3.8580933l5.378601 2.0331116l-0.4368286 1.1545105l-6.7524414 -2.5524292zm12.678833 5.009735q-1.1984863 -0.45303345 -1.8851318 -1.4642639q-0.6664429 -1.0202942 -0.7281494 -2.4467468q-0.04156494 -1.4355774 0.6218872 -3.1892395q0.6524658 -1.7244568 1.6229248 -2.7440796q0.9906006 -1.0286865 2.154663 -1.3236389q1.1842041 -0.30404663 2.3826904 0.14898682q1.1984863 0.45303345 1.8704834 1.4587097q0.67749023 0.99108887 0.7246094 2.4120178q0.06726074 1.4118652 -0.5852051 3.136322q-0.66345215 1.7536621 -1.6596069 2.7969666q-0.9760132 1.0342102 -2.151123 1.3583984q-1.1695557 0.30960083 -2.368042 -0.14343262zm0.42016602 -1.1106873q0.80389404 0.30386353 1.6021729 0.004272461q0.7982788 -0.29959106 1.510437 -1.1662598q0.7267456 -0.86117554 1.2575073 -2.2641296q0.5031738 -1.3298645 0.517334 -2.4269714q0.028747559 -1.0916138 -0.37701416 -1.8296204q-0.40570068 -0.7380066 -1.2095337 -1.0418701q-0.81848145 -0.3093567 -1.6112671 -0.024383545q-0.79278564 0.28497314 -1.4938354 1.1224365q-0.70111084 0.83743286 -1.2042236 2.167328q-0.53082275 1.4029541 -0.5706177 2.5237732q-0.039794922 1.1208191 0.3604126 1.8734436q0.40014648 0.752594 1.2186279 1.0619812zm1.5740356 4.6707764q-1.432312 -0.54141235 -2.0509644 -1.6438904q-0.6095581 -1.0823059 -0.5784912 -2.3567505l1.4327393 0.40792847q-0.038269043 0.58688354 0.16522217 1.0646667q0.19787598 0.49243164 0.6138916 0.8501282q0.4159546 0.35766602 1.0005493 0.5786743q0.24847412 0.09390259 0.47521973 0.11279297q0.23583984 0.039031982 0.38946533 0.030303955l-0.16064453 1.175354q-0.2871704 0.008392334 -0.61621094 -0.049194336q-0.32000732 -0.03741455 -0.67077637 -0.17001343zm13.84491 2.209961l0.29858398 -0.78915405q2.3399658 -0.8861389 3.980774 -1.6022339q1.6554565 -0.7105713 2.6377563 -1.4082947q0.98791504 -0.7123413 1.3140869 -1.574585q0.33728027 -0.891449 -0.0025024414 -1.6713257q-0.32513428 -0.77438354 -1.4797363 -1.2108154q-0.7307739 -0.27624512 -1.4974976 -0.14846802q-0.74658203 0.11871338 -1.4480591 0.47158813l-0.47253418 -1.0472107q0.95788574 -0.4564209 1.9220581 -0.5763855q0.9697876 -0.134552 2.065918 0.27981567q1.0377197 0.39224243 1.6539917 1.0594788q0.616272 0.66726685 0.765625 1.5088196q0.15490723 0.8269348 -0.19897461 1.7622375q-0.36486816 0.96450806 -1.3400879 1.7317505q-0.96972656 0.7526245 -2.4659424 1.4398499q-1.4816284 0.692749 -3.3914795 1.4575195q0.4989624 0.13845825 0.9923096 0.29156494q0.5079956 0.15859985 0.975708 0.33538818l3.4054565 1.287262l-0.4368286 1.1545105l-7.2786255 -2.7513123z" fill-rule="nonzero"/><path fill="#000000" fill-opacity="0.0" d="m763.0289 658.9029l-339.52756 135.37006" fill-rule="evenodd"/><path stroke="#999999" stroke-width="4.0" stroke-linejoin="round" stroke-linecap="butt" d="m763.0289 658.9029l-317.23416 126.48163" fill-rule="evenodd"/><path fill="#999999" stroke="#999999" stroke-width="4.0" stroke-linecap="butt" d="m443.34784 779.24744l-14.414734 12.859863l19.308502 -0.5856323z" fill-rule="evenodd"/><path fill="#000000" fill-opacity="0.0" d="m442.8133 741.84644l291.43304 -113.57477l17.385864 44.629883l-291.43307 113.57483z" fill-rule="evenodd"/><path fill="#999999" d="m571.75104 723.99774l-4.123291 -10.584595l1.4849854 -0.57873535l5.9783936 5.3170776l1.8754883 1.8013306l0.02911377 -0.011352539q-0.33538818 -0.7748413 -0.74279785 -1.6055298q-0.41308594 -0.8451538 -0.73638916 -1.6750488l-2.1381836 -5.4888306l1.2811279 -0.49926758l4.123291 10.584595l-1.4849243 0.5786743l-5.9695435 -5.3372803l-1.8754883 -1.8013306l-0.043701172 0.017028809q0.3612671 0.7982788 0.7630615 1.6143799q0.39605713 0.8015137 0.71936035 1.6314087l2.1552124 5.5325317l-1.2957153 0.50494385zm8.871887 -3.4575195l-0.5418701 -11.980286l1.5140991 -0.5900879l7.6901245 9.19458l-1.4267578 0.5560303l-4.1427 -5.2107544q-0.6226196 -0.7803345 -1.239502 -1.5460815q-0.6080322 -0.78601074 -1.1983032 -1.6124268l-0.072753906 0.028320312q0.109802246 1.0137329 0.19372559 2.0039673q0.07824707 0.975647 0.14758301 1.9715576l0.45941162 6.64624l-1.3830566 0.5389404zm0.6189575 -3.9640503l-0.41967773 -1.0773926l4.862549 -1.8949585l0.41967773 1.0773926l-4.862549 1.8949585zm14.295715 -1.63031q-0.97546387 0.38012695 -1.9616089 0.34521484q-0.9918823 -0.04949951 -1.8901367 -0.5043335q-0.8982544 -0.45489502 -1.6446533 -1.3378906q-0.7520752 -0.897522 -1.256897 -2.1932983q-0.65789795 -1.6889038 -0.5285034 -3.164734q0.1293335 -1.4758301 0.93688965 -2.545166q0.8164673 -1.0895996 2.199524 -1.6286011q0.9608154 -0.37445068 1.8621216 -0.25610352q0.8956299 0.10369873 1.5397949 0.42285156l-0.42242432 1.1540527q-0.5834961 -0.29248047 -1.2242432 -0.34466553q-0.62615967 -0.057800293 -1.2958984 0.20318604q-1.019043 0.39715576 -1.5719604 1.2163086q-0.53826904 0.81347656 -0.5861206 1.9389648q-0.053588867 1.1109009 0.4625244 2.435791q0.5218506 1.3394165 1.3240356 2.1503906q0.7965088 0.7963867 1.7488403 1.0457153q0.9612427 0.22906494 1.9803467 -0.16809082q0.7279053 -0.28363037 1.1911621 -0.8163452q0.4631958 -0.53271484 0.7369995 -1.293396l1.0803223 0.5348511q-0.32788086 0.96624756 -0.98431396 1.6916504q-0.647583 0.70513916 -1.6958008 1.1136475zm5.5370483 -2.3758545l-4.123291 -10.584656l1.3539429 -0.5276489l2.0645142 5.2996216l0.043640137 -0.017028809l2.390442 -7.0357056l1.5432129 -0.6014404l-3.234314 9.561401l1.3157959 3.3778076l-1.3539429 0.5276489zm6.260193 -2.4396973l-5.578369 -4.6345215l0.40124512 -1.3805542l6.691223 5.425049l-1.5140991 0.59002686zm16.230652 -6.107239q-0.8880615 0.34606934 -1.6662598 0.41455078q-0.76934814 0.04827881 -1.4182129 -0.06774902q-0.64886475 -0.11608887 -1.1951294 -0.35595703l0.3496704 -1.1256714q0.6967163 0.28186035 1.5720825 0.37670898q0.86968994 0.080322266 1.8596802 -0.30548096q0.7133789 -0.27801514 1.1758423 -0.7265625q0.46246338 -0.44854736 0.61828613 -0.99560547q0.15014648 -0.5615845 -0.07104492 -1.1293945q-0.23822021 -0.61151123 -0.7925415 -0.9152832q-0.5454712 -0.32409668 -1.477417 -0.26275635q-0.9173584 0.055664062 -2.2713013 0.583313l-0.39697266 -1.019165q1.2229004 -0.4765625 1.8689575 -1.0134277q0.64038086 -0.55145264 0.810791 -1.104126q0.16467285 -0.5673218 -0.050842285 -1.1205444q-0.29492188 -0.7570801 -1.0474243 -0.96691895q-0.73791504 -0.21551514 -1.6842651 0.15325928q-0.7279053 0.2836914 -1.2695923 0.8302002q-0.541687 0.5465088 -0.84954834 1.2198486l-1.0422974 -0.56640625q0.41937256 -0.81744385 1.1074219 -1.5048218q0.6880493 -0.6873779 1.6780396 -1.0731812q0.97540283 -0.380188 1.8515625 -0.3694458q0.89068604 0.005065918 1.5688477 0.41156006q0.67822266 0.4064331 1.0071411 1.2509155q0.36297607 0.9317627 -0.030456543 1.7727051q-0.3789673 0.8352051 -1.2150269 1.5299683l0.028381348 0.07281494q0.7409668 -0.12109375 1.4594116 0.0014038086q0.72735596 0.10223389 1.2720337 0.510437q0.55926514 0.40252686 0.83148193 1.1013794q0.36297607 0.9317627 0.10870361 1.7855225q-0.23980713 0.8480835 -0.9480591 1.5265503q-0.70825195 0.67852783 -1.7419434 1.0813599z" fill-rule="nonzero"/><path fill="#3c78d8" d="m360.90552 465.80316l78.61417 0l0 78.614136l-78.61417 0z" fill-rule="evenodd"/><path stroke="#3c78d8" stroke-width="8.0" stroke-linejoin="round" stroke-linecap="butt" d="m360.90552 465.80316l78.61417 0l0 78.614136l-78.61417 0z" fill-rule="evenodd"/><path fill="#ffffff" d="m376.93753 511.1265q-1.109375 0 -2.0 -0.265625q-0.890625 -0.265625 -1.578125 -0.765625q-0.6875 -0.5 -1.234375 -1.1875l1.65625 -1.875q0.796875 1.078125 1.609375 1.453125q0.8125 0.359375 1.671875 0.359375q0.4375 0 0.78125 -0.109375q0.359375 -0.125 0.546875 -0.328125q0.1875 -0.21875 0.1875 -0.546875q0 -0.234375 -0.125 -0.421875q-0.109375 -0.203125 -0.328125 -0.34375q-0.203125 -0.140625 -0.5 -0.25q-0.28125 -0.125 -0.609375 -0.21875q-0.3125 -0.09375 -0.640625 -0.15625q-0.9375 -0.203125 -1.625 -0.5q-0.6875 -0.3125 -1.140625 -0.75q-0.453125 -0.4375 -0.6875 -1.0q-0.21875 -0.578125 -0.21875 -1.28125q0 -0.75 0.34375 -1.375q0.34375 -0.640625 0.921875 -1.09375q0.59375 -0.453125 1.359375 -0.703125q0.765625 -0.25 1.609375 -0.25q1.09375 0 1.890625 0.234375q0.796875 0.234375 1.359375 0.671875q0.5625 0.421875 0.96875 1.03125l-1.6875 1.609375q-0.328125 -0.40625 -0.71875 -0.671875q-0.390625 -0.28125 -0.84375 -0.421875q-0.4375 -0.15625 -0.890625 -0.15625q-0.484375 0 -0.828125 0.125q-0.34375 0.125 -0.546875 0.34375q-0.1875 0.203125 -0.1875 0.515625q0 0.265625 0.15625 0.46875q0.171875 0.1875 0.4375 0.34375q0.28125 0.140625 0.625 0.25q0.359375 0.09375 0.734375 0.171875q0.890625 0.171875 1.59375 0.46875q0.71875 0.28125 1.234375 0.703125q0.515625 0.40625 0.796875 0.984375q0.28125 0.5625 0.28125 1.3125q0 1.171875 -0.5625 1.984375q-0.5625 0.796875 -1.546875 1.21875q-0.984375 0.421875 -2.265625 0.421875zm10.206543 0q-1.40625 0 -2.453125 -0.5625q-1.03125 -0.5625 -1.609375 -1.546875q-0.578125 -0.984375 -0.578125 -2.25q0 -0.984375 0.3125 -1.796875q0.328125 -0.8125 0.90625 -1.40625q0.578125 -0.609375 1.359375 -0.9375q0.796875 -0.328125 1.734375 -0.328125q0.90625 0 1.640625 0.328125q0.75 0.3125 1.296875 0.890625q0.546875 0.578125 0.828125 1.359375q0.28125 0.78125 0.25 1.703125l-0.015625 0.6875l-6.765625 0l-0.359375 -1.4375l5.046875 0l-0.265625 0.3125l0 -0.328125q-0.03125 -0.390625 -0.25 -0.703125q-0.21875 -0.3125 -0.578125 -0.484375q-0.34375 -0.1875 -0.796875 -0.1875q-0.625 0 -1.0625 0.25q-0.4375 0.25 -0.671875 0.71875q-0.21875 0.46875 -0.21875 1.15625q0 0.703125 0.296875 1.234375q0.296875 0.515625 0.859375 0.8125q0.578125 0.28125 1.359375 0.28125q0.546875 0 0.96875 -0.15625q0.421875 -0.171875 0.921875 -0.546875l1.203125 1.6875q-0.5 0.4375 -1.0625 0.71875q-0.5625 0.265625 -1.140625 0.390625q-0.578125 0.140625 -1.15625 0.140625zm5.329132 -0.15625l0 -8.5l2.421875 0l0.078125 1.734375l-0.5 0.1875q0.171875 -0.578125 0.625 -1.046875q0.453125 -0.46875 1.09375 -0.75q0.640625 -0.296875 1.34375 -0.296875q0.96875 0 1.625 0.390625q0.65625 0.390625 0.984375 1.171875q0.34375 0.765625 0.34375 1.890625l0 5.21875l-2.578125 0l0 -5.015625q0 -0.5 -0.15625 -0.828125q-0.140625 -0.34375 -0.4375 -0.515625q-0.28125 -0.171875 -0.71875 -0.15625q-0.34375 0 -0.625 0.109375q-0.28125 0.109375 -0.5 0.3125q-0.203125 0.1875 -0.328125 0.453125q-0.109375 0.25 -0.109375 0.546875l0 5.09375l-1.265625 0q-0.453125 0 -0.78125 0q-0.3125 0 -0.515625 0zm13.378784 0.171875q-1.109375 0 -1.96875 -0.5625q-0.859375 -0.5625 -1.359375 -1.5625q-0.484375 -1.0 -0.484375 -2.28125q0 -1.28125 0.484375 -2.28125q0.5 -1.0 1.359375 -1.578125q0.875 -0.578125 2.0 -0.578125q0.5625 0 1.09375 0.1875q0.53125 0.171875 0.953125 0.46875q0.4375 0.296875 0.703125 0.703125q0.28125 0.390625 0.328125 0.796875l-0.609375 0.140625l0 -5.46875l2.578125 0l0 11.84375l-2.375 0l-0.15625 -1.9375l0.515625 0.078125q-0.046875 0.40625 -0.3125 0.78125q-0.265625 0.359375 -0.6875 0.640625q-0.40625 0.28125 -0.953125 0.4375q-0.53125 0.171875 -1.109375 0.171875zm0.65625 -2.125q0.578125 0 1.015625 -0.28125q0.4375 -0.296875 0.65625 -0.796875q0.234375 -0.515625 0.234375 -1.203125q0 -0.703125 -0.234375 -1.21875q-0.21875 -0.515625 -0.65625 -0.796875q-0.4375 -0.296875 -1.015625 -0.296875q-0.59375 0 -1.03125 0.296875q-0.421875 0.28125 -0.65625 0.796875q-0.234375 0.515625 -0.234375 1.21875q0 0.6875 0.234375 1.203125q0.234375 0.5 0.65625 0.796875q0.4375 0.28125 1.03125 0.28125zm10.635895 2.109375q-1.40625 0 -2.453125 -0.5625q-1.03125 -0.5625 -1.609375 -1.546875q-0.578125 -0.984375 -0.578125 -2.25q0 -0.984375 0.3125 -1.796875q0.328125 -0.8125 0.90625 -1.40625q0.578125 -0.609375 1.359375 -0.9375q0.796875 -0.328125 1.734375 -0.328125q0.90625 0 1.640625 0.328125q0.75 0.3125 1.296875 0.890625q0.546875 0.578125 0.828125 1.359375q0.28125 0.78125 0.25 1.703125l-0.015625 0.6875l-6.765625 0l-0.359375 -1.4375l5.046875 0l-0.265625 0.3125l0 -0.328125q-0.03125 -0.390625 -0.25 -0.703125q-0.21875 -0.3125 -0.578125 -0.484375q-0.34375 -0.1875 -0.796875 -0.1875q-0.625 0 -1.0625 0.25q-0.4375 0.25 -0.671875 0.71875q-0.21875 0.46875 -0.21875 1.15625q0 0.703125 0.296875 1.234375q0.296875 0.515625 0.859375 0.8125q0.578125 0.28125 1.359375 0.28125q0.546875 0 0.96875 -0.15625q0.421875 -0.171875 0.921875 -0.546875l1.203125 1.6875q-0.5 0.4375 -1.0625 0.71875q-0.5625 0.265625 -1.140625 0.390625q-0.578125 0.140625 -1.15625 0.140625zm5.329132 -0.15625l0 -8.5l2.421875 0l0.125 2.765625l-0.484375 -0.515625q0.1875 -0.6875 0.625 -1.234375q0.4375 -0.546875 1.03125 -0.859375q0.59375 -0.328125 1.265625 -0.328125q0.296875 0 0.53125 0.046875q0.25 0.046875 0.46875 0.109375l-0.703125 2.828125q-0.1875 -0.109375 -0.484375 -0.171875q-0.296875 -0.078125 -0.609375 -0.078125q-0.359375 0 -0.65625 0.125q-0.296875 0.109375 -0.515625 0.34375q-0.203125 0.21875 -0.328125 0.53125q-0.109375 0.296875 -0.109375 0.6875l0 4.25l-2.578125 0z" fill-rule="nonzero"/><path fill="#3c78d8" d="m349.18896 470.19684l51.02362 -48.346436l51.02362 48.346436z" fill-rule="evenodd"/><path stroke="#3c78d8" stroke-width="8.0" stroke-linejoin="round" stroke-linecap="butt" d="m349.18896 470.19684l51.02362 -48.346436l51.02362 48.346436z" fill-rule="evenodd"/><path fill="#000000" fill-opacity="0.0" d="m763.0289 306.9029l-339.52756 135.37009" fill-rule="evenodd"/><path stroke="#999999" stroke-width="4.0" stroke-linejoin="round" stroke-linecap="butt" d="m763.0289 306.9029l-317.23416 126.48166" fill-rule="evenodd"/><path fill="#999999" stroke="#999999" stroke-width="4.0" stroke-linecap="butt" d="m443.34784 427.24744l-14.414734 12.859863l19.308502 -0.5856323z" fill-rule="evenodd"/></g></svg>