<svg version="1.1" viewBox="0.0 0.0 510.0 492.0" fill="none" stroke="none" stroke-linecap="square" stroke-miterlimit="10" preserveAspectRatio="none" width="510" height="492" xmlns:xlink="http://www.w3.org/1999/xlink" xmlns="http://www.w3.org/2000/svg"><clipPath id="id_0"><path d="M0 0L510.0 0L510.0 492.0L0 492.0L0 0Z" clip-rule="nonzero"/></clipPath><path fill="#000000" fill-opacity="0.0" clip-path="url(#id_0)" d="M-72.32284 -233.73505L1192.5747 -233.73505L1192.5747 714.1841L-72.32284 714.1841Z" fill-rule="evenodd"/><path fill="#3c78d8" clip-path="url(#id_0)" d="M416.7797 410.42548L494.4663 410.42548L494.4663 488.05032L416.7797 488.05032Z" fill-rule="evenodd"/><path stroke="#3c78d8" stroke-width="7.902467274888077" stroke-linejoin="round" stroke-linecap="butt" clip-path="url(#id_0)" d="M416.7797 410.42548L494.4663 410.42548L494.4663 488.05032L416.7797 488.05032Z" fill-rule="evenodd"/><path fill="#ffffff" clip-path="url(#id_0)" d="M434.15625 455.17844Q433.05997 455.17844 432.17984 454.91617Q431.2997 454.65387 430.62033 454.16016Q429.94095 453.66647 429.4005 452.9876L431.03723 451.1362Q431.8247 452.20078 432.62762 452.57104Q433.43054 452.9259 434.27975 452.9259Q434.7121 452.9259 435.0518 452.8179Q435.40692 452.69446 435.59222 452.4939Q435.7775 452.2779 435.7775 451.95392Q435.7775 451.72247 435.654 451.53735Q435.5459 451.33676 435.32974 451.1979Q435.129 451.05905 434.83563 450.95108Q434.5577 450.82764 434.23346 450.73508Q433.92462 450.6425 433.60037 450.58078Q432.67395 450.38022 431.99457 450.08707Q431.31516 449.7785 430.8674 449.34653Q430.41962 448.91452 430.188 448.3591Q429.97183 447.78824 429.97183 447.09396Q429.97183 446.35342 430.31152 445.73627Q430.6512 445.1037 431.22253 444.65628Q431.80927 444.20886 432.56586 443.962Q433.32245 443.71515 434.15625 443.71515Q435.2371 443.71515 436.02457 443.9466Q436.81204 444.178 437.3679 444.61002Q437.92377 445.02658 438.32523 445.62827L436.65762 447.2174Q436.33337 446.81625 435.94736 446.554Q435.56134 446.27628 435.11356 446.13742Q434.6812 445.98312 434.23346 445.98312Q433.7548 445.98312 433.4151 446.10657Q433.0754 446.22998 432.87466 446.44598Q432.6894 446.64655 432.6894 446.9551Q432.6894 447.2174 432.84378 447.41797Q433.01364 447.60312 433.27612 447.7574Q433.55405 447.89624 433.89374 448.00424Q434.2489 448.09683 434.61948 448.17395Q435.49957 448.34366 436.1944 448.6368Q436.90466 448.91452 437.4142 449.3311Q437.92377 449.73224 438.2017 450.30307Q438.4796 450.8585 438.4796 451.59906Q438.4796 452.7562 437.92377 453.55847Q437.3679 454.3453 436.39514 454.76187Q435.42236 455.17844 434.15625 455.17844ZM444.24234 455.17844Q442.8527 455.17844 441.81818 454.62302Q440.79907 454.0676 440.22778 453.0956Q439.65646 452.12363 439.65646 450.87393Q439.65646 449.90195 439.9653 449.09967Q440.28955 448.2974 440.86084 447.71112Q441.43216 447.1094 442.2042 446.7854Q442.99167 446.4614 443.9181 446.4614Q444.81366 446.4614 445.53937 446.7854Q446.28052 447.09396 446.82092 447.66483Q447.36136 448.2357 447.63928 449.00708Q447.9172 449.7785 447.88635 450.68878L447.8709 451.36765L441.1851 451.36765L440.82996 449.9482L445.8173 449.9482L445.5548 450.25677L445.5548 449.9328Q445.52393 449.5471 445.30774 449.23853Q445.09158 448.92996 444.73645 448.76022Q444.39676 448.5751 443.94897 448.5751Q443.33136 448.5751 442.89902 448.82196Q442.46667 449.06882 442.23508 449.53165Q442.0189 449.9945 442.0189 450.67337Q442.0189 451.36765 442.31226 451.8922Q442.60565 452.40134 443.1615 452.69446Q443.73282 452.97217 444.50485 452.97217Q445.04526 452.97217 445.46216 452.8179Q445.87906 452.6482 446.37317 452.2779L447.56207 453.94418Q447.068 454.37616 446.51212 454.65387Q445.95627 454.91617 445.38495 455.03958Q444.81366 455.17844 444.24234 455.17844ZM449.5086 455.02417L449.5086 446.63113L451.90192 446.63113L452.02545 449.36194L451.54678 448.8528Q451.73206 448.17395 452.1644 447.63397Q452.59674 447.09396 453.1835 446.7854Q453.77023 446.4614 454.43417 446.4614Q454.72754 446.4614 454.95917 446.5077Q455.2062 446.554 455.4224 446.6157L454.72754 449.40823Q454.54227 449.30023 454.2489 449.23853Q453.95554 449.16138 453.6467 449.16138Q453.29156 449.16138 452.9982 449.2848Q452.70483 449.3928 452.48865 449.62424Q452.28793 449.8402 452.1644 450.1488Q452.05634 450.44193 452.05634 450.82764L452.05634 455.02417L449.5086 455.02417ZM460.0719 455.02417L456.55142 446.63113L459.3616 446.63113L461.4461 452.91046L460.8285 452.97217L462.97473 446.63113L465.73862 446.63113L462.06372 455.02417L460.0719 455.02417ZM470.82108 455.17844Q469.4314 455.17844 468.39688 454.62302Q467.3778 454.0676 466.8065 453.0956Q466.2352 452.12363 466.2352 450.87393Q466.2352 449.90195 466.544 449.09967Q466.86826 448.2974 467.43958 447.71112Q468.01086 447.1094 468.7829 446.7854Q469.57037 446.4614 470.4968 446.4614Q471.39236 446.4614 472.11807 446.7854Q472.85922 447.09396 473.39966 447.66483Q473.94006 448.2357 474.21802 449.00708Q474.49594 449.7785 474.46506 450.68878L474.44962 451.36765L467.76382 451.36765L467.4087 449.9482L472.396 449.9482L472.1335 450.25677L472.1335 449.9328Q472.10263 449.5471 471.88647 449.23853Q471.6703 448.92996 471.31516 448.76022Q470.97546 448.5751 470.52768 448.5751Q469.91006 448.5751 469.47772 448.82196Q469.04538 449.06882 468.81378 449.53165Q468.5976 449.9945 468.5976 450.67337Q468.5976 451.36765 468.891 451.8922Q469.18436 452.40134 469.7402 452.69446Q470.31152 452.97217 471.08356 452.97217Q471.62396 452.97217 472.04086 452.8179Q472.45776 452.6482 472.95187 452.2779L474.1408 453.94418Q473.6467 454.37616 473.09085 454.65387Q472.53497 454.91617 471.96368 455.03958Q471.39236 455.17844 470.82108 455.17844ZM476.08734 455.02417L476.08734 446.63113L478.48062 446.63113L478.60416 449.36194L478.1255 448.8528Q478.3108 448.17395 478.74313 447.63397Q479.17545 447.09396 479.7622 446.7854Q480.34894 446.4614 481.0129 446.4614Q481.30627 446.4614 481.53787 446.5077Q481.78494 446.554 482.0011 446.6157L481.30627 449.40823Q481.12097 449.30023 480.8276 449.23853Q480.53424 449.16138 480.22543 449.16138Q479.8703 449.16138 479.5769 449.2848Q479.28354 449.3928 479.06738 449.62424Q478.86664 449.8402 478.74313 450.1488Q478.63504 450.44193 478.63504 450.82764L478.63504 455.02417L476.08734 455.02417Z" fill-rule="nonzero"/><path fill="#3c78d8" clip-path="url(#id_0)" d="M405.2014 414.7639L455.623 367.02582L506.04462 414.7639Z" fill-rule="evenodd"/><path stroke="#3c78d8" stroke-width="7.902467274888077" stroke-linejoin="round" stroke-linecap="butt" clip-path="url(#id_0)" d="M405.2014 414.7639L455.623 367.02582L506.04462 414.7639Z" fill-rule="evenodd"/><path fill="#000000" fill-opacity="0.0" clip-path="url(#id_0)" d="M93.20994 328.1978L416.7797 449.23788" fill-rule="evenodd"/><path stroke="#666666" stroke-width="3.9512336374440387" stroke-linejoin="round" stroke-linecap="butt" clip-path="url(#id_0)" d="M93.20994 328.1978L394.5684 440.92914" fill-rule="evenodd"/><path fill="#666666" stroke="#666666" stroke-width="3.9512336374440387" stroke-linecap="butt" clip-path="url(#id_0)" d="M392.27924 447.03882L411.3679 447.21347L396.85748 434.8195Z" fill-rule="evenodd"/><path fill="#3c78d8" clip-path="url(#id_0)" d="M15.533692 289.40094L93.220314 289.40094L93.220314 367.02582L15.533692 367.02582Z" fill-rule="evenodd"/><path stroke="#3c78d8" stroke-width="7.902467274888077" stroke-linejoin="round" stroke-linecap="butt" clip-path="url(#id_0)" d="M15.533692 289.40094L93.220314 289.40094L93.220314 367.02582L15.533692 367.02582Z" fill-rule="evenodd"/><path fill="#ffffff" clip-path="url(#id_0)" d="M37.589397 334.15393Q36.338703 334.15393 35.288742 333.73737Q34.238777 333.3208 33.451305 332.5648Q32.67927 331.79337 32.262375 330.74426Q31.845478 329.6797 31.845478 328.43Q31.845478 327.1957 32.277817 326.1466Q32.725594 325.09747 33.513065 324.34146Q34.30054 323.57007 35.365944 323.1535Q36.431347 322.7215 37.697483 322.7215Q38.484955 322.7215 39.241547 322.92206Q39.99814 323.12262 40.646645 323.5392Q41.310593 323.94034 41.789253 324.49576L40.152542 326.36258Q39.81285 326.02316 39.442272 325.7609Q39.071697 325.4986 38.62392 325.35974Q38.19158 325.2209 37.68204 325.2209Q37.048973 325.2209 36.47767 325.45233Q35.921806 325.6683 35.50491 326.1003Q35.088013 326.51688 34.84096 327.1186Q34.609352 327.70486 34.609352 328.46085Q34.609352 329.18597 34.84096 329.77225Q35.088013 330.35855 35.50491 330.79053Q35.93725 331.22253 36.539433 331.43854Q37.15706 331.6545 37.89821 331.6545Q38.40775 331.6545 38.85553 331.51566Q39.31875 331.3768 39.704765 331.12994Q40.10622 330.88312 40.399593 330.57452L41.69661 332.62653Q41.29515 333.07394 40.631203 333.42877Q39.982697 333.76822 39.179783 333.96878Q38.39231 334.15393 37.589397 334.15393ZM43.2817 333.99963L43.2817 322.30493L45.81397 322.30493L45.81397 333.99963L43.2817 333.99963ZM48.21185 333.99963L48.21185 325.6066L50.744118 325.6066L50.744118 333.99963L48.21185 333.99963ZM49.477985 323.95578Q48.767715 323.95578 48.366257 323.61633Q47.9648 323.27692 47.9648 322.64435Q47.9648 322.07352 48.366257 321.71866Q48.783154 321.34836 49.477985 321.34836Q50.18825 321.34836 50.57427 321.6878Q50.975727 322.02722 50.975727 322.64435Q50.975727 323.23062 50.57427 323.60092Q50.172813 323.95578 49.477985 323.95578ZM57.115795 334.15393Q55.726135 334.15393 54.691612 333.5985Q53.67253 333.0431 53.101227 332.07108Q52.529922 331.0991 52.529922 329.8494Q52.529922 328.8774 52.838737 328.07513Q53.16299 327.27286 53.734295 326.68658Q54.3056 326.08487 55.07763 325.7609Q55.8651 325.4369 56.791542 325.4369Q57.6871 325.4369 58.412807 325.7609Q59.15396 326.06946 59.69438 326.6403Q60.234806 327.21115 60.512737 327.98257Q60.79067 328.754 60.759785 329.66428L60.744347 330.3431L54.058548 330.3431L53.70341 328.9237L58.69074 328.9237L58.42825 329.23227L58.42825 328.90826Q58.39737 328.52255 58.1812 328.214Q57.96503 327.90543 57.609894 327.73572Q57.270203 327.55057 56.822422 327.55057Q56.204796 327.55057 55.772457 327.79742Q55.340122 328.04428 55.10851 328.50714Q54.89234 328.97 54.89234 329.64883Q54.89234 330.3431 55.185715 330.86768Q55.479088 331.3768 56.03495 331.66995Q56.606255 331.94766 57.378284 331.94766Q57.91871 331.94766 58.335606 331.79337Q58.752502 331.62366 59.246605 331.2534L60.43553 332.91965Q59.941433 333.35165 59.38557 333.62936Q58.829704 333.89163 58.258404 334.01508Q57.6871 334.15393 57.115795 334.15393ZM62.382065 333.99963L62.382065 325.6066L64.77537 325.6066L64.85257 327.31915L64.35847 327.5043Q64.52831 326.93344 64.97609 326.47058Q65.423874 326.00775 66.05694 325.73004Q66.69 325.4369 67.384834 325.4369Q68.342155 325.4369 68.99066 325.8226Q69.63917 326.2083 69.96342 326.97974Q70.303116 327.73572 70.303116 328.84656L70.303116 333.99963L67.75541 333.99963L67.75541 329.04712Q67.75541 328.5534 67.601006 328.22943Q67.462036 327.89 67.16866 327.72028Q66.89073 327.55057 66.4584 327.566Q66.1187 327.566 65.84077 327.674Q65.562836 327.782 65.346664 327.98257Q65.14594 328.16772 65.022415 328.43Q64.91433 328.67685 64.91433 328.97L64.91433 333.99963L63.66364 333.99963Q63.21586 333.99963 62.891605 333.99963Q62.582794 333.99963 62.382065 333.99963ZM73.117035 333.99963L73.117035 323.49292L75.6493 323.49292L75.6493 333.99963L73.117035 333.99963ZM71.634735 327.82828L71.634735 325.6066L77.27057 325.6066L77.27057 327.82828L71.634735 327.82828Z" fill-rule="nonzero"/><path fill="#3c78d8" clip-path="url(#id_0)" d="M3.9553986 293.73935L54.377003 246.0013L104.79861 293.73935Z" fill-rule="evenodd"/><path stroke="#3c78d8" stroke-width="7.902467274888077" stroke-linejoin="round" stroke-linecap="butt" clip-path="url(#id_0)" d="M3.9553986 293.73935L54.377003 246.0013L104.79861 293.73935Z" fill-rule="evenodd"/><path fill="#000000" fill-opacity="0.0" clip-path="url(#id_0)" d="M416.7797 207.18886L93.20994 328.22894" fill-rule="evenodd"/><path stroke="#666666" stroke-width="3.9512336374440387" stroke-linejoin="round" stroke-linecap="butt" clip-path="url(#id_0)" d="M416.7797 207.18886L115.421265 319.92017" fill-rule="evenodd"/><path fill="#666666" stroke="#666666" stroke-width="3.9512336374440387" stroke-linecap="butt" clip-path="url(#id_0)" d="M113.13213 313.81052L98.621735 326.2045L117.71038 326.02985Z" fill-rule="evenodd"/><path fill="#3c78d8" clip-path="url(#id_0)" d="M416.7797 168.37642L494.4663 168.37642L494.4663 246.0013L416.7797 246.0013Z" fill-rule="evenodd"/><path stroke="#3c78d8" stroke-width="7.902467274888077" stroke-linejoin="round" stroke-linecap="butt" clip-path="url(#id_0)" d="M416.7797 168.37642L494.4663 168.37642L494.4663 246.0013L416.7797 246.0013Z" fill-rule="evenodd"/><path fill="#ffffff" clip-path="url(#id_0)" d="M434.15625 213.1294Q433.05997 213.1294 432.17984 212.86711Q431.2997 212.60483 430.62033 212.11113Q429.94095 211.61742 429.4005 210.93857L431.03723 209.08716Q431.8247 210.15172 432.62762 210.522Q433.43054 210.87686 434.27975 210.87686Q434.7121 210.87686 435.0518 210.76886Q435.40692 210.64543 435.59222 210.44487Q435.7775 210.22887 435.7775 209.90488Q435.7775 209.67345 435.654 209.4883Q435.5459 209.28773 435.32974 209.14888Q435.129 209.01003 434.83563 208.90202Q434.5577 208.7786 434.23346 208.68604Q433.92462 208.59346 433.60037 208.53174Q432.67395 208.33118 431.99457 208.03804Q431.31516 207.72946 430.8674 207.29747Q430.41962 206.86548 430.188 206.31006Q429.97183 205.73921 429.97183 205.04494Q429.97183 204.30437 430.31152 203.68724Q430.6512 203.05467 431.22253 202.60725Q431.80927 202.15982 432.56586 201.91298Q433.32245 201.66612 434.15625 201.66612Q435.2371 201.66612 436.02457 201.89754Q436.81204 202.12897 437.3679 202.56096Q437.92377 202.97752 438.32523 203.57924L436.65762 205.16837Q436.33337 204.76723 435.94736 204.50494Q435.56134 204.22723 435.11356 204.08838Q434.6812 203.9341 434.23346 203.9341Q433.7548 203.9341 433.4151 204.05751Q433.0754 204.18094 432.87466 204.39694Q432.6894 204.5975 432.6894 204.90608Q432.6894 205.16837 432.84378 205.36893Q433.01364 205.55406 433.27612 205.70836Q433.55405 205.84721 433.89374 205.9552Q434.2489 206.04778 434.61948 206.12492Q435.49957 206.29463 436.1944 206.58777Q436.90466 206.86548 437.4142 207.28204Q437.92377 207.68318 438.2017 208.25403Q438.4796 208.80945 438.4796 209.55002Q438.4796 210.70714 437.92377 211.50941Q437.3679 212.29626 436.39514 212.71283Q435.42236 213.1294 434.15625 213.1294ZM444.24234 213.1294Q442.8527 213.1294 441.81818 212.57397Q440.79907 212.01855 440.22778 211.04657Q439.65646 210.07458 439.65646 208.82489Q439.65646 207.85289 439.9653 207.05061Q440.28955 206.24835 440.86084 205.66206Q441.43216 205.06036 442.2042 204.73636Q442.99167 204.41237 443.9181 204.41237Q444.81366 204.41237 445.53937 204.73636Q446.28052 205.04494 446.82092 205.61578Q447.36136 206.18663 447.63928 206.95805Q447.9172 207.72946 447.88635 208.63974L447.8709 209.31859L441.1851 209.31859L440.82996 207.89919L445.8173 207.89919L445.5548 208.20775L445.5548 207.88376Q445.52393 207.49805 445.30774 207.18948Q445.09158 206.8809 444.73645 206.7112Q444.39676 206.52606 443.94897 206.52606Q443.33136 206.52606 442.89902 206.7729Q442.46667 207.01976 442.23508 207.48262Q442.0189 207.94547 442.0189 208.62431Q442.0189 209.31859 442.31226 209.84315Q442.60565 210.3523 443.1615 210.64543Q443.73282 210.92314 444.50485 210.92314Q445.04526 210.92314 445.46216 210.76886Q445.87906 210.59915 446.37317 210.22887L447.56207 211.89513Q447.068 212.32712 446.51212 212.60483Q445.95627 212.86711 445.38495 212.99054Q444.81366 213.1294 444.24234 213.1294ZM449.5086 212.97511L449.5086 204.58208L451.90192 204.58208L452.02545 207.3129L451.54678 206.80377Q451.73206 206.12492 452.1644 205.58493Q452.59674 205.04494 453.1835 204.73636Q453.77023 204.41237 454.43417 204.41237Q454.72754 204.41237 454.95917 204.45865Q455.2062 204.50494 455.4224 204.56665L454.72754 207.35919Q454.54227 207.25119 454.2489 207.18948Q453.95554 207.11234 453.6467 207.11234Q453.29156 207.11234 452.9982 207.23576Q452.70483 207.34377 452.48865 207.57518Q452.28793 207.79118 452.1644 208.09975Q452.05634 208.39288 452.05634 208.7786L452.05634 212.97511L449.5086 212.97511ZM460.0719 212.97511L456.55142 204.58208L459.3616 204.58208L461.4461 210.86143L460.8285 210.92314L462.97473 204.58208L465.73862 204.58208L462.06372 212.97511L460.0719 212.97511ZM470.82108 213.1294Q469.4314 213.1294 468.39688 212.57397Q467.3778 212.01855 466.8065 211.04657Q466.2352 210.07458 466.2352 208.82489Q466.2352 207.85289 466.544 207.05061Q466.86826 206.24835 467.43958 205.66206Q468.01086 205.06036 468.7829 204.73636Q469.57037 204.41237 470.4968 204.41237Q471.39236 204.41237 472.11807 204.73636Q472.85922 205.04494 473.39966 205.61578Q473.94006 206.18663 474.21802 206.95805Q474.49594 207.72946 474.46506 208.63974L474.44962 209.31859L467.76382 209.31859L467.4087 207.89919L472.396 207.89919L472.1335 208.20775L472.1335 207.88376Q472.10263 207.49805 471.88647 207.18948Q471.6703 206.8809 471.31516 206.7112Q470.97546 206.52606 470.52768 206.52606Q469.91006 206.52606 469.47772 206.7729Q469.04538 207.01976 468.81378 207.48262Q468.5976 207.94547 468.5976 208.62431Q468.5976 209.31859 468.891 209.84315Q469.18436 210.3523 469.7402 210.64543Q470.31152 210.92314 471.08356 210.92314Q471.62396 210.92314 472.04086 210.76886Q472.45776 210.59915 472.95187 210.22887L474.1408 211.89513Q473.6467 212.32712 473.09085 212.60483Q472.53497 212.86711 471.96368 212.99054Q471.39236 213.1294 470.82108 213.1294ZM476.08734 212.97511L476.08734 204.58208L478.48062 204.58208L478.60416 207.3129L478.1255 206.80377Q478.3108 206.12492 478.74313 205.58493Q479.17545 205.04494 479.7622 204.73636Q480.34894 204.41237 481.0129 204.41237Q481.30627 204.41237 481.53787 204.45865Q481.78494 204.50494 482.0011 204.56665L481.30627 207.35919Q481.12097 207.25119 480.8276 207.18948Q480.53424 207.11234 480.22543 207.11234Q479.8703 207.11234 479.5769 207.23576Q479.28354 207.34377 479.06738 207.57518Q478.86664 207.79118 478.74313 208.09975Q478.63504 208.39288 478.63504 208.7786L478.63504 212.97511L476.08734 212.97511Z" fill-rule="nonzero"/><path fill="#3c78d8" clip-path="url(#id_0)" d="M405.2014 172.71483L455.623 124.976776L506.04462 172.71483Z" fill-rule="evenodd"/><path stroke="#3c78d8" stroke-width="7.902467274888077" stroke-linejoin="round" stroke-linecap="butt" clip-path="url(#id_0)" d="M405.2014 172.71483L455.623 124.976776L506.04462 172.71483Z" fill-rule="evenodd"/><path fill="#000000" fill-opacity="0.0" clip-path="url(#id_0)" d="M93.220314 86.16434L416.79007 207.2044" fill-rule="evenodd"/><path stroke="#666666" stroke-width="3.9512336374440387" stroke-linejoin="round" stroke-linecap="butt" clip-path="url(#id_0)" d="M93.220314 86.16434L394.57877 198.89565" fill-rule="evenodd"/><path fill="#666666" stroke="#666666" stroke-width="3.9512336374440387" stroke-linecap="butt" clip-path="url(#id_0)" d="M392.2896 205.00533L411.37827 205.17998L396.86786 192.786Z" fill-rule="evenodd"/><path fill="#3c78d8" clip-path="url(#id_0)" d="M15.533692 47.3519L93.220314 47.3519L93.220314 124.976776L15.533692 124.976776Z" fill-rule="evenodd"/><path stroke="#3c78d8" stroke-width="7.902467274888077" stroke-linejoin="round" stroke-linecap="butt" clip-path="url(#id_0)" d="M15.533692 47.3519L93.220314 47.3519L93.220314 124.976776L15.533692 124.976776Z" fill-rule="evenodd"/><path fill="#ffffff" clip-path="url(#id_0)" d="M37.589397 92.10488Q36.338703 92.10488 35.288742 91.68832Q34.238777 91.27174 33.451305 90.515755Q32.67927 89.74434 32.262375 88.695206Q31.845478 87.63065 31.845478 86.38095Q31.845478 85.14668 32.277817 84.09756Q32.725594 83.04842 33.513065 82.292435Q34.30054 81.52102 35.365944 81.10445Q36.431347 80.672455 37.697483 80.672455Q38.484955 80.672455 39.241547 80.873024Q39.99814 81.07359 40.646645 81.49016Q41.310593 81.8913 41.789253 82.44672L40.152542 84.31355Q39.81285 83.97413 39.442272 83.711845Q39.071697 83.44956 38.62392 83.31071Q38.19158 83.17185 37.68204 83.17185Q37.048973 83.17185 36.47767 83.403275Q35.921806 83.61928 35.50491 84.05127Q35.088013 84.467834 34.84096 85.06954Q34.609352 85.65582 34.609352 86.41181Q34.609352 87.13694 34.84096 87.72322Q35.088013 88.3095 35.50491 88.74149Q35.93725 89.173485 36.539433 89.38949Q37.15706 89.605484 37.89821 89.605484Q38.40775 89.605484 38.85553 89.46663Q39.31875 89.327774 39.704765 89.08092Q40.10622 88.83406 40.399593 88.5255L41.69661 90.57747Q41.29515 91.024895 40.631203 91.379745Q39.982697 91.71917 39.179783 91.91974Q38.39231 92.10488 37.589397 92.10488ZM43.2817 91.95059L43.2817 80.25589L45.81397 80.25589L45.81397 91.95059L43.2817 91.95059ZM48.21185 91.95059L48.21185 83.55756L50.744118 83.55756L50.744118 91.95059L48.21185 91.95059ZM49.477985 81.90672Q48.767715 81.90672 48.366257 81.5673Q47.9648 81.227875 47.9648 80.595314Q47.9648 80.02447 48.366257 79.66961Q48.783154 79.29933 49.477985 79.29933Q50.18825 79.29933 50.57427 79.638756Q50.975727 79.97818 50.975727 80.595314Q50.975727 81.181595 50.57427 81.55187Q50.172813 81.90672 49.477985 81.90672ZM57.115795 92.10488Q55.726135 92.10488 54.691612 91.54945Q53.67253 90.99403 53.101227 90.02205Q52.529922 89.050064 52.529922 87.80036Q52.529922 86.82838 52.838737 86.0261Q53.16299 85.22382 53.734295 84.63755Q54.3056 84.03584 55.07763 83.711845Q55.8651 83.38785 56.791542 83.38785Q57.6871 83.38785 58.412807 83.711845Q59.15396 84.02041 59.69438 84.59126Q60.234806 85.16211 60.512737 85.93353Q60.79067 86.70495 60.759785 87.61522L60.744347 88.29407L54.058548 88.29407L53.70341 86.874664L58.69074 86.874664L58.42825 87.18323L58.42825 86.85923Q58.39737 86.473526 58.1812 86.164955Q57.96503 85.85639 57.609894 85.686676Q57.270203 85.50153 56.822422 85.50153Q56.204796 85.50153 55.772457 85.74839Q55.340122 85.99525 55.10851 86.45809Q54.89234 86.920944 54.89234 87.59979Q54.89234 88.29407 55.185715 88.818634Q55.479088 89.327774 56.03495 89.62091Q56.606255 89.89862 57.378284 89.89862Q57.91871 89.89862 58.335606 89.74434Q58.752502 89.57462 59.246605 89.204346L60.43553 90.870605Q59.941433 91.302605 59.38557 91.580315Q58.829704 91.8426 58.258404 91.96603Q57.6871 92.10488 57.115795 92.10488ZM62.382065 91.95059L62.382065 83.55756L64.77537 83.55756L64.85257 85.27011L64.35847 85.45525Q64.52831 84.8844 64.97609 84.42155Q65.423874 83.9587 66.05694 83.680984Q66.69 83.38785 67.384834 83.38785Q68.342155 83.38785 68.99066 83.77356Q69.63917 84.15926 69.96342 84.93069Q70.303116 85.686676 70.303116 86.797516L70.303116 91.95059L67.75541 91.95059L67.75541 86.998085Q67.75541 86.50438 67.601006 86.18038Q67.462036 85.84096 67.16866 85.67125Q66.89073 85.50153 66.4584 85.51697Q66.1187 85.51697 65.84077 85.62496Q65.562836 85.73296 65.346664 85.93353Q65.14594 86.11867 65.022415 86.38095Q64.91433 86.62781 64.91433 86.920944L64.91433 91.95059L63.66364 91.95059Q63.21586 91.95059 62.891605 91.95059Q62.582794 91.95059 62.382065 91.95059ZM73.117035 91.95059L73.117035 81.44387L75.6493 81.44387L75.6493 91.95059L73.117035 91.95059ZM71.634735 85.77924L71.634735 83.55756L77.27057 83.55756L77.27057 85.77924L71.634735 85.77924Z" fill-rule="nonzero"/><path fill="#3c78d8" clip-path="url(#id_0)" d="M3.9553986 51.690308L54.377003 3.9522548L104.79861 51.690308Z" fill-rule="evenodd"/><path stroke="#3c78d8" stroke-width="7.902467274888077" stroke-linejoin="round" stroke-linecap="butt" clip-path="url(#id_0)" d="M3.9553986 51.690308L54.377003 3.9522548L104.79861 51.690308Z" fill-rule="evenodd"/><path fill="#000000" fill-opacity="0.0" clip-path="url(#id_0)" d="M179.82661 76.06789L340.36652 136.71233L323.62158 180.93611L163.08167 120.29167Z" fill-rule="evenodd"/><clipPath id="id_1"><path d="M0 0L510.0 2.842171E-14L510.0 492.0L0 492.0L0 0Z" clip-rule="nonzero"/></clipPath><path fill="#000000" clip-path="url(#id_1)" d="M196.69092 114.51456Q195.53548 114.07809 194.72626 113.29407Q193.91702 112.510056 193.4626 111.53018L194.62657 110.89775Q194.9947 111.71308 195.65248 112.37391Q196.31024 113.03474 197.2057 113.373Q198.28893 113.78219 199.05594 113.54411Q199.83739 113.3115 200.11604 112.57556Q200.32913 112.01279 200.20927 111.58814Q200.0894 111.1635 199.73807 110.78337Q199.40665 110.39427 198.94524 109.95606L197.68904 108.739296Q197.25652 108.312004 196.8478 107.778244Q196.45898 107.23551 196.30905 106.58508Q196.15912 105.93466 196.4487 105.16986Q196.7492 104.376205 197.42291 103.90495Q198.11105 103.43916 199.02756 103.373024Q199.94408 103.30689 200.94064 103.68335Q201.93721 104.0598 202.62387 104.73154Q203.32497 105.40874 203.68413 106.20418L202.64859 106.80264Q202.31793 106.149925 201.78079 105.65012Q201.26355 105.14135 200.45474 104.83582Q199.54483 104.492096 198.8231 104.69779Q198.10684 104.88906 197.83365 105.610565Q197.64789 106.10119 197.8021 106.522316Q197.97075 106.94889 198.32208 107.32902Q198.67888 107.69472 199.05559 108.051445L200.2829 109.2573Q200.83447 109.76256 201.21782 110.31972Q201.61562 110.88234 201.71677 111.53083Q201.83781 112.17034 201.54822 112.93514Q201.23132 113.77209 200.51234 114.27571Q199.80782 114.7848 198.81714 114.8724Q197.84636 114.95103 196.69092 114.51456ZM203.31035 116.800644L207.28256 106.309944L213.79634 108.77054L213.37563 109.88166L208.21948 107.933914L206.96826 111.23841L211.3156 112.88063L210.88942 114.00618L206.54208 112.36396L205.09962 116.173515L210.41464 118.181274L209.983 119.32126L203.31035 116.800644ZM215.83931 121.747925Q214.655 121.30054 213.97652 120.30201Q213.31795 119.2945 213.25696 117.88596Q213.21588 116.468445 213.87154 114.73683Q214.51628 113.03407 215.47528 112.02733Q216.4542 111.01161 217.6045 110.720406Q218.77473 110.42023 219.95905 110.86761Q221.14337 111.31499 221.8074 112.30807Q222.47691 113.28671 222.52345 114.6898Q222.5899 116.08391 221.94516 117.78667Q221.2895 119.51828 220.30513 120.54843Q219.34067 121.5696 218.17941 121.88967Q217.02364 122.195305 215.83931 121.747925ZM216.25456 120.65123Q217.04893 120.95131 217.83778 120.65551Q218.62665 120.35972 219.33038 119.50395Q220.04855 118.65365 220.57309 117.26836Q221.0703 115.955215 221.08427 114.87189Q221.1127 113.794014 220.71178 113.06527Q220.31085 112.33652 219.51648 112.036446Q218.70767 111.73092 217.92427 112.01228Q217.14088 112.29365 216.44807 113.12055Q215.75528 113.94745 215.25807 115.26059Q214.73354 116.64588 214.69418 117.75262Q214.65483 118.85935 215.0503 119.60253Q215.44576 120.3457 216.25456 120.65123ZM217.80998 125.26336Q216.39458 124.72868 215.78323 123.64005Q215.18086 122.571304 215.21162 121.31288L216.62741 121.715744Q216.58958 122.29524 216.79065 122.76705Q216.98624 123.253296 217.3973 123.6065Q217.80833 123.9597 218.38606 124.17794Q218.63159 124.27069 218.85565 124.28935Q219.08868 124.327896 219.24052 124.31928L219.08173 125.47986Q218.79796 125.48812 218.4728 125.43127Q218.15662 125.3943 217.80998 125.26336ZM236.21417 129.23016L238.88054 122.18826Q239.05342 121.775246 239.26262 121.30997Q239.47728 120.83025 239.65018 120.41724L239.5635 120.3845Q239.18138 120.652504 238.76491 120.92403Q238.36287 121.201 237.96085 121.477974L233.86554 123.92254L240.50931 126.43224L240.11044 127.48564L232.00793 124.4249L232.34123 123.544655L239.9237 118.95362L241.33911 119.4883L237.47072 129.70483L236.21417 129.23016ZM244.43915 132.55159Q243.52924 132.20787 242.907 131.75839Q242.30467 131.29996 241.91937 130.79153Q241.53954 130.26869 241.28072 129.77505L242.27292 129.16022Q242.49037 129.58873 242.79095 130.01567Q243.09702 130.42818 243.56584 130.8032Q244.04012 131.1638 244.7045 131.41478Q245.42665 131.68758 246.12808 131.62265Q246.82953 131.55774 247.37285 131.1692Q247.91618 130.78065 248.18938 130.05916Q248.58824 129.00575 248.11899 128.15224Q247.64975 127.29872 246.5232 126.87316Q245.87326 126.62765 245.36543 126.61725Q244.85759 126.60684 244.20847 126.70801L243.67014 125.99334L245.8655 121.19815L251.64268 123.3805L251.21104 124.52048L246.60373 122.78006L245.1819 125.70672Q245.6917 125.66837 246.16322 125.73104Q246.65466 125.78473 247.23239 126.00297Q248.21451 126.37397 248.87775 127.02036Q249.56088 127.65778 249.75533 128.53944Q249.94977 129.42111 249.52905 130.53223Q249.1138 131.62892 248.28436 132.20628Q247.45493 132.78365 246.43536 132.86034Q245.42126 132.92259 244.43915 132.55159ZM254.61272 136.3947Q253.77502 136.07825 253.18207 135.50789Q252.5891 134.93752 252.2842 134.12958Q251.98474 133.30722 252.03113 132.26912Q252.09195 131.23647 252.55638 130.0099Q253.141 128.46588 253.89197 127.529Q254.66283 126.58314 255.50633 126.14304Q256.36972 125.69397 257.2554 125.66567Q258.161 125.628395 258.98425 125.93938Q259.92303 126.294014 260.4961 126.87335Q261.08908 127.443726 261.4287 128.11633L260.38614 128.64616Q260.13278 128.1381 259.68036 127.71979Q259.2279 127.30147 258.6502 127.08324Q257.8125 126.76679 256.9409 126.93236Q256.0837 127.10338 255.25897 127.929924Q254.44867 128.76193 253.79848 130.47911Q253.32312 131.73453 253.2986 132.71492Q253.28851 133.70076 253.71129 134.37178Q254.15398 135.03383 255.00612 135.35573Q255.61272 135.58487 256.2076 135.4962Q256.80792 135.3931 257.28256 135.0116Q257.76266 134.61565 258.01947 133.93744Q258.4183 132.88403 258.06268 132.12291Q257.7125 131.34737 256.65814 130.94908Q256.05154 130.71994 255.21817 130.78448Q254.3848 130.84904 253.43982 131.38275L253.77544 130.32196Q254.66579 129.93256 255.55887 129.84108Q256.47186 129.74062 257.28067 130.04616Q258.21948 130.40079 258.80502 131.03433Q259.39606 131.65344 259.51828 132.50783Q259.65494 133.36768 259.26157 134.40665Q258.89 135.3879 258.13474 135.94379Q257.39392 136.50513 256.45554 136.62898Q255.52263 136.73842 254.61272 136.3947ZM261.38696 142.63188L261.3229 141.66751Q262.5232 141.59311 263.27106 141.10039Q264.03336 140.61313 264.41037 139.61745L264.66437 138.031L265.079 139.63913Q264.80383 139.79907 264.54544 139.78394Q264.28702 139.7688 264.0415 139.67604Q263.70932 139.55055 263.46964 139.31157Q263.2354 139.05815 263.16043 138.73294Q263.10538 138.39874 263.25836 137.9947Q263.4824 137.40308 263.97263 137.2419Q264.4828 137.07173 264.9883 137.2627Q265.696 137.53003 265.844 138.2292Q266.0119 138.9194 265.65674 139.85736Q265.12128 141.27151 264.00418 141.95462Q262.88705 142.63774 261.38696 142.63188ZM283.18365 147.18745Q282.02823 146.75098 281.219 145.96696Q280.40976 145.18295 279.95535 144.20308L281.1193 143.57065Q281.48746 144.38597 282.1452 145.0468Q282.80298 145.70763 283.69846 146.0459Q284.78168 146.45508 285.54868 146.21701Q286.3301 145.98439 286.60876 145.24846Q286.82187 144.68568 286.702 144.26103Q286.58215 143.8364 286.2308 143.45627Q285.89938 143.06717 285.438 142.62897L284.1818 141.4122Q283.74927 140.9849 283.34055 140.45114Q282.95172 139.9084 282.8018 139.25798Q282.65186 138.60756 282.94144 137.84276Q283.24194 137.0491 283.91565 136.57785Q284.6038 136.11206 285.5203 136.04593Q286.43683 135.97978 287.43338 136.35625Q288.42996 136.7327 289.1166 137.40443Q289.8177 138.08163 290.17685 138.87708L289.14133 139.47554Q288.81067 138.82281 288.27353 138.32301Q287.7563 137.81424 286.94748 137.50871Q286.03757 137.165 285.31586 137.37068Q284.59958 137.56195 284.3264 138.28346Q284.14062 138.77408 284.29483 139.1952Q284.4635 139.62178 284.81482 140.00192Q285.17163 140.36761 285.5483 140.72433L286.77563 141.93019Q287.3272 142.43546 287.71057 142.99261Q288.10837 143.55524 288.2095 144.20372Q288.33054 144.84323 288.04095 145.60803Q287.72406 146.44498 287.0051 146.94861Q286.30054 147.45769 285.30988 147.54529Q284.3391 147.62392 283.18365 147.18745ZM292.11395 150.34648L293.53455 146.59465L292.56207 138.52454L293.9775 139.05922L294.38605 142.77628Q294.46533 143.48248 294.5247 144.19766Q294.58408 144.91284 294.6614 145.6678L294.71918 145.68962Q295.27734 145.17473 295.81012 144.68324Q296.3429 144.19174 296.89014 143.7057L299.58136 141.1761L300.95346 141.69441L294.87775 147.10204L293.45715 150.85388L292.11395 150.34648ZM298.9079 152.9129L302.8801 142.4222L304.35327 142.9787L305.227 150.83006L305.41296 153.39091L305.44183 153.40182Q305.708 152.6117 305.95816 151.73303Q306.21378 150.83995 306.5252 150.01743L308.58508 144.57727L309.85605 145.05739L305.88385 155.5481L304.41064 154.9916L303.55685 147.13126L303.37088 144.5704L303.32758 144.55403Q303.0649 145.3785 302.82022 146.24272Q302.581 147.09251 302.26956 147.91502L300.1933 153.39848L298.9079 152.9129Z" fill-rule="nonzero"/><path fill="#000000" fill-opacity="0.0" clip-path="url(#id_0)" d="M94.75864 286.26556L384.68286 179.15816L401.08545 223.50633L111.16122 330.61374Z" fill-rule="evenodd"/><clipPath id="id_2"><path d="M0 0L510.0 0L510.0 492.0L2.842171E-14 492.0L0 0Z" clip-rule="nonzero"/></clipPath><path fill="#000000" clip-path="url(#id_2)" d="M125.29082 306.759L124.96224 294.9219L126.468414 294.36545L133.9079 303.5756L132.48862 304.0999L128.48535 298.88406Q127.88368 298.10294 127.28736 297.3363Q126.70017 296.5498 126.13125 295.7237L126.05884 295.75046Q126.14984 296.75314 126.21566 297.7322Q126.27612 298.6968 126.32746 299.68124L126.66665 306.25073L125.29082 306.759ZM125.9708 302.8561L125.574715 301.7852L130.41187 299.9982L130.80795 301.0691L125.9708 302.8561ZM140.1238 301.49307Q139.15346 301.85153 138.17967 301.80005Q137.20052 301.7341 136.32085 301.26953Q135.44118 300.80496 134.71893 299.92035Q133.99132 299.02124 133.51495 297.73328Q132.89406 296.05457 133.04736 294.59973Q133.20067 293.14493 134.01701 292.10312Q134.84251 291.0415 136.21834 290.53323Q137.1742 290.1801 138.06267 290.31247Q138.94579 290.43033 139.57674 290.7565L139.13943 291.88855Q138.56801 291.58975 137.9358 291.52722Q137.31808 291.45932 136.6519 291.70544Q135.63812 292.07996 135.07773 292.87915Q134.53181 293.673 134.46509 294.7833Q134.393 295.87912 134.88008 297.19604Q135.37251 298.52744 136.15112 299.3419Q136.92438 300.14188 137.86102 300.40445Q138.80681 300.64722 139.82057 300.2727Q140.54471 300.0052 141.0116 299.48727Q141.4785 298.96936 141.76215 298.22305L142.82033 298.7697Q142.47969 299.71802 141.81854 300.42285Q141.16653 301.10785 140.1238 301.49307ZM145.6357 299.24295L141.74443 288.72202L143.09131 288.22443L145.03961 293.49213L145.08307 293.47607L147.56639 286.5712L149.10153 286.00406L145.7408 295.38794L146.98257 298.74536L145.6357 299.24295ZM151.86317 296.94232L146.4315 292.27063L146.85178 290.91455L153.36935 296.3859L151.86317 296.94232ZM169.23915 290.52307L166.62712 283.46088Q166.48639 283.03583 166.33871 282.54758Q166.1857 282.04483 166.04495 281.6198L165.95807 281.65192Q165.84567 282.10464 165.70967 282.58258Q165.58815 283.05515 165.46663 283.5277L163.98131 288.05713L170.64325 285.59598L171.03398 286.65244L162.9093 289.65393L162.58281 288.77118L165.29027 280.33594L166.70955 279.8116L170.49913 290.0576L169.23915 290.52307ZM177.62741 287.638Q176.71503 287.97507 175.95027 288.04376Q175.19467 288.09262 174.57002 287.96152Q173.94003 287.81592 173.42055 287.61307L173.7656 286.49863Q174.21109 286.67947 174.71829 286.80463Q175.22015 286.9153 175.82024 286.89102Q176.41496 286.85226 177.08115 286.60614Q177.80528 286.33862 178.292 285.82983Q178.77875 285.321 178.93362 284.67163Q179.08852 284.02225 178.82089 283.29868Q178.43016 282.24222 177.51555 281.9057Q176.60094 281.56918 175.4713 281.9865Q174.8196 282.22726 174.42952 282.5523Q174.03943 282.87735 173.61598 283.3792L172.74042 283.19278L171.2483 278.13486L177.0413 275.99472L177.46416 277.138L172.84424 278.84473L173.6931 281.98547Q174.05264 281.62234 174.44965 281.36053Q174.85577 281.0789 175.43507 280.8649Q176.41989 280.50107 177.34488 280.55414Q178.279 280.58737 179.00473 281.12527Q179.73044 281.66318 180.14258 282.7775Q180.54936 283.87735 180.30255 284.85678Q180.05574 285.8362 179.33665 286.56244Q178.61223 287.2742 177.62741 287.638ZM186.23859 284.24292Q185.7559 282.7599 185.5144 281.48383Q185.28738 280.20242 185.28233 278.98706Q185.29175 277.76633 185.54518 276.53772Q185.80772 275.2893 186.27524 273.8829L180.3664 276.06583L179.94354 274.92255L187.35857 272.1832L187.66367 273.0081Q187.06361 274.5457 186.78815 275.84824Q186.52716 277.14545 186.54292 278.38974Q186.56783 279.61423 186.83452 280.91388Q187.10121 282.21353 187.61441 283.73465L186.23859 284.24292ZM197.03699 284.13565L196.35535 283.44986Q197.21233 282.6069 197.45316 281.7448Q197.70848 280.87738 197.33916 279.87885L196.48907 278.51508L197.858 279.45688Q197.75537 279.75797 197.55042 279.91592Q197.34546 280.07388 197.09926 280.16486Q196.76616 280.2879 196.42833 280.26468Q196.08516 280.22696 195.81503 280.03067Q195.55402 279.81454 195.40416 279.40936Q195.18471 278.816 195.44884 278.373Q195.7221 277.91016 196.229 277.7229Q196.93864 277.46072 197.50945 277.8914Q198.08939 278.3022 198.4373 279.24286Q198.96185 280.66107 198.56738 281.9089Q198.17291 283.15674 197.03699 284.13565ZM216.47792 273.28537Q215.31932 273.7134 214.19377 273.6522Q213.06822 273.59097 212.08182 273.14938L212.54492 271.90912Q213.35817 272.28308 214.28851 272.35062Q215.21886 272.41815 216.11678 272.08643Q217.20296 271.68515 217.62546 271.0027Q218.06244 270.31488 217.78947 269.5768Q217.58072 269.01242 217.21141 268.77054Q216.8421 268.52863 216.32735 268.47208Q215.8217 268.3957 215.18573 268.36743L213.43869 268.27264Q212.83168 268.2337 212.17273 268.09882Q211.52289 267.94412 210.98262 267.55154Q210.44235 267.15897 210.15868 266.39197Q209.86429 265.596 210.06325 264.79874Q210.2767 263.99612 210.92494 263.34543Q211.57318 262.6947 212.57246 262.32553Q213.57176 261.95636 214.53108 262.0132Q215.50487 262.06467 216.29826 262.42953L215.90977 263.56Q215.23161 263.28418 214.49803 263.2591Q213.77359 263.2142 212.96257 263.5138Q212.05019 263.85086 211.64058 264.47922Q211.22563 265.09308 211.49327 265.81668Q211.67525 266.30872 212.06818 266.52542Q212.47557 266.73682 212.99034 266.79337Q213.49974 266.83548 214.01828 266.85773L215.73636 266.96323Q216.48442 266.98297 217.1396 267.15216Q217.80927 267.31598 218.31143 267.73907Q218.82274 268.14236 219.10643 268.90936Q219.41687 269.74872 219.205 270.6001Q219.00761 271.44614 218.31749 272.16165Q217.6365 272.85736 216.47792 273.28537ZM222.97464 270.67145L219.08337 260.15048L225.61497 257.73752L226.02711 258.85184L220.85686 260.7619L222.08258 264.07593L226.44182 262.46548L226.85931 263.59427L222.50008 265.2047L223.91315 269.02524L229.24269 267.05634L229.66554 268.19962L222.97464 270.67145ZM235.67868 266.192Q234.49112 266.6307 233.32338 266.3219Q232.16476 265.9933 231.19379 264.97028Q230.23193 263.92743 229.58965 262.19083Q228.95804 260.48315 229.02068 259.09476Q229.09244 257.6865 229.76932 256.71268Q230.45534 255.71904 231.6429 255.2803Q232.83046 254.84158 233.98372 255.15575Q235.13162 255.45543 236.08812 256.4838Q237.05376 257.49234 237.68535 259.2Q238.32765 260.9366 238.26125 262.3593Q238.20396 263.7622 237.53778 264.76498Q236.86624 265.75327 235.67868 266.192ZM235.2719 265.09213Q236.06844 264.79788 236.46953 264.05753Q236.87062 263.3172 236.83974 262.21005Q236.82335 261.09756 236.30951 259.70828Q235.82243 258.39136 235.12158 257.56464Q234.43523 256.73254 233.65411 256.4454Q232.87299 256.15826 232.07645 256.4525Q231.26543 256.75214 230.859 257.478Q230.45255 258.2039 230.47272 259.28207Q230.49287 260.36026 230.97997 261.6772Q231.4938 263.06647 232.19087 263.9275Q232.88794 264.7885 233.67441 265.09015Q234.46088 265.39175 235.2719 265.09213ZM239.4744 267.5532Q238.05511 268.0775 236.87888 267.6567Q235.72246 267.24503 234.9193 266.27515L236.2523 265.6511Q236.60431 266.11322 237.06587 266.3375Q237.53278 266.57623 238.07492 266.57333Q238.61708 266.57043 239.19638 266.3564Q239.44258 266.26547 239.62393 266.13266Q239.8251 266.009 239.93404 265.90295L240.57632 266.8829Q240.36758 267.07516 240.08487 267.24542Q239.82198 267.42477 239.4744 267.5532ZM253.69472 259.32245Q253.21205 257.83942 252.97055 256.56335Q252.74353 255.28194 252.73846 254.06657Q252.7479 252.84586 253.00131 251.61725Q253.26387 250.3688 253.73138 248.96242L247.82253 251.14534L247.39969 250.00206L254.81471 247.26271L255.1198 248.0876Q254.51974 249.62521 254.2443 250.92776Q253.9833 252.22496 253.99907 253.46927Q254.02396 254.69376 254.29065 255.99341Q254.55734 257.29306 255.07056 258.81418L253.69472 259.32245ZM264.61743 255.50108Q263.45883 255.92911 262.48502 255.87764Q261.51123 255.82616 260.8123 255.36061Q260.11334 254.89507 259.8136 254.08466Q259.55133 253.37553 259.67725 252.73685Q259.81766 252.0928 260.19073 251.54375Q260.5638 250.9947 261.00867 250.55072L260.9819 250.47836Q260.18945 250.2941 259.5119 249.88643Q258.8435 249.45895 258.5491 248.66301Q258.26007 247.88153 258.44614 247.13838Q258.6322 246.39523 259.21872 245.80022Q259.81973 245.19986 260.73215 244.8628Q262.22382 244.3117 263.3475 244.76839Q264.48566 245.21973 264.9299 246.42088Q265.19754 247.14447 264.9696 247.95242Q264.7508 248.74057 264.265 249.42996L264.29178 249.50232Q264.96365 249.5831 265.5357 249.75008Q266.12225 249.91173 266.56494 250.30745Q267.01672 250.68336 267.2897 251.42143Q267.56802 252.17395 267.3637 252.95676Q267.16852 253.71973 266.4822 254.40096Q265.805 255.06236 264.61743 255.50108ZM263.27832 249.4326Q264.2247 248.03023 263.8072 246.90144Q263.6252 246.4094 263.22913 246.09515Q262.8422 245.76108 262.28778 245.68626Q261.7478 245.6061 261.06714 245.85756Q260.22714 246.16788 259.8481 246.83429Q259.47818 247.48088 259.75116 248.21893Q259.97595 248.82675 260.48788 249.09819Q260.99982 249.36964 261.70978 249.41989Q262.43423 249.4648 263.27832 249.4326ZM264.28778 254.52078Q265.4319 254.09811 265.85815 253.38135Q266.29358 252.64478 265.99384 251.83437Q265.80115 251.31339 265.42114 251.04254Q265.0411 250.77171 264.51566 250.6862Q263.99017 250.6007 263.32147 250.61745Q262.66187 250.61438 261.89557 250.6343Q261.50485 251.09117 261.2171 251.55936Q260.94382 252.02219 260.86197 252.513Q260.79462 252.99847 260.98196 253.50497Q261.1907 254.06938 261.66077 254.40564Q262.13995 254.72209 262.81558 254.76857Q263.5057 254.8097 264.28778 254.52078ZM273.52988 252.20853Q272.58853 252.5563 271.76648 252.51456Q270.9391 252.45834 270.28076 252.19164L270.70892 251.0794Q271.22464 251.31656 271.84613 251.35016Q272.47675 251.36392 273.04156 251.15526Q273.88153 250.84494 274.4306 250.14862Q274.97433 249.43784 275.0395 248.27878Q275.09927 247.10524 274.46768 245.39758Q273.99667 244.12407 273.36224 243.38794Q272.72247 242.63734 271.96277 242.40808Q271.20306 242.17882 270.36307 242.48914Q269.74033 242.71921 269.35498 243.19055Q268.97876 243.64207 268.87643 244.25558Q268.77414 244.86911 269.02036 245.5348Q269.41107 246.59123 270.17017 246.95233Q270.9384 247.2936 272.01007 246.89767Q272.61835 246.67296 273.19574 246.09776Q273.7823 245.50275 274.15408 244.4607L274.58292 245.4866Q274.20102 246.36789 273.55814 247.03308Q272.91525 247.69826 272.1187 247.99252Q271.16287 248.34564 270.32477 248.26048Q269.48132 248.16086 268.81888 247.61603Q268.1511 247.05672 267.76038 246.00027Q267.40176 245.03067 267.6067 244.11606Q267.80627 243.18697 268.42398 242.49818Q269.0508 241.7896 269.94873 241.45787Q270.8032 241.14221 271.62524 241.18394Q272.4473 241.2257 273.2133 241.65001Q273.9793 242.07434 274.6115 242.89352Q275.25287 243.69289 275.71317 244.93745Q276.28055 246.47145 276.32526 247.70506Q276.37912 248.91885 276.02243 249.82373Q275.67487 250.7088 275.01056 251.31609Q274.3554 251.90356 273.52988 252.20853ZM283.7663 252.09502L283.0847 251.40924Q283.94165 250.56627 284.1825 249.7042Q284.4378 248.83676 284.06848 247.83821L283.21838 246.47446L284.58734 247.41624Q284.4847 247.71735 284.27972 247.8753Q284.07477 248.03328 283.82858 248.12422Q283.49548 248.24728 283.15765 248.22404Q282.81448 248.18634 282.54434 247.99005Q282.28336 247.77394 282.13348 247.36873Q281.91403 246.77539 282.17816 246.33237Q282.45145 245.86954 282.9583 245.68228Q283.66797 245.42012 284.23877 245.85075Q284.81873 246.26157 285.16663 247.20224Q285.69116 248.62047 285.2967 249.86829Q284.90222 251.1161 283.7663 252.09502ZM303.20724 241.24477Q302.04865 241.67279 300.9231 241.61157Q299.79755 241.55037 298.81116 241.10876L299.27426 239.86848Q300.0875 240.24246 301.01782 240.30998Q301.94818 240.37752 302.8461 240.04579Q303.93228 239.64453 304.3548 238.96207Q304.79178 238.27426 304.5188 237.53621Q304.31006 236.9718 303.94073 236.7299Q303.5714 236.48802 303.05667 236.43144Q302.55103 236.35506 301.91507 236.32683L300.16803 236.23203Q299.561 236.19308 298.90204 236.0582Q298.25223 235.90349 297.71194 235.51091Q297.1717 235.11833 296.888 234.35133Q296.5936 233.55539 296.79257 232.75813Q297.006 231.9555 297.65427 231.30481Q298.3025 230.6541 299.3018 230.28493Q300.3011 229.91576 301.2604 229.97258Q302.2342 230.02405 303.0276 230.38892L302.6391 231.51938Q301.96094 231.24355 301.22736 231.21848Q300.50293 231.17357 299.6919 231.47319Q298.7795 231.81026 298.3699 232.4386Q297.95496 233.05246 298.2226 233.77605Q298.40457 234.2681 298.7975 234.48482Q299.2049 234.69618 299.71967 234.75275Q300.22906 234.79485 300.74762 234.81712L302.4657 234.92262Q303.21375 234.94235 303.86893 235.11153Q304.53857 235.27536 305.04077 235.69846Q305.55206 236.10173 305.83575 236.86873Q306.1462 237.7081 305.93433 238.55948Q305.73694 239.4055 305.0468 240.12103Q304.36584 240.81674 303.20724 241.24477ZM312.02115 237.77478L310.62952 234.01213L304.59616 228.5593L306.01544 228.03497L308.76465 230.57233Q309.28824 231.05331 309.8027 231.55412Q310.31714 232.05493 310.87128 232.57397L310.9292 232.55258Q311.0123 231.79811 311.09164 231.07794Q311.17096 230.35777 311.26477 229.63226L311.63464 225.95906L313.0105 225.45078L311.97638 233.51454L313.36804 237.27719L312.02115 237.77478ZM318.83368 235.25801L314.94238 224.73706L316.41962 224.19133L322.23477 229.54382L324.05676 231.35454L324.08572 231.34383Q323.76773 230.57306 323.37952 229.74599Q322.98596 228.90443 322.68088 228.07954L320.66296 222.6237L321.93744 222.15288L325.8287 232.67381L324.3515 233.21954L318.54547 227.84724L316.72345 226.03653L316.68002 226.05258Q317.0232 226.84694 317.40607 227.65955Q317.78357 228.45769 318.08865 229.28258L320.12262 234.78183L318.83368 235.25801ZM331.94928 234.29468L331.26764 233.60889Q332.1246 232.76593 332.36545 231.90384Q332.62076 231.0364 332.25143 230.03787L331.40134 228.6741L332.7703 229.6159Q332.66766 229.917 332.4627 230.07497Q332.25775 230.23293 332.01154 230.32388Q331.67844 230.44695 331.3406 230.4237Q330.99744 230.38599 330.7273 230.1897Q330.4663 229.97359 330.31644 229.56839Q330.097 228.97504 330.3611 228.53203Q330.6344 228.0692 331.1413 227.88193Q331.85092 227.61977 332.42172 228.0504Q333.00168 228.46123 333.34958 229.40189Q333.8741 230.82011 333.47964 232.06793Q333.08517 233.31575 331.94928 234.29468ZM346.9324 224.87743L346.60382 213.04031L348.11002 212.48387L355.54947 221.694L354.1302 222.21832L350.12695 217.00247Q349.52527 216.22136 348.92896 215.45471Q348.34177 214.66823 347.77283 213.84212L347.70044 213.86887Q347.79144 214.87155 347.85724 215.85063Q347.91772 216.81523 347.96906 217.79967L348.30823 224.36916L346.9324 224.87743ZM347.6124 220.97452L347.2163 219.90361L352.05347 218.11661L352.44955 219.18752L347.6124 220.97452ZM361.7654 219.61148Q360.79507 219.96994 359.8213 219.91847Q358.84213 219.85252 357.96246 219.38794Q357.0828 218.92336 356.36053 218.03874Q355.63293 217.13966 355.15656 215.85168Q354.53568 214.17296 354.68896 212.71815Q354.8423 211.26334 355.65863 210.22154Q356.48413 209.15991 357.85995 208.65164Q358.8158 208.29852 359.70428 208.43086Q360.5874 208.54874 361.21835 208.87491L360.78107 210.00696Q360.20963 209.70815 359.57742 209.64561Q358.95972 209.57773 358.29352 209.82385Q357.27975 210.19836 356.71933 210.99757Q356.17343 211.79141 356.1067 212.9017Q356.0346 213.99753 356.5217 215.31445Q357.01413 216.64586 357.79272 217.4603Q358.566 218.26028 359.50266 218.52287Q360.44843 218.76562 361.4622 218.39111Q362.1863 218.1236 362.65323 217.60568Q363.12012 217.08775 363.40378 216.34145L364.46194 216.88812Q364.1213 217.83643 363.46017 218.54124Q362.80814 219.22626 361.7654 219.61148ZM367.27728 217.36137L363.38602 206.84042L364.7329 206.34285L366.6812 211.61055L366.72464 211.5945L369.20798 204.6896L370.74313 204.12247L367.3824 213.50635L368.62418 216.86378L367.27728 217.36137ZM373.50476 215.06075L368.0731 210.38904L368.49338 209.03297L375.01093 214.5043L373.50476 215.06075Z" fill-rule="nonzero"/><path fill="#000000" fill-opacity="0.0" clip-path="url(#id_0)" d="M119.63702 296.65222L408.81424 405.8744L392.0693 450.09818L102.89206 340.876Z" fill-rule="evenodd"/><clipPath id="id_3"><path d="M-1.4210855E-14 -5.684342E-14L510.0 -5.684342E-14L510.0 492.0L2.842171E-14 492.0L-1.4210855E-14 -5.684342E-14Z" clip-rule="nonzero"/></clipPath><path fill="#000000" clip-path="url(#id_3)" d="M153.26666 341.21527L160.79192 332.06656L162.294 332.6339L161.86038 344.46112L160.44495 343.9265L160.84888 337.3661Q160.90776 336.3822 160.96117 335.41275Q161.03448 334.43433 161.14761 333.43793L161.0754 333.41068Q160.48564 334.22702 159.89236 335.00906Q159.30457 335.77667 158.69684 336.55328L154.63876 341.73352L153.26666 341.21527ZM156.3428 338.7155L156.74713 337.64767L161.57117 339.46973L161.16685 340.53754L156.3428 338.7155ZM167.919 346.9639Q166.95131 346.5984 166.2502 345.92123Q165.55455 345.22964 165.19576 344.30243Q164.83696 343.3752 164.8728 342.23416Q164.9141 341.0787 165.40038 339.79443Q166.03418 338.12054 167.10522 337.12308Q168.17627 336.12564 169.47649 335.8745Q170.79663 335.6144 172.16873 336.13266Q173.122 336.4927 173.70561 337.17496Q174.2947 337.8428 174.55666 338.50253L173.48325 339.07025Q173.24821 338.47015 172.81216 338.00858Q172.39055 337.55246 171.72617 337.3015Q170.71513 336.91965 169.7674 337.15546Q168.83409 337.39673 168.05463 338.19092Q167.28062 338.97067 166.7834 340.2838Q166.28073 341.6114 166.33351 342.7364Q166.39175 343.847 166.9262 344.65912Q167.48055 345.46228 168.49156 345.84415Q169.21373 346.1169 169.9062 346.03207Q170.59866 345.94727 171.30283 345.56995L171.74243 346.67615Q170.86263 347.16852 169.90082 347.2671Q168.95892 347.35666 167.919 346.9639ZM173.55641 348.87872L177.52863 338.388L178.87184 338.89536L176.883 344.14792L176.92633 344.16428L183.3348 340.581L184.86578 341.15924L176.16724 346.03824L174.89963 349.38605L173.55641 348.87872ZM179.767 351.22446L178.7356 344.1384L179.94327 343.39047L181.26909 351.79178L179.767 351.22446ZM194.8283 356.9131Q195.43791 355.47748 196.09361 354.35614Q196.76376 353.24026 197.55806 352.31973Q198.36679 351.40466 199.36485 350.64355Q200.38283 349.87347 201.65921 349.11853L195.76637 346.8928L196.19801 345.7528L203.59294 348.54587L203.28151 349.3684Q201.81894 350.1355 200.75569 350.93796Q199.70688 351.74585 198.90166 352.69525Q198.11635 353.63568 197.46416 354.79132Q196.81197 355.94696 196.2004 357.43134L194.8283 356.9131ZM204.85881 360.91605Q203.92 360.56146 203.32703 359.99112Q202.7395 359.40634 202.41782 358.77353L203.47133 358.2148Q203.70479 358.7318 204.15176 359.16455Q204.61865 359.5883 205.18193 359.80106Q206.01964 360.11746 206.89128 359.95184Q207.76837 359.77182 208.57867 358.9398Q209.39444 358.09335 210.03917 356.3906Q210.51999 355.12073 210.52461 354.14935Q210.53468 353.1635 210.1119 352.49252Q209.6891 351.82153 208.8514 351.50513Q208.23033 351.27057 207.62999 351.3737Q207.04955 351.46783 206.56946 351.86377Q206.08936 352.25974 205.83801 352.92352Q205.43915 353.97693 205.7749 354.74698Q206.13057 355.5081 207.19937 355.91177Q207.80598 356.1409 208.61946 356.08527Q209.45285 356.0207 210.41776 355.47797L210.06769 356.5333Q209.20074 356.9481 208.27875 357.0287Q207.35677 357.10928 206.56238 356.80927Q205.60913 356.44922 205.03255 355.8356Q204.46143 355.20752 204.31927 354.36215Q204.18259 353.50232 204.58145 352.4489Q204.94753 351.4821 205.70282 350.92618Q206.46356 350.35583 207.38203 350.2409Q208.32042 350.11703 209.21591 350.45526Q210.06805 350.7771 210.66103 351.34744Q211.25401 351.9178 211.55347 352.7401Q211.85292 353.56247 211.7921 354.5951Q211.75119 355.61874 211.2813 356.85974Q210.70213 358.38934 209.9258 359.34964Q209.16937 360.30096 208.30595 360.75006Q207.46245 361.1902 206.5623 361.21307Q205.68207 361.227 204.85881 360.91605ZM215.16255 364.80777Q214.02155 364.3768 213.43323 363.44537Q212.8648 362.50494 212.86511 361.15256Q212.8654 359.80017 213.51013 358.0974Q214.48816 355.51443 215.97844 354.5434Q217.46872 353.57233 219.17302 354.21606Q220.87732 354.85977 221.35132 356.57272Q221.82532 358.28568 220.84729 360.86865Q220.20256 362.5714 219.3068 363.58557Q218.42546 364.6052 217.34734 364.9237Q216.28912 365.23328 215.16255 364.80777ZM215.56142 363.75436Q216.28358 364.02713 216.98735 363.78165Q217.71104 363.52716 218.37497 362.68933Q219.05333 361.85696 219.60518 360.3995Q220.16249 358.92764 220.19443 357.8841Q220.24626 356.83157 219.86134 356.19138Q219.49632 355.5422 218.77415 355.26944Q218.06644 355.00214 217.33377 355.23672Q216.62102 355.46234 215.94812 356.28027Q215.29512 357.08923 214.73781 358.56113Q214.18596 360.01855 214.12866 361.0855Q214.08578 362.1579 214.4598 362.82697Q214.8537 363.48706 215.56142 363.75436ZM216.81264 360.44986Q216.40823 360.29712 216.21419 359.89395Q216.0346 359.49625 216.22585 358.99118Q216.4116 358.50058 216.80429 358.3355Q217.21687 358.16147 217.62129 358.3142Q218.04015 358.4724 218.20528 358.86465Q218.39034 359.24792 218.20456 359.73856Q218.01334 360.24362 217.61519 360.42313Q217.23149 360.60806 216.81264 360.44986ZM222.26915 371.17004L222.20506 370.2057Q223.40538 370.13126 224.15324 369.63852Q224.91556 369.1512 225.29256 368.15555L225.54657 366.56912L225.96123 368.1772Q225.68605 368.33716 225.42763 368.32202Q225.16922 368.3069 224.92369 368.21414Q224.59149 368.08868 224.3518 367.8497Q224.11758 367.59628 224.0426 367.2711Q223.98755 366.93692 224.14053 366.53287Q224.36455 365.94122 224.85481 365.78003Q225.36499 365.60986 225.8705 365.80078Q226.57822 366.06808 226.72621 366.76724Q226.8941 367.45743 226.53896 368.3954Q226.0035 369.80954 224.88638 370.4927Q223.76926 371.17584 222.26915 371.17004ZM244.0662 375.72467Q242.91074 375.28824 242.10149 374.50427Q241.29225 373.7203 240.83781 372.74045L242.00179 372.108Q242.36993 372.92328 243.02773 373.58408Q243.6855 374.24487 244.58098 374.5831Q245.66423 374.99225 246.43124 374.75412Q247.21269 374.52148 247.49135 373.78555Q247.70444 373.22278 247.58458 372.79816Q247.4647 372.3735 247.11337 371.9934Q246.78194 371.60434 246.32051 371.16614L245.0643 369.94946Q244.63176 369.5222 244.22302 368.98843Q243.8342 368.44574 243.68427 367.79532Q243.53433 367.14493 243.82391 366.38013Q244.12442 365.58646 244.79813 365.1152Q245.48628 364.64938 246.4028 364.5832Q247.31934 364.51703 248.31592 364.89343Q249.3125 365.26984 249.99918 365.94156Q250.70029 366.6187 251.05946 367.41412L250.02391 368.01263Q249.69324 367.35992 249.15608 366.86017Q248.63884 366.3514 247.83002 366.04593Q246.92009 365.70224 246.19836 365.90796Q245.48209 366.09924 245.2089 366.82077Q245.02312 367.31137 245.17734 367.73248Q245.346 368.15906 245.69734 368.53915Q246.05414 368.90485 246.43085 369.26154L247.65819 370.46735Q248.20978 370.97256 248.59314 371.5297Q248.99095 372.0923 249.09209 372.74078Q249.21315 373.38028 248.92357 374.14508Q248.60666 374.98203 247.88768 375.48566Q247.18314 375.99478 246.19244 376.0824Q245.22165 376.16107 244.0662 375.72467ZM250.68573 378.01044L254.65794 367.51974L261.17184 369.98004L260.75113 371.09116L255.5949 369.14365L254.34367 372.44815L258.69107 374.09015L258.2649 375.2157L253.9175 373.5737L252.47504 377.38324L257.79016 379.39078L257.3585 380.53073L250.68573 378.01044ZM263.21494 382.95712Q262.03058 382.5098 261.35208 381.51132Q260.6935 380.50385 260.6325 379.09534Q260.59143 377.67783 261.24707 375.94623Q261.8918 374.24347 262.85083 373.2367Q263.82974 372.22095 264.98007 371.92972Q266.15033 371.6295 267.33466 372.0768Q268.519 372.52414 269.18304 373.51718Q269.85257 374.4958 269.8991 375.89883Q269.96558 377.29294 269.32083 378.9957Q268.6652 380.7273 267.68082 381.75748Q266.71634 382.7787 265.55505 383.0988Q264.39926 383.40445 263.21494 382.95712ZM263.6302 381.86044Q264.42456 382.1605 265.21344 381.86465Q266.0023 381.56885 266.70602 380.71304Q267.42422 379.86273 267.94873 378.47745Q268.44595 377.1643 268.45993 376.081Q268.48834 375.00314 268.0874 374.2744Q267.68646 373.5457 266.8921 373.24567Q266.08328 372.94016 265.29987 373.22156Q264.51645 373.50296 263.82364 374.32986Q263.13083 375.1568 262.63364 376.46994Q262.1091 377.85522 262.06976 378.96194Q262.0304 380.06866 262.42587 380.8118Q262.82135 381.55496 263.6302 381.86044ZM265.18564 386.47244Q263.7702 385.93784 263.15884 384.84924Q262.55646 383.78052 262.58722 382.52213L264.00302 382.92493Q263.9652 383.50443 264.16626 383.9762Q264.36188 384.46243 264.77292 384.8156Q265.184 385.1688 265.76172 385.387Q266.00726 385.47974 266.23132 385.49838Q266.46436 385.53693 266.6162 385.52832L266.4574 386.68887Q266.1736 386.69714 265.84848 386.64032Q265.5323 386.60336 265.18564 386.47244ZM283.59015 390.43842L286.2565 383.3965Q286.42938 382.98352 286.63858 382.51822Q286.85324 382.0385 287.02615 381.6255L286.93948 381.59277Q286.55734 381.86078 286.14087 382.13232Q285.73883 382.4093 285.3368 382.68628L281.24146 385.13098L287.8853 387.64038L287.48648 388.6938L279.38382 385.6334L279.7171 384.75317L287.29968 380.1619L288.71512 380.6965L284.8467 390.91302L283.59015 390.43842ZM291.81525 393.75946Q290.90533 393.4158 290.28308 392.96634Q289.68076 392.50793 289.29544 391.99954Q288.9156 391.4767 288.65677 390.9831L289.649 390.36823Q289.86642 390.79672 290.16702 391.22366Q290.47308 391.63614 290.94193 392.01114Q291.41623 392.3717 292.0806 392.62265Q292.80276 392.89542 293.5042 392.83047Q294.20566 392.76553 294.749 392.37698Q295.29233 391.98843 295.56552 391.2669Q295.9644 390.2135 295.49515 389.36002Q295.02588 388.50653 293.8993 388.08102Q293.24936 387.83554 292.74152 387.82516Q292.23367 387.8148 291.58453 387.916L291.0462 387.20135L293.24158 382.40613L299.01886 384.58823L298.58722 385.7282L293.97983 383.988L292.55798 386.91467Q293.06778 386.8763 293.53934 386.93896Q294.0308 386.9926 294.60852 387.21082Q295.59064 387.5818 296.2539 388.22815Q296.93704 388.86554 297.1315 389.74716Q297.32596 390.6288 296.90524 391.73993Q296.49 392.8366 295.66055 393.414Q294.8311 393.9914 293.81152 394.0681Q292.7974 394.13043 291.81525 393.75946ZM300.54352 396.8417Q301.15314 395.4061 301.80884 394.28476Q302.47897 393.16888 303.27325 392.24835Q304.082 391.33325 305.08008 390.57217Q306.09805 389.8021 307.37442 389.04712L301.48157 386.8214L301.91324 385.68143L309.30817 388.4745L308.99673 389.297Q307.53415 390.0641 306.4709 390.86655Q305.4221 391.67447 304.61688 392.62387Q303.83154 393.5643 303.17938 394.71994Q302.5272 395.87558 301.91562 397.35995L300.54352 396.8417ZM308.7634 403.8389L308.6993 402.87454Q309.89963 402.8001 310.6475 402.30737Q311.40982 401.8201 311.78683 400.8244L312.04083 399.23798L312.4555 400.84604Q312.1803 401.006 311.9219 400.99088Q311.66348 400.97574 311.41794 400.883Q311.08575 400.75754 310.84607 400.51855Q310.61185 400.26517 310.53687 399.93994Q310.4818 399.60577 310.6348 399.20172Q310.85883 398.6101 311.3491 398.4489Q311.85925 398.27872 312.36478 398.46967Q313.07248 398.73697 313.22046 399.43613Q313.38837 400.1263 313.03323 401.06427Q312.49777 402.47842 311.38065 403.16156Q310.26352 403.8447 308.7634 403.8389ZM326.2552 406.553L333.78043 397.4043L335.28253 397.97162L334.8489 409.79886L333.43347 409.26425L333.8374 402.70383Q333.89627 401.71994 333.9497 400.7505Q334.023 399.77206 334.13614 398.77567L334.06393 398.74838Q333.47415 399.56476 332.8809 400.3468Q332.2931 401.1144 331.68536 401.891L327.6273 407.07126L326.2552 406.553ZM329.33133 404.05325L329.73566 402.9854L334.5597 404.80743L334.15536 405.87527L329.33133 404.05325ZM340.90753 412.3016Q339.93985 411.93613 339.23874 411.25897Q338.5431 410.56738 338.1843 409.64017Q337.8255 408.71292 337.86133 407.5719Q337.90262 406.41644 338.3889 405.13214Q339.0227 403.45825 340.09375 402.46082Q341.1648 401.46338 342.46503 401.21225Q343.78516 400.95215 345.15726 401.4704Q346.1105 401.83044 346.69412 402.5127Q347.2832 403.1805 347.54517 403.84027L346.47177 404.40796Q346.23672 403.8079 345.8007 403.3463Q345.3791 402.89017 344.7147 402.63922Q343.70367 402.2574 342.75592 402.4932Q341.8226 402.73447 341.04315 403.52866Q340.26913 404.3084 339.77194 405.62155Q339.26926 406.9491 339.32205 408.07413Q339.38028 409.18472 339.91473 409.99686Q340.46906 410.80002 341.4801 411.1819Q342.20227 411.45462 342.8947 411.3698Q343.5872 411.28497 344.29135 410.90768L344.73096 412.0139Q343.85117 412.50626 342.88934 412.6048Q341.94745 412.6944 340.90753 412.3016ZM346.54492 414.21643L350.51712 403.72574L351.86035 404.23306L349.87152 409.48563L349.91486 409.50198L356.3233 405.91873L357.85428 406.49698L349.15576 411.37598L347.88815 414.72375L346.54492 414.21643ZM352.75552 416.56216L351.7241 409.4761L352.9318 408.7282L354.2576 417.12952L352.75552 416.56216Z" fill-rule="nonzero"/></svg>