<?xml version="1.0" encoding="UTF-8"?>
<svg id="Layer_1" xmlns="http://www.w3.org/2000/svg" xmlns:xlink="http://www.w3.org/1999/xlink" version="1.1" viewBox="0 0 510 492">
  <!-- Generator: Adobe Illustrator 29.2.1, SVG Export Plug-In . SVG Version: 2.1.0 Build 116)  -->
  <defs>
    <style>
      .st0, .st1, .st2 {
        fill: none;
      }

      .st3 {
        clip-path: url(#clippath-17);
      }

      .st4 {
        clip-path: url(#clippath-19);
      }

      .st5 {
        clip-path: url(#clippath-11);
      }

      .st6 {
        clip-path: url(#clippath-16);
      }

      .st7 {
        clip-path: url(#clippath-18);
      }

      .st8 {
        clip-path: url(#clippath-10);
      }

      .st9 {
        clip-path: url(#clippath-15);
      }

      .st10 {
        clip-path: url(#clippath-13);
      }

      .st11 {
        clip-path: url(#clippath-14);
      }

      .st12 {
        clip-path: url(#clippath-12);
      }

      .st13 {
        clip-path: url(#clippath-31);
      }

      .st14 {
        clip-path: url(#clippath-32);
      }

      .st15 {
        clip-path: url(#clippath-33);
      }

      .st16 {
        clip-path: url(#clippath-34);
      }

      .st17 {
        clip-path: url(#clippath-35);
      }

      .st18 {
        clip-path: url(#clippath-30);
      }

      .st19 {
        clip-path: url(#clippath-27);
      }

      .st20 {
        clip-path: url(#clippath-29);
      }

      .st21 {
        clip-path: url(#clippath-26);
      }

      .st22 {
        clip-path: url(#clippath-28);
      }

      .st23 {
        clip-path: url(#clippath-20);
      }

      .st24 {
        clip-path: url(#clippath-21);
      }

      .st25 {
        clip-path: url(#clippath-22);
      }

      .st26 {
        clip-path: url(#clippath-23);
      }

      .st27 {
        clip-path: url(#clippath-24);
      }

      .st28 {
        clip-path: url(#clippath-25);
      }

      .st29 {
        clip-path: url(#clippath-1);
      }

      .st30 {
        clip-path: url(#clippath-3);
      }

      .st31 {
        clip-path: url(#clippath-4);
      }

      .st32 {
        clip-path: url(#clippath-2);
      }

      .st33 {
        clip-path: url(#clippath-7);
      }

      .st34 {
        clip-path: url(#clippath-6);
      }

      .st35 {
        clip-path: url(#clippath-9);
      }

      .st36 {
        clip-path: url(#clippath-8);
      }

      .st37 {
        clip-path: url(#clippath-5);
      }

      .st1, .st2 {
        stroke-linejoin: round;
      }

      .st1, .st38 {
        stroke: #999;
        stroke-width: 4px;
      }

      .st39 {
        fill: #fff;
      }

      .st2 {
        stroke: #3c78d8;
        stroke-width: 7.9px;
      }

      .st40 {
        fill: #3c78d8;
      }

      .st40, .st41, .st38 {
        fill-rule: evenodd;
      }

      .st41 {
        fill-opacity: 0;
      }

      .st42 {
        clip-path: url(#clippath);
      }

      .st38 {
        stroke-miterlimit: 10;
      }

      .st38, .st43 {
        fill: #999;
      }
    </style>
    <clipPath id="clippath">
      <rect class="st0" y="0" width="510" height="492"/>
    </clipPath>
    <clipPath id="clippath-1">
      <rect class="st0" y="0" width="510" height="492"/>
    </clipPath>
    <clipPath id="clippath-2">
      <rect class="st0" y="0" width="510" height="492"/>
    </clipPath>
    <clipPath id="clippath-3">
      <rect class="st0" y="0" width="510" height="492"/>
    </clipPath>
    <clipPath id="clippath-4">
      <rect class="st0" y="0" width="510" height="492"/>
    </clipPath>
    <clipPath id="clippath-5">
      <rect class="st0" y="0" width="510" height="492"/>
    </clipPath>
    <clipPath id="clippath-6">
      <rect class="st0" y="0" width="510" height="492"/>
    </clipPath>
    <clipPath id="clippath-7">
      <rect class="st0" y="0" width="510" height="492"/>
    </clipPath>
    <clipPath id="clippath-8">
      <rect class="st0" y="0" width="510" height="492"/>
    </clipPath>
    <clipPath id="clippath-9">
      <rect class="st0" y="0" width="510" height="492"/>
    </clipPath>
    <clipPath id="clippath-10">
      <rect class="st0" y="0" width="510" height="492"/>
    </clipPath>
    <clipPath id="clippath-11">
      <rect class="st0" y="0" width="510" height="492"/>
    </clipPath>
    <clipPath id="clippath-12">
      <rect class="st0" y="0" width="510" height="492"/>
    </clipPath>
    <clipPath id="clippath-13">
      <rect class="st0" y="0" width="510" height="492"/>
    </clipPath>
    <clipPath id="clippath-14">
      <rect class="st0" y="0" width="510" height="492"/>
    </clipPath>
    <clipPath id="clippath-15">
      <rect class="st0" y="0" width="510" height="492"/>
    </clipPath>
    <clipPath id="clippath-16">
      <rect class="st0" y="0" width="510" height="492"/>
    </clipPath>
    <clipPath id="clippath-17">
      <rect class="st0" y="0" width="510" height="492"/>
    </clipPath>
    <clipPath id="clippath-18">
      <rect class="st0" y="0" width="510" height="492"/>
    </clipPath>
    <clipPath id="clippath-19">
      <rect class="st0" y="0" width="510" height="492"/>
    </clipPath>
    <clipPath id="clippath-20">
      <rect class="st0" y="0" width="510" height="492"/>
    </clipPath>
    <clipPath id="clippath-21">
      <rect class="st0" y="0" width="510" height="492"/>
    </clipPath>
    <clipPath id="clippath-22">
      <rect class="st0" y="0" width="510" height="492"/>
    </clipPath>
    <clipPath id="clippath-23">
      <rect class="st0" y="0" width="510" height="492"/>
    </clipPath>
    <clipPath id="clippath-24">
      <rect class="st0" y="0" width="510" height="492"/>
    </clipPath>
    <clipPath id="clippath-25">
      <rect class="st0" y="0" width="510" height="492"/>
    </clipPath>
    <clipPath id="clippath-26">
      <rect class="st0" y="0" width="510" height="492"/>
    </clipPath>
    <clipPath id="clippath-27">
      <rect class="st0" y="0" width="510" height="492"/>
    </clipPath>
    <clipPath id="clippath-28">
      <rect class="st0" y="0" width="510" height="492"/>
    </clipPath>
    <clipPath id="clippath-29">
      <rect class="st0" y="0" width="510" height="492"/>
    </clipPath>
    <clipPath id="clippath-30">
      <rect class="st0" y="0" width="510" height="492"/>
    </clipPath>
    <clipPath id="clippath-31">
      <rect class="st0" y="0" width="510" height="492"/>
    </clipPath>
    <clipPath id="clippath-32">
      <rect class="st0" y="0" width="510" height="492"/>
    </clipPath>
    <clipPath id="clippath-33">
      <rect class="st0" y="0" width="510" height="492"/>
    </clipPath>
    <clipPath id="clippath-34">
      <rect class="st0" y="0" width="510" height="492"/>
    </clipPath>
    <clipPath id="clippath-35">
      <rect class="st0" y="0" width="510" height="492"/>
    </clipPath>
  </defs>
  <g class="st42">
    <path class="st41" d="M-72.3-233.7h1264.9v947.9H-72.3V-233.7Z"/>
  </g>
  <g class="st29">
    <path class="st40" d="M416.8,410.4h77.7v77.6h-77.7v-77.6Z"/>
  </g>
  <g class="st32">
    <path class="st2" d="M416.8,410.4h77.7v77.6h-77.7v-77.6Z"/>
  </g>
  <g class="st30">
    <path class="st39" d="M434.2,455.2c-.7,0-1.4,0-2-.3-.6-.2-1.1-.4-1.6-.8-.5-.3-.9-.7-1.2-1.2l1.6-1.9c.5.7,1.1,1.2,1.6,1.4.5.2,1.1.4,1.7.4s.5,0,.8-.1c.2,0,.4-.2.5-.3.1-.1.2-.3.2-.5s0-.3-.1-.4c0-.1-.2-.2-.3-.3-.1,0-.3-.2-.5-.2-.2,0-.4-.2-.6-.2-.2,0-.4-.1-.6-.2-.6-.1-1.2-.3-1.6-.5-.5-.2-.8-.5-1.1-.7-.3-.3-.5-.6-.7-1-.1-.4-.2-.8-.2-1.3s.1-.9.3-1.4c.2-.4.5-.8.9-1.1.4-.3.8-.5,1.3-.7.5-.2,1-.2,1.6-.2.7,0,1.3,0,1.9.2.5.2,1,.4,1.3.7.4.3.7.6,1,1l-1.7,1.6c-.2-.3-.5-.5-.7-.7-.3-.2-.5-.3-.8-.4-.3-.1-.6-.2-.9-.2s-.6,0-.8.1c-.2,0-.4.2-.5.3-.1.1-.2.3-.2.5,0,.2,0,.3.2.5.1.1.3.2.4.3.2,0,.4.2.6.2.2,0,.5.1.7.2.6.1,1.1.3,1.6.5.5.2.9.4,1.2.7.3.3.6.6.8,1,.2.4.3.8.3,1.3,0,.8-.2,1.4-.6,2-.4.5-.9.9-1.5,1.2-.6.3-1.4.4-2.2.4ZM444.2,455.2c-.9,0-1.7-.2-2.4-.6-.7-.4-1.2-.9-1.6-1.5-.4-.6-.6-1.4-.6-2.2s.1-1.2.3-1.8c.2-.5.5-1,.9-1.4.4-.4.8-.7,1.3-.9.5-.2,1.1-.3,1.7-.3s1.1.1,1.6.3c.5.2.9.5,1.3.9.4.4.6.8.8,1.3.2.5.3,1.1.2,1.7v.7h-6.7l-.4-1.4h5l-.3.3v-.3c0-.3-.1-.5-.2-.7-.1-.2-.3-.4-.6-.5-.2-.1-.5-.2-.8-.2s-.8,0-1,.2c-.3.2-.5.4-.7.7-.1.3-.2.7-.2,1.1s0,.9.3,1.2c.2.3.5.6.8.8.4.2.8.3,1.3.3s.7,0,1-.2c.3-.1.6-.3.9-.5l1.2,1.7c-.3.3-.7.5-1,.7-.4.2-.7.3-1.1.4-.4,0-.8.1-1.1.1ZM449.5,455v-8.4h2.4v2.7c.1,0-.4-.5-.4-.5.1-.5.3-.9.6-1.2.3-.4.6-.6,1-.8.4-.2.8-.3,1.3-.3s.4,0,.5,0c.2,0,.3,0,.5.1l-.7,2.8c-.1,0-.3-.1-.5-.2-.2,0-.4,0-.6,0s-.5,0-.6.1c-.2,0-.4.2-.5.3-.1.1-.2.3-.3.5,0,.2-.1.4-.1.7v4.2h-2.5ZM460.1,455l-3.5-8.4h2.8l2.1,6.3h-.6c0,0,2.1-6.3,2.1-6.3h2.8l-3.7,8.4h-2ZM470.8,455.2c-.9,0-1.7-.2-2.4-.6-.7-.4-1.2-.9-1.6-1.5-.4-.6-.6-1.4-.6-2.2s.1-1.2.3-1.8c.2-.5.5-1,.9-1.4.4-.4.8-.7,1.3-.9.5-.2,1.1-.3,1.7-.3s1.1.1,1.6.3c.5.2.9.5,1.3.9.4.4.6.8.8,1.3.2.5.3,1.1.2,1.7v.7h-6.7l-.4-1.4h5l-.3.3v-.3c0-.3-.1-.5-.2-.7s-.3-.4-.6-.5c-.2-.1-.5-.2-.8-.2s-.8,0-1,.2-.5.4-.7.7c-.1.3-.2.7-.2,1.1,0,.5,0,.9.3,1.2.2.3.5.6.8.8.4.2.8.3,1.3.3s.7,0,1-.2c.3-.1.6-.3.9-.5l1.2,1.7c-.3.3-.7.5-1,.7-.4.2-.7.3-1.1.4-.4,0-.8.1-1.1.1ZM476.1,455v-8.4h2.4v2.7c.1,0-.4-.5-.4-.5.1-.5.3-.9.6-1.2s.6-.6,1-.8c.4-.2.8-.3,1.3-.3s.4,0,.5,0c.2,0,.3,0,.5.1l-.7,2.8c-.1,0-.3-.1-.5-.2-.2,0-.4,0-.6,0s-.5,0-.6.1c-.2,0-.4.2-.5.3-.1.1-.2.3-.3.5,0,.2-.1.4-.1.7v4.2h-2.5Z"/>
  </g>
  <g class="st31">
    <path class="st40" d="M405.2,414.8l50.4-47.7,50.4,47.7h-100.8Z"/>
  </g>
  <g class="st37">
    <path class="st2" d="M405.2,414.8l50.4-47.7,50.4,47.7h-100.8Z"/>
  </g>
  <g class="st34">
    <path class="st41" d="M93.2,328.2l323.6,121"/>
  </g>
  <g class="st33">
    <path class="st1" d="M93.2,328.2l301.4,112.7"/>
  </g>
  <g class="st36">
    <path class="st38" d="M392.3,447l19.1.2-14.5-12.4-4.6,12.2Z"/>
  </g>
  <g class="st35">
    <path class="st40" d="M15.5,289.4h77.7v77.6H15.5v-77.6Z"/>
  </g>
  <g class="st8">
    <path class="st2" d="M15.5,289.4h77.7v77.6H15.5v-77.6Z"/>
  </g>
  <g class="st5">
    <path class="st39" d="M37.6,334.2c-.8,0-1.6-.1-2.3-.4-.7-.3-1.3-.7-1.8-1.2-.5-.5-.9-1.1-1.2-1.8-.3-.7-.4-1.5-.4-2.3,0-.8.1-1.6.4-2.3.3-.7.7-1.3,1.2-1.8.5-.5,1.1-.9,1.9-1.2.7-.3,1.5-.4,2.3-.4s1,0,1.5.2,1,.3,1.4.6c.4.3.8.6,1.1,1l-1.6,1.9c-.2-.2-.5-.4-.7-.6-.2-.2-.5-.3-.8-.4-.3,0-.6-.1-.9-.1s-.8,0-1.2.2c-.4.1-.7.4-1,.6-.3.3-.5.6-.7,1-.2.4-.2.8-.2,1.3s0,.9.2,1.3c.2.4.4.7.7,1,.3.3.6.5,1,.6.4.1.9.2,1.4.2s.7,0,1-.1c.3,0,.6-.2.8-.4.3-.2.5-.3.7-.6l1.3,2.1c-.3.3-.6.6-1.1.8-.4.2-.9.4-1.5.5-.5.1-1.1.2-1.6.2ZM43.3,334v-11.7h2.5v11.7h-2.5ZM48.2,334v-8.4h2.5v8.4h-2.5ZM49.5,324c-.5,0-.8-.1-1.1-.3-.3-.2-.4-.6-.4-1s.1-.7.4-.9c.3-.2.6-.4,1.1-.4s.8.1,1.1.3c.3.2.4.5.4,1s-.1.7-.4,1c-.3.2-.6.4-1.1.4ZM57.1,334.2c-.9,0-1.7-.2-2.4-.6-.7-.4-1.2-.9-1.6-1.5-.4-.6-.6-1.4-.6-2.2s.1-1.2.3-1.8c.2-.5.5-1,.9-1.4.4-.4.8-.7,1.3-.9.5-.2,1.1-.3,1.7-.3s1.1.1,1.6.3c.5.2.9.5,1.3.9.4.4.6.8.8,1.3s.3,1.1.2,1.7v.7h-6.7l-.4-1.4h5l-.3.3v-.3c0-.3-.1-.5-.2-.7-.1-.2-.3-.4-.6-.5-.2-.1-.5-.2-.8-.2s-.8,0-1,.2c-.3.2-.5.4-.7.7-.1.3-.2.7-.2,1.1,0,.5,0,.9.3,1.2.2.3.5.6.8.8.4.2.8.3,1.3.3s.7,0,1-.2c.3-.1.6-.3.9-.5l1.2,1.7c-.3.3-.7.5-1,.7-.4.2-.7.3-1.1.4-.4,0-.8.1-1.1.1ZM62.4,334v-8.4h2.4v1.7c0,0-.4.2-.4.2.1-.4.3-.7.6-1,.3-.3.7-.6,1.1-.7.4-.2.9-.3,1.3-.3s1.2.1,1.6.4.8.6,1,1.2c.2.5.3,1.1.3,1.9v5.2h-2.5v-5c0-.3,0-.6-.2-.8,0-.2-.2-.4-.4-.5-.2-.1-.4-.2-.7-.2-.2,0-.4,0-.6.1s-.3.2-.5.3c-.1.1-.2.3-.3.4,0,.2-.1.3-.1.5v5h-2.5ZM73.1,334v-10.5h2.5v10.5h-2.5ZM71.6,327.8v-2.2h5.6v2.2h-5.6Z"/>
  </g>
  <g class="st12">
    <path class="st40" d="M4,293.7l50.4-47.7,50.4,47.7H4Z"/>
  </g>
  <g class="st10">
    <path class="st2" d="M4,293.7l50.4-47.7,50.4,47.7H4Z"/>
  </g>
  <g class="st11">
    <path class="st41" d="M416.8,207.2l-323.6,121"/>
  </g>
  <g class="st9">
    <path class="st1" d="M416.8,207.2l-301.4,112.7"/>
  </g>
  <g class="st6">
    <path class="st38" d="M113.1,313.8l-14.5,12.4,19.1-.2-4.6-12.2Z"/>
  </g>
  <g class="st3">
    <path class="st40" d="M416.8,168.4h77.7v77.6h-77.7v-77.6Z"/>
  </g>
  <g class="st7">
    <path class="st2" d="M416.8,168.4h77.7v77.6h-77.7v-77.6Z"/>
  </g>
  <g class="st4">
    <path class="st39" d="M434.2,213.1c-.7,0-1.4,0-2-.3-.6-.2-1.1-.4-1.6-.8-.5-.3-.9-.7-1.2-1.2l1.6-1.9c.5.7,1.1,1.2,1.6,1.4.5.2,1.1.4,1.7.4.3,0,.5,0,.8-.1.2,0,.4-.2.5-.3.1-.1.2-.3.2-.5s0-.3-.1-.4c0-.1-.2-.2-.3-.3-.1,0-.3-.2-.5-.2-.2,0-.4-.2-.6-.2-.2,0-.4-.1-.6-.2-.6-.1-1.2-.3-1.6-.5-.5-.2-.8-.5-1.1-.7-.3-.3-.5-.6-.7-1-.1-.4-.2-.8-.2-1.3s.1-.9.3-1.4c.2-.4.5-.8.9-1.1.4-.3.8-.5,1.3-.7.5-.2,1-.2,1.6-.2s1.3,0,1.9.2c.5.2,1,.4,1.3.7.4.3.7.6,1,1l-1.7,1.6c-.2-.3-.5-.5-.7-.7-.3-.2-.5-.3-.8-.4-.3-.1-.6-.2-.9-.2s-.6,0-.8.1-.4.2-.5.3c-.1.1-.2.3-.2.5,0,.2,0,.3.2.5.1.1.3.2.4.3.2,0,.4.2.6.2.2,0,.5.1.7.2.6.1,1.1.3,1.6.5.5.2.9.4,1.2.7.3.3.6.6.8,1,.2.4.3.8.3,1.3,0,.8-.2,1.4-.6,2-.4.5-.9.9-1.5,1.2-.6.3-1.4.4-2.2.4ZM444.2,213.1c-.9,0-1.7-.2-2.4-.6-.7-.4-1.2-.9-1.6-1.5s-.6-1.4-.6-2.2.1-1.2.3-1.8c.2-.5.5-1,.9-1.4.4-.4.8-.7,1.3-.9.5-.2,1.1-.3,1.7-.3s1.1.1,1.6.3c.5.2.9.5,1.3.9.4.4.6.8.8,1.3s.3,1.1.2,1.7v.7h-6.7l-.4-1.4h5l-.3.3v-.3c0-.3-.1-.5-.2-.7-.1-.2-.3-.4-.6-.5-.2-.1-.5-.2-.8-.2s-.8,0-1,.2c-.3.2-.5.4-.7.7-.1.3-.2.7-.2,1.1s0,.9.3,1.2c.2.3.5.6.8.8.4.2.8.3,1.3.3s.7,0,1-.2c.3-.1.6-.3.9-.5l1.2,1.7c-.3.3-.7.5-1,.7-.4.2-.7.3-1.1.4-.4,0-.8.1-1.1.1ZM449.5,213v-8.4h2.4v2.7c.1,0-.4-.5-.4-.5.1-.5.3-.9.6-1.2.3-.4.6-.6,1-.8.4-.2.8-.3,1.3-.3s.4,0,.5,0c.2,0,.3,0,.5.1l-.7,2.8c-.1,0-.3-.1-.5-.2-.2,0-.4,0-.6,0-.2,0-.5,0-.6.1-.2,0-.4.2-.5.3-.1.1-.2.3-.3.5,0,.2-.1.4-.1.7v4.2h-2.5ZM460.1,213l-3.5-8.4h2.8l2.1,6.3h-.6c0,0,2.1-6.3,2.1-6.3h2.8l-3.7,8.4h-2ZM470.8,213.1c-.9,0-1.7-.2-2.4-.6-.7-.4-1.2-.9-1.6-1.5-.4-.6-.6-1.4-.6-2.2s.1-1.2.3-1.8c.2-.5.5-1,.9-1.4.4-.4.8-.7,1.3-.9.5-.2,1.1-.3,1.7-.3s1.1.1,1.6.3c.5.2.9.5,1.3.9s.6.8.8,1.3.3,1.1.2,1.7v.7h-6.7l-.4-1.4h5l-.3.3v-.3c0-.3-.1-.5-.2-.7-.1-.2-.3-.4-.6-.5-.2-.1-.5-.2-.8-.2s-.8,0-1,.2c-.3.2-.5.4-.7.7-.1.3-.2.7-.2,1.1,0,.5,0,.9.3,1.2.2.3.5.6.8.8.4.2.8.3,1.3.3s.7,0,1-.2c.3-.1.6-.3.9-.5l1.2,1.7c-.3.3-.7.5-1,.7-.4.2-.7.3-1.1.4-.4,0-.8.1-1.1.1ZM476.1,213v-8.4h2.4v2.7c.1,0-.4-.5-.4-.5.1-.5.3-.9.6-1.2s.6-.6,1-.8c.4-.2.8-.3,1.3-.3s.4,0,.5,0c.2,0,.3,0,.5.1l-.7,2.8c-.1,0-.3-.1-.5-.2-.2,0-.4,0-.6,0-.2,0-.5,0-.6.1-.2,0-.4.2-.5.3-.1.1-.2.3-.3.5,0,.2-.1.4-.1.7v4.2h-2.5Z"/>
  </g>
  <g class="st23">
    <path class="st40" d="M405.2,172.7l50.4-47.7,50.4,47.7h-100.8Z"/>
  </g>
  <g class="st24">
    <path class="st2" d="M405.2,172.7l50.4-47.7,50.4,47.7h-100.8Z"/>
  </g>
  <g class="st25">
    <path class="st41" d="M93.2,86.2l323.6,121"/>
  </g>
  <g class="st26">
    <path class="st1" d="M93.2,86.2l301.4,112.7"/>
  </g>
  <g class="st27">
    <path class="st38" d="M392.3,205l19.1.2-14.5-12.4-4.6,12.2Z"/>
  </g>
  <g class="st28">
    <path class="st40" d="M15.5,47.4h77.7v77.6H15.5V47.4Z"/>
  </g>
  <g class="st21">
    <path class="st2" d="M15.5,47.4h77.7v77.6H15.5V47.4Z"/>
  </g>
  <g class="st19">
    <path class="st39" d="M37.6,92.1c-.8,0-1.6-.1-2.3-.4-.7-.3-1.3-.7-1.8-1.2-.5-.5-.9-1.1-1.2-1.8-.3-.7-.4-1.5-.4-2.3,0-.8.1-1.6.4-2.3.3-.7.7-1.3,1.2-1.8.5-.5,1.1-.9,1.9-1.2.7-.3,1.5-.4,2.3-.4s1,0,1.5.2,1,.3,1.4.6c.4.3.8.6,1.1,1l-1.6,1.9c-.2-.2-.5-.4-.7-.6-.2-.2-.5-.3-.8-.4-.3,0-.6-.1-.9-.1s-.8,0-1.2.2c-.4.1-.7.4-1,.6-.3.3-.5.6-.7,1-.2.4-.2.8-.2,1.3s0,.9.2,1.3c.2.4.4.7.7,1,.3.3.6.5,1,.6.4.1.9.2,1.4.2.3,0,.7,0,1-.1.3,0,.6-.2.8-.4.3-.2.5-.3.7-.6l1.3,2.1c-.3.3-.6.6-1.1.8-.4.2-.9.4-1.5.5-.5.1-1.1.2-1.6.2ZM43.3,92v-11.7h2.5v11.7h-2.5ZM48.2,92v-8.4h2.5v8.4h-2.5ZM49.5,81.9c-.5,0-.8-.1-1.1-.3-.3-.2-.4-.6-.4-1s.1-.7.4-.9c.3-.2.6-.4,1.1-.4s.8.1,1.1.3c.3.2.4.5.4,1s-.1.7-.4,1c-.3.2-.6.4-1.1.4ZM57.1,92.1c-.9,0-1.7-.2-2.4-.6-.7-.4-1.2-.9-1.6-1.5-.4-.6-.6-1.4-.6-2.2s.1-1.2.3-1.8c.2-.5.5-1,.9-1.4.4-.4.8-.7,1.3-.9.5-.2,1.1-.3,1.7-.3s1.1.1,1.6.3c.5.2.9.5,1.3.9.4.4.6.8.8,1.3s.3,1.1.2,1.7v.7h-6.7l-.4-1.4h5l-.3.3v-.3c0-.3-.1-.5-.2-.7-.1-.2-.3-.4-.6-.5-.2-.1-.5-.2-.8-.2s-.8,0-1,.2c-.3.2-.5.4-.7.7-.1.3-.2.7-.2,1.1,0,.5,0,.9.3,1.2.2.3.5.6.8.8.4.2.8.3,1.3.3s.7,0,1-.2c.3-.1.6-.3.9-.5l1.2,1.7c-.3.3-.7.5-1,.7-.4.2-.7.3-1.1.4-.4,0-.8.1-1.1.1ZM62.4,92v-8.4h2.4v1.7c0,0-.4.2-.4.2.1-.4.3-.7.6-1,.3-.3.7-.6,1.1-.7.4-.2.9-.3,1.3-.3s1.2.1,1.6.4c.4.3.8.6,1,1.2.2.5.3,1.1.3,1.9v5.2h-2.5v-5c0-.3,0-.6-.2-.8,0-.2-.2-.4-.4-.5-.2-.1-.4-.2-.7-.2-.2,0-.4,0-.6.1-.2,0-.3.2-.5.3-.1.1-.2.3-.3.4,0,.2-.1.3-.1.5v5h-2.5ZM73.1,92v-10.5h2.5v10.5h-2.5ZM71.6,85.8v-2.2h5.6v2.2h-5.6Z"/>
  </g>
  <g class="st22">
    <path class="st40" d="M4,51.7L54.4,4l50.4,47.7H4Z"/>
  </g>
  <g class="st20">
    <path class="st2" d="M4,51.7L54.4,4l50.4,47.7H4Z"/>
  </g>
  <g class="st18">
    <path class="st41" d="M179.8,76.1l160.5,60.6-16.7,44.2-160.5-60.6,16.7-44.2Z"/>
  </g>
  <g class="st13">
    <path class="st43" d="M196.7,114.5c-.8-.3-1.4-.7-2-1.2-.5-.5-1-1.1-1.3-1.8l1.2-.6c.2.5.6,1,1,1.5s1,.8,1.6,1c.7.3,1.3.3,1.9.2.5-.2.9-.5,1.1-1,.1-.4.2-.7,0-1,0-.3-.2-.6-.5-.8-.2-.3-.5-.5-.8-.8l-1.3-1.2c-.3-.3-.6-.6-.8-1-.3-.4-.4-.8-.5-1.2,0-.4,0-.9.1-1.4.2-.5.5-1,1-1.3.5-.3,1-.5,1.6-.5.6,0,1.2,0,1.9.3.7.3,1.2.6,1.7,1,.5.5.8.9,1.1,1.5l-1,.6c-.2-.4-.5-.8-.9-1.2-.3-.3-.8-.6-1.3-.8-.6-.2-1.2-.3-1.6-.1-.5.1-.8.4-1,.9-.1.3-.1.6,0,.9.1.3.3.6.5.8.2.2.5.5.7.7l1.2,1.2c.4.3.7.7.9,1.1.3.4.4.8.5,1.2,0,.4,0,.9-.2,1.4-.2.6-.6,1-1,1.3-.5.3-1,.5-1.7.6-.6,0-1.4,0-2.1-.4ZM203.3,116.8l4-10.5,6.5,2.5-.4,1.1-5.2-1.9-1.3,3.3,4.3,1.6-.4,1.1-4.3-1.6-1.4,3.8,5.3,2-.4,1.1-6.7-2.5ZM215.8,121.7c-.8-.3-1.4-.8-1.9-1.4-.4-.7-.7-1.5-.7-2.4,0-.9.2-2,.6-3.1.4-1.1,1-2,1.6-2.7.7-.7,1.4-1.1,2.1-1.3.8-.2,1.6-.2,2.4.1.8.3,1.4.8,1.8,1.4.4.7.7,1.4.7,2.4,0,.9-.1,2-.6,3.1-.4,1.2-1,2.1-1.6,2.8-.6.7-1.4,1.1-2.1,1.3-.8.2-1.6.2-2.3-.1ZM216.3,120.7c.5.2,1.1.2,1.6,0,.5-.2,1-.6,1.5-1.2.5-.6.9-1.3,1.2-2.2.3-.9.5-1.7.5-2.4,0-.7-.1-1.3-.4-1.8-.3-.5-.7-.8-1.2-1-.5-.2-1.1-.2-1.6,0-.5.2-1,.6-1.5,1.1-.5.6-.9,1.3-1.2,2.1-.3.9-.5,1.8-.6,2.5s0,1.4.4,1.8.7.8,1.2,1ZM217.8,125.3c-.9-.4-1.6-.9-2-1.6-.4-.7-.6-1.5-.6-2.3l1.4.4c0,.4,0,.7.2,1.1.1.3.3.6.6.8.3.2.6.4,1,.6.2,0,.3,0,.5.1.2,0,.3,0,.4,0l-.2,1.2c-.2,0-.4,0-.6,0-.2,0-.4,0-.7-.2ZM236.2,129.2l2.7-7c.1-.3.2-.6.4-.9.1-.3.3-.6.4-.9h0c-.3.1-.5.3-.8.5-.3.2-.5.4-.8.6l-4.1,2.4,6.6,2.5-.4,1.1-8.1-3.1.3-.9,7.6-4.6,1.4.5-3.9,10.2-1.3-.5ZM244.4,132.6c-.6-.2-1.1-.5-1.5-.8-.4-.3-.7-.6-1-1-.3-.3-.5-.7-.6-1l1-.6c.1.3.3.6.5.9.2.3.5.5.8.8.3.2.7.4,1.1.6.5.2,1,.3,1.4.2.5,0,.9-.2,1.2-.5.4-.3.6-.6.8-1.1.3-.7.2-1.3,0-1.9-.3-.6-.8-1-1.6-1.3-.4-.2-.8-.2-1.2-.3-.3,0-.7,0-1.2,0l-.5-.7,2.2-4.8,5.8,2.2-.4,1.1-4.6-1.7-1.4,2.9c.3,0,.7,0,1,0,.3,0,.7.1,1.1.3.7.2,1.2.6,1.6,1,.5.4.7.9.9,1.5.1.6,0,1.3-.2,2-.3.7-.7,1.3-1.2,1.7-.6.4-1.2.6-1.8.7-.7,0-1.3,0-2-.3ZM254.6,136.4c-.6-.2-1-.5-1.4-.9-.4-.4-.7-.8-.9-1.4-.2-.5-.3-1.2-.3-1.9,0-.7.2-1.4.5-2.3.4-1,.8-1.9,1.3-2.5.5-.6,1.1-1.1,1.6-1.4.6-.3,1.2-.5,1.7-.5.6,0,1.2,0,1.7.3.6.2,1.1.5,1.5.9.4.4.7.8.9,1.2l-1,.5c-.2-.3-.4-.6-.7-.9-.3-.3-.6-.5-1-.6-.6-.2-1.1-.3-1.7-.2-.6.1-1.1.4-1.7,1-.5.6-1,1.4-1.5,2.5-.3.8-.5,1.6-.5,2.2,0,.7.1,1.2.4,1.7.3.4.7.8,1.3,1,.4.2.8.2,1.2.1.4,0,.8-.2,1.1-.5.3-.3.6-.6.7-1.1.3-.7.3-1.3,0-1.8-.2-.5-.7-.9-1.4-1.2-.4-.2-.9-.2-1.4-.2-.6,0-1.1.2-1.8.6l.3-1.1c.6-.3,1.2-.4,1.8-.5.6,0,1.2,0,1.7.2.6.2,1.1.6,1.5,1,.4.4.6.9.7,1.5,0,.6,0,1.2-.3,1.9-.2.7-.6,1.2-1.1,1.5-.5.4-1.1.6-1.7.7-.6,0-1.2,0-1.8-.2ZM261.4,142.6v-1c.7,0,1.4-.2,1.9-.6.5-.3.9-.8,1.1-1.5l.3-1.6.4,1.6c-.2.1-.4.2-.5.1-.2,0-.3,0-.5-.1-.2,0-.4-.2-.6-.4-.2-.2-.3-.4-.3-.6,0-.2,0-.5,0-.7.1-.4.4-.6.7-.8.3-.1.7-.1,1,0,.5.2.8.5.9,1,.1.5,0,1-.2,1.6-.4.9-.9,1.6-1.7,2.1-.7.5-1.6.7-2.6.7ZM283.2,147.2c-.8-.3-1.4-.7-2-1.2s-1-1.1-1.3-1.8l1.2-.6c.2.5.6,1,1,1.5s1,.8,1.6,1c.7.3,1.3.3,1.9.2.5-.2.9-.5,1.1-1,.1-.4.2-.7,0-1,0-.3-.2-.6-.5-.8-.2-.3-.5-.5-.8-.8l-1.3-1.2c-.3-.3-.6-.6-.8-1-.3-.4-.4-.8-.5-1.2,0-.4,0-.9.1-1.4.2-.5.5-1,1-1.3.5-.3,1-.5,1.6-.5.6,0,1.2,0,1.9.3.7.3,1.2.6,1.7,1,.5.5.8.9,1.1,1.5l-1,.6c-.2-.4-.5-.8-.9-1.2-.3-.3-.8-.6-1.3-.8-.6-.2-1.2-.3-1.6-.1-.5.1-.8.4-1,.9-.1.3-.1.6,0,.9.1.3.3.6.5.8.2.2.5.5.7.7l1.2,1.2c.4.3.7.7.9,1.1.3.4.4.8.5,1.2,0,.4,0,.9-.2,1.4-.2.6-.6,1-1,1.3-.5.3-1,.5-1.7.6-.6,0-1.4,0-2.1-.4ZM292.1,150.3l1.4-3.8-1-8.1,1.4.5.4,3.7c0,.5,0,.9.1,1.4,0,.5,0,1,.1,1.5h0c.4-.3.7-.7,1.1-1s.7-.7,1.1-1l2.7-2.5,1.4.5-6.1,5.4-1.4,3.8-1.3-.5ZM298.9,152.9l4-10.5,1.5.6.9,7.9.2,2.6h0c.2-.5.3-1.1.5-1.7.2-.6.4-1.2.6-1.7l2.1-5.4,1.3.5-4,10.5-1.5-.6-.9-7.9-.2-2.6h0c-.2.5-.3,1.1-.5,1.7-.2.6-.3,1.1-.6,1.7l-2.1,5.5-1.3-.5Z"/>
  </g>
  <g class="st14">
    <path class="st41" d="M94.8,286.3l289.9-107.1,16.4,44.3-289.9,107.1-16.4-44.3Z"/>
  </g>
  <g class="st15">
    <path class="st43" d="M125.3,306.8l-.3-11.8,1.5-.6,7.4,9.2-1.4.5-4-5.2c-.4-.5-.8-1-1.2-1.5-.4-.5-.8-1.1-1.2-1.6h0c0,.7.1,1.4.2,2,0,.6,0,1.3.1,1.9l.3,6.6-1.4.5ZM126,302.9l-.4-1.1,4.8-1.8.4,1.1-4.8,1.8ZM140.1,301.5c-.6.2-1.3.3-1.9.3-.7,0-1.3-.2-1.9-.5-.6-.3-1.1-.8-1.6-1.3-.5-.6-.9-1.3-1.2-2.2-.4-1.1-.6-2.2-.5-3.1s.4-1.8,1-2.5c.6-.7,1.3-1.2,2.2-1.6.6-.2,1.3-.3,1.8-.2.6,0,1.1.2,1.5.4l-.4,1.1c-.4-.2-.8-.3-1.2-.4-.4,0-.8,0-1.3.2-.7.2-1.2.6-1.6,1.2-.4.5-.6,1.2-.6,1.9,0,.7,0,1.5.4,2.4.3.9.8,1.6,1.3,2.1.5.5,1.1.9,1.7,1.1.6.2,1.3.1,2-.1.5-.2.9-.4,1.2-.8s.6-.8.8-1.3l1.1.5c-.2.6-.6,1.2-1,1.7-.4.5-1,.8-1.7,1.1ZM145.6,299.2l-3.9-10.5,1.3-.5,1.9,5.3h0s2.5-6.9,2.5-6.9l1.5-.6-3.4,9.4,1.2,3.4-1.3.5ZM151.9,296.9l-5.4-4.7.4-1.4,6.5,5.5-1.5.6ZM169.2,290.5l-2.6-7.1c0-.3-.2-.6-.3-.9-.1-.3-.2-.6-.3-.9h0c0,.3-.2.6-.2,1,0,.3-.2.6-.2.9l-1.5,4.5,6.7-2.5.4,1.1-8.1,3-.3-.9,2.7-8.4,1.4-.5,3.8,10.2-1.3.5ZM177.6,287.6c-.6.2-1.2.4-1.7.4-.5,0-1,0-1.4,0-.4,0-.8-.2-1.1-.3l.3-1.1c.3.1.6.2,1,.3.3,0,.7.1,1.1,0,.4,0,.8-.1,1.3-.3.5-.2.9-.4,1.2-.8.3-.3.5-.7.6-1.2s0-.9-.1-1.4c-.3-.7-.7-1.2-1.3-1.4s-1.3-.2-2,0c-.4.2-.8.3-1,.6-.3.2-.5.5-.8.8l-.9-.2-1.5-5.1,5.8-2.1.4,1.1-4.6,1.7.8,3.1c.2-.2.5-.5.8-.6.3-.2.6-.4,1-.5.7-.2,1.3-.3,1.9-.3.6,0,1.2.2,1.7.6.5.4.9.9,1.1,1.7.3.7.3,1.4.2,2.1s-.5,1.2-1,1.7c-.5.5-1.1.8-1.7,1.1ZM186.2,284.2c-.3-1-.6-1.9-.7-2.8-.2-.9-.2-1.7-.2-2.5,0-.8,0-1.6.3-2.4.2-.8.4-1.7.7-2.7l-5.9,2.2-.4-1.1,7.4-2.7.3.8c-.4,1-.7,2-.9,2.8-.2.9-.3,1.7-.2,2.5,0,.8.1,1.7.3,2.5s.4,1.8.8,2.8l-1.4.5ZM197,284.1l-.7-.7c.6-.6.9-1.1,1.1-1.7.2-.6.1-1.2-.1-1.9l-.9-1.4,1.4.9c0,.2-.2.4-.3.5-.1.1-.3.2-.5.2-.2,0-.4.1-.7,0-.2,0-.4-.1-.6-.2-.2-.1-.3-.4-.4-.6-.1-.4-.1-.7,0-1,.2-.3.4-.5.8-.7.5-.2.9-.1,1.3.2.4.3.7.7.9,1.4.3.9.4,1.8.1,2.7-.3.8-.8,1.6-1.5,2.2ZM216.5,273.3c-.8.3-1.5.4-2.3.4-.8,0-1.5-.2-2.1-.5l.5-1.2c.5.2,1.1.4,1.7.4.6,0,1.2,0,1.8-.3.7-.3,1.2-.6,1.5-1.1.3-.5.3-.9.2-1.4-.1-.4-.3-.6-.6-.8-.2-.2-.5-.3-.9-.3-.3,0-.7,0-1.1-.1h-1.7c-.4-.1-.8-.2-1.3-.3-.4-.1-.8-.3-1.2-.5-.4-.3-.6-.6-.8-1.2-.2-.5-.2-1.1,0-1.6.1-.5.4-1,.9-1.5.4-.4,1-.8,1.6-1,.7-.2,1.3-.4,2-.3.6,0,1.2.2,1.8.4l-.4,1.1c-.5-.2-.9-.3-1.4-.3-.5,0-1,0-1.5.3-.6.2-1,.5-1.3,1-.3.4-.3.9-.1,1.3.1.3.3.6.6.7.3.1.6.2.9.3.3,0,.7,0,1,0h1.7c.5.1,1,.2,1.4.3.4.1.8.3,1.2.6.3.3.6.7.8,1.2.2.6.2,1.1,0,1.7-.1.6-.4,1.1-.9,1.6-.5.5-1.1.8-1.8,1.1ZM223,270.7l-3.9-10.5,6.5-2.4.4,1.1-5.2,1.9,1.2,3.3,4.4-1.6.4,1.1-4.4,1.6,1.4,3.8,5.3-2,.4,1.1-6.7,2.5ZM235.7,266.2c-.8.3-1.6.3-2.4.1-.8-.2-1.5-.7-2.1-1.4-.6-.7-1.2-1.6-1.6-2.8-.4-1.1-.6-2.2-.6-3.1,0-.9.3-1.7.7-2.4.5-.7,1.1-1.1,1.9-1.4.8-.3,1.6-.3,2.3-.1.8.2,1.5.6,2.1,1.3.6.7,1.2,1.6,1.6,2.7.4,1.2.6,2.2.6,3.2,0,.9-.3,1.7-.7,2.4-.4.7-1.1,1.1-1.9,1.4ZM235.3,265.1c.5-.2.9-.5,1.2-1,.3-.5.4-1.1.4-1.8,0-.7-.2-1.6-.5-2.5-.3-.9-.7-1.6-1.2-2.1-.5-.6-.9-.9-1.5-1.1-.5-.2-1-.2-1.6,0-.5.2-.9.5-1.2,1-.3.5-.4,1.1-.4,1.8,0,.7.2,1.5.5,2.4.3.9.7,1.7,1.2,2.3.5.6,1,1,1.5,1.2.5.2,1.1.2,1.6,0ZM239.5,267.6c-.9.3-1.8.4-2.6.1-.8-.3-1.4-.7-2-1.4l1.3-.6c.2.3.5.5.8.7.3.2.6.2,1,.2.4,0,.7,0,1.1-.2.2,0,.3-.1.4-.2.1,0,.2-.2.3-.2l.6,1c-.1.1-.3.2-.5.4-.2.1-.4.2-.6.3ZM253.7,259.3c-.3-1-.6-1.9-.7-2.8-.2-.9-.2-1.7-.2-2.5,0-.8,0-1.6.3-2.4.2-.8.4-1.7.7-2.7l-5.9,2.2-.4-1.1,7.4-2.7.3.8c-.4,1-.7,2-.9,2.8-.2.9-.3,1.7-.2,2.5,0,.8.1,1.7.3,2.5.2.9.4,1.8.8,2.8l-1.4.5ZM264.6,255.5c-.8.3-1.5.4-2.1.4-.6,0-1.2-.2-1.7-.5-.5-.3-.8-.7-1-1.3-.2-.5-.2-.9-.1-1.3,0-.4.3-.8.5-1.2.2-.4.5-.7.8-1h0c-.5-.2-1-.4-1.5-.7-.4-.3-.8-.7-1-1.2-.2-.5-.2-1-.1-1.5.1-.5.4-.9.8-1.3.4-.4.9-.7,1.5-.9,1-.4,1.9-.4,2.6,0,.8.3,1.3.9,1.6,1.7.2.5.2,1,0,1.5-.1.5-.4,1-.7,1.5h0c.4.1.9.2,1.2.3.4.1.7.3,1,.6.3.3.5.6.7,1.1.2.5.2,1,0,1.5-.1.5-.4,1-.9,1.4-.5.4-1.1.8-1.9,1.1ZM263.3,249.4c.6-.9.8-1.8.5-2.5-.1-.3-.3-.6-.6-.8-.3-.2-.6-.4-.9-.4-.4,0-.8,0-1.2.2-.6.2-1,.5-1.2,1-.2.4-.3.9,0,1.4.1.4.4.7.7.9.3.2.7.3,1.2.3.5,0,1,0,1.6,0ZM264.3,254.5c.8-.3,1.3-.7,1.6-1.1.3-.5.3-1,.1-1.5-.1-.3-.3-.6-.6-.8-.3-.2-.6-.3-.9-.4-.4,0-.7,0-1.2,0-.4,0-.9,0-1.4,0-.3.3-.5.6-.7.9-.2.3-.3.6-.4,1,0,.3,0,.7.1,1,.1.4.4.7.7.9.3.2.7.3,1.2.4.5,0,1,0,1.5-.2ZM273.5,252.2c-.6.2-1.2.3-1.8.3-.6,0-1-.1-1.5-.3l.4-1.1c.3.2.7.2,1.1.3.4,0,.8,0,1.2-.2.6-.2,1-.5,1.4-1,.4-.5.6-1.1.6-1.9,0-.8-.2-1.7-.6-2.9-.3-.8-.7-1.5-1.1-2-.4-.5-.9-.8-1.4-1s-1-.1-1.6,0c-.4.2-.8.4-1,.7-.3.3-.4.7-.5,1.1,0,.4,0,.8.1,1.3.3.7.6,1.2,1.1,1.4.5.2,1.1.2,1.8,0,.4-.1.8-.4,1.2-.8.4-.4.7-.9,1-1.6l.4,1c-.3.6-.6,1.1-1,1.5-.4.4-.9.8-1.4,1-.6.2-1.2.3-1.8.3-.6,0-1.1-.3-1.5-.6-.4-.4-.8-.9-1.1-1.6-.2-.6-.3-1.3-.2-1.9.1-.6.4-1.2.8-1.6.4-.5.9-.8,1.5-1,.6-.2,1.1-.3,1.7-.3.5,0,1.1.2,1.6.5.5.3,1,.7,1.4,1.2.4.5.8,1.2,1.1,2,.4,1,.6,1.9.6,2.8,0,.8,0,1.5-.3,2.1-.2.6-.6,1.1-1,1.5-.4.4-.9.7-1.5.9ZM283.8,252.1l-.7-.7c.6-.6.9-1.1,1.1-1.7.2-.6.1-1.2-.1-1.9l-.9-1.4,1.4.9c0,.2-.2.4-.3.5-.1.1-.3.2-.5.2-.2,0-.4.1-.7,0-.2,0-.4-.1-.6-.2-.2-.1-.3-.4-.4-.6-.1-.4-.1-.7,0-1,.2-.3.4-.5.8-.7.5-.2.9-.1,1.3.2.4.3.7.7.9,1.4.3.9.4,1.8.1,2.7s-.8,1.6-1.5,2.2ZM303.2,241.2c-.8.3-1.5.4-2.3.4s-1.5-.2-2.1-.5l.5-1.2c.5.2,1.1.4,1.7.4.6,0,1.2,0,1.8-.3.7-.3,1.2-.6,1.5-1.1.3-.5.3-.9.2-1.4-.1-.4-.3-.6-.6-.8-.2-.2-.5-.3-.9-.3-.3,0-.7,0-1.1-.1h-1.7c-.4-.1-.8-.2-1.3-.3-.4-.1-.8-.3-1.2-.5-.4-.3-.6-.6-.8-1.2-.2-.5-.2-1.1,0-1.6.1-.5.4-1,.9-1.5.4-.4,1-.8,1.6-1,.7-.2,1.3-.4,2-.3.6,0,1.2.2,1.8.4l-.4,1.1c-.5-.2-.9-.3-1.4-.3-.5,0-1,0-1.5.3-.6.2-1,.5-1.3,1-.3.4-.3.9-.1,1.3.1.3.3.6.6.7.3.1.6.2.9.3.3,0,.7,0,1,0h1.7c.5.1,1,.2,1.4.3.4.1.8.3,1.2.6.3.3.6.7.8,1.2.2.6.2,1.1,0,1.7-.1.6-.4,1.1-.9,1.6-.5.5-1.1.8-1.8,1.1ZM312,237.8l-1.4-3.8-6-5.5,1.4-.5,2.7,2.5c.3.3.7.6,1,1,.3.3.7.7,1.1,1h0c0-.5.1-1,.2-1.5,0-.5.1-1,.2-1.4l.4-3.7,1.4-.5-1,8.1,1.4,3.8-1.3.5ZM318.8,235.3l-3.9-10.5,1.5-.5,5.8,5.4,1.8,1.8h0c-.2-.5-.4-1.1-.7-1.6-.3-.6-.5-1.1-.7-1.7l-2-5.5,1.3-.5,3.9,10.5-1.5.5-5.8-5.4-1.8-1.8h0c.2.5.5,1.1.7,1.6.3.5.5,1.1.7,1.6l2,5.5-1.3.5ZM331.9,234.3l-.7-.7c.6-.6.9-1.1,1.1-1.7.2-.6.1-1.2-.1-1.9l-.9-1.4,1.4.9c0,.2-.2.4-.3.5-.1.1-.3.2-.5.2-.2,0-.4.1-.7,0-.2,0-.4-.1-.6-.2-.2-.1-.3-.4-.4-.6-.1-.4-.1-.7,0-1,.2-.3.4-.5.8-.7.5-.2.9-.1,1.3.2.4.3.7.7.9,1.4.3.9.4,1.8.1,2.7-.3.8-.8,1.6-1.5,2.2ZM346.9,224.9l-.3-11.8,1.5-.6,7.4,9.2-1.4.5-4-5.2c-.4-.5-.8-1-1.2-1.5-.4-.5-.8-1.1-1.2-1.6h0c0,.7.1,1.4.2,2,0,.6,0,1.3.1,1.9l.3,6.6-1.4.5ZM347.6,221l-.4-1.1,4.8-1.8.4,1.1-4.8,1.8ZM361.8,219.6c-.6.2-1.3.3-1.9.3-.7,0-1.3-.2-1.9-.5s-1.1-.8-1.6-1.3c-.5-.6-.9-1.3-1.2-2.2-.4-1.1-.6-2.2-.5-3.1s.4-1.8,1-2.5c.6-.7,1.3-1.2,2.2-1.6.6-.2,1.3-.3,1.8-.2.6,0,1.1.2,1.5.4l-.4,1.1c-.4-.2-.8-.3-1.2-.4-.4,0-.8,0-1.3.2-.7.2-1.2.6-1.6,1.2-.4.5-.6,1.2-.6,1.9,0,.7,0,1.5.4,2.4.3.9.8,1.6,1.3,2.1.5.5,1.1.9,1.7,1.1.6.2,1.3.1,2-.1.5-.2.9-.4,1.2-.8.3-.3.6-.8.8-1.3l1.1.5c-.2.6-.6,1.2-1,1.7-.4.5-1,.8-1.7,1.1ZM367.3,217.4l-3.9-10.5,1.3-.5,1.9,5.3h0s2.5-6.9,2.5-6.9l1.5-.6-3.4,9.4,1.2,3.4-1.3.5ZM373.5,215.1l-5.4-4.7.4-1.4,6.5,5.5-1.5.6Z"/>
  </g>
  <g class="st16">
    <path class="st41" d="M119.6,296.7l289.2,109.2-16.7,44.2-289.2-109.2,16.7-44.2Z"/>
  </g>
  <g class="st17">
    <path class="st43" d="M153.3,341.2l7.5-9.1,1.5.6-.4,11.8-1.4-.5.4-6.6c0-.7,0-1.3.1-2,0-.7.1-1.3.2-2h0c-.4.5-.8,1-1.2,1.6-.4.5-.8,1-1.2,1.5l-4.1,5.2-1.4-.5ZM156.3,338.7l.4-1.1,4.8,1.8-.4,1.1-4.8-1.8ZM167.9,347c-.6-.2-1.2-.6-1.7-1-.5-.5-.8-1-1.1-1.6s-.3-1.3-.3-2.1c0-.8.2-1.6.5-2.4.4-1.1,1-2,1.7-2.7.7-.7,1.5-1.1,2.4-1.2.9-.2,1.8,0,2.7.3.6.2,1.1.6,1.5,1,.4.4.7.9.9,1.3l-1.1.6c-.2-.4-.4-.8-.7-1.1-.3-.3-.6-.5-1.1-.7-.7-.3-1.3-.3-2-.1-.6.2-1.2.5-1.7,1-.5.5-.9,1.2-1.3,2.1-.3.9-.5,1.7-.4,2.5,0,.7.2,1.4.6,1.9.4.5.9.9,1.6,1.2.5.2,1,.2,1.4.2.5,0,.9-.2,1.4-.5l.4,1.1c-.6.3-1.2.5-1.8.6-.6,0-1.3,0-2-.3ZM173.6,348.9l4-10.5,1.3.5-2,5.3h0s6.4-3.6,6.4-3.6l1.5.6-8.7,4.9-1.3,3.3-1.3-.5ZM179.8,351.2l-1-7.1,1.2-.7,1.3,8.4-1.5-.6ZM194.8,356.9c.4-1,.8-1.8,1.3-2.6.4-.7.9-1.4,1.5-2,.5-.6,1.1-1.2,1.8-1.7.7-.5,1.4-1,2.3-1.5l-5.9-2.2.4-1.1,7.4,2.8-.3.8c-1,.5-1.8,1-2.5,1.6-.7.5-1.3,1.1-1.9,1.8-.5.6-1,1.3-1.4,2.1-.4.8-.9,1.7-1.3,2.6l-1.4-.5ZM204.9,360.9c-.6-.2-1.1-.5-1.5-.9-.4-.4-.7-.8-.9-1.2l1.1-.6c.2.3.4.7.7.9.3.3.7.5,1,.6.6.2,1.1.3,1.7.2.6-.1,1.1-.5,1.7-1,.5-.6,1-1.4,1.5-2.5.3-.8.5-1.6.5-2.2,0-.7-.1-1.2-.4-1.7s-.7-.8-1.3-1c-.4-.2-.8-.2-1.2-.1-.4,0-.7.2-1.1.5-.3.3-.6.6-.7,1.1-.3.7-.3,1.3,0,1.8.2.5.7.9,1.4,1.2.4.2.9.2,1.4.2.6,0,1.2-.2,1.8-.6l-.4,1.1c-.6.3-1.2.4-1.8.5-.6,0-1.2,0-1.7-.2-.6-.2-1.1-.6-1.5-1-.4-.4-.6-.9-.7-1.5,0-.6,0-1.2.3-1.9.2-.6.6-1.2,1.1-1.5.5-.4,1.1-.6,1.7-.7.6,0,1.2,0,1.8.2.6.2,1,.5,1.4.9.4.4.7.8.9,1.4s.3,1.2.2,1.9c0,.7-.2,1.4-.5,2.3-.4,1-.8,1.8-1.4,2.5-.5.6-1,1.1-1.6,1.4-.6.3-1.1.4-1.7.5-.6,0-1.2,0-1.7-.3ZM215.2,364.8c-.8-.3-1.3-.7-1.7-1.4-.4-.6-.6-1.4-.6-2.3,0-.9.2-1.9.6-3.1.7-1.7,1.5-2.9,2.5-3.6,1-.6,2.1-.8,3.2-.3,1.1.4,1.9,1.2,2.2,2.4s.1,2.6-.5,4.3c-.4,1.1-.9,2-1.5,2.7-.6.7-1.2,1.1-2,1.3-.7.2-1.4.2-2.2-.1ZM215.6,363.8c.5.2,1,.2,1.4,0,.5-.2.9-.5,1.4-1.1.5-.6.9-1.3,1.2-2.3.4-1,.6-1.8.6-2.5,0-.7,0-1.3-.3-1.7-.2-.4-.6-.7-1.1-.9-.5-.2-1-.2-1.4,0-.5.2-.9.5-1.4,1-.4.5-.8,1.3-1.2,2.3-.4,1-.6,1.8-.6,2.5,0,.7,0,1.3.3,1.7.3.4.6.7,1.1.9ZM216.8,360.4c-.3-.1-.5-.3-.6-.6-.1-.3-.1-.6,0-.9.1-.3.3-.5.6-.7.3-.1.5-.1.8,0,.3.1.5.3.6.6.1.3.1.5,0,.9-.1.3-.3.6-.6.7-.3.1-.5.1-.8,0ZM222.3,371.2v-1c.7,0,1.4-.2,1.9-.6.5-.3.9-.8,1.1-1.5l.3-1.6.4,1.6c-.2.1-.4.2-.5.1-.2,0-.3,0-.5-.1-.2,0-.4-.2-.6-.4-.2-.2-.3-.4-.3-.6,0-.2,0-.5,0-.7.1-.4.4-.6.7-.8.3-.1.7-.1,1,0,.5.2.8.5.9,1,.1.5,0,1-.2,1.6-.4.9-.9,1.6-1.7,2.1-.7.5-1.6.7-2.6.7ZM244.1,375.7c-.8-.3-1.4-.7-2-1.2-.5-.5-1-1.1-1.3-1.8l1.2-.6c.2.5.6,1,1,1.5.4.4,1,.8,1.6,1,.7.3,1.3.3,1.9.2.5-.2.9-.5,1.1-1,.1-.4.2-.7,0-1,0-.3-.2-.6-.5-.8-.2-.3-.5-.5-.8-.8l-1.3-1.2c-.3-.3-.6-.6-.8-1-.3-.4-.4-.8-.5-1.2s0-.9.1-1.4c.2-.5.5-1,1-1.3.5-.3,1-.5,1.6-.5.6,0,1.2,0,1.9.3s1.2.6,1.7,1c.5.5.8.9,1.1,1.5l-1,.6c-.2-.4-.5-.8-.9-1.2-.3-.3-.8-.6-1.3-.8-.6-.2-1.2-.3-1.6-.1-.5.1-.8.4-1,.9-.1.3-.1.6,0,.9.1.3.3.6.5.8.2.2.5.5.7.7l1.2,1.2c.4.3.7.7.9,1.1.3.4.4.8.5,1.2,0,.4,0,.9-.2,1.4-.2.6-.6,1-1,1.3-.5.3-1,.5-1.7.6-.6,0-1.4,0-2.1-.4ZM250.7,378l4-10.5,6.5,2.5-.4,1.1-5.2-1.9-1.3,3.3,4.3,1.6-.4,1.1-4.3-1.6-1.4,3.8,5.3,2-.4,1.1-6.7-2.5ZM263.2,383c-.8-.3-1.4-.8-1.9-1.4-.4-.7-.7-1.5-.7-2.4,0-.9.2-2,.6-3.1.4-1.1,1-2,1.6-2.7.7-.7,1.4-1.1,2.1-1.3.8-.2,1.6-.2,2.4.1.8.3,1.4.8,1.8,1.4.4.7.7,1.4.7,2.4,0,.9-.1,2-.6,3.1-.4,1.2-1,2.1-1.6,2.8-.6.7-1.4,1.1-2.1,1.3-.8.2-1.6.2-2.3-.1ZM263.6,381.9c.5.2,1.1.2,1.6,0,.5-.2,1-.6,1.5-1.2.5-.6.9-1.3,1.2-2.2.3-.9.5-1.7.5-2.4,0-.7-.1-1.3-.4-1.8s-.7-.8-1.2-1c-.5-.2-1.1-.2-1.6,0s-1,.6-1.5,1.1c-.5.6-.9,1.3-1.2,2.1-.3.9-.5,1.8-.6,2.5,0,.7,0,1.4.4,1.8.3.5.7.8,1.2,1ZM265.2,386.5c-.9-.4-1.6-.9-2-1.6-.4-.7-.6-1.5-.6-2.3l1.4.4c0,.4,0,.7.2,1.1.1.3.3.6.6.8.3.2.6.4,1,.6.2,0,.3,0,.5.1.2,0,.3,0,.4,0l-.2,1.2c-.2,0-.4,0-.6,0-.2,0-.4,0-.7-.2ZM283.6,390.4l2.7-7c.1-.3.2-.6.4-.9.1-.3.3-.6.4-.9h0c-.3.1-.5.3-.8.5-.3.2-.5.4-.8.6l-4.1,2.4,6.6,2.5-.4,1.1-8.1-3.1.3-.9,7.6-4.6,1.4.5-3.9,10.2-1.3-.5ZM291.8,393.8c-.6-.2-1.1-.5-1.5-.8-.4-.3-.7-.6-1-1-.3-.3-.5-.7-.6-1l1-.6c.1.3.3.6.5.9.2.3.5.5.8.8.3.2.7.4,1.1.6.5.2,1,.3,1.4.2.5,0,.9-.2,1.2-.5.4-.3.6-.6.8-1.1.3-.7.2-1.3,0-1.9-.3-.6-.8-1-1.6-1.3-.4-.2-.8-.2-1.2-.3-.3,0-.7,0-1.2,0l-.5-.7,2.2-4.8,5.8,2.2-.4,1.1-4.6-1.7-1.4,2.9c.3,0,.7,0,1,0,.3,0,.7.1,1.1.3.7.2,1.2.6,1.6,1,.5.4.7.9.9,1.5.1.6,0,1.3-.2,2-.3.7-.7,1.3-1.2,1.7-.6.4-1.2.6-1.8.7-.7,0-1.3,0-2-.3ZM300.5,396.8c.4-1,.8-1.8,1.3-2.6.4-.7.9-1.4,1.5-2,.5-.6,1.1-1.2,1.8-1.7.7-.5,1.4-1,2.3-1.5l-5.9-2.2.4-1.1,7.4,2.8-.3.8c-1,.5-1.8,1-2.5,1.6-.7.5-1.3,1.1-1.9,1.8-.5.6-1,1.3-1.4,2.1-.4.8-.9,1.7-1.3,2.6l-1.4-.5ZM308.8,403.8v-1c.7,0,1.4-.2,1.9-.6.5-.3.9-.8,1.1-1.5l.3-1.6.4,1.6c-.2.1-.4.2-.5.1-.2,0-.3,0-.5-.1-.2,0-.4-.2-.6-.4-.2-.2-.3-.4-.3-.6,0-.2,0-.5,0-.7.1-.4.4-.6.7-.8.3-.1.7-.1,1,0,.5.2.8.5.9,1,.1.5,0,1-.2,1.6-.4.9-.9,1.6-1.7,2.1s-1.6.7-2.6.7ZM326.3,406.6l7.5-9.1,1.5.6-.4,11.8-1.4-.5.4-6.6c0-.7,0-1.3.1-2,0-.7.1-1.3.2-2h0c-.4.5-.8,1-1.2,1.6-.4.5-.8,1-1.2,1.5l-4.1,5.2-1.4-.5ZM329.3,404.1l.4-1.1,4.8,1.8-.4,1.1-4.8-1.8ZM340.9,412.3c-.6-.2-1.2-.6-1.7-1-.5-.5-.8-1-1.1-1.6-.2-.6-.3-1.3-.3-2.1,0-.8.2-1.6.5-2.4.4-1.1,1-2,1.7-2.7s1.5-1.1,2.4-1.2c.9-.2,1.8,0,2.7.3.6.2,1.1.6,1.5,1,.4.4.7.9.9,1.3l-1.1.6c-.2-.4-.4-.8-.7-1.1-.3-.3-.6-.5-1.1-.7-.7-.3-1.3-.3-2-.1-.6.2-1.2.5-1.7,1-.5.5-.9,1.2-1.3,2.1-.3.9-.5,1.7-.4,2.5,0,.7.2,1.4.6,1.9.4.5.9.9,1.6,1.2.5.2,1,.2,1.4.2.5,0,.9-.2,1.4-.5l.4,1.1c-.6.3-1.2.5-1.8.6-.6,0-1.3,0-2-.3ZM346.5,414.2l4-10.5,1.3.5-2,5.3h0s6.4-3.6,6.4-3.6l1.5.6-8.7,4.9-1.3,3.3-1.3-.5ZM352.8,416.6l-1-7.1,1.2-.7,1.3,8.4-1.5-.6Z"/>
  </g>
</svg>