<svg version="1.1" viewBox="0.0 0.0 960.0 720.0" fill="none" stroke="none" stroke-linecap="square" stroke-miterlimit="10" xmlns:xlink="http://www.w3.org/1999/xlink" xmlns="http://www.w3.org/2000/svg"><clipPath id="p.0"><path d="m0 0l960.0 0l0 720.0l-960.0 0l0 -720.0z" clip-rule="nonzero"/></clipPath><g clip-path="url(#p.0)"><path fill="#000000" fill-opacity="0.0" d="m0 0l960.0 0l0 720.0l-960.0 0z" fill-rule="evenodd"/><path fill="#3c78d8" d="m329.77954 108.66929l78.61417 0l0 78.614174l-78.61417 0z" fill-rule="evenodd"/><path stroke="#3c78d8" stroke-width="8.0" stroke-linejoin="round" stroke-linecap="butt" d="m329.77954 108.66929l78.61417 0l0 78.614174l-78.61417 0z" fill-rule="evenodd"/><path fill="#ffffff" d="m341.27667 152.77638l0 -9.328125l4.203125 0q0.890625 0 1.609375 0.390625q0.734375 0.375 1.140625 1.0625q0.421875 0.671875 0.421875 1.515625q0 0.875 -0.421875 1.578125q-0.40625 0.703125 -1.125 1.109375q-0.71875 0.390625 -1.625 0.390625l-2.046875 0l0 3.28125l-2.15625 0zm5.171875 0l-2.375 -4.21875l2.328125 -0.328125l2.640625 4.546875l-2.59375 0zm-3.015625 -5.015625l1.84375 0q0.34375 0 0.59375 -0.140625q0.265625 -0.15625 0.40625 -0.4375q0.140625 -0.28125 0.140625 -0.640625q0 -0.359375 -0.15625 -0.625q-0.15625 -0.28125 -0.46875 -0.421875q-0.296875 -0.15625 -0.71875 -0.15625l-1.640625 0l0 2.421875zm10.074005 5.15625q-1.171875 0 -2.046875 -0.46875q-0.859375 -0.484375 -1.34375 -1.296875q-0.46875 -0.828125 -0.46875 -1.875q0 -0.8125 0.265625 -1.484375q0.265625 -0.6875 0.75 -1.1875q0.484375 -0.5 1.140625 -0.765625q0.65625 -0.28125 1.4375 -0.28125q0.75 0 1.359375 0.265625q0.625 0.265625 1.078125 0.75q0.453125 0.46875 0.6875 1.125q0.25 0.65625 0.21875 1.421875l0 0.578125l-5.640625 0l-0.3125 -1.203125l4.21875 0l-0.234375 0.25l0 -0.265625q-0.03125 -0.328125 -0.21875 -0.578125q-0.171875 -0.265625 -0.46875 -0.40625q-0.28125 -0.15625 -0.65625 -0.15625q-0.515625 0 -0.890625 0.203125q-0.359375 0.203125 -0.546875 0.609375q-0.1875 0.390625 -0.1875 0.953125q0 0.59375 0.25 1.03125q0.25 0.421875 0.71875 0.671875q0.46875 0.234375 1.125 0.234375q0.453125 0 0.796875 -0.125q0.359375 -0.140625 0.78125 -0.453125l1.0 1.40625q-0.421875 0.359375 -0.890625 0.59375q-0.46875 0.21875 -0.953125 0.328125q-0.484375 0.125 -0.96875 0.125zm7.544647 0q-1.015625 0 -1.828125 -0.484375q-0.8125 -0.484375 -1.296875 -1.3125q-0.46875 -0.84375 -0.46875 -1.890625q0 -1.046875 0.46875 -1.875q0.484375 -0.84375 1.296875 -1.3125q0.8125 -0.484375 1.828125 -0.484375q0.953125 0 1.734375 0.328125q0.796875 0.328125 1.265625 0.9375l-1.15625 1.375q-0.1875 -0.203125 -0.4375 -0.390625q-0.25 -0.1875 -0.5625 -0.296875q-0.3125 -0.109375 -0.640625 -0.109375q-0.5 0 -0.890625 0.234375q-0.390625 0.234375 -0.609375 0.65625q-0.203125 0.40625 -0.203125 0.9375q0 0.515625 0.21875 0.921875q0.21875 0.40625 0.609375 0.65625q0.390625 0.234375 0.875 0.234375q0.34375 0 0.640625 -0.078125q0.296875 -0.09375 0.53125 -0.265625q0.25 -0.171875 0.46875 -0.421875l1.140625 1.390625q-0.453125 0.578125 -1.265625 0.921875q-0.796875 0.328125 -1.71875 0.328125zm7.529419 0q-1.171875 0 -2.046875 -0.46875q-0.859375 -0.484375 -1.34375 -1.296875q-0.46875 -0.828125 -0.46875 -1.875q0 -0.8125 0.265625 -1.484375q0.265625 -0.6875 0.75 -1.1875q0.484375 -0.5 1.140625 -0.765625q0.65625 -0.28125 1.4375 -0.28125q0.75 0 1.359375 0.265625q0.625 0.265625 1.078125 0.75q0.453125 0.46875 0.6875 1.125q0.25 0.65625 0.21875 1.421875l0 0.578125l-5.640625 0l-0.3125 -1.203125l4.21875 0l-0.234375 0.25l0 -0.265625q-0.03125 -0.328125 -0.21875 -0.578125q-0.171875 -0.265625 -0.46875 -0.40625q-0.28125 -0.15625 -0.65625 -0.15625q-0.515625 0 -0.890625 0.203125q-0.359375 0.203125 -0.546875 0.609375q-0.1875 0.390625 -0.1875 0.953125q0 0.59375 0.25 1.03125q0.25 0.421875 0.71875 0.671875q0.46875 0.234375 1.125 0.234375q0.453125 0 0.796875 -0.125q0.359375 -0.140625 0.78125 -0.453125l1.0 1.40625q-0.421875 0.359375 -0.890625 0.59375q-0.46875 0.21875 -0.953125 0.328125q-0.484375 0.125 -0.96875 0.125zm4.5602417 -0.140625l0 -7.078125l2.140625 0l0 7.078125l-2.140625 0zm1.0625 -8.484375q-0.59375 0 -0.9375 -0.28125q-0.328125 -0.28125 -0.328125 -0.8125q0 -0.484375 0.34375 -0.78125q0.34375 -0.3125 0.921875 -0.3125q0.609375 0 0.9375 0.28125q0.34375 0.28125 0.34375 0.8125q0 0.484375 -0.34375 0.796875q-0.34375 0.296875 -0.9375 0.296875zm5.2516785 8.484375l-2.96875 -7.078125l2.359375 0l1.765625 5.296875l-0.515625 0.046875l1.8125 -5.34375l2.328125 0l-3.109375 7.078125l-1.671875 0zm9.050995 0.140625q-1.171875 0 -2.046875 -0.46875q-0.859375 -0.484375 -1.34375 -1.296875q-0.46875 -0.828125 -0.46875 -1.875q0 -0.8125 0.265625 -1.484375q0.265625 -0.6875 0.75 -1.1875q0.484375 -0.5 1.140625 -0.765625q0.65625 -0.28125 1.4375 -0.28125q0.75 0 1.359375 0.265625q0.625 0.265625 1.078125 0.75q0.453125 0.46875 0.6875 1.125q0.25 0.65625 0.21875 1.421875l0 0.578125l-5.640625 0l-0.3125 -1.203125l4.21875 0l-0.234375 0.25l0 -0.265625q-0.03125 -0.328125 -0.21875 -0.578125q-0.171875 -0.265625 -0.46875 -0.40625q-0.28125 -0.15625 -0.65625 -0.15625q-0.515625 0 -0.890625 0.203125q-0.359375 0.203125 -0.546875 0.609375q-0.1875 0.390625 -0.1875 0.953125q0 0.59375 0.25 1.03125q0.25 0.421875 0.71875 0.671875q0.46875 0.234375 1.125 0.234375q0.453125 0 0.796875 -0.125q0.359375 -0.140625 0.78125 -0.453125l1.0 1.40625q-0.421875 0.359375 -0.890625 0.59375q-0.46875 0.21875 -0.953125 0.328125q-0.484375 0.125 -0.96875 0.125zm4.4508667 -0.140625l0 -7.078125l2.0156555 0l0.09375 2.3125l-0.390625 -0.453125q0.15625 -0.5625 0.515625 -1.015625q0.375 -0.453125 0.859375 -0.71875q0.5 -0.265625 1.0625 -0.265625q0.234375 0 0.4375 0.046875q0.203125 0.03125 0.390625 0.078125l-0.59375 2.359375q-0.140625 -0.09375 -0.390625 -0.140625q-0.25 -0.0625 -0.515625 -0.0625q-0.296875 0 -0.546875 0.09375q-0.25 0.09375 -0.421875 0.28125q-0.171875 0.1875 -0.28125 0.453125q-0.09375 0.25 -0.09375 0.5625l0 3.546875l-2.1406555 0z" fill-rule="nonzero"/><path fill="#3c78d8" d="m318.063 113.062996l51.02362 -48.34646l51.02362 48.34646z" fill-rule="evenodd"/><path stroke="#3c78d8" stroke-width="8.0" stroke-linejoin="round" stroke-linecap="butt" d="m318.063 113.062996l51.02362 -48.34646l51.02362 48.34646z" fill-rule="evenodd"/><path fill="#3c78d8" d="m78.58268 108.66929l78.614174 0l0 78.614174l-78.614174 0z" fill-rule="evenodd"/><path stroke="#3c78d8" stroke-width="8.0" stroke-linejoin="round" stroke-linecap="butt" d="m78.58268 108.66929l78.614174 0l0 78.614174l-78.614174 0z" fill-rule="evenodd"/><path fill="#ffffff" d="m94.6147 153.99263q-1.109375 0 -2.0 -0.265625q-0.890625 -0.265625 -1.578125 -0.765625q-0.6875 -0.5 -1.234375 -1.1875l1.65625 -1.875q0.796875 1.078125 1.609375 1.453125q0.8125 0.359375 1.671875 0.359375q0.4375 0 0.78125 -0.109375q0.359375 -0.125 0.546875 -0.328125q0.1875 -0.21875 0.1875 -0.546875q0 -0.234375 -0.125 -0.421875q-0.109375 -0.203125 -0.328125 -0.34375q-0.203125 -0.140625 -0.5 -0.25q-0.28125 -0.125 -0.609375 -0.21875q-0.3125 -0.09375 -0.640625 -0.15625q-0.9375 -0.203125 -1.625 -0.5q-0.6875 -0.3125 -1.140625 -0.75q-0.453125 -0.4375 -0.6875 -1.0q-0.21875 -0.578125 -0.21875 -1.28125q0 -0.75 0.34375 -1.375q0.34375 -0.640625 0.921875 -1.09375q0.59375 -0.453125 1.359375 -0.703125q0.765625 -0.25 1.609375 -0.25q1.09375 0 1.890625 0.234375q0.796875 0.234375 1.359375 0.671875q0.5625 0.421875 0.96875 1.03125l-1.6875 1.609375q-0.328125 -0.40625 -0.71875 -0.671875q-0.390625 -0.28125 -0.84375 -0.421875q-0.4375 -0.15625 -0.890625 -0.15625q-0.484375 0 -0.828125 0.125q-0.34375 0.125 -0.546875 0.34375q-0.1875 0.203125 -0.1875 0.515625q0 0.265625 0.15625 0.46875q0.171875 0.1875 0.4375 0.34375q0.28125 0.140625 0.625 0.25q0.359375 0.09375 0.734375 0.171875q0.890625 0.171875 1.59375 0.46875q0.71875 0.28125 1.234375 0.703125q0.515625 0.40625 0.796875 0.984375q0.28125 0.5625 0.28125 1.3125q0 1.171875 -0.5625 1.984375q-0.5625 0.796875 -1.546875 1.21875q-0.984375 0.421875 -2.265625 0.421875zm10.206528 0q-1.40625 0 -2.453125 -0.5625q-1.03125 -0.5625 -1.609375 -1.546875q-0.578125 -0.984375 -0.578125 -2.25q0 -0.984375 0.3125 -1.796875q0.328125 -0.8125 0.90625 -1.40625q0.578125 -0.609375 1.359375 -0.9375q0.796875 -0.328125 1.734375 -0.328125q0.90625 0 1.640625 0.328125q0.75 0.3125 1.296875 0.890625q0.546875 0.578125 0.828125 1.359375q0.28125 0.78125 0.25 1.703125l-0.015625 0.6875l-6.765625 0l-0.359375 -1.4375l5.046875 0l-0.265625 0.3125l0 -0.328125q-0.03125 -0.390625 -0.25 -0.703125q-0.21875 -0.3125 -0.578125 -0.484375q-0.34375 -0.1875 -0.796875 -0.1875q-0.625 0 -1.0625 0.25q-0.4375 0.25 -0.671875 0.71875q-0.21875 0.46875 -0.21875 1.15625q0 0.703125 0.296875 1.234375q0.296875 0.515625 0.859375 0.8125q0.578125 0.28125 1.359375 0.28125q0.546875 0 0.96875 -0.15625q0.421875 -0.171875 0.921875 -0.546875l1.203125 1.6875q-0.5 0.4375 -1.0625 0.71875q-0.5625 0.265625 -1.140625 0.390625q-0.578125 0.140625 -1.15625 0.140625zm5.3291473 -0.15625l0 -8.5l2.421875 0l0.078125 1.734375l-0.5 0.1875q0.171875 -0.578125 0.625 -1.046875q0.453125 -0.46875 1.09375 -0.75q0.640625 -0.296875 1.34375 -0.296875q0.96875 0 1.625 0.390625q0.65625 0.390625 0.984375 1.171875q0.34375 0.765625 0.34375 1.890625l0 5.21875l-2.578125 0l0 -5.015625q0 -0.5 -0.15625 -0.828125q-0.140625 -0.34375 -0.4375 -0.515625q-0.28125 -0.171875 -0.71875 -0.15625q-0.34375 0 -0.625 0.109375q-0.28125 0.109375 -0.5 0.3125q-0.203125 0.1875 -0.328125 0.453125q-0.109375 0.25 -0.109375 0.546875l0 5.09375l-1.265625 0q-0.453125 0 -0.78125 0q-0.3125 0 -0.515625 0zm13.378769 0.171875q-1.109375 0 -1.96875 -0.5625q-0.859375 -0.5625 -1.359375 -1.5625q-0.484375 -1.0 -0.484375 -2.28125q0 -1.28125 0.484375 -2.28125q0.5 -1.0 1.359375 -1.578125q0.875 -0.578125 2.0 -0.578125q0.5625 0 1.09375 0.1875q0.53125 0.171875 0.953125 0.46875q0.4375 0.296875 0.703125 0.703125q0.28125 0.390625 0.328125 0.796875l-0.609375 0.140625l0 -5.46875l2.578125 0l0 11.84375l-2.375 0l-0.15625 -1.9375l0.515625 0.078125q-0.046875 0.40625 -0.3125 0.78125q-0.265625 0.359375 -0.6875 0.640625q-0.40625 0.28125 -0.953125 0.4375q-0.53125 0.171875 -1.109375 0.171875zm0.65625 -2.125q0.578125 0 1.015625 -0.28125q0.4375 -0.296875 0.65625 -0.796875q0.234375 -0.515625 0.234375 -1.203125q0 -0.703125 -0.234375 -1.21875q-0.21875 -0.515625 -0.65625 -0.796875q-0.4375 -0.296875 -1.015625 -0.296875q-0.59375 0 -1.03125 0.296875q-0.421875 0.28125 -0.65625 0.796875q-0.234375 0.515625 -0.234375 1.21875q0 0.6875 0.234375 1.203125q0.234375 0.5 0.65625 0.796875q0.4375 0.28125 1.03125 0.28125zm10.635895 2.109375q-1.40625 0 -2.453125 -0.5625q-1.03125 -0.5625 -1.609375 -1.546875q-0.578125 -0.984375 -0.578125 -2.25q0 -0.984375 0.3125 -1.796875q0.328125 -0.8125 0.90625 -1.40625q0.578125 -0.609375 1.359375 -0.9375q0.796875 -0.328125 1.734375 -0.328125q0.90625 0 1.640625 0.328125q0.75 0.3125 1.296875 0.890625q0.546875 0.578125 0.828125 1.359375q0.28125 0.78125 0.25 1.703125l-0.015625 0.6875l-6.765625 0l-0.359375 -1.4375l5.046875 0l-0.265625 0.3125l0 -0.328125q-0.03125 -0.390625 -0.25 -0.703125q-0.21875 -0.3125 -0.578125 -0.484375q-0.34375 -0.1875 -0.796875 -0.1875q-0.625 0 -1.0625 0.25q-0.4375 0.25 -0.671875 0.71875q-0.21875 0.46875 -0.21875 1.15625q0 0.703125 0.296875 1.234375q0.296875 0.515625 0.859375 0.8125q0.578125 0.28125 1.359375 0.28125q0.546875 0 0.96875 -0.15625q0.421875 -0.171875 0.921875 -0.546875l1.203125 1.6875q-0.5 0.4375 -1.0625 0.71875q-0.5625 0.265625 -1.140625 0.390625q-0.578125 0.140625 -1.15625 0.140625zm5.3291473 -0.15625l0 -8.5l2.421875 0l0.125 2.765625l-0.484375 -0.515625q0.1875 -0.6875 0.625 -1.234375q0.4375 -0.546875 1.03125 -0.859375q0.59375 -0.328125 1.265625 -0.328125q0.296875 0 0.53125 0.046875q0.25 0.046875 0.46875 0.109375l-0.703125 2.828125q-0.1875 -0.109375 -0.484375 -0.171875q-0.296875 -0.078125 -0.609375 -0.078125q-0.359375 0 -0.65625 0.125q-0.296875 0.109375 -0.515625 0.34375q-0.203125 0.21875 -0.328125 0.53125q-0.109375 0.296875 -0.109375 0.6875l0 4.25l-2.578125 0z" fill-rule="nonzero"/><path fill="#3c78d8" d="m66.86614 113.062996l51.02362 -48.34646l51.02363 48.34646z" fill-rule="evenodd"/><path stroke="#3c78d8" stroke-width="8.0" stroke-linejoin="round" stroke-linecap="butt" d="m66.86614 113.062996l51.02362 -48.34646l51.02363 48.34646z" fill-rule="evenodd"/><path fill="#000000" fill-opacity="0.0" d="m478.24408 53.26509l0 559.9055" fill-rule="evenodd"/><path stroke="#999999" stroke-width="8.0" stroke-linejoin="round" stroke-linecap="butt" d="m478.24408 53.26509l0 559.9055" fill-rule="evenodd"/><path fill="#000000" fill-opacity="0.0" d="m193.3412 116.07612l96.598434 0l0 31.212593l-96.598434 0z" fill-rule="evenodd"/><path fill="#999999" d="m212.92839 148.3505q-1.75 0 -3.21875 -0.625q-1.46875 -0.625 -2.546875 -1.78125q-1.078125 -1.171875 -1.671875 -2.75q-0.578125 -1.578125 -0.578125 -3.484375q0 -1.796875 0.625 -3.34375q0.640625 -1.546875 1.765625 -2.71875q1.140625 -1.171875 2.625 -1.8125q1.484375 -0.65625 3.21875 -0.65625q1.21875 0 2.375 0.375q1.171875 0.359375 2.109375 1.03125q0.953125 0.65625 1.5625 1.484375l-1.734375 1.8125q-0.6875 -0.703125 -1.40625 -1.171875q-0.703125 -0.46875 -1.4375 -0.703125q-0.734375 -0.25 -1.46875 -0.25q-1.1875 0 -2.203125 0.453125q-1.015625 0.4375 -1.78125 1.234375q-0.75 0.796875 -1.1875 1.890625q-0.421875 1.078125 -0.421875 2.375q0 1.375 0.40625 2.5q0.421875 1.109375 1.1875 1.90625q0.78125 0.78125 1.84375 1.203125q1.0625 0.421875 2.359375 0.421875q0.796875 0 1.5625 -0.21875q0.765625 -0.21875 1.4375 -0.625q0.671875 -0.40625 1.234375 -0.953125l1.296875 2.109375q-0.5625 0.640625 -1.515625 1.171875q-0.9375 0.53125 -2.109375 0.828125q-1.15625 0.296875 -2.328125 0.296875zm13.702209 0q-1.5625 0 -2.84375 -0.859375q-1.28125 -0.859375 -2.0625 -2.34375q-0.765625 -1.5 -0.765625 -3.375q0 -1.890625 0.78125 -3.359375q0.78125 -1.484375 2.109375 -2.3125q1.34375 -0.84375 3.0 -0.84375q0.984375 0 1.796875 0.296875q0.8125 0.28125 1.421875 0.796875q0.609375 0.515625 1.0 1.1875q0.40625 0.671875 0.5 1.4375l-0.546875 -0.203125l0 -3.25l2.5 0l0 12.59375l-2.5 0l0 -3.0l0.578125 -0.171875q-0.140625 0.65625 -0.59375 1.265625q-0.4375 0.609375 -1.125 1.09375q-0.6875 0.46875 -1.515625 0.765625q-0.828125 0.28125 -1.734375 0.28125zm0.640625 -2.28125q1.140625 0 2.0 -0.546875q0.859375 -0.546875 1.34375 -1.515625q0.5 -0.984375 0.5 -2.234375q0 -1.21875 -0.5 -2.171875q-0.484375 -0.96875 -1.34375 -1.515625q-0.859375 -0.546875 -2.0 -0.546875q-1.09375 0 -1.953125 0.546875q-0.84375 0.546875 -1.34375 1.515625q-0.484375 0.953125 -0.484375 2.171875q0 1.25 0.484375 2.234375q0.5 0.96875 1.34375 1.515625q0.859375 0.546875 1.953125 0.546875zm13.895081 2.28125q-1.578125 0 -2.859375 -0.546875q-1.265625 -0.546875 -2.109375 -1.625l1.6875 -1.453125q0.71875 0.84375 1.5625 1.21875q0.859375 0.375 1.9375 0.375q0.4375 0 0.796875 -0.109375q0.375 -0.109375 0.65625 -0.328125q0.28125 -0.21875 0.421875 -0.515625q0.140625 -0.296875 0.140625 -0.65625q0 -0.625 -0.453125 -1.015625q-0.234375 -0.15625 -0.75 -0.359375q-0.515625 -0.203125 -1.34375 -0.421875q-1.390625 -0.359375 -2.28125 -0.8125q-0.875 -0.46875 -1.359375 -1.046875q-0.359375 -0.453125 -0.53125 -0.984375q-0.171875 -0.546875 -0.171875 -1.1875q0 -0.796875 0.34375 -1.453125q0.359375 -0.671875 0.96875 -1.15625q0.609375 -0.5 1.4375 -0.75q0.828125 -0.265625 1.765625 -0.265625q0.890625 0 1.765625 0.234375q0.875 0.234375 1.609375 0.703125q0.75 0.453125 1.265625 1.078125l-1.421875 1.5625q-0.453125 -0.46875 -1.0 -0.8125q-0.53125 -0.34375 -1.09375 -0.53125q-0.546875 -0.203125 -1.0 -0.203125q-0.5 0 -0.921875 0.109375q-0.40625 0.09375 -0.6875 0.28125q-0.265625 0.1875 -0.40625 0.484375q-0.140625 0.28125 -0.140625 0.640625q0.015625 0.3125 0.140625 0.59375q0.140625 0.265625 0.375 0.46875q0.265625 0.1875 0.796875 0.40625q0.53125 0.21875 1.34375 0.40625q1.203125 0.3125 1.984375 0.6875q0.78125 0.359375 1.234375 0.84375q0.484375 0.453125 0.671875 1.0625q0.1875 0.59375 0.1875 1.34375q0 1.078125 -0.609375 1.9375q-0.609375 0.84375 -1.640625 1.328125q-1.03125 0.46875 -2.3125 0.46875zm13.183472 0q-1.953125 0 -3.453125 -0.828125q-1.5 -0.828125 -2.359375 -2.265625q-0.84375 -1.4375 -0.84375 -3.3125q0 -1.484375 0.484375 -2.703125q0.484375 -1.234375 1.328125 -2.125q0.859375 -0.90625 2.046875 -1.390625q1.1875 -0.5 2.578125 -0.5q1.21875 0 2.2812653 0.46875q1.0625 0.46875 1.828125 1.296875q0.78125 0.8125 1.203125 1.921875q0.421875 1.109375 0.40625 2.4375l-0.03125 1.046875l-10.29689 0l-0.546875 -1.96875l8.70314 0l-0.359375 0.421875l0 -0.578125q-0.0625 -0.796875 -0.53125 -1.421875q-0.453125 -0.625 -1.1562653 -0.984375q-0.6875 -0.359375 -1.5 -0.359375q-1.296875 0 -2.1875 0.5q-0.890625 0.484375 -1.34375 1.4375q-0.453125 0.9375 -0.453125 2.328125q0 1.328125 0.546875 2.296875q0.5625 0.96875 1.5625 1.5q1.015625 0.53125 2.328125 0.53125q0.9375 0 1.7343903 -0.3125q0.8125 -0.3125 1.75 -1.125l1.25 1.75q-0.578125 0.578125 -1.40625 1.015625q-0.828125 0.421875 -1.75 0.671875q-0.92189026 0.25 -1.8125153 0.25zm18.3777 -1.40625l0 -13.640625l0.890625 0.671875l-3.3125 1.75l-0.6875 -2.25l4.484375 -2.40625l1.25 0l0 15.875l-2.625 0zm-2.65625 1.171875l0 -2.5l8.015625 0l0 2.5l-8.015625 0z" fill-rule="nonzero"/><path fill="#000000" fill-opacity="0.0" d="m79.519684 219.97638l327.43307 122.58267" fill-rule="evenodd"/><path stroke="#999999" stroke-width="4.0" stroke-linejoin="round" stroke-linecap="butt" d="m79.519684 219.97638l304.95657 114.16803" fill-rule="evenodd"/><path fill="#999999" stroke="#999999" stroke-width="4.0" stroke-linecap="butt" d="m382.1598 340.33194l19.316559 0.17687988l-14.683655 -12.551941z" fill-rule="evenodd"/><path fill="#000000" fill-opacity="0.0" d="m-16.839952 156.50354l162.4567 61.417328l-16.944885 44.787415l-162.4567 -61.417343z" fill-rule="evenodd"/><path fill="#999999" d="m44.02392 213.83374l5.2249794 -13.810257l4.896164 1.8510132q1.5053902 0.5691223 2.5636559 1.4369202q1.0582657 0.86779785 1.4185867 2.1232147q0.36032104 1.2554169 -0.26999283 2.9214172q-0.60819626 1.607544 -1.7461472 2.3633423q-1.1233368 0.761322 -2.5445518 0.80867004q-1.4156837 0.03274536 -2.877224 -0.51979065l-1.783081 -0.6741028l-1.7693062 4.6764984l-3.113083 -1.1769257zm5.8223343 -5.983963l1.5930786 0.60227966q1.2861557 0.48623657 2.1302528 0.15388489q0.84409714 -0.33236694 1.2477226 -1.3991852q0.41468048 -1.0960541 -0.07714081 -1.7831116q-0.47720718 -0.6815491 -1.7195168 -1.1511993l-1.5930824 -0.60227966l-1.5813141 4.179611z" fill-rule="nonzero"/><path fill="#999999" d="m56.310528 227.76634q-1.0230789 -0.3867798 -1.6077385 -1.2258606q-0.56451035 -0.8481903 -0.6104088 -2.0515442q-0.025753021 -1.2124481 0.54374313 -2.7176971q0.8735924 -2.309021 2.2603912 -3.10437q1.3923302 -0.80996704 2.9415627 -0.22427368q1.5638504 0.59121704 2.0569115 2.113968q0.5132065 1.5136566 -0.3603897 3.8226776q-0.56949615 1.5052338 -1.4060516 2.391693q-0.81641006 0.87734985 -1.8011322 1.1398468q-0.9645767 0.25338745 -2.0168877 -0.1444397zm0.61372757 -1.6221619q0.45307922 0.17129517 0.9089012 0.026245117q0.4704361 -0.13954163 0.92938995 -0.7344208q0.47909927 -0.60398865 0.91589355 -1.7584991q0.4478569 -1.1837311 0.47743607 -1.9242401q0.044189453 -0.73498535 -0.22719955 -1.1215668q-0.2512474 -0.3956604 -0.7043266 -0.56695557q-0.4384613 -0.16575623 -0.9033699 -0.04083252q-0.4593811 0.11029053 -0.92742157 0.68504333q-0.45342255 0.5802765 -0.90127945 1.7640228q-0.43679428 1.1544952 -0.49204636 1.9187164q-0.03510666 0.75512695 0.22522736 1.170929q0.260334 0.415802 0.6987953 0.5815582zm0.7685394 -2.0313416q-0.4384613 -0.16577148 -0.6348038 -0.5740814q-0.19634247 -0.40830994 -0.013881683 -0.8905792q0.18798828 -0.49687195 0.60549545 -0.6731262q0.41750336 -0.17623901 0.85596466 -0.010482788q0.45307922 0.17129517 0.6494217 0.5796051q0.19634247 0.40830994 0.008354187 0.90519714q-0.18246078 0.48225403 -0.59996414 0.6585083q-0.41750717 0.17623901 -0.8705864 0.0049591064z" fill-rule="nonzero"/><path fill="#000000" fill-opacity="0.0" d="m79.519684 283.97638l327.43307 122.58267" fill-rule="evenodd"/><path stroke="#999999" stroke-width="4.0" stroke-linejoin="round" stroke-linecap="butt" d="m79.519684 283.97638l304.95657 114.16803" fill-rule="evenodd"/><path fill="#999999" stroke="#999999" stroke-width="4.0" stroke-linecap="butt" d="m382.1598 404.33194l19.316559 0.17687988l-14.683655 -12.551941z" fill-rule="evenodd"/><path fill="#000000" fill-opacity="0.0" d="m-16.839952 220.50354l162.4567 61.417328l-16.944885 44.787415l-162.4567 -61.417328z" fill-rule="evenodd"/><path fill="#999999" d="m44.02392 277.83374l5.2249794 -13.810242l4.896164 1.8510132q1.5053902 0.5690918 2.5636559 1.4369202q1.0582657 0.86779785 1.4185867 2.1231995q0.36032104 1.2554016 -0.26999283 2.9214172q-0.60819626 1.607544 -1.7461472 2.3633423q-1.1233368 0.761322 -2.5445518 0.8086853q-1.4156837 0.03274536 -2.877224 -0.5198059l-1.783081 -0.6741028l-1.7693062 4.676483l-3.113083 -1.1769104zm5.8223343 -5.9839478l1.5930786 0.6022644q1.2861557 0.48623657 2.1302528 0.15386963q0.84409714 -0.33233643 1.2477226 -1.3991699q0.41468048 -1.0960388 -0.07714081 -1.7831116q-0.47720718 -0.6815491 -1.7195168 -1.1512146l-1.5930824 -0.6022644l-1.5813141 4.1796265z" fill-rule="nonzero"/><path fill="#999999" d="m53.249176 290.40854l0.6358452 -1.680603l2.426159 0.9172058l1.962822 -5.1879883l-2.0023117 -0.756958l0.486557 -1.2860413q0.65255356 0.12976074 1.1297188 0.1932373q0.49178314 0.06896973 0.8978424 0.05545044q0.41159058 -0.028137207 0.82515335 -0.105651855l1.5346184 0.5801697l-2.7590103 7.292389l2.0315437 0.7680359l-0.6358452 1.680603l-6.5330925 -2.4698486z" fill-rule="nonzero"/><path fill="#000000" fill-opacity="0.0" d="m79.519684 347.97638l327.43307 122.58267" fill-rule="evenodd"/><path stroke="#999999" stroke-width="4.0" stroke-linejoin="round" stroke-linecap="butt" d="m79.519684 347.97638l304.95657 114.16803" fill-rule="evenodd"/><path fill="#999999" stroke="#999999" stroke-width="4.0" stroke-linecap="butt" d="m382.1598 468.33194l19.316559 0.17687988l-14.683655 -12.551941z" fill-rule="evenodd"/><path fill="#000000" fill-opacity="0.0" d="m-16.839952 284.50354l162.4567 61.417328l-16.944885 44.787415l-162.4567 -61.417328z" fill-rule="evenodd"/><path fill="#999999" d="m44.02392 341.83374l5.2249794 -13.810242l4.896164 1.8510132q1.5053902 0.5690918 2.5636559 1.4369202q1.0582657 0.86779785 1.4185867 2.1231995q0.36032104 1.2554016 -0.26999283 2.9214172q-0.60819626 1.607544 -1.7461472 2.3633423q-1.1233368 0.761322 -2.5445518 0.8086853q-1.4156837 0.03274536 -2.877224 -0.5198059l-1.783081 -0.6741028l-1.7693062 4.676483l-3.113083 -1.1769104zm5.8223343 -5.9839478l1.5930786 0.6022644q1.2861557 0.48623657 2.1302528 0.15386963q0.84409714 -0.33233643 1.2477226 -1.3991699q0.41468048 -1.0960388 -0.07714081 -1.7831116q-0.47720718 -0.6815491 -1.7195168 -1.1512146l-1.5930824 -0.6022644l-1.5813141 4.1796265z" fill-rule="nonzero"/><path fill="#999999" d="m52.956867 354.29803l0.4478569 -1.1837463q1.7008362 -0.60980225 2.9972 -1.1219788q1.3165054 -0.52124023 2.119114 -1.0530396q0.8227539 -0.54086304 1.0660324 -1.1838989q0.24880981 -0.6576233 -0.01863861 -1.1429443q-0.24730301 -0.49438477 -0.9488411 -0.75961304q-0.5261574 -0.19891357 -1.0842857 -0.0925293q-0.53798676 0.09729004 -1.0562134 0.31896973l-0.7051773 -1.5361023q0.9724655 -0.4508667 1.8359337 -0.5253296q0.8836136 -0.08355713 1.9213066 0.30874634q0.93538666 0.35360718 1.4986992 0.9841919q0.58345795 0.6214905 0.7347946 1.4136658q0.16595459 0.7977295 -0.16026306 1.6599731q-0.28750992 0.7599182 -1.0336304 1.3631897q-0.74612045 0.60324097 -1.8046913 1.105072q-1.0585709 0.5018616 -2.208393 0.935791q0.39658737 0.099823 0.8607254 0.24188232q0.46966553 0.1274414 0.80581665 0.2545166l2.133854 0.80670166l-0.6634903 1.7536926l-6.737709 -2.5472107z" fill-rule="nonzero"/><path fill="#000000" fill-opacity="0.0" d="m79.519684 411.97638l327.43307 122.5827" fill-rule="evenodd"/><path stroke="#999999" stroke-width="4.0" stroke-linejoin="round" stroke-linecap="butt" d="m79.519684 411.97638l304.95657 114.16803" fill-rule="evenodd"/><path fill="#999999" stroke="#999999" stroke-width="4.0" stroke-linecap="butt" d="m382.1598 532.332l19.316559 0.17687988l-14.683655 -12.551941z" fill-rule="evenodd"/><path fill="#000000" fill-opacity="0.0" d="m-16.839952 348.50354l162.4567 61.417328l-16.944885 44.787415l-162.4567 -61.417328z" fill-rule="evenodd"/><path fill="#999999" d="m44.02392 405.83374l5.2249794 -13.810242l4.896164 1.8510132q1.5053902 0.5690918 2.5636559 1.4369202q1.0582657 0.86779785 1.4185867 2.1231995q0.36032104 1.2554016 -0.26999283 2.9214172q-0.60819626 1.607544 -1.7461472 2.3633423q-1.1233368 0.761322 -2.5445518 0.8086853q-1.4156837 0.03274536 -2.877224 -0.5198059l-1.783081 -0.6741028l-1.7693062 4.676483l-3.113083 -1.1769104zm5.8223343 -5.9839478l1.5930786 0.6022644q1.2861557 0.48623657 2.1302528 0.15386963q0.84409714 -0.33233643 1.2477226 -1.3991699q0.41468048 -1.0960388 -0.07714081 -1.7831116q-0.47720718 -0.6815491 -1.7195168 -1.1512146l-1.5930824 -0.6022644l-1.5813141 4.1796265z" fill-rule="nonzero"/><path fill="#999999" d="m56.01822 419.65582q-0.76000214 -0.28729248 -1.3221169 -0.70025635q-0.5676422 -0.39834595 -0.9595146 -0.8638916q-0.3918724 -0.46551514 -0.5842705 -0.9725647l1.4476204 -0.9561157q0.30379105 0.56585693 0.7742691 1.0444031q0.47600937 0.46392822 1.0752411 0.6904602q0.48230743 0.18234253 0.9065399 0.20910645q0.4297638 0.0121154785 0.7374611 -0.13882446q0.3132248 -0.16555786 0.44039536 -0.50167847q0.14928436 -0.39456177 0.01140213 -0.78079224q-0.12326431 -0.38067627 -0.6525917 -0.74783325q-0.5237961 -0.3817749 -1.576107 -0.77960205l0.55843735 -1.4760132q0.8915405 0.33703613 1.458374 0.38427734q0.5869713 0.03817749 0.9203415 -0.13647461q0.35351562 -0.18374634 0.48621368 -0.53445435q0.18246078 -0.4822693 -0.07431412 -0.86331177q-0.25677872 -0.381073 -0.88523865 -0.61865234q-0.5261574 -0.19891357 -1.0712585 -0.17114258q-0.53048325 0.033325195 -1.1273193 0.2420044l-0.5712776 -1.6692505q0.86227036 -0.29208374 1.7383804 -0.3116455q0.890728 -0.0140686035 1.7530365 0.31195068q0.9792366 0.37017822 1.6140404 0.9442749q0.6348038 0.57406616 0.83945847 1.2695007q0.21927261 0.70095825 -0.08482742 1.5047302q-0.2598648 0.68685913 -0.9009323 1.0124512q-0.6410675 0.32559204 -1.5610237 0.32858276l-0.022117615 0.058441162q0.5147095 0.3616333 0.85720825 0.82522583q0.35710907 0.4690857 0.43970108 1.0014343q0.0972023 0.5378723 -0.12395859 1.1224365q-0.31515884 0.8330078 -1.0332451 1.2297058q-0.70347214 0.40222168 -1.6234322 0.4052124q-0.9199562 0.0029907227 -1.8845749 -0.36169434z" fill-rule="nonzero"/><path fill="#000000" fill-opacity="0.0" d="m79.519684 475.97638l327.43307 122.5827" fill-rule="evenodd"/><path stroke="#3c78d8" stroke-width="4.0" stroke-linejoin="round" stroke-linecap="butt" d="m79.519684 475.97638l304.95657 114.16803" fill-rule="evenodd"/><path fill="#3c78d8" stroke="#3c78d8" stroke-width="4.0" stroke-linecap="butt" d="m382.1598 596.332l19.316559 0.17687988l-14.683655 -12.551941z" fill-rule="evenodd"/><path fill="#000000" fill-opacity="0.0" d="m-16.839952 412.50354l162.4567 61.417328l-16.944885 44.787384l-162.4567 -61.417297z" fill-rule="evenodd"/><path fill="#3c78d8" d="m44.02392 469.83374l5.2249794 -13.810242l4.896164 1.8510132q1.5053902 0.5690918 2.5636559 1.4369202q1.0582657 0.86779785 1.4185867 2.1231995q0.36032104 1.2554016 -0.26999283 2.9214172q-0.60819626 1.607544 -1.7461472 2.3633423q-1.1233368 0.761322 -2.5445518 0.8086853q-1.4156837 0.03274536 -2.877224 -0.5198059l-1.783081 -0.6741028l-1.7693062 4.676483l-3.113083 -1.1769104zm5.8223343 -5.9839478l1.5930786 0.6022644q1.2861557 0.48623657 2.1302528 0.15386963q0.84409714 -0.33233643 1.2477226 -1.3991699q0.41468048 -1.0960388 -0.07714081 -1.7831116q-0.47720718 -0.6815491 -1.7195168 -1.1512146l-1.5930824 -0.6022644l-1.5813141 4.1796265z" fill-rule="nonzero"/><path fill="#3c78d8" d="m56.310528 483.76636q-1.0230789 -0.3867798 -1.6077385 -1.2258911q-0.56451035 -0.84817505 -0.6104088 -2.0515442q-0.025753021 -1.2124329 0.54374313 -2.717682q0.8735924 -2.309021 2.2603912 -3.10437q1.3923302 -0.80996704 2.9415627 -0.22427368q1.5638504 0.59121704 2.0569115 2.1139526q0.5132065 1.5136719 -0.3603897 3.8226929q-0.56949615 1.505249 -1.4060516 2.391693q-0.81641006 0.87734985 -1.8011322 1.1398315q-0.9645767 0.25341797 -2.0168877 -0.14440918zm0.61372757 -1.6221619q0.45307922 0.17126465 0.9089012 0.0262146q0.4704361 -0.13952637 0.92938995 -0.7344055q0.47909927 -0.6039734 0.91589355 -1.7584839q0.4478569 -1.1837463 0.47743607 -1.9242554q0.044189453 -0.73498535 -0.22719955 -1.1215515q-0.2512474 -0.39569092 -0.7043266 -0.56695557q-0.4384613 -0.16577148 -0.9033699 -0.040863037q-0.4593811 0.110321045 -0.92742157 0.6850586q-0.45342255 0.58029175 -0.90127945 1.7640076q-0.43679428 1.1545105 -0.49204636 1.9187317q-0.03510666 0.75512695 0.22522736 1.170929q0.260334 0.415802 0.6987953 0.5815735zm0.7685394 -2.031372q-0.4384613 -0.16574097 -0.6348038 -0.57406616q-0.19634247 -0.4083252 -0.013881683 -0.89056396q0.18798828 -0.4968872 0.60549545 -0.6731262q0.41750336 -0.17626953 0.85596466 -0.010498047q0.45307922 0.17129517 0.6494217 0.57962036q0.19634247 0.40829468 0.008354187 0.9051819q-0.18246078 0.4822693 -0.59996414 0.6585083q-0.41750717 0.17623901 -0.8705864 0.0049438477z" fill-rule="nonzero"/><path fill="#000000" fill-opacity="0.0" d="m114.41732 579.9554l257.6378 0l0 49.543274l-257.6378 0z" fill-rule="evenodd"/><path fill="#999999" d="m149.7366 610.3441q-2.265625 -1.421875 -3.46875 -3.546875q-1.1875 -2.125 -1.1875 -4.734375q0 -2.59375 1.203125 -4.71875q1.203125 -2.140625 3.46875 -3.5625l1.03125 1.15625q-1.90625 1.328125 -2.90625 3.171875q-0.984375 1.828125 -0.984375 3.953125q0 2.125 0.984375 3.96875q1.0 1.828125 2.90625 3.15625l-1.046875 1.15625zm2.765686 -3.46875l0 -9.796875l1.921875 0l0 2.015625l-0.34375 0.21875q0.1875 -0.640625 0.734375 -1.1875q0.546875 -0.5625 1.28125 -0.90625q0.75 -0.34375 1.53125 -0.34375q1.125 0 1.859375 0.4375q0.75 0.4375 1.125 1.34375q0.375 0.890625 0.375 2.25l0 5.96875l-1.921875 0l0 -5.84375q0 -0.828125 -0.21875 -1.375q-0.21875 -0.5625 -0.6875 -0.8125q-0.46875 -0.25 -1.15625 -0.21875q-0.5625 0 -1.03125 0.1875q-0.46875 0.171875 -0.8125 0.5q-0.34375 0.3125 -0.546875 0.734375q-0.1875 0.40625 -0.1875 0.890625l0 5.9375l-0.953125 0q-0.234375 0 -0.484375 0q-0.25 0 -0.484375 0zm15.506714 0.1875q-1.4375 0 -2.578125 -0.65625q-1.125 -0.671875 -1.78125 -1.8125q-0.640625 -1.15625 -0.640625 -2.625q0 -1.46875 0.640625 -2.609375q0.65625 -1.15625 1.78125 -1.8125q1.140625 -0.671875 2.578125 -0.671875q1.40625 0 2.53125 0.671875q1.140625 0.65625 1.796875 1.8125q0.65625 1.140625 0.65625 2.609375q0 1.46875 -0.65625 2.625q-0.65625 1.140625 -1.796875 1.8125q-1.125 0.65625 -2.53125 0.65625zm0 -1.75q0.875 0 1.5625 -0.4375q0.6875 -0.4375 1.078125 -1.1875q0.390625 -0.765625 0.375 -1.71875q0.015625 -0.96875 -0.375 -1.71875q-0.390625 -0.765625 -1.078125 -1.1875q-0.6875 -0.4375 -1.5625 -0.4375q-0.875 0 -1.578125 0.4375q-0.703125 0.4375 -1.09375 1.203125q-0.390625 0.75 -0.375 1.703125q-0.015625 0.953125 0.375 1.71875q0.390625 0.75 1.09375 1.1875q0.703125 0.4375 1.578125 0.4375zm8.286102 1.5625l0 -12.296875l1.921875 0l0 12.296875l-1.921875 0zm-2.046875 -7.921875l0 -1.875l6.234375 0l0 1.875l-6.234375 0zm16.981506 8.109375q-1.203125 0 -2.203125 -0.671875q-1.0 -0.671875 -1.609375 -1.828125q-0.59375 -1.15625 -0.59375 -2.609375q0 -1.484375 0.609375 -2.625q0.609375 -1.140625 1.640625 -1.796875q1.046875 -0.65625 2.328125 -0.65625q0.765625 0 1.390625 0.234375q0.640625 0.21875 1.109375 0.625q0.484375 0.390625 0.78125 0.921875q0.3125 0.515625 0.390625 1.109375l-0.421875 -0.140625l0 -2.546875l1.9375 0l0 9.796875l-1.9375 0l0 -2.328125l0.4375 -0.140625q-0.109375 0.515625 -0.453125 1.0q-0.34375 0.46875 -0.875 0.84375q-0.53125 0.359375 -1.171875 0.59375q-0.640625 0.21875 -1.359375 0.21875zm0.5 -1.765625q0.890625 0 1.546875 -0.421875q0.671875 -0.4375 1.046875 -1.1875q0.390625 -0.765625 0.390625 -1.734375q0 -0.953125 -0.390625 -1.703125q-0.375 -0.75 -1.046875 -1.171875q-0.65625 -0.4375 -1.546875 -0.4375q-0.859375 0 -1.515625 0.4375q-0.65625 0.421875 -1.046875 1.171875q-0.375 0.75 -0.375 1.703125q0 0.96875 0.375 1.734375q0.390625 0.75 1.046875 1.1875q0.65625 0.421875 1.515625 0.421875zm12.767532 1.578125l0 -9.796875l1.9375 0l0 3.078125l-0.1875 -0.75q0.203125 -0.703125 0.703125 -1.28125q0.5 -0.578125 1.140625 -0.90625q0.640625 -0.34375 1.328125 -0.34375q0.3125 0 0.59375 0.0625q0.296875 0.046875 0.46875 0.125l-0.5 2.09375q-0.21875 -0.09375 -0.5 -0.15625q-0.265625 -0.078125 -0.53125 -0.078125q-0.5 0 -0.953125 0.203125q-0.453125 0.1875 -0.8125 0.546875q-0.34375 0.34375 -0.546875 0.796875q-0.203125 0.453125 -0.203125 1.0l0 5.40625l-1.9375 0zm11.670303 0.1875q-1.5 0 -2.671875 -0.640625q-1.15625 -0.640625 -1.828125 -1.765625q-0.65625 -1.125 -0.65625 -2.578125q0 -1.15625 0.375 -2.109375q0.375 -0.953125 1.03125 -1.640625q0.65625 -0.703125 1.578125 -1.078125q0.9375 -0.390625 2.015625 -0.390625q0.953125 0 1.765625 0.359375q0.828125 0.359375 1.421875 1.0q0.609375 0.640625 0.9375 1.515625q0.328125 0.859375 0.3125 1.875l-0.015625 0.828125l-8.0 0l-0.4375 -1.53125l6.765625 0l-0.265625 0.3125l0 -0.4375q-0.0625 -0.625 -0.421875 -1.109375q-0.34375 -0.484375 -0.890625 -0.765625q-0.546875 -0.28125 -1.171875 -0.28125q-1.015625 0 -1.703125 0.390625q-0.6875 0.375 -1.046875 1.125q-0.34375 0.734375 -0.34375 1.8125q0 1.015625 0.421875 1.78125q0.421875 0.75 1.203125 1.171875q0.796875 0.40625 1.8125 0.40625q0.734375 0 1.359375 -0.234375q0.625 -0.25 1.359375 -0.890625l0.96875 1.359375q-0.453125 0.453125 -1.09375 0.796875q-0.640625 0.328125 -1.359375 0.53125q-0.71875 0.1875 -1.421875 0.1875zm7.5888214 -0.1875l0 -12.296875l1.921875 0l0 12.296875l-1.921875 0zm-2.046875 -7.921875l0 -1.875l6.234375 0l0 1.875l-6.234375 0zm7.9921265 7.921875l0 -9.796875l1.9375 0l0 3.078125l-0.1875 -0.75q0.203125 -0.703125 0.703125 -1.28125q0.5 -0.578125 1.140625 -0.90625q0.640625 -0.34375 1.328125 -0.34375q0.3125 0 0.59375 0.0625q0.296875 0.046875 0.46875 0.125l-0.5 2.09375q-0.21875 -0.09375 -0.5 -0.15625q-0.265625 -0.078125 -0.53125 -0.078125q-0.5 0 -0.953125 0.203125q-0.453125 0.1875 -0.8125 0.546875q-0.34375 0.34375 -0.546875 0.796875q-0.203125 0.453125 -0.203125 1.0l0 5.40625l-1.9375 0zm10.873428 0.1875q-1.203125 0 -2.203125 -0.671875q-1.0 -0.671875 -1.609375 -1.828125q-0.59375 -1.15625 -0.59375 -2.609375q0 -1.484375 0.609375 -2.625q0.609375 -1.140625 1.640625 -1.796875q1.046875 -0.65625 2.328125 -0.65625q0.765625 0 1.390625 0.234375q0.640625 0.21875 1.109375 0.625q0.484375 0.390625 0.78125 0.921875q0.3125 0.515625 0.390625 1.109375l-0.421875 -0.140625l0 -2.546875l1.9375 0l0 9.796875l-1.9375 0l0 -2.328125l0.4375 -0.140625q-0.109375 0.515625 -0.453125 1.0q-0.34375 0.46875 -0.875 0.84375q-0.53125 0.359375 -1.171875 0.59375q-0.640625 0.21875 -1.359375 0.21875zm0.5 -1.765625q0.890625 0 1.546875 -0.421875q0.671875 -0.4375 1.046875 -1.1875q0.390625 -0.765625 0.390625 -1.734375q0 -0.953125 -0.390625 -1.703125q-0.375 -0.75 -1.046875 -1.171875q-0.65625 -0.4375 -1.546875 -0.4375q-0.859375 0 -1.515625 0.4375q-0.65625 0.421875 -1.046875 1.171875q-0.375 0.75 -0.375 1.703125q0 0.96875 0.375 1.734375q0.390625 0.75 1.046875 1.1875q0.65625 0.421875 1.515625 0.421875zm7.5437775 1.578125l0 -9.796875l1.921875 0l0 2.015625l-0.34375 0.21875q0.1875 -0.640625 0.734375 -1.1875q0.546875 -0.5625 1.28125 -0.90625q0.75 -0.34375 1.53125 -0.34375q1.125 0 1.859375 0.4375q0.74998474 0.4375 1.1249847 1.34375q0.375 0.890625 0.375 2.25l0 5.96875l-1.9218597 0l0 -5.84375q0 -0.828125 -0.21875 -1.375q-0.21875 -0.5625 -0.6875 -0.8125q-0.46875 -0.25 -1.15625 -0.21875q-0.5625 0 -1.03125 0.1875q-0.46875 0.171875 -0.8125 0.5q-0.34375 0.3125 -0.546875 0.734375q-0.1875 0.40625 -0.1875 0.890625l0 5.9375l-0.953125 0q-0.234375 0 -0.484375 0q-0.25 0 -0.484375 0zm14.366074 0.1875q-1.234375 0 -2.21875 -0.421875q-0.984375 -0.4375 -1.640625 -1.28125l1.296875 -1.109375q0.5625 0.640625 1.21875 0.9375q0.671875 0.28125 1.515625 0.28125q0.328125 0 0.609375 -0.078125q0.296875 -0.078125 0.515625 -0.25q0.21875 -0.171875 0.328125 -0.40625q0.109375 -0.234375 0.109375 -0.515625q0 -0.484375 -0.359375 -0.78125q-0.1875 -0.125 -0.59375 -0.28125q-0.390625 -0.15625 -1.03125 -0.328125q-1.078125 -0.28125 -1.765625 -0.625q-0.6875 -0.359375 -1.0625 -0.8125q-0.28125 -0.359375 -0.421875 -0.765625q-0.125 -0.421875 -0.125 -0.9375q0 -0.609375 0.265625 -1.125q0.28125 -0.515625 0.75 -0.890625q0.484375 -0.390625 1.125 -0.59375q0.640625 -0.203125 1.375 -0.203125q0.6875 0 1.359375 0.1875q0.6875 0.1875 1.265625 0.546875q0.578125 0.34375 0.96875 0.828125l-1.09375 1.21875q-0.359375 -0.359375 -0.78125 -0.625q-0.421875 -0.265625 -0.859375 -0.40625q-0.421875 -0.15625 -0.765625 -0.15625q-0.390625 0 -0.71875 0.078125q-0.3125 0.0625 -0.53125 0.21875q-0.203125 0.140625 -0.328125 0.375q-0.109375 0.21875 -0.109375 0.5q0.015625 0.234375 0.125 0.453125q0.109375 0.21875 0.296875 0.359375q0.203125 0.15625 0.609375 0.328125q0.40625 0.15625 1.046875 0.3125q0.921875 0.234375 1.53125 0.53125q0.609375 0.28125 0.96875 0.65625q0.375 0.359375 0.515625 0.828125q0.15625 0.46875 0.15625 1.046875q0 0.828125 -0.484375 1.5q-0.46875 0.65625 -1.28125 1.03125q-0.796875 0.375 -1.78125 0.375zm5.6394653 -0.1875l0 -9.796875l1.9375 0l0 2.09375l-0.359375 0.21875q0.15625 -0.484375 0.46875 -0.921875q0.328125 -0.453125 0.796875 -0.796875q0.484375 -0.34375 1.03125 -0.546875q0.5625 -0.21875 1.140625 -0.21875q0.828125 0 1.46875 0.28125q0.640625 0.28125 1.046875 0.84375q0.40625 0.5625 0.59375 1.40625l-0.296875 -0.078125l0.125 -0.3125q0.21875 -0.4375 0.578125 -0.8125q0.359375 -0.390625 0.828125 -0.6875q0.46875 -0.296875 0.984375 -0.46875q0.53125 -0.171875 1.03125 -0.171875q1.09375 0 1.8125 0.453125q0.71875 0.453125 1.078125 1.375q0.375 0.90625 0.375 2.265625l0 5.875l-1.9375 0l0 -5.765625q0 -0.84375 -0.21875 -1.375q-0.21875 -0.53125 -0.65625 -0.78125q-0.421875 -0.265625 -1.09375 -0.265625q-0.515625 0 -0.984375 0.1875q-0.453125 0.171875 -0.796875 0.484375q-0.328125 0.3125 -0.515625 0.734375q-0.171875 0.421875 -0.171875 0.921875l0 5.859375l-1.953125 0l0 -5.796875q0 -0.765625 -0.21875 -1.296875q-0.21875 -0.53125 -0.65625 -0.8125q-0.421875 -0.28125 -1.046875 -0.28125q-0.515625 0 -0.96875 0.1875q-0.4375 0.171875 -0.78125 0.484375q-0.328125 0.296875 -0.515625 0.71875q-0.1875 0.421875 -0.1875 0.90625l0 5.890625l-1.9375 0zm17.526154 0l0 -9.796875l1.921875 0l0 9.796875l-1.921875 0zm0.9375 -11.953125q-0.609375 0 -0.953125 -0.3125q-0.328125 -0.328125 -0.328125 -0.90625q0 -0.546875 0.34375 -0.875q0.34375 -0.34375 0.9375 -0.34375q0.609375 0 0.9375 0.328125q0.34375 0.3125 0.34375 0.890625q0 0.546875 -0.34375 0.890625q-0.34375 0.328125 -0.9375 0.328125zm7.202057 12.140625q-1.234375 0 -2.21875 -0.421875q-0.984375 -0.4375 -1.640625 -1.28125l1.296875 -1.109375q0.5625 0.640625 1.21875 0.9375q0.671875 0.28125 1.515625 0.28125q0.328125 0 0.609375 -0.078125q0.296875 -0.078125 0.515625 -0.25q0.21875 -0.171875 0.328125 -0.40625q0.109375 -0.234375 0.109375 -0.515625q0 -0.484375 -0.359375 -0.78125q-0.1875 -0.125 -0.59375 -0.28125q-0.390625 -0.15625 -1.03125 -0.328125q-1.078125 -0.28125 -1.765625 -0.625q-0.6875 -0.359375 -1.0625 -0.8125q-0.28125 -0.359375 -0.421875 -0.765625q-0.125 -0.421875 -0.125 -0.9375q0 -0.609375 0.265625 -1.125q0.28125 -0.515625 0.75 -0.890625q0.484375 -0.390625 1.125 -0.59375q0.640625 -0.203125 1.375 -0.203125q0.6875 0 1.359375 0.1875q0.6875 0.1875 1.265625 0.546875q0.578125 0.34375 0.96875 0.828125l-1.09375 1.21875q-0.359375 -0.359375 -0.78125 -0.625q-0.421875 -0.265625 -0.859375 -0.40625q-0.421875 -0.15625 -0.765625 -0.15625q-0.390625 0 -0.71875 0.078125q-0.3125 0.0625 -0.53125 0.21875q-0.203125 0.140625 -0.328125 0.375q-0.109375 0.21875 -0.109375 0.5q0.015625 0.234375 0.125 0.453125q0.109375 0.21875 0.296875 0.359375q0.203125 0.15625 0.609375 0.328125q0.40625 0.15625 1.046875 0.3125q0.921875 0.234375 1.53125 0.53125q0.609375 0.28125 0.96875 0.65625q0.375 0.359375 0.515625 0.828125q0.15625 0.46875 0.15625 1.046875q0 0.828125 -0.484375 1.5q-0.46875 0.65625 -1.28125 1.03125q-0.796875 0.375 -1.78125 0.375zm8.93634 0q-1.234375 0 -2.21875 -0.421875q-0.984375 -0.4375 -1.640625 -1.28125l1.296875 -1.109375q0.5625 0.640625 1.21875 0.9375q0.671875 0.28125 1.515625 0.28125q0.328125 0 0.609375 -0.078125q0.296875 -0.078125 0.515625 -0.25q0.21875 -0.171875 0.328125 -0.40625q0.109375 -0.234375 0.109375 -0.515625q0 -0.484375 -0.359375 -0.78125q-0.1875 -0.125 -0.59375 -0.28125q-0.390625 -0.15625 -1.03125 -0.328125q-1.078125 -0.28125 -1.765625 -0.625q-0.6875 -0.359375 -1.0625 -0.8125q-0.28125 -0.359375 -0.421875 -0.765625q-0.125 -0.421875 -0.125 -0.9375q0 -0.609375 0.265625 -1.125q0.28125 -0.515625 0.75 -0.890625q0.484375 -0.390625 1.125 -0.59375q0.640625 -0.203125 1.375 -0.203125q0.6875 0 1.359375 0.1875q0.6875 0.1875 1.265625 0.546875q0.578125 0.34375 0.96875 0.828125l-1.09375 1.21875q-0.359375 -0.359375 -0.78125 -0.625q-0.421875 -0.265625 -0.859375 -0.40625q-0.421875 -0.15625 -0.765625 -0.15625q-0.390625 0 -0.71875 0.078125q-0.3125 0.0625 -0.53125 0.21875q-0.203125 0.140625 -0.328125 0.375q-0.109375 0.21875 -0.109375 0.5q0.015625 0.234375 0.125 0.453125q0.109375 0.21875 0.296875 0.359375q0.203125 0.15625 0.609375 0.328125q0.40625 0.15625 1.046875 0.3125q0.921875 0.234375 1.53125 0.53125q0.609375 0.28125 0.96875 0.65625q0.375 0.359375 0.515625 0.828125q0.15625 0.46875 0.15625 1.046875q0 0.828125 -0.484375 1.5q-0.46875 0.65625 -1.28125 1.03125q-0.796875 0.375 -1.78125 0.375zm5.9832153 -0.1875l0 -9.796875l1.921875 0l0 9.796875l-1.921875 0zm0.9375 -11.953125q-0.609375 0 -0.953125 -0.3125q-0.328125 -0.328125 -0.328125 -0.90625q0 -0.546875 0.34375 -0.875q0.34375 -0.34375 0.9375 -0.34375q0.609375 0 0.9375 0.328125q0.34375 0.3125 0.34375 0.890625q0 0.546875 -0.34375 0.890625q-0.34375 0.328125 -0.9375 0.328125zm8.342682 12.140625q-1.4375 0 -2.578125 -0.65625q-1.125 -0.671875 -1.78125 -1.8125q-0.640625 -1.15625 -0.640625 -2.625q0 -1.46875 0.640625 -2.609375q0.65625 -1.15625 1.78125 -1.8125q1.140625 -0.671875 2.578125 -0.671875q1.40625 0 2.53125 0.671875q1.140625 0.65625 1.796875 1.8125q0.65625 1.140625 0.65625 2.609375q0 1.46875 -0.65625 2.625q-0.65625 1.140625 -1.796875 1.8125q-1.125 0.65625 -2.53125 0.65625zm0 -1.75q0.875 0 1.5625 -0.4375q0.6875 -0.4375 1.078125 -1.1875q0.390625 -0.765625 0.375 -1.71875q0.015625 -0.96875 -0.375 -1.71875q-0.390625 -0.765625 -1.078125 -1.1875q-0.6875 -0.4375 -1.5625 -0.4375q-0.875 0 -1.578125 0.4375q-0.703125 0.4375 -1.09375 1.203125q-0.390625 0.75 -0.375 1.703125q-0.015625 0.953125 0.375 1.71875q0.390625 0.75 1.09375 1.1875q0.703125 0.4375 1.578125 0.4375zm7.0673523 1.5625l0 -9.796875l1.921875 0l0 2.015625l-0.34375 0.21875q0.1875 -0.640625 0.734375 -1.1875q0.546875 -0.5625 1.28125 -0.90625q0.75 -0.34375 1.53125 -0.34375q1.125 0 1.859375 0.4375q0.75 0.4375 1.125 1.34375q0.375 0.890625 0.375 2.25l0 5.96875l-1.921875 0l0 -5.84375q0 -0.828125 -0.21875 -1.375q-0.21875 -0.5625 -0.6875 -0.8125q-0.46875 -0.25 -1.15625 -0.21875q-0.5625 0 -1.03125 0.1875q-0.46875 0.171875 -0.8125 0.5q-0.34375 0.3125 -0.546875 0.734375q-0.1875 0.40625 -0.1875 0.890625l0 5.9375l-0.953125 0q-0.234375 0 -0.484375 0q-0.25 0 -0.484375 0zm11.162964 3.46875l-1.03125 -1.15625q1.90625 -1.328125 2.890625 -3.15625q1.0 -1.84375 1.0 -3.96875q0 -2.125 -1.0 -3.953125q-0.984375 -1.84375 -2.890625 -3.171875l1.046875 -1.15625q2.265625 1.421875 3.453125 3.546875q1.203125 2.125 1.203125 4.734375q0 2.59375 -1.203125 4.734375q-1.203125 2.125 -3.46875 3.546875z" fill-rule="nonzero"/><path fill="#000000" fill-opacity="0.0" d="m401.95258 339.40683l-323.3071 113.95276" fill-rule="evenodd"/><path stroke="#6aa84f" stroke-width="4.0" stroke-linejoin="round" stroke-linecap="butt" d="m401.9526 339.40683l-300.67194 105.97476" fill-rule="evenodd"/><path fill="#6aa84f" stroke="#6aa84f" stroke-width="4.0" stroke-linecap="butt" d="m99.08442 439.1504l-14.923859 12.26535l19.316368 0.197052z" fill-rule="evenodd"/><path fill="#000000" fill-opacity="0.0" d="m345.4593 330.4491l163.93698 -57.385803l15.811066 45.19684l-163.93704 57.385834z" fill-rule="evenodd"/><path fill="#6aa84f" d="m414.6957 340.22427l-0.5398865 -15.45517l3.77536 -1.3215637l9.211456 12.419708l-3.3329468 1.166687l-4.2654114 -6.4200134q-0.6221924 -0.9741516 -1.3394775 -2.0308838q-0.70770264 -1.0766296 -1.34021 -2.0802612l-0.08850098 0.030975342q0.11633301 1.1842957 0.24890137 2.4622803q0.14215088 1.2580566 0.23339844 2.4180298l0.6522827 7.6848145l-3.2149658 1.1253967zm1.7001343 -4.3199463l-0.8564453 -2.4482727l6.6806335 -2.3385315l0.85647583 2.4482727l-6.680664 2.3385315zm18.635956 -2.5172424q-1.2977905 0.45428467 -2.6176453 0.41964722q-1.3198242 -0.03463745 -2.5393066 -0.63412476q-1.2195129 -0.5995178 -2.2000122 -1.7462158q-0.98568726 -1.161438 -1.5996399 -2.916504q-0.8048706 -2.3007812 -0.49273682 -4.2476196q0.3269043 -1.9519958 1.5267639 -3.3487244q1.1998291 -1.3967285 3.0580444 -2.0471802q1.3272705 -0.46463013 2.5799866 -0.2906189q1.2674866 0.16885376 2.217865 0.6142578l-1.0444336 2.5508118q-0.6665039 -0.29644775 -1.3492737 -0.35543823q-0.68795776 -0.07373047 -1.4548035 0.19473267q-0.97335815 0.34069824 -1.5640869 1.1600037q-0.57595825 0.81414795 -0.677124 1.9918213q-0.09158325 1.1577759 0.3934021 2.544159q0.50045776 1.430603 1.2988892 2.293396q0.8131714 0.857605 1.7952881 1.1098022q0.9968567 0.24700928 2.0439148 -0.119506836q0.7668762 -0.26846313 1.2676086 -0.8244934q0.5007324 -0.5560303 0.8208313 -1.2971497l2.3910522 1.2985535q-0.5045166 1.3023376 -1.4690857 2.2359314q-0.9697571 0.9188843 -2.385498 1.4144592zm6.5928955 -2.589264l-4.8756714 -13.937408l3.1854858 -1.1150818l1.9967041 5.7077026l0.05899048 -0.020629883l2.1325989 -7.1531677l3.4804382 -1.2183228l-4.1242065 12.816711l1.3311462 3.8051147l-3.1854858 1.1150818zm7.7572327 -2.715393l-5.5094604 -5.338928l0.9965515 -3.1134644l7.9933167 7.23407l-3.4804077 1.2183228z" fill-rule="nonzero"/><path fill="#6aa84f" d="m456.92258 334.44855l-0.59332275 -1.6960754l2.4480896 -0.8569641l-1.831604 -5.2357483l-2.0204163 0.7072449l-0.45401 -1.2978821q0.5832825 -0.32006836 0.9895935 -0.5781555q0.42105103 -0.26327515 0.7233887 -0.53466797q0.29718018 -0.2861328 0.56414795 -0.6113281l1.5484924 -0.5420532l2.5745544 7.3595276l2.0499268 -0.7175598l0.59332275 1.6960754l-6.592163 2.3075867z" fill-rule="nonzero"/><path fill="#3c78d8" d="m801.77954 108.66929l78.614136 0l0 78.614174l-78.614136 0z" fill-rule="evenodd"/><path stroke="#3c78d8" stroke-width="8.0" stroke-linejoin="round" stroke-linecap="butt" d="m801.77954 108.66929l78.614136 0l0 78.614174l-78.614136 0z" fill-rule="evenodd"/><path fill="#ffffff" d="m813.2767 152.77638l0 -9.328125l4.203125 0q0.890625 0 1.609375 0.390625q0.734375 0.375 1.140625 1.0625q0.421875 0.671875 0.421875 1.515625q0 0.875 -0.421875 1.578125q-0.40625 0.703125 -1.125 1.109375q-0.71875 0.390625 -1.625 0.390625l-2.046875 0l0 3.28125l-2.15625 0zm5.171875 0l-2.375 -4.21875l2.328125 -0.328125l2.640625 4.546875l-2.59375 0zm-3.015625 -5.015625l1.84375 0q0.34375 0 0.59375 -0.140625q0.265625 -0.15625 0.40625 -0.4375q0.140625 -0.28125 0.140625 -0.640625q0 -0.359375 -0.15625 -0.625q-0.15625 -0.28125 -0.46875 -0.421875q-0.296875 -0.15625 -0.71875 -0.15625l-1.640625 0l0 2.421875zm10.074036 5.15625q-1.171875 0 -2.046875 -0.46875q-0.859375 -0.484375 -1.34375 -1.296875q-0.46875 -0.828125 -0.46875 -1.875q0 -0.8125 0.265625 -1.484375q0.265625 -0.6875 0.75 -1.1875q0.484375 -0.5 1.140625 -0.765625q0.65625 -0.28125 1.4375 -0.28125q0.75 0 1.359375 0.265625q0.625 0.265625 1.078125 0.75q0.453125 0.46875 0.6875 1.125q0.25 0.65625 0.21875 1.421875l0 0.578125l-5.640625 0l-0.3125 -1.203125l4.21875 0l-0.234375 0.25l0 -0.265625q-0.03125 -0.328125 -0.21875 -0.578125q-0.171875 -0.265625 -0.46875 -0.40625q-0.28125 -0.15625 -0.65625 -0.15625q-0.515625 0 -0.890625 0.203125q-0.359375 0.203125 -0.546875 0.609375q-0.1875 0.390625 -0.1875 0.953125q0 0.59375 0.25 1.03125q0.25 0.421875 0.71875 0.671875q0.46875 0.234375 1.125 0.234375q0.453125 0 0.796875 -0.125q0.359375 -0.140625 0.78125 -0.453125l1.0 1.40625q-0.421875 0.359375 -0.890625 0.59375q-0.46875 0.21875 -0.953125 0.328125q-0.484375 0.125 -0.96875 0.125zm7.5446167 0q-1.015625 0 -1.828125 -0.484375q-0.8125 -0.484375 -1.296875 -1.3125q-0.46875 -0.84375 -0.46875 -1.890625q0 -1.046875 0.46875 -1.875q0.484375 -0.84375 1.296875 -1.3125q0.8125 -0.484375 1.828125 -0.484375q0.953125 0 1.734375 0.328125q0.796875 0.328125 1.265625 0.9375l-1.15625 1.375q-0.1875 -0.203125 -0.4375 -0.390625q-0.25 -0.1875 -0.5625 -0.296875q-0.3125 -0.109375 -0.640625 -0.109375q-0.5 0 -0.890625 0.234375q-0.390625 0.234375 -0.609375 0.65625q-0.203125 0.40625 -0.203125 0.9375q0 0.515625 0.21875 0.921875q0.21875 0.40625 0.609375 0.65625q0.390625 0.234375 0.875 0.234375q0.34375 0 0.640625 -0.078125q0.296875 -0.09375 0.53125 -0.265625q0.25 -0.171875 0.46875 -0.421875l1.140625 1.390625q-0.453125 0.578125 -1.265625 0.921875q-0.796875 0.328125 -1.71875 0.328125zm7.529419 0q-1.171875 0 -2.046875 -0.46875q-0.859375 -0.484375 -1.34375 -1.296875q-0.46875 -0.828125 -0.46875 -1.875q0 -0.8125 0.265625 -1.484375q0.265625 -0.6875 0.75 -1.1875q0.484375 -0.5 1.140625 -0.765625q0.65625 -0.28125 1.4375 -0.28125q0.75 0 1.359375 0.265625q0.625 0.265625 1.078125 0.75q0.453125 0.46875 0.6875 1.125q0.25 0.65625 0.21875 1.421875l0 0.578125l-5.640625 0l-0.3125 -1.203125l4.21875 0l-0.234375 0.25l0 -0.265625q-0.03125 -0.328125 -0.21875 -0.578125q-0.171875 -0.265625 -0.46875 -0.40625q-0.28125 -0.15625 -0.65625 -0.15625q-0.515625 0 -0.890625 0.203125q-0.359375 0.203125 -0.546875 0.609375q-0.1875 0.390625 -0.1875 0.953125q0 0.59375 0.25 1.03125q0.25 0.421875 0.71875 0.671875q0.46875 0.234375 1.125 0.234375q0.453125 0 0.796875 -0.125q0.359375 -0.140625 0.78125 -0.453125l1.0 1.40625q-0.421875 0.359375 -0.890625 0.59375q-0.46875 0.21875 -0.953125 0.328125q-0.484375 0.125 -0.96875 0.125zm4.5602417 -0.140625l0 -7.078125l2.140625 0l0 7.078125l-2.140625 0zm1.0625 -8.484375q-0.59375 0 -0.9375 -0.28125q-0.328125 -0.28125 -0.328125 -0.8125q0 -0.484375 0.34375 -0.78125q0.34375 -0.3125 0.921875 -0.3125q0.609375 0 0.9375 0.28125q0.34375 0.28125 0.34375 0.8125q0 0.484375 -0.34375 0.796875q-0.34375 0.296875 -0.9375 0.296875zm5.251648 8.484375l-2.96875 -7.078125l2.359375 0l1.765625 5.296875l-0.515625 0.046875l1.8125 -5.34375l2.328125 0l-3.109375 7.078125l-1.671875 0zm9.051025 0.140625q-1.171875 0 -2.046875 -0.46875q-0.859375 -0.484375 -1.34375 -1.296875q-0.46875 -0.828125 -0.46875 -1.875q0 -0.8125 0.265625 -1.484375q0.265625 -0.6875 0.75 -1.1875q0.484375 -0.5 1.140625 -0.765625q0.65625 -0.28125 1.4375 -0.28125q0.75 0 1.359375 0.265625q0.625 0.265625 1.078125 0.75q0.453125 0.46875 0.6875 1.125q0.25 0.65625 0.21875 1.421875l0 0.578125l-5.640625 0l-0.3125 -1.203125l4.21875 0l-0.234375 0.25l0 -0.265625q-0.03125 -0.328125 -0.21875 -0.578125q-0.171875 -0.265625 -0.46875 -0.40625q-0.28125 -0.15625 -0.65625 -0.15625q-0.515625 0 -0.890625 0.203125q-0.359375 0.203125 -0.546875 0.609375q-0.1875 0.390625 -0.1875 0.953125q0 0.59375 0.25 1.03125q0.25 0.421875 0.71875 0.671875q0.46875 0.234375 1.125 0.234375q0.453125 0 0.796875 -0.125q0.359375 -0.140625 0.78125 -0.453125l1.0 1.40625q-0.421875 0.359375 -0.890625 0.59375q-0.46875 0.21875 -0.953125 0.328125q-0.484375 0.125 -0.96875 0.125zm4.4508667 -0.140625l0 -7.078125l2.015625 0l0.09375 2.3125l-0.390625 -0.453125q0.15625 -0.5625 0.515625 -1.015625q0.375 -0.453125 0.859375 -0.71875q0.5 -0.265625 1.0625 -0.265625q0.234375 0 0.4375 0.046875q0.203125 0.03125 0.390625 0.078125l-0.59375 2.359375q-0.140625 -0.09375 -0.390625 -0.140625q-0.25 -0.0625 -0.515625 -0.0625q-0.296875 0 -0.546875 0.09375q-0.25 0.09375 -0.421875 0.28125q-0.171875 0.1875 -0.28125 0.453125q-0.09375 0.25 -0.09375 0.5625l0 3.546875l-2.140625 0z" fill-rule="nonzero"/><path fill="#3c78d8" d="m790.063 113.062996l51.02362 -48.34646l51.02362 48.34646z" fill-rule="evenodd"/><path stroke="#3c78d8" stroke-width="8.0" stroke-linejoin="round" stroke-linecap="butt" d="m790.063 113.062996l51.02362 -48.34646l51.02362 48.34646z" fill-rule="evenodd"/><path fill="#3c78d8" d="m550.5827 108.66929l78.614136 0l0 78.614174l-78.614136 0z" fill-rule="evenodd"/><path stroke="#3c78d8" stroke-width="8.0" stroke-linejoin="round" stroke-linecap="butt" d="m550.5827 108.66929l78.614136 0l0 78.614174l-78.614136 0z" fill-rule="evenodd"/><path fill="#ffffff" d="m566.6147 153.99263q-1.109375 0 -2.0 -0.265625q-0.890625 -0.265625 -1.578125 -0.765625q-0.6875 -0.5 -1.234375 -1.1875l1.65625 -1.875q0.796875 1.078125 1.609375 1.453125q0.8125 0.359375 1.671875 0.359375q0.4375 0 0.78125 -0.109375q0.359375 -0.125 0.546875 -0.328125q0.1875 -0.21875 0.1875 -0.546875q0 -0.234375 -0.125 -0.421875q-0.109375 -0.203125 -0.328125 -0.34375q-0.203125 -0.140625 -0.5 -0.25q-0.28125 -0.125 -0.609375 -0.21875q-0.3125 -0.09375 -0.640625 -0.15625q-0.9375 -0.203125 -1.625 -0.5q-0.6875 -0.3125 -1.140625 -0.75q-0.453125 -0.4375 -0.6875 -1.0q-0.21875 -0.578125 -0.21875 -1.28125q0 -0.75 0.34375 -1.375q0.34375 -0.640625 0.921875 -1.09375q0.59375 -0.453125 1.359375 -0.703125q0.765625 -0.25 1.609375 -0.25q1.09375 0 1.890625 0.234375q0.796875 0.234375 1.359375 0.671875q0.5625 0.421875 0.96875 1.03125l-1.6875 1.609375q-0.328125 -0.40625 -0.71875 -0.671875q-0.390625 -0.28125 -0.84375 -0.421875q-0.4375 -0.15625 -0.890625 -0.15625q-0.484375 0 -0.828125 0.125q-0.34375 0.125 -0.546875 0.34375q-0.1875 0.203125 -0.1875 0.515625q0 0.265625 0.15625 0.46875q0.171875 0.1875 0.4375 0.34375q0.28125 0.140625 0.625 0.25q0.359375 0.09375 0.734375 0.171875q0.890625 0.171875 1.59375 0.46875q0.71875 0.28125 1.234375 0.703125q0.515625 0.40625 0.796875 0.984375q0.28125 0.5625 0.28125 1.3125q0 1.171875 -0.5625 1.984375q-0.5625 0.796875 -1.546875 1.21875q-0.984375 0.421875 -2.265625 0.421875zm10.206543 0q-1.40625 0 -2.453125 -0.5625q-1.03125 -0.5625 -1.609375 -1.546875q-0.578125 -0.984375 -0.578125 -2.25q0 -0.984375 0.3125 -1.796875q0.328125 -0.8125 0.90625 -1.40625q0.578125 -0.609375 1.359375 -0.9375q0.796875 -0.328125 1.734375 -0.328125q0.90625 0 1.640625 0.328125q0.75 0.3125 1.296875 0.890625q0.546875 0.578125 0.828125 1.359375q0.28125 0.78125 0.25 1.703125l-0.015625 0.6875l-6.765625 0l-0.359375 -1.4375l5.046875 0l-0.265625 0.3125l0 -0.328125q-0.03125 -0.390625 -0.25 -0.703125q-0.21875 -0.3125 -0.578125 -0.484375q-0.34375 -0.1875 -0.796875 -0.1875q-0.625 0 -1.0625 0.25q-0.4375 0.25 -0.671875 0.71875q-0.21875 0.46875 -0.21875 1.15625q0 0.703125 0.296875 1.234375q0.296875 0.515625 0.859375 0.8125q0.578125 0.28125 1.359375 0.28125q0.546875 0 0.96875 -0.15625q0.421875 -0.171875 0.921875 -0.546875l1.203125 1.6875q-0.5 0.4375 -1.0625 0.71875q-0.5625 0.265625 -1.140625 0.390625q-0.578125 0.140625 -1.15625 0.140625zm5.3291626 -0.15625l0 -8.5l2.421875 0l0.078125 1.734375l-0.5 0.1875q0.171875 -0.578125 0.625 -1.046875q0.453125 -0.46875 1.09375 -0.75q0.640625 -0.296875 1.34375 -0.296875q0.96875 0 1.625 0.390625q0.65625 0.390625 0.984375 1.171875q0.34375 0.765625 0.34375 1.890625l0 5.21875l-2.578125 0l0 -5.015625q0 -0.5 -0.15625 -0.828125q-0.140625 -0.34375 -0.4375 -0.515625q-0.28125 -0.171875 -0.71875 -0.15625q-0.34375 0 -0.625 0.109375q-0.28125 0.109375 -0.5 0.3125q-0.203125 0.1875 -0.328125 0.453125q-0.109375 0.25 -0.109375 0.546875l0 5.09375l-1.265625 0q-0.453125 0 -0.78125 0q-0.3125 0 -0.515625 0zm13.378784 0.171875q-1.109375 0 -1.96875 -0.5625q-0.859375 -0.5625 -1.359375 -1.5625q-0.484375 -1.0 -0.484375 -2.28125q0 -1.28125 0.484375 -2.28125q0.5 -1.0 1.359375 -1.578125q0.875 -0.578125 2.0 -0.578125q0.5625 0 1.09375 0.1875q0.53125 0.171875 0.953125 0.46875q0.4375 0.296875 0.703125 0.703125q0.28125 0.390625 0.328125 0.796875l-0.609375 0.140625l0 -5.46875l2.578125 0l0 11.84375l-2.375 0l-0.15625 -1.9375l0.515625 0.078125q-0.046875 0.40625 -0.3125 0.78125q-0.265625 0.359375 -0.6875 0.640625q-0.40625 0.28125 -0.953125 0.4375q-0.53125 0.171875 -1.109375 0.171875zm0.65625 -2.125q0.578125 0 1.015625 -0.28125q0.4375 -0.296875 0.65625 -0.796875q0.234375 -0.515625 0.234375 -1.203125q0 -0.703125 -0.234375 -1.21875q-0.21875 -0.515625 -0.65625 -0.796875q-0.4375 -0.296875 -1.015625 -0.296875q-0.59375 0 -1.03125 0.296875q-0.421875 0.28125 -0.65625 0.796875q-0.234375 0.515625 -0.234375 1.21875q0 0.6875 0.234375 1.203125q0.234375 0.5 0.65625 0.796875q0.4375 0.28125 1.03125 0.28125zm10.635864 2.109375q-1.40625 0 -2.453125 -0.5625q-1.03125 -0.5625 -1.609375 -1.546875q-0.578125 -0.984375 -0.578125 -2.25q0 -0.984375 0.3125 -1.796875q0.328125 -0.8125 0.90625 -1.40625q0.578125 -0.609375 1.359375 -0.9375q0.796875 -0.328125 1.734375 -0.328125q0.90625 0 1.640625 0.328125q0.75 0.3125 1.296875 0.890625q0.546875 0.578125 0.828125 1.359375q0.28125 0.78125 0.25 1.703125l-0.015625 0.6875l-6.765625 0l-0.359375 -1.4375l5.046875 0l-0.265625 0.3125l0 -0.328125q-0.03125 -0.390625 -0.25 -0.703125q-0.21875 -0.3125 -0.578125 -0.484375q-0.34375 -0.1875 -0.796875 -0.1875q-0.625 0 -1.0625 0.25q-0.4375 0.25 -0.671875 0.71875q-0.21875 0.46875 -0.21875 1.15625q0 0.703125 0.296875 1.234375q0.296875 0.515625 0.859375 0.8125q0.578125 0.28125 1.359375 0.28125q0.546875 0 0.96875 -0.15625q0.421875 -0.171875 0.921875 -0.546875l1.203125 1.6875q-0.5 0.4375 -1.0625 0.71875q-0.5625 0.265625 -1.140625 0.390625q-0.578125 0.140625 -1.15625 0.140625zm5.3291626 -0.15625l0 -8.5l2.421875 0l0.125 2.765625l-0.484375 -0.515625q0.1875 -0.6875 0.625 -1.234375q0.4375 -0.546875 1.03125 -0.859375q0.59375 -0.328125 1.265625 -0.328125q0.296875 0 0.53125 0.046875q0.25 0.046875 0.46875 0.109375l-0.703125 2.828125q-0.1875 -0.109375 -0.484375 -0.171875q-0.296875 -0.078125 -0.609375 -0.078125q-0.359375 0 -0.65625 0.125q-0.296875 0.109375 -0.515625 0.34375q-0.203125 0.21875 -0.328125 0.53125q-0.109375 0.296875 -0.109375 0.6875l0 4.25l-2.578125 0z" fill-rule="nonzero"/><path fill="#3c78d8" d="m538.86615 113.062996l51.02362 -48.34646l51.02362 48.34646z" fill-rule="evenodd"/><path stroke="#3c78d8" stroke-width="8.0" stroke-linejoin="round" stroke-linecap="butt" d="m538.86615 113.062996l51.02362 -48.34646l51.02362 48.34646z" fill-rule="evenodd"/><path fill="#000000" fill-opacity="0.0" d="m665.3412 116.07612l96.59845 0l0 31.212593l-96.59845 0z" fill-rule="evenodd"/><path fill="#999999" d="m684.3524 148.3505q-1.75 0 -3.21875 -0.625q-1.46875 -0.625 -2.546875 -1.78125q-1.078125 -1.171875 -1.671875 -2.75q-0.578125 -1.578125 -0.578125 -3.484375q0 -1.796875 0.625 -3.34375q0.640625 -1.546875 1.765625 -2.71875q1.140625 -1.171875 2.625 -1.8125q1.484375 -0.65625 3.21875 -0.65625q1.21875 0 2.375 0.375q1.171875 0.359375 2.109375 1.03125q0.953125 0.65625 1.5625 1.484375l-1.734375 1.8125q-0.6875 -0.703125 -1.40625 -1.171875q-0.703125 -0.46875 -1.4375 -0.703125q-0.734375 -0.25 -1.46875 -0.25q-1.1875 0 -2.203125 0.453125q-1.015625 0.4375 -1.78125 1.234375q-0.75 0.796875 -1.1875 1.890625q-0.421875 1.078125 -0.421875 2.375q0 1.375 0.40625 2.5q0.421875 1.109375 1.1875 1.90625q0.78125 0.78125 1.84375 1.203125q1.0625 0.421875 2.359375 0.421875q0.796875 0 1.5625 -0.21875q0.765625 -0.21875 1.4375 -0.625q0.671875 -0.40625 1.234375 -0.953125l1.296875 2.109375q-0.5625 0.640625 -1.515625 1.171875q-0.9375 0.53125 -2.109375 0.828125q-1.15625 0.296875 -2.328125 0.296875zm13.702209 0q-1.5625 0 -2.84375 -0.859375q-1.28125 -0.859375 -2.0625 -2.34375q-0.765625 -1.5 -0.765625 -3.375q0 -1.890625 0.78125 -3.359375q0.78125 -1.484375 2.109375 -2.3125q1.34375 -0.84375 3.0 -0.84375q0.984375 0 1.796875 0.296875q0.8125 0.28125 1.421875 0.796875q0.609375 0.515625 1.0 1.1875q0.40625 0.671875 0.5 1.4375l-0.546875 -0.203125l0 -3.25l2.5 0l0 12.59375l-2.5 0l0 -3.0l0.578125 -0.171875q-0.140625 0.65625 -0.59375 1.265625q-0.4375 0.609375 -1.125 1.09375q-0.6875 0.46875 -1.515625 0.765625q-0.828125 0.28125 -1.734375 0.28125zm0.640625 -2.28125q1.140625 0 2.0 -0.546875q0.859375 -0.546875 1.34375 -1.515625q0.5 -0.984375 0.5 -2.234375q0 -1.21875 -0.5 -2.171875q-0.484375 -0.96875 -1.34375 -1.515625q-0.859375 -0.546875 -2.0 -0.546875q-1.09375 0 -1.953125 0.546875q-0.84375 0.546875 -1.34375 1.515625q-0.484375 0.953125 -0.484375 2.171875q0 1.25 0.484375 2.234375q0.5 0.96875 1.34375 1.515625q0.859375 0.546875 1.953125 0.546875zm13.895081 2.28125q-1.578125 0 -2.859375 -0.546875q-1.265625 -0.546875 -2.109375 -1.625l1.6875 -1.453125q0.71875 0.84375 1.5625 1.21875q0.859375 0.375 1.9375 0.375q0.4375 0 0.796875 -0.109375q0.375 -0.109375 0.65625 -0.328125q0.28125 -0.21875 0.421875 -0.515625q0.140625 -0.296875 0.140625 -0.65625q0 -0.625 -0.453125 -1.015625q-0.234375 -0.15625 -0.75 -0.359375q-0.515625 -0.203125 -1.34375 -0.421875q-1.390625 -0.359375 -2.28125 -0.8125q-0.875 -0.46875 -1.359375 -1.046875q-0.359375 -0.453125 -0.53125 -0.984375q-0.171875 -0.546875 -0.171875 -1.1875q0 -0.796875 0.34375 -1.453125q0.359375 -0.671875 0.96875 -1.15625q0.609375 -0.5 1.4375 -0.75q0.828125 -0.265625 1.765625 -0.265625q0.890625 0 1.765625 0.234375q0.875 0.234375 1.609375 0.703125q0.75 0.453125 1.265625 1.078125l-1.421875 1.5625q-0.453125 -0.46875 -1.0 -0.8125q-0.53125 -0.34375 -1.09375 -0.53125q-0.546875 -0.203125 -1.0 -0.203125q-0.5 0 -0.921875 0.109375q-0.40625 0.09375 -0.6875 0.28125q-0.265625 0.1875 -0.40625 0.484375q-0.140625 0.28125 -0.140625 0.640625q0.015625 0.3125 0.140625 0.59375q0.140625 0.265625 0.375 0.46875q0.265625 0.1875 0.796875 0.40625q0.53125 0.21875 1.34375 0.40625q1.203125 0.3125 1.984375 0.6875q0.78125 0.359375 1.234375 0.84375q0.484375 0.453125 0.671875 1.0625q0.1875 0.59375 0.1875 1.34375q0 1.078125 -0.609375 1.9375q-0.609375 0.84375 -1.640625 1.328125q-1.03125 0.46875 -2.3125 0.46875zm13.183472 0q-1.953125 0 -3.453125 -0.828125q-1.5 -0.828125 -2.359375 -2.265625q-0.84375 -1.4375 -0.84375 -3.3125q0 -1.484375 0.484375 -2.703125q0.484375 -1.234375 1.328125 -2.125q0.859375 -0.90625 2.046875 -1.390625q1.1875 -0.5 2.578125 -0.5q1.21875 0 2.28125 0.46875q1.0625 0.46875 1.828125 1.296875q0.78125 0.8125 1.203125 1.921875q0.421875 1.109375 0.40625 2.4375l-0.03125 1.046875l-10.296875 0l-0.546875 -1.96875l8.703125 0l-0.359375 0.421875l0 -0.578125q-0.0625 -0.796875 -0.53125 -1.421875q-0.453125 -0.625 -1.15625 -0.984375q-0.6875 -0.359375 -1.5 -0.359375q-1.296875 0 -2.1875 0.5q-0.890625 0.484375 -1.34375 1.4375q-0.453125 0.9375 -0.453125 2.328125q0 1.328125 0.546875 2.296875q0.5625 0.96875 1.5625 1.5q1.015625 0.53125 2.328125 0.53125q0.9375 0 1.734375 -0.3125q0.8125 -0.3125 1.75 -1.125l1.25 1.75q-0.578125 0.578125 -1.40625 1.015625q-0.828125 0.421875 -1.75 0.671875q-0.921875 0.25 -1.8125 0.25zm15.408936 -0.234375l-0.796875 -1.96875l5.140625 -5.78125q0.40625 -0.4375 0.84375 -1.0q0.453125 -0.5625 0.859375 -1.15625q0.40625 -0.609375 0.65625 -1.1875q0.25 -0.59375 0.25 -1.125q0 -0.765625 -0.296875 -1.296875q-0.296875 -0.546875 -0.859375 -0.828125q-0.5625 -0.296875 -1.359375 -0.296875q-0.703125 0 -1.375 0.40625q-0.671875 0.40625 -1.21875 1.15625q-0.546875 0.734375 -0.859375 1.71875l-2.0 -1.234375q0.40625 -1.390625 1.234375 -2.390625q0.828125 -1.0 1.984375 -1.53125q1.171875 -0.53125 2.546875 -0.53125q1.421875 0 2.515625 0.59375q1.109375 0.59375 1.734375 1.640625q0.625 1.03125 0.625 2.40625q0 0.546875 -0.125 1.125q-0.125 0.578125 -0.390625 1.1875q-0.25 0.609375 -0.671875 1.28125q-0.40625 0.65625 -0.96875 1.375q-0.5625 0.71875 -1.28125 1.515625l-3.8125 4.140625l-0.484375 -0.71875l8.265625 0l0 2.5l-10.15625 0z" fill-rule="nonzero"/><path fill="#000000" fill-opacity="0.0" d="m551.5197 219.97638l327.43304 122.58267" fill-rule="evenodd"/><path stroke="#999999" stroke-width="4.0" stroke-linejoin="round" stroke-linecap="butt" d="m551.5197 219.97638l304.95648 114.16803" fill-rule="evenodd"/><path fill="#999999" stroke="#999999" stroke-width="4.0" stroke-linecap="butt" d="m854.1598 340.33194l19.316528 0.17687988l-14.683594 -12.551941z" fill-rule="evenodd"/><path fill="#000000" fill-opacity="0.0" d="m455.16003 156.50354l162.45673 61.417328l-16.944885 44.787415l-162.4567 -61.417343z" fill-rule="evenodd"/><path fill="#999999" d="m516.0239 213.83374l5.2249756 -13.810257l4.896179 1.8510132q1.5053711 0.5691223 2.5636597 1.4369202q1.0582275 0.86779785 1.4185791 2.1232147q0.36029053 1.2554169 -0.27001953 2.9214172q-0.60821533 1.607544 -1.7461548 2.3633423q-1.123291 0.761322 -2.5445557 0.80867004q-1.4156494 0.03274536 -2.8771973 -0.51979065l-1.783081 -0.6741028l-1.7692871 4.6764984l-3.1130981 -1.1769257zm5.8223267 -5.983963l1.5930786 0.60227966q1.2861328 0.48623657 2.130249 0.15388489q0.8441162 -0.33236694 1.2477417 -1.3991852q0.41467285 -1.0960541 -0.07714844 -1.7831116q-0.4772339 -0.6815491 -1.7195435 -1.1511993l-1.5930786 -0.60227966l-1.5812988 4.179611z" fill-rule="nonzero"/><path fill="#999999" d="m528.31055 227.76634q-1.0230713 -0.3867798 -1.607727 -1.2258606q-0.56451416 -0.8481903 -0.6104126 -2.0515442q-0.025756836 -1.2124481 0.5437012 -2.7176971q0.8735962 -2.309021 2.260437 -3.10437q1.392273 -0.80996704 2.9415283 -0.22427368q1.5638428 0.59121704 2.0569458 2.113968q0.5131836 1.5136566 -0.3604126 3.8226776q-0.56951904 1.5052338 -1.4060669 2.391693q-0.81640625 0.87734985 -1.8011475 1.1398468q-0.9645386 0.25338745 -2.0168457 -0.1444397zm0.6137085 -1.6221619q0.45306396 0.17129517 0.9088745 0.026245117q0.47045898 -0.13954163 0.92944336 -0.7344208q0.47906494 -0.60398865 0.91589355 -1.7584991q0.44781494 -1.1837311 0.477417 -1.9242401q0.044189453 -0.73498535 -0.22723389 -1.1215668q-0.2512207 -0.3956604 -0.70428467 -0.56695557q-0.43847656 -0.16575623 -0.90338135 -0.04083252q-0.45941162 0.11029053 -0.9274292 0.68504333q-0.45343018 0.5802765 -0.9012451 1.7640228q-0.4368286 1.1544952 -0.49206543 1.9187164q-0.035095215 0.75512695 0.22521973 1.170929q0.26031494 0.415802 0.6987915 0.5815582zm0.7685547 -2.0313416q-0.43847656 -0.16577148 -0.63482666 -0.5740814q-0.1963501 -0.40830994 -0.0138549805 -0.8905792q0.18798828 -0.49687195 0.60546875 -0.6731262q0.4175415 -0.17623901 0.85595703 -0.010482788q0.453125 0.17129517 0.64941406 0.5796051q0.1963501 0.40830994 0.008361816 0.90519714q-0.18243408 0.48225403 -0.5999756 0.6585083q-0.41748047 0.17623901 -0.87054443 0.0049591064z" fill-rule="nonzero"/><path fill="#000000" fill-opacity="0.0" d="m551.5197 283.97638l327.43304 122.58267" fill-rule="evenodd"/><path stroke="#999999" stroke-width="4.0" stroke-linejoin="round" stroke-linecap="butt" d="m551.5197 283.97638l304.95648 114.16803" fill-rule="evenodd"/><path fill="#999999" stroke="#999999" stroke-width="4.0" stroke-linecap="butt" d="m854.1598 404.33194l19.316528 0.17687988l-14.683594 -12.551941z" fill-rule="evenodd"/><path fill="#000000" fill-opacity="0.0" d="m455.16003 220.50354l162.45673 61.417328l-16.944885 44.787415l-162.4567 -61.417328z" fill-rule="evenodd"/><path fill="#999999" d="m516.0239 277.83374l5.2249756 -13.810242l4.896179 1.8510132q1.5053711 0.5690918 2.5636597 1.4369202q1.0582275 0.86779785 1.4185791 2.1231995q0.36029053 1.2554016 -0.27001953 2.9214172q-0.60821533 1.607544 -1.7461548 2.3633423q-1.123291 0.761322 -2.5445557 0.8086853q-1.4156494 0.03274536 -2.8771973 -0.5198059l-1.783081 -0.6741028l-1.7692871 4.676483l-3.1130981 -1.1769104zm5.8223267 -5.9839478l1.5930786 0.6022644q1.2861328 0.48623657 2.130249 0.15386963q0.8441162 -0.33233643 1.2477417 -1.3991699q0.41467285 -1.0960388 -0.07714844 -1.7831116q-0.4772339 -0.6815491 -1.7195435 -1.1512146l-1.5930786 -0.6022644l-1.5812988 4.1796265z" fill-rule="nonzero"/><path fill="#999999" d="m525.2492 290.40854l0.6358032 -1.680603l2.4261475 0.9172058l1.9628296 -5.1879883l-2.0023193 -0.756958l0.48657227 -1.2860413q0.6525879 0.12976074 1.1296997 0.1932373q0.4918213 0.06896973 0.8978882 0.05545044q0.41156006 -0.028137207 0.8251343 -0.105651855l1.5346069 0.5801697l-2.7589722 7.292389l2.0314941 0.7680359l-0.6358032 1.680603l-6.533081 -2.4698486z" fill-rule="nonzero"/><path fill="#000000" fill-opacity="0.0" d="m551.5197 347.97638l327.43304 122.58267" fill-rule="evenodd"/><path stroke="#999999" stroke-width="4.0" stroke-linejoin="round" stroke-linecap="butt" d="m551.5197 347.97638l304.95648 114.16803" fill-rule="evenodd"/><path fill="#999999" stroke="#999999" stroke-width="4.0" stroke-linecap="butt" d="m854.1598 468.33194l19.316528 0.17687988l-14.683594 -12.551941z" fill-rule="evenodd"/><path fill="#000000" fill-opacity="0.0" d="m455.16003 284.50354l162.45673 61.417328l-16.944885 44.787415l-162.4567 -61.417328z" fill-rule="evenodd"/><path fill="#999999" d="m516.0239 341.83374l5.2249756 -13.810242l4.896179 1.8510132q1.5053711 0.5690918 2.5636597 1.4369202q1.0582275 0.86779785 1.4185791 2.1231995q0.36029053 1.2554016 -0.27001953 2.9214172q-0.60821533 1.607544 -1.7461548 2.3633423q-1.123291 0.761322 -2.5445557 0.8086853q-1.4156494 0.03274536 -2.8771973 -0.5198059l-1.783081 -0.6741028l-1.7692871 4.676483l-3.1130981 -1.1769104zm5.8223267 -5.9839478l1.5930786 0.6022644q1.2861328 0.48623657 2.130249 0.15386963q0.8441162 -0.33233643 1.2477417 -1.3991699q0.41467285 -1.0960388 -0.07714844 -1.7831116q-0.4772339 -0.6815491 -1.7195435 -1.1512146l-1.5930786 -0.6022644l-1.5812988 4.1796265z" fill-rule="nonzero"/><path fill="#999999" d="m524.95685 354.29803l0.44787598 -1.1837463q1.7008667 -0.60980225 2.9971924 -1.1219788q1.3165283 -0.52124023 2.1191406 -1.0530396q0.8227539 -0.54086304 1.06604 -1.1838989q0.2487793 -0.6576233 -0.018676758 -1.1429443q-0.24731445 -0.49438477 -0.94885254 -0.75961304q-0.52612305 -0.19891357 -1.0842896 -0.0925293q-0.53796387 0.09729004 -1.0562134 0.31896973l-0.70513916 -1.5361023q0.97247314 -0.4508667 1.8359375 -0.5253296q0.88360596 -0.08355713 1.9212646 0.30874634q0.9354248 0.35360718 1.4987183 0.9841919q0.5834961 0.6214905 0.73480225 1.4136658q0.16595459 0.7977295 -0.16027832 1.6599731q-0.2874756 0.7599182 -1.0336304 1.3631897q-0.74609375 0.60324097 -1.8046875 1.105072q-1.0585327 0.5018616 -2.208374 0.935791q0.39660645 0.099823 0.8607178 0.24188232q0.46966553 0.1274414 0.80584717 0.2545166l2.13385 0.80670166l-0.6635132 1.7536926l-6.737732 -2.5472107z" fill-rule="nonzero"/><path fill="#000000" fill-opacity="0.0" d="m551.5197 411.97638l327.43304 122.5827" fill-rule="evenodd"/><path stroke="#999999" stroke-width="4.0" stroke-linejoin="round" stroke-linecap="butt" d="m551.5197 411.97638l304.95648 114.16803" fill-rule="evenodd"/><path fill="#999999" stroke="#999999" stroke-width="4.0" stroke-linecap="butt" d="m854.1598 532.332l19.316528 0.17687988l-14.683594 -12.551941z" fill-rule="evenodd"/><path fill="#000000" fill-opacity="0.0" d="m455.16003 348.50354l162.45673 61.417328l-16.944885 44.787415l-162.4567 -61.417328z" fill-rule="evenodd"/><path fill="#999999" d="m516.0239 405.83374l5.2249756 -13.810242l4.896179 1.8510132q1.5053711 0.5690918 2.5636597 1.4369202q1.0582275 0.86779785 1.4185791 2.1231995q0.36029053 1.2554016 -0.27001953 2.9214172q-0.60821533 1.607544 -1.7461548 2.3633423q-1.123291 0.761322 -2.5445557 0.8086853q-1.4156494 0.03274536 -2.8771973 -0.5198059l-1.783081 -0.6741028l-1.7692871 4.676483l-3.1130981 -1.1769104zm5.8223267 -5.9839478l1.5930786 0.6022644q1.2861328 0.48623657 2.130249 0.15386963q0.8441162 -0.33233643 1.2477417 -1.3991699q0.41467285 -1.0960388 -0.07714844 -1.7831116q-0.4772339 -0.6815491 -1.7195435 -1.1512146l-1.5930786 -0.6022644l-1.5812988 4.1796265z" fill-rule="nonzero"/><path fill="#999999" d="m528.0182 419.65582q-0.75994873 -0.28729248 -1.3220825 -0.70025635q-0.56762695 -0.39834595 -0.9595337 -0.8638916q-0.3918457 -0.46551514 -0.5842285 -0.9725647l1.4475708 -0.9561157q0.303833 0.56585693 0.774292 1.0444031q0.47601318 0.46392822 1.0752563 0.6904602q0.4822998 0.18234253 0.9065552 0.20910645q0.42974854 0.0121154785 0.73742676 -0.13882446q0.31323242 -0.16555786 0.44036865 -0.50167847q0.14929199 -0.39456177 0.011413574 -0.78079224q-0.12322998 -0.38067627 -0.6525879 -0.74783325q-0.5238037 -0.3817749 -1.5761108 -0.77960205l0.5584717 -1.4760132q0.8915405 0.33703613 1.458374 0.38427734q0.5869751 0.03817749 0.9203491 -0.13647461q0.35351562 -0.18374634 0.48620605 -0.53445435q0.18243408 -0.4822693 -0.07434082 -0.86331177q-0.2567749 -0.381073 -0.8852539 -0.61865234q-0.52612305 -0.19891357 -1.071228 -0.17114258q-0.5305176 0.033325195 -1.1273193 0.2420044l-0.57128906 -1.6692505q0.8623047 -0.29208374 1.7384033 -0.3116455q0.89068604 -0.0140686035 1.7530518 0.31195068q0.979187 0.37017822 1.6140137 0.9442749q0.63482666 0.57406616 0.83947754 1.2695007q0.21923828 0.70095825 -0.08483887 1.5047302q-0.2598877 0.68685913 -0.90093994 1.0124512q-0.64105225 0.32559204 -1.5610352 0.32858276l-0.022094727 0.058441162q0.5147095 0.3616333 0.85717773 0.82522583q0.3571167 0.4690857 0.43969727 1.0014343q0.097229004 0.5378723 -0.1239624 1.1224365q-0.3151245 0.8330078 -1.0332031 1.2297058q-0.7034912 0.40222168 -1.6234741 0.4052124q-0.9199219 0.0029907227 -1.8845825 -0.36169434z" fill-rule="nonzero"/><path fill="#000000" fill-opacity="0.0" d="m551.5197 475.97638l327.43304 122.5827" fill-rule="evenodd"/><path stroke="#3c78d8" stroke-width="4.0" stroke-linejoin="round" stroke-linecap="butt" d="m551.5197 475.97638l304.95648 114.16803" fill-rule="evenodd"/><path fill="#3c78d8" stroke="#3c78d8" stroke-width="4.0" stroke-linecap="butt" d="m854.1598 596.332l19.316528 0.17687988l-14.683594 -12.551941z" fill-rule="evenodd"/><path fill="#000000" fill-opacity="0.0" d="m455.16003 412.50354l162.45673 61.417328l-16.944885 44.787384l-162.4567 -61.417297z" fill-rule="evenodd"/><path fill="#3c78d8" d="m516.0239 469.83374l5.2249756 -13.810242l4.896179 1.8510132q1.5053711 0.5690918 2.5636597 1.4369202q1.0582275 0.86779785 1.4185791 2.1231995q0.36029053 1.2554016 -0.27001953 2.9214172q-0.60821533 1.607544 -1.7461548 2.3633423q-1.123291 0.761322 -2.5445557 0.8086853q-1.4156494 0.03274536 -2.8771973 -0.5198059l-1.783081 -0.6741028l-1.7692871 4.676483l-3.1130981 -1.1769104zm5.8223267 -5.9839478l1.5930786 0.6022644q1.2861328 0.48623657 2.130249 0.15386963q0.8441162 -0.33233643 1.2477417 -1.3991699q0.41467285 -1.0960388 -0.07714844 -1.7831116q-0.4772339 -0.6815491 -1.7195435 -1.1512146l-1.5930786 -0.6022644l-1.5812988 4.1796265z" fill-rule="nonzero"/><path fill="#3c78d8" d="m528.31055 483.76636q-1.0230713 -0.3867798 -1.607727 -1.2258911q-0.56451416 -0.84817505 -0.6104126 -2.0515442q-0.025756836 -1.2124329 0.5437012 -2.717682q0.8735962 -2.309021 2.260437 -3.10437q1.392273 -0.80996704 2.9415283 -0.22427368q1.5638428 0.59121704 2.0569458 2.1139526q0.5131836 1.5136719 -0.3604126 3.8226929q-0.56951904 1.505249 -1.4060669 2.391693q-0.81640625 0.87734985 -1.8011475 1.1398315q-0.9645386 0.25341797 -2.0168457 -0.14440918zm0.6137085 -1.6221619q0.45306396 0.17126465 0.9088745 0.0262146q0.47045898 -0.13952637 0.92944336 -0.7344055q0.47906494 -0.6039734 0.91589355 -1.7584839q0.44781494 -1.1837463 0.477417 -1.9242554q0.044189453 -0.73498535 -0.22723389 -1.1215515q-0.2512207 -0.39569092 -0.70428467 -0.56695557q-0.43847656 -0.16577148 -0.90338135 -0.040863037q-0.45941162 0.110321045 -0.9274292 0.6850586q-0.45343018 0.58029175 -0.9012451 1.7640076q-0.4368286 1.1545105 -0.49206543 1.9187317q-0.035095215 0.75512695 0.22521973 1.170929q0.26031494 0.415802 0.6987915 0.5815735zm0.7685547 -2.031372q-0.43847656 -0.16574097 -0.63482666 -0.57406616q-0.1963501 -0.4083252 -0.0138549805 -0.89056396q0.18798828 -0.4968872 0.60546875 -0.6731262q0.4175415 -0.17626953 0.85595703 -0.010498047q0.453125 0.17129517 0.64941406 0.57962036q0.1963501 0.40829468 0.008361816 0.9051819q-0.18243408 0.4822693 -0.5999756 0.6585083q-0.41748047 0.17623901 -0.87054443 0.0049438477z" fill-rule="nonzero"/><path fill="#000000" fill-opacity="0.0" d="m586.4173 579.9554l257.63782 0l0 49.543274l-257.63782 0z" fill-rule="evenodd"/><path fill="#999999" d="m629.54425 610.3441q-2.265625 -1.421875 -3.46875 -3.546875q-1.1875 -2.125 -1.1875 -4.734375q0 -2.59375 1.203125 -4.71875q1.203125 -2.140625 3.46875 -3.5625l1.03125 1.15625q-1.90625 1.328125 -2.90625 3.171875q-0.984375 1.828125 -0.984375 3.953125q0 2.125 0.984375 3.96875q1.0 1.828125 2.90625 3.15625l-1.046875 1.15625zm3.078186 -3.46875l0 -9.796875l1.921875 0l0 9.796875l-1.921875 0zm0.9375 -11.953125q-0.609375 0 -0.953125 -0.3125q-0.328125 -0.328125 -0.328125 -0.90625q0 -0.546875 0.34375 -0.875q0.34375 -0.34375 0.9375 -0.34375q0.609375 0 0.9375 0.328125q0.34375 0.3125 0.34375 0.890625q0 0.546875 -0.34375 0.890625q-0.34375 0.328125 -0.9375 0.328125zm7.2020264 12.140625q-1.234375 0 -2.21875 -0.421875q-0.984375 -0.4375 -1.640625 -1.28125l1.296875 -1.109375q0.5625 0.640625 1.21875 0.9375q0.671875 0.28125 1.515625 0.28125q0.328125 0 0.609375 -0.078125q0.296875 -0.078125 0.515625 -0.25q0.21875 -0.171875 0.328125 -0.40625q0.109375 -0.234375 0.109375 -0.515625q0 -0.484375 -0.359375 -0.78125q-0.1875 -0.125 -0.59375 -0.28125q-0.390625 -0.15625 -1.03125 -0.328125q-1.078125 -0.28125 -1.765625 -0.625q-0.6875 -0.359375 -1.0625 -0.8125q-0.28125 -0.359375 -0.421875 -0.765625q-0.125 -0.421875 -0.125 -0.9375q0 -0.609375 0.265625 -1.125q0.28125 -0.515625 0.75 -0.890625q0.484375 -0.390625 1.125 -0.59375q0.640625 -0.203125 1.375 -0.203125q0.6875 0 1.359375 0.1875q0.6875 0.1875 1.265625 0.546875q0.578125 0.34375 0.96875 0.828125l-1.09375 1.21875q-0.359375 -0.359375 -0.78125 -0.625q-0.421875 -0.265625 -0.859375 -0.40625q-0.421875 -0.15625 -0.765625 -0.15625q-0.390625 0 -0.71875 0.078125q-0.3125 0.0625 -0.53125 0.21875q-0.203125 0.140625 -0.328125 0.375q-0.109375 0.21875 -0.109375 0.5q0.015625 0.234375 0.125 0.453125q0.109375 0.21875 0.296875 0.359375q0.203125 0.15625 0.609375 0.328125q0.40625 0.15625 1.046875 0.3125q0.921875 0.234375 1.53125 0.53125q0.609375 0.28125 0.96875 0.65625q0.375 0.359375 0.515625 0.828125q0.15625 0.46875 0.15625 1.046875q0 0.828125 -0.484375 1.5q-0.46875 0.65625 -1.28125 1.03125q-0.796875 0.375 -1.78125 0.375zm14.660095 0q-1.203125 0 -2.203125 -0.671875q-1.0 -0.671875 -1.609375 -1.828125q-0.59375 -1.15625 -0.59375 -2.609375q0 -1.484375 0.609375 -2.625q0.609375 -1.140625 1.640625 -1.796875q1.046875 -0.65625 2.328125 -0.65625q0.765625 0 1.390625 0.234375q0.640625 0.21875 1.109375 0.625q0.484375 0.390625 0.78125 0.921875q0.3125 0.515625 0.390625 1.109375l-0.421875 -0.140625l0 -2.546875l1.9375 0l0 9.796875l-1.9375 0l0 -2.328125l0.4375 -0.140625q-0.109375 0.515625 -0.453125 1.0q-0.34375 0.46875 -0.875 0.84375q-0.53125 0.359375 -1.171875 0.59375q-0.640625 0.21875 -1.359375 0.21875zm0.5 -1.765625q0.890625 0 1.546875 -0.421875q0.671875 -0.4375 1.046875 -1.1875q0.390625 -0.765625 0.390625 -1.734375q0 -0.953125 -0.390625 -1.703125q-0.375 -0.75 -1.046875 -1.171875q-0.65625 -0.4375 -1.546875 -0.4375q-0.859375 0 -1.515625 0.4375q-0.65625 0.421875 -1.046875 1.171875q-0.375 0.75 -0.375 1.703125q0 0.96875 0.375 1.734375q0.390625 0.75 1.046875 1.1875q0.65625 0.421875 1.515625 0.421875zm12.767578 1.578125l0 -9.796875l1.9375 0l0 3.078125l-0.1875 -0.75q0.203125 -0.703125 0.703125 -1.28125q0.5 -0.578125 1.140625 -0.90625q0.640625 -0.34375 1.328125 -0.34375q0.3125 0 0.59375 0.0625q0.296875 0.046875 0.46875 0.125l-0.5 2.09375q-0.21875 -0.09375 -0.5 -0.15625q-0.265625 -0.078125 -0.53125 -0.078125q-0.5 0 -0.953125 0.203125q-0.453125 0.1875 -0.8125 0.546875q-0.34375 0.34375 -0.546875 0.796875q-0.203125 0.453125 -0.203125 1.0l0 5.40625l-1.9375 0zm11.670288 0.1875q-1.5 0 -2.671875 -0.640625q-1.15625 -0.640625 -1.828125 -1.765625q-0.65625 -1.125 -0.65625 -2.578125q0 -1.15625 0.375 -2.109375q0.375 -0.953125 1.03125 -1.640625q0.65625 -0.703125 1.578125 -1.078125q0.9375 -0.390625 2.015625 -0.390625q0.953125 0 1.765625 0.359375q0.828125 0.359375 1.421875 1.0q0.609375 0.640625 0.9375 1.515625q0.328125 0.859375 0.3125 1.875l-0.015625 0.828125l-8.0 0l-0.4375 -1.53125l6.765625 0l-0.265625 0.3125l0 -0.4375q-0.0625 -0.625 -0.421875 -1.109375q-0.34375 -0.484375 -0.890625 -0.765625q-0.546875 -0.28125 -1.171875 -0.28125q-1.015625 0 -1.703125 0.390625q-0.6875 0.375 -1.046875 1.125q-0.34375 0.734375 -0.34375 1.8125q0 1.015625 0.421875 1.78125q0.421875 0.75 1.203125 1.171875q0.796875 0.40625 1.8125 0.40625q0.734375 0 1.359375 -0.234375q0.625 -0.25 1.359375 -0.890625l0.96875 1.359375q-0.453125 0.453125 -1.09375 0.796875q-0.640625 0.328125 -1.359375 0.53125q-0.71875 0.1875 -1.421875 0.1875zm7.588806 -0.1875l0 -12.296875l1.921875 0l0 12.296875l-1.921875 0zm-2.046875 -7.921875l0 -1.875l6.234375 0l0 1.875l-6.234375 0zm7.9921265 7.921875l0 -9.796875l1.9375 0l0 3.078125l-0.1875 -0.75q0.203125 -0.703125 0.703125 -1.28125q0.5 -0.578125 1.140625 -0.90625q0.640625 -0.34375 1.328125 -0.34375q0.3125 0 0.59375 0.0625q0.296875 0.046875 0.46875 0.125l-0.5 2.09375q-0.21875 -0.09375 -0.5 -0.15625q-0.265625 -0.078125 -0.53125 -0.078125q-0.5 0 -0.953125 0.203125q-0.453125 0.1875 -0.8125 0.546875q-0.34375 0.34375 -0.546875 0.796875q-0.203125 0.453125 -0.203125 1.0l0 5.40625l-1.9375 0zm10.873413 0.1875q-1.203125 0 -2.203125 -0.671875q-1.0 -0.671875 -1.609375 -1.828125q-0.59375 -1.15625 -0.59375 -2.609375q0 -1.484375 0.609375 -2.625q0.609375 -1.140625 1.640625 -1.796875q1.046875 -0.65625 2.328125 -0.65625q0.765625 0 1.390625 0.234375q0.640625 0.21875 1.109375 0.625q0.484375 0.390625 0.78125 0.921875q0.3125 0.515625 0.390625 1.109375l-0.421875 -0.140625l0 -2.546875l1.9375 0l0 9.796875l-1.9375 0l0 -2.328125l0.4375 -0.140625q-0.109375 0.515625 -0.453125 1.0q-0.34375 0.46875 -0.875 0.84375q-0.53125 0.359375 -1.171875 0.59375q-0.640625 0.21875 -1.359375 0.21875zm0.5 -1.765625q0.890625 0 1.546875 -0.421875q0.671875 -0.4375 1.046875 -1.1875q0.390625 -0.765625 0.390625 -1.734375q0 -0.953125 -0.390625 -1.703125q-0.375 -0.75 -1.046875 -1.171875q-0.65625 -0.4375 -1.546875 -0.4375q-0.859375 0 -1.515625 0.4375q-0.65625 0.421875 -1.046875 1.171875q-0.375 0.75 -0.375 1.703125q0 0.96875 0.375 1.734375q0.390625 0.75 1.046875 1.1875q0.65625 0.421875 1.515625 0.421875zm7.5438232 1.578125l0 -9.796875l1.921875 0l0 2.015625l-0.34375 0.21875q0.1875 -0.640625 0.734375 -1.1875q0.546875 -0.5625 1.28125 -0.90625q0.75 -0.34375 1.53125 -0.34375q1.125 0 1.859375 0.4375q0.75 0.4375 1.125 1.34375q0.375 0.890625 0.375 2.25l0 5.96875l-1.921875 0l0 -5.84375q0 -0.828125 -0.21875 -1.375q-0.21875 -0.5625 -0.6875 -0.8125q-0.46875 -0.25 -1.15625 -0.21875q-0.5625 0 -1.03125 0.1875q-0.46875 0.171875 -0.8125 0.5q-0.34375 0.3125 -0.546875 0.734375q-0.1875 0.40625 -0.1875 0.890625l0 5.9375l-0.953125 0q-0.234375 0 -0.484375 0q-0.25 0 -0.484375 0zm14.366089 0.1875q-1.234375 0 -2.21875 -0.421875q-0.984375 -0.4375 -1.640625 -1.28125l1.296875 -1.109375q0.5625 0.640625 1.21875 0.9375q0.671875 0.28125 1.515625 0.28125q0.328125 0 0.609375 -0.078125q0.296875 -0.078125 0.515625 -0.25q0.21875 -0.171875 0.328125 -0.40625q0.109375 -0.234375 0.109375 -0.515625q0 -0.484375 -0.359375 -0.78125q-0.1875 -0.125 -0.59375 -0.28125q-0.390625 -0.15625 -1.03125 -0.328125q-1.078125 -0.28125 -1.765625 -0.625q-0.6875 -0.359375 -1.0625 -0.8125q-0.28125 -0.359375 -0.421875 -0.765625q-0.125 -0.421875 -0.125 -0.9375q0 -0.609375 0.265625 -1.125q0.28125 -0.515625 0.75 -0.890625q0.484375 -0.390625 1.125 -0.59375q0.640625 -0.203125 1.375 -0.203125q0.6875 0 1.359375 0.1875q0.6875 0.1875 1.265625 0.546875q0.578125 0.34375 0.96875 0.828125l-1.09375 1.21875q-0.359375 -0.359375 -0.78125 -0.625q-0.421875 -0.265625 -0.859375 -0.40625q-0.421875 -0.15625 -0.765625 -0.15625q-0.390625 0 -0.71875 0.078125q-0.3125 0.0625 -0.53125 0.21875q-0.203125 0.140625 -0.328125 0.375q-0.109375 0.21875 -0.109375 0.5q0.015625 0.234375 0.125 0.453125q0.109375 0.21875 0.296875 0.359375q0.203125 0.15625 0.609375 0.328125q0.40625 0.15625 1.046875 0.3125q0.921875 0.234375 1.53125 0.53125q0.609375 0.28125 0.96875 0.65625q0.375 0.359375 0.515625 0.828125q0.15625 0.46875 0.15625 1.046875q0 0.828125 -0.484375 1.5q-0.46875 0.65625 -1.28125 1.03125q-0.796875 0.375 -1.78125 0.375zm5.6394653 -0.1875l0 -9.796875l1.9375 0l0 2.09375l-0.359375 0.21875q0.15625 -0.484375 0.46875 -0.921875q0.328125 -0.453125 0.796875 -0.796875q0.484375 -0.34375 1.03125 -0.546875q0.5625 -0.21875 1.140625 -0.21875q0.828125 0 1.46875 0.28125q0.640625 0.28125 1.046875 0.84375q0.40625 0.5625 0.59375 1.40625l-0.296875 -0.078125l0.125 -0.3125q0.21875 -0.4375 0.578125 -0.8125q0.359375 -0.390625 0.828125 -0.6875q0.46875 -0.296875 0.984375 -0.46875q0.53125 -0.171875 1.03125 -0.171875q1.09375 0 1.8125 0.453125q0.71875 0.453125 1.078125 1.375q0.375 0.90625 0.375 2.265625l0 5.875l-1.9375 0l0 -5.765625q0 -0.84375 -0.21875 -1.375q-0.21875 -0.53125 -0.65625 -0.78125q-0.421875 -0.265625 -1.09375 -0.265625q-0.515625 0 -0.984375 0.1875q-0.453125 0.171875 -0.796875 0.484375q-0.328125 0.3125 -0.515625 0.734375q-0.171875 0.421875 -0.171875 0.921875l0 5.859375l-1.953125 0l0 -5.796875q0 -0.765625 -0.21875 -1.296875q-0.21875 -0.53125 -0.65625 -0.8125q-0.421875 -0.28125 -1.046875 -0.28125q-0.515625 0 -0.96875 0.1875q-0.4375 0.171875 -0.78125 0.484375q-0.328125 0.296875 -0.515625 0.71875q-0.1875 0.421875 -0.1875 0.90625l0 5.890625l-1.9375 0zm17.526123 0l0 -9.796875l1.921875 0l0 9.796875l-1.921875 0zm0.9375 -11.953125q-0.609375 0 -0.953125 -0.3125q-0.328125 -0.328125 -0.328125 -0.90625q0 -0.546875 0.34375 -0.875q0.34375 -0.34375 0.9375 -0.34375q0.609375 0 0.9375 0.328125q0.34375 0.3125 0.34375 0.890625q0 0.546875 -0.34375 0.890625q-0.34375 0.328125 -0.9375 0.328125zm7.2020874 12.140625q-1.234375 0 -2.21875 -0.421875q-0.984375 -0.4375 -1.640625 -1.28125l1.296875 -1.109375q0.5625 0.640625 1.21875 0.9375q0.671875 0.28125 1.515625 0.28125q0.328125 0 0.609375 -0.078125q0.296875 -0.078125 0.515625 -0.25q0.21875 -0.171875 0.328125 -0.40625q0.109375 -0.234375 0.109375 -0.515625q0 -0.484375 -0.359375 -0.78125q-0.1875 -0.125 -0.59375 -0.28125q-0.390625 -0.15625 -1.03125 -0.328125q-1.078125 -0.28125 -1.765625 -0.625q-0.6875 -0.359375 -1.0625 -0.8125q-0.28125 -0.359375 -0.421875 -0.765625q-0.125 -0.421875 -0.125 -0.9375q0 -0.609375 0.265625 -1.125q0.28125 -0.515625 0.75 -0.890625q0.484375 -0.390625 1.125 -0.59375q0.640625 -0.203125 1.375 -0.203125q0.6875 0 1.359375 0.1875q0.6875 0.1875 1.265625 0.546875q0.578125 0.34375 0.96875 0.828125l-1.09375 1.21875q-0.359375 -0.359375 -0.78125 -0.625q-0.421875 -0.265625 -0.859375 -0.40625q-0.421875 -0.15625 -0.765625 -0.15625q-0.390625 0 -0.71875 0.078125q-0.3125 0.0625 -0.53125 0.21875q-0.203125 0.140625 -0.328125 0.375q-0.109375 0.21875 -0.109375 0.5q0.015625 0.234375 0.125 0.453125q0.109375 0.21875 0.296875 0.359375q0.203125 0.15625 0.609375 0.328125q0.40625 0.15625 1.046875 0.3125q0.921875 0.234375 1.53125 0.53125q0.609375 0.28125 0.96875 0.65625q0.375 0.359375 0.515625 0.828125q0.15625 0.46875 0.15625 1.046875q0 0.828125 -0.484375 1.5q-0.46875 0.65625 -1.28125 1.03125q-0.796875 0.375 -1.78125 0.375zm8.93634 0q-1.234375 0 -2.21875 -0.421875q-0.984375 -0.4375 -1.640625 -1.28125l1.296875 -1.109375q0.5625 0.640625 1.21875 0.9375q0.671875 0.28125 1.515625 0.28125q0.328125 0 0.609375 -0.078125q0.296875 -0.078125 0.515625 -0.25q0.21875 -0.171875 0.328125 -0.40625q0.109375 -0.234375 0.109375 -0.515625q0 -0.484375 -0.359375 -0.78125q-0.1875 -0.125 -0.59375 -0.28125q-0.390625 -0.15625 -1.03125 -0.328125q-1.078125 -0.28125 -1.765625 -0.625q-0.6875 -0.359375 -1.0625 -0.8125q-0.28125 -0.359375 -0.421875 -0.765625q-0.125 -0.421875 -0.125 -0.9375q0 -0.609375 0.265625 -1.125q0.28125 -0.515625 0.75 -0.890625q0.484375 -0.390625 1.125 -0.59375q0.640625 -0.203125 1.375 -0.203125q0.6875 0 1.359375 0.1875q0.6875 0.1875 1.265625 0.546875q0.578125 0.34375 0.96875 0.828125l-1.09375 1.21875q-0.359375 -0.359375 -0.78125 -0.625q-0.421875 -0.265625 -0.859375 -0.40625q-0.421875 -0.15625 -0.765625 -0.15625q-0.390625 0 -0.71875 0.078125q-0.3125 0.0625 -0.53125 0.21875q-0.203125 0.140625 -0.328125 0.375q-0.109375 0.21875 -0.109375 0.5q0.015625 0.234375 0.125 0.453125q0.109375 0.21875 0.296875 0.359375q0.203125 0.15625 0.609375 0.328125q0.40625 0.15625 1.046875 0.3125q0.921875 0.234375 1.53125 0.53125q0.609375 0.28125 0.96875 0.65625q0.375 0.359375 0.515625 0.828125q0.15625 0.46875 0.15625 1.046875q0 0.828125 -0.484375 1.5q-0.46875 0.65625 -1.28125 1.03125q-0.796875 0.375 -1.78125 0.375zm5.9832153 -0.1875l0 -9.796875l1.921875 0l0 9.796875l-1.921875 0zm0.9375 -11.953125q-0.609375 0 -0.953125 -0.3125q-0.328125 -0.328125 -0.328125 -0.90625q0 -0.546875 0.34375 -0.875q0.34375 -0.34375 0.9375 -0.34375q0.609375 0 0.9375 0.328125q0.34375 0.3125 0.34375 0.890625q0 0.546875 -0.34375 0.890625q-0.34375 0.328125 -0.9375 0.328125zm8.342651 12.140625q-1.4375 0 -2.578125 -0.65625q-1.125 -0.671875 -1.78125 -1.8125q-0.640625 -1.15625 -0.640625 -2.625q0 -1.46875 0.640625 -2.609375q0.65625 -1.15625 1.78125 -1.8125q1.140625 -0.671875 2.578125 -0.671875q1.40625 0 2.53125 0.671875q1.140625 0.65625 1.796875 1.8125q0.65625 1.140625 0.65625 2.609375q0 1.46875 -0.65625 2.625q-0.65625 1.140625 -1.796875 1.8125q-1.125 0.65625 -2.53125 0.65625zm0 -1.75q0.875 0 1.5625 -0.4375q0.6875 -0.4375 1.078125 -1.1875q0.390625 -0.765625 0.375 -1.71875q0.015625 -0.96875 -0.375 -1.71875q-0.390625 -0.765625 -1.078125 -1.1875q-0.6875 -0.4375 -1.5625 -0.4375q-0.875 0 -1.578125 0.4375q-0.703125 0.4375 -1.09375 1.203125q-0.390625 0.75 -0.375 1.703125q-0.015625 0.953125 0.375 1.71875q0.390625 0.75 1.09375 1.1875q0.703125 0.4375 1.578125 0.4375zm7.067383 1.5625l0 -9.796875l1.921875 0l0 2.015625l-0.34375 0.21875q0.1875 -0.640625 0.734375 -1.1875q0.546875 -0.5625 1.28125 -0.90625q0.75 -0.34375 1.53125 -0.34375q1.125 0 1.859375 0.4375q0.75 0.4375 1.125 1.34375q0.375 0.890625 0.375 2.25l0 5.96875l-1.921875 0l0 -5.84375q0 -0.828125 -0.21875 -1.375q-0.21875 -0.5625 -0.6875 -0.8125q-0.46875 -0.25 -1.15625 -0.21875q-0.5625 0 -1.03125 0.1875q-0.46875 0.171875 -0.8125 0.5q-0.34375 0.3125 -0.546875 0.734375q-0.1875 0.40625 -0.1875 0.890625l0 5.9375l-0.953125 0q-0.234375 0 -0.484375 0q-0.25 0 -0.484375 0zm11.162964 3.46875l-1.03125 -1.15625q1.90625 -1.328125 2.890625 -3.15625q1.0 -1.84375 1.0 -3.96875q0 -2.125 -1.0 -3.953125q-0.984375 -1.84375 -2.890625 -3.171875l1.046875 -1.15625q2.265625 1.421875 3.453125 3.546875q1.203125 2.125 1.203125 4.734375q0 2.59375 -1.203125 4.734375q-1.203125 2.125 -3.46875 3.546875z" fill-rule="nonzero"/><path fill="#000000" fill-opacity="0.0" d="m873.9526 339.40683l-192.78741 72.188965" fill-rule="evenodd"/><path stroke="#cc0000" stroke-width="4.0" stroke-linejoin="round" stroke-linecap="butt" d="m873.9526 339.40683l-170.3114 63.77289" fill-rule="evenodd"/><path fill="#cc0000" stroke="#cc0000" stroke-width="4.0" stroke-linecap="butt" d="m701.3243 396.9923l-14.6828 12.5529175l19.316528 -0.1781311z" fill-rule="evenodd"/><path fill="#000000" fill-opacity="0.0" d="m817.4593 330.4491l163.93701 -57.385803l15.811035 45.19684l-163.93701 57.385834z" fill-rule="evenodd"/><path fill="#cc0000" d="m886.6957 340.22427l-0.53985596 -15.45517l3.7753906 -1.3215637l9.211426 12.419708l-3.3329468 1.166687l-4.265442 -6.4200134q-0.62213135 -0.9741516 -1.3394775 -2.0308838q-0.70770264 -1.0766296 -1.34021 -2.0802612l-0.08843994 0.030975342q0.11633301 1.1842957 0.24884033 2.4622803q0.14215088 1.2580566 0.23345947 2.4180298l0.6522217 7.6848145l-3.2149658 1.1253967zm1.7001953 -4.3199463l-0.85650635 -2.4482727l6.680664 -2.3385315l0.8564453 2.4482727l-6.680603 2.3385315zm18.635925 -2.5172424q-1.2977905 0.45428467 -2.6176147 0.41964722q-1.3198853 -0.03463745 -2.5393677 -0.63412476q-1.2194824 -0.5995178 -2.2000122 -1.7462158q-0.98565674 -1.161438 -1.5996094 -2.916504q-0.8048706 -2.3007812 -0.49273682 -4.2476196q0.3269043 -1.9519958 1.5267334 -3.3487244q1.1998901 -1.3967285 3.0580444 -2.0471802q1.3273315 -0.46463013 2.580017 -0.2906189q1.267456 0.16885376 2.2178345 0.6142578l-1.0443726 2.5508118q-0.66656494 -0.29644775 -1.3493042 -0.35543823q-0.68792725 -0.07373047 -1.454834 0.19473267q-0.97332764 0.34069824 -1.5640259 1.1600037q-0.57598877 0.81414795 -0.67718506 1.9918213q-0.091552734 1.1577759 0.39343262 2.544159q0.50042725 1.430603 1.2988892 2.293396q0.8131714 0.857605 1.7952881 1.1098022q0.9968262 0.24700928 2.0439453 -0.119506836q0.7668457 -0.26846313 1.2675781 -0.8244934q0.5007324 -0.5560303 0.8208618 -1.2971497l2.3909912 1.2985535q-0.5045166 1.3023376 -1.4690552 2.2359314q-0.96972656 0.9188843 -2.385498 1.4144592zm6.5928955 -2.589264l-4.8756714 -13.937408l3.1854858 -1.1150818l1.9967041 5.7077026l0.05895996 -0.020629883l2.1326294 -7.1531677l3.4804077 -1.2183228l-4.1242065 12.816711l1.3311768 3.8051147l-3.1854858 1.1150818zm7.757202 -2.715393l-5.5094604 -5.338928l0.99658203 -3.1134644l7.993347 7.23407l-3.4804688 1.2183228z" fill-rule="nonzero"/><path fill="#cc0000" d="m928.9226 334.44855l-0.5933838 -1.6960754l2.44812 -0.8569641l-1.831604 -5.2357483l-2.0203857 0.7072449l-0.45404053 -1.2978821q0.58325195 -0.32006836 0.989563 -0.5781555q0.42108154 -0.26327515 0.7234497 -0.53466797q0.29718018 -0.2861328 0.56414795 -0.6113281l1.5484619 -0.5420532l2.574585 7.3595276l2.0498657 -0.7175598l0.5933838 1.6960754l-6.592163 2.3075867z" fill-rule="nonzero"/><path fill="#cc0000" d="m643.811 422.9212l0 0c0 -10.967438 9.03186 -19.858276 20.173218 -19.858276l0 0c5.350281 0 10.481445 2.0921936 14.264648 5.816345c3.7832031 3.7241516 5.9086304 8.775177 5.9086304 14.041931l0 0c0 10.967407 -9.03186 19.858246 -20.173279 19.858246l0 0c-11.141357 0 -20.173218 -8.890839 -20.173218 -19.858246zm31.341797 5.9501953c2.7020264 -4.823761 1.8288574 -10.806244 -2.145935 -14.703217c-3.9747925 -3.8969421 -10.10437 -4.7800293 -15.064758 -2.1703796zm-22.337097 -11.900421c-2.7020264 4.8237915 -1.8288574 10.806274 2.145935 14.703217c3.9747925 3.8969421 10.10437 4.7800293 15.064758 2.1703796z" fill-rule="evenodd"/></g></svg>