<svg version="1.1" viewBox="0.0 0.0 1084.0577427821522 704.3490813648294" fill="none" stroke="none" stroke-linecap="square" stroke-miterlimit="10" xmlns:xlink="http://www.w3.org/1999/xlink" xmlns="http://www.w3.org/2000/svg"><clipPath id="p.0"><path d="m0 0l1084.0577 0l0 704.34906l-1084.0577 0l0 -704.34906z" clip-rule="nonzero"/></clipPath><g clip-path="url(#p.0)"><path fill="#000000" fill-opacity="0.0" d="m0 0l1084.0577 0l0 704.34906l-1084.0577 0z" fill-rule="evenodd"/><path fill="#000000" fill-opacity="0.0" d="m327.5521 150.1044l0 0c-2.9999695 -18.46997 6.849518 -36.754135 25.368958 -47.093826c18.51941 -10.339699 42.460876 -10.92157 61.66513 -1.4987183l0 0c6.8027344 -10.739212 19.253723 -18.153893 33.586792 -20.001251c14.333069 -1.8473587 28.864716 2.0895844 39.199432 10.61998l0 0c5.795044 -9.736855 17.173737 -16.278786 30.098297 -17.30436c12.924622 -1.0255737 25.565918 3.610344 33.43817 12.262688l0 0c10.4696045 -10.321045 27.127014 -14.666634 42.764526 -11.15641c15.637451 3.510231 27.44629 14.245811 30.316833 27.561394l0 0c12.827087 2.931221 23.511719 10.382767 29.293457 20.429413c5.7816772 10.046646 6.0932617 21.70282 0.854187 31.95694l0 0c12.63092 13.772415 15.585571 32.123993 7.7614136 48.206253c-7.8241577 16.08226 -25.251709 27.47902 -45.77893 29.93721c-0.14471436 15.0937805 -10.025452 28.943634 -25.833801 36.211243c-15.808289 7.267639 -35.075745 6.818115 -50.37567 -1.1752319l0 0c-6.516968 18.077393 -24.860107 31.37857 -47.10443 34.15695c-22.244354 2.7783508 -44.40219 -5.464203 -56.900513 -21.166565l0 0c-15.320343 7.739746 -33.70346 9.96933 -51.002533 6.185791c-17.299042 -3.7835388 -32.056854 -13.261505 -40.944336 -26.295807l0 0c-15.655457 1.5348206 -30.792114 -5.2605286 -37.897736 -17.01355c-7.105591 -11.753021 -4.667511 -25.961761 6.104248 -35.574493l0 0c-13.965088 -6.886093 -21.090912 -20.5504 -17.661652 -33.867523c3.4292603 -13.317108 16.636536 -23.269318 32.73474 -24.666946z" fill-rule="evenodd"/><path fill="#000000" fill-opacity="0.0" d="m312.16953 209.35074l0 0c6.5901794 3.2495728 14.203339 4.723648 21.817352 4.2243195m9.972717 48.364883c3.2743225 -0.3210144 6.483734 -1.0007629 9.545563 -2.021759m82.39673 22.13095c-2.3029175 -2.8933105 -4.2310486 -5.9850464 -5.7515564 -9.222565m109.7605 -3.7683716l0 0c1.1881104 -3.2957764 1.9579468 -6.687866 2.2965698 -10.119629m73.90997 -24.915115c0.15405273 -16.069641 -10.7404785 -30.783188 -28.003967 -37.82071m66.02118 -40.32106c-2.7957764 5.4720306 -7.063843 10.326172 -12.469543 14.1818695m-17.675476 -66.56966l0 0c0.47631836 2.2097244 0.6968384 4.4526596 0.6583252 6.6977234m-73.738464 -23.102036l0 0c-2.6116333 2.574585 -4.7633057 5.45166 -6.3880005 8.541626m-57.14908 -3.5010757l0 0c-1.3917847 2.338478 -2.4310913 4.8129883 -3.093933 7.3665314m-69.69336 2.0149307l0 0c4.063629 1.9938736 7.822998 4.3937073 11.195587 7.1467896m-98.228546 41.446014l0 0c0.41348267 2.545639 1.0667725 5.059906 1.9538269 7.5192413" fill-rule="evenodd"/><path stroke="#3c78d8" stroke-width="8.0" stroke-linejoin="round" stroke-linecap="butt" d="m327.5521 150.1044l0 0c-2.9999695 -18.46997 6.849518 -36.754135 25.368958 -47.093826c18.51941 -10.339699 42.460876 -10.92157 61.66513 -1.4987183l0 0c6.8027344 -10.739212 19.253723 -18.153893 33.586792 -20.001251c14.333069 -1.8473587 28.864716 2.0895844 39.199432 10.61998l0 0c5.795044 -9.736855 17.173737 -16.278786 30.098297 -17.30436c12.924622 -1.0255737 25.565918 3.610344 33.43817 12.262688l0 0c10.4696045 -10.321045 27.127014 -14.666634 42.764526 -11.15641c15.637451 3.510231 27.44629 14.245811 30.316833 27.561394l0 0c12.827087 2.931221 23.511719 10.382767 29.293457 20.429413c5.7816772 10.046646 6.0932617 21.70282 0.854187 31.95694l0 0c12.63092 13.772415 15.585571 32.123993 7.7614136 48.206253c-7.8241577 16.08226 -25.251709 27.47902 -45.77893 29.93721c-0.14471436 15.0937805 -10.025452 28.943634 -25.833801 36.211243c-15.808289 7.267639 -35.075745 6.818115 -50.37567 -1.1752319l0 0c-6.516968 18.077393 -24.860107 31.37857 -47.10443 34.15695c-22.244354 2.7783508 -44.40219 -5.464203 -56.900513 -21.166565l0 0c-15.320343 7.739746 -33.70346 9.96933 -51.002533 6.185791c-17.299042 -3.7835388 -32.056854 -13.261505 -40.944336 -26.295807l0 0c-15.655457 1.5348206 -30.792114 -5.2605286 -37.897736 -17.01355c-7.105591 -11.753021 -4.667511 -25.961761 6.104248 -35.574493l0 0c-13.965088 -6.886093 -21.090912 -20.5504 -17.661652 -33.867523c3.4292603 -13.317108 16.636536 -23.269318 32.73474 -24.666946z" fill-rule="evenodd"/><path stroke="#3c78d8" stroke-width="8.0" stroke-linejoin="round" stroke-linecap="butt" d="m312.16953 209.35074l0 0c6.5901794 3.2495728 14.203339 4.723648 21.817352 4.2243195m9.972717 48.364883c3.2743225 -0.3210144 6.483734 -1.0007629 9.545563 -2.021759m82.39673 22.13095c-2.3029175 -2.8933105 -4.2310486 -5.9850464 -5.7515564 -9.222565m109.7605 -3.7683716l0 0c1.1881104 -3.2957764 1.9579468 -6.687866 2.2965698 -10.119629m73.90997 -24.915115c0.15405273 -16.069641 -10.7404785 -30.783188 -28.003967 -37.82071m66.02118 -40.32106c-2.7957764 5.4720306 -7.063843 10.326172 -12.469543 14.1818695m-17.675476 -66.56966l0 0c0.47631836 2.2097244 0.6968384 4.4526596 0.6583252 6.6977234m-73.738464 -23.102036l0 0c-2.6116333 2.574585 -4.7633057 5.45166 -6.3880005 8.541626m-57.14908 -3.5010757l0 0c-1.3917847 2.338478 -2.4310913 4.8129883 -3.093933 7.3665314m-69.69336 2.0149307l0 0c4.063629 1.9938736 7.822998 4.3937073 11.195587 7.1467896m-98.228546 41.446014l0 0c0.41348267 2.545639 1.0667725 5.059906 1.9538269 7.5192413" fill-rule="evenodd"/><path fill="#000000" fill-opacity="0.0" d="m424.8924 297.6404l116.8819 0l0 58.4252l-116.8819 0z" fill-rule="evenodd"/><path fill="#3c78d8" d="m455.74265 337.89304l6.015625 -19.921875l6.375 0l6.0 19.921875l-5.578125 0l-2.234375 -9.6875q-0.3125 -1.4375 -0.71875 -3.125q-0.390625 -1.6875 -0.71875 -3.1875l-0.125 0q-0.3125 1.5 -0.6875 3.1875q-0.359375 1.6875 -0.6875 3.125l-2.25 9.6875l-5.390625 0zm4.328125 -4.234375l0 -4.078125l9.6875 0l0 4.078125l-9.6875 0zm23.143799 4.609375q-1.96875 0 -4.015625 -0.703125q-2.03125 -0.71875 -3.71875 -2.15625l3.015625 -3.609375q1.125 0.84375 2.421875 1.390625q1.3125 0.53125 2.65625 0.53125q1.203125 0 1.703125 -0.328125q0.515625 -0.34375 0.515625 -0.828125q0 -0.59375 -0.34375 -0.921875q-0.34375 -0.34375 -0.984375 -0.609375q-0.640625 -0.28125 -1.5625 -0.65625l-2.484375 -1.03125q-1.125 -0.4375 -2.09375 -1.1875q-0.96875 -0.75 -1.546875 -1.828125q-0.5625 -1.09375 -0.5625 -2.546875q0 -1.703125 0.953125 -3.09375q0.953125 -1.40625 2.671875 -2.25q1.71875 -0.84375 3.984375 -0.84375q1.78125 0 3.5625 0.671875q1.796875 0.65625 3.25 2.0l-2.640625 3.3125q-1.078125 -0.703125 -2.0625 -1.0625q-0.96875 -0.375 -2.421875 -0.375q-0.859375 0 -1.40625 0.328125q-0.546875 0.3125 -0.546875 1.015625q0 0.453125 0.359375 0.765625q0.375 0.3125 1.078125 0.59375q0.703125 0.265625 1.6875 0.625l2.296875 0.953125q1.34375 0.5 2.28125 1.25q0.9375 0.75 1.421875 1.796875q0.5 1.03125 0.5 2.40625q0 1.6875 -0.921875 3.15625q-0.921875 1.453125 -2.703125 2.34375q-1.765625 0.890625 -4.34375 0.890625zm19.425049 -0.375l0 -10.546875q0 -0.984375 0.078125 -2.296875q0.078125 -1.3125 0.109375 -2.296875l-0.125 0q-0.484375 0.859375 -1.078125 1.734375q-0.578125 0.875 -1.09375 1.75l-2.015625 3.3125l11.28125 0l0 3.984375l-16.25 0l0 -3.671875l7.5 -11.40625l6.5 0l0 19.4375l-4.90625 0z" fill-rule="nonzero"/><path fill="#3c78d8" d="m356.8924 165.76926l0 0c0 -6.2564545 5.0718384 -11.328308 11.328308 -11.328308l45.343384 0l0 0c3.0044556 0 5.8858337 1.193512 8.010315 3.317978c2.1244812 2.1244812 3.3179932 5.0058746 3.3179932 8.01033l0 45.311874c0 6.2564545 -5.071869 11.328323 -11.328308 11.328323l-45.343384 0c-6.2564697 0 -11.328308 -5.071869 -11.328308 -11.328323z" fill-rule="evenodd"/><path fill="#ffffff" d="m382.60797 199.36519l0 -10.546875q0 -0.984375 0.078125 -2.296875q0.078125 -1.3125 0.109375 -2.296875l-0.125 0q-0.484375 0.859375 -1.078125 1.734375q-0.578125 0.875 -1.09375 1.75l-2.015625 3.3125l11.28125 0l0 3.984375l-16.25 0l0 -3.671875l7.5 -11.40625l6.5 0l0 19.4375l-4.90625 0zm18.768799 0.375q-2.421875 0 -4.375 -0.953125q-1.9375 -0.953125 -3.078125 -2.75q-1.125 -1.796875 -1.125 -4.34375q0 -2.53125 1.25 -4.328125q1.265625 -1.796875 3.3125 -2.75q2.046875 -0.953125 4.421875 -0.953125q1.796875 0 3.3125 0.5625q1.53125 0.546875 2.46875 1.46875l-2.390625 3.25q-0.859375 -0.578125 -1.609375 -0.8125q-0.75 -0.234375 -1.484375 -0.234375q-1.125 0 -2.015625 0.46875q-0.890625 0.453125 -1.390625 1.3125q-0.484375 0.859375 -0.484375 2.015625q0 1.171875 0.46875 2.03125q0.484375 0.859375 1.328125 1.328125q0.84375 0.453125 1.90625 0.453125q1.140625 0 2.078125 -0.390625q0.9375 -0.40625 1.703125 -0.90625l2.078125 3.3125q-1.40625 1.171875 -3.125 1.703125q-1.71875 0.515625 -3.25 0.515625z" fill-rule="nonzero"/><path fill="#3c78d8" d="m449.33334 125.71938l0 0c0 -6.256447 5.0718384 -11.328308 11.328308 -11.328308l45.343384 0l0 0c3.0044556 0 5.8858337 1.1935196 8.010284 3.3179855c2.1245117 2.1244736 3.3179932 5.0058746 3.3179932 8.010323l0 45.311882c0 6.2564545 -5.0718384 11.328308 -11.328278 11.328308l-45.343384 0c-6.2564697 0 -11.328308 -5.0718536 -11.328308 -11.328308z" fill-rule="evenodd"/><path fill="#ffffff" d="m475.04892 159.31532l0 -10.546875q0 -0.984375 0.078125 -2.296875q0.078125 -1.3125 0.109375 -2.296875l-0.125 0q-0.484375 0.859375 -1.078125 1.734375q-0.578125 0.875 -1.09375 1.75l-2.015625 3.3125l11.28125 0l0 3.984375l-16.25 0l0 -3.671875l7.5 -11.40625l6.5 0l0 19.4375l-4.90625 0zm18.862549 0.375q-1.046875 0 -2.0625 -0.5q-1.0 -0.515625 -1.890625 -1.53125l-0.125 0l-0.4375 1.65625l-4.09375 0l0 -21.34375l5.265625 0l0 4.96875l-0.1875 2.21875l0.125 0q0.796875 -0.75 1.796875 -1.140625q1.0 -0.40625 2.03125 -0.40625q1.875 0 3.234375 0.96875q1.375 0.96875 2.125 2.703125q0.75 1.734375 0.75 4.09375q0 2.640625 -0.9375 4.515625q-0.9375 1.859375 -2.421875 2.828125q-1.484375 0.96875 -3.171875 0.96875zm-1.265625 -4.296875q0.65625 0 1.1875 -0.359375q0.53125 -0.375 0.859375 -1.234375q0.34375 -0.859375 0.34375 -2.328125q0 -1.265625 -0.265625 -2.046875q-0.25 -0.78125 -0.75 -1.140625q-0.484375 -0.375 -1.25 -0.375q-0.609375 0 -1.140625 0.25q-0.515625 0.25 -1.0625 0.859375l0 5.640625q0.484375 0.390625 1.015625 0.5625q0.546875 0.171875 1.0625 0.171875z" fill-rule="nonzero"/><path fill="#3c78d8" d="m533.1916 165.76926l0 0c0 -6.2564545 5.0718994 -11.328308 11.328308 -11.328308l45.343384 0l0 0c3.0044556 0 5.8858643 1.193512 8.010315 3.317978c2.1245117 2.1244812 3.3179932 5.0058746 3.3179932 8.01033l0 45.311874c0 6.2564545 -5.0718384 11.328323 -11.328308 11.328323l-45.343384 0c-6.2564087 0 -11.328308 -5.071869 -11.328308 -11.328323z" fill-rule="evenodd"/><path fill="#ffffff" d="m558.90717 199.36519l0 -10.546875q0 -0.984375 0.078125 -2.296875q0.078125 -1.3125 0.109375 -2.296875l-0.125 0q-0.484375 0.859375 -1.078125 1.734375q-0.578125 0.875 -1.09375 1.75l-2.015625 3.3125l11.28125 0l0 3.984375l-16.25 0l0 -3.671875l7.5 -11.40625l6.5 0l0 19.4375l-4.90625 0zm14.909424 0.375q-1.59375 0 -2.703125 -0.65625q-1.09375 -0.671875 -1.6875 -1.734375q-0.578125 -1.078125 -0.578125 -2.34375q0 -2.5625 2.21875 -3.921875q2.21875 -1.375 7.46875 -1.65625q-0.09375 -0.546875 -0.46875 -0.890625q-0.359375 -0.359375 -0.984375 -0.53125q-0.625 -0.171875 -1.484375 -0.171875q-0.65625 0 -1.328125 0.140625q-0.671875 0.140625 -1.421875 0.4375q-0.75 0.28125 -1.671875 0.71875l-1.84375 -3.4375q1.171875 -0.640625 2.359375 -1.09375q1.203125 -0.46875 2.421875 -0.703125q1.234375 -0.234375 2.515625 -0.234375q2.1875 0 3.796875 0.765625q1.609375 0.75 2.484375 2.328125q0.890625 1.578125 0.890625 4.09375l0 8.515625l-4.28125 0l-0.375 -1.59375l-0.125 0q-1.125 0.828125 -2.453125 1.40625q-1.3125 0.5625 -2.75 0.5625zm1.71875 -4.046875q0.921875 0 1.65625 -0.359375q0.734375 -0.359375 1.34375 -0.8125l0 -1.96875q-1.875 0.0625 -2.890625 0.34375q-1.0 0.28125 -1.390625 0.734375q-0.375 0.4375 -0.375 0.953125q0 0.34375 0.171875 0.609375q0.1875 0.25 0.546875 0.375q0.375 0.125 0.9375 0.125z" fill-rule="nonzero"/><path fill="#3c78d8" d="m458.90814 240.29396l0 0c0 -16.133667 13.078918 -29.2126 29.212585 -29.2126l0 0c7.7476807 0 15.178009 3.0777588 20.656433 8.556183c5.4784546 5.478424 8.556152 12.908752 8.556152 20.656418l0 0c0 16.133682 -13.078918 29.2126 -29.212585 29.2126l0 0c-16.133667 0 -29.212585 -13.078918 -29.212585 -29.2126z" fill-rule="evenodd"/><path fill="#ffffff" d="m477.54242 254.69395l6.6875 -10.40625l-6.28125 -9.59375l7.359375 0l1.640625 2.796875q0.4375 0.84375 0.96875 1.734375q0.546875 0.875 0.984375 1.703125l0.15625 0q0.328125 -0.828125 0.71875 -1.703125q0.40625 -0.890625 0.734375 -1.734375l1.3125 -2.796875l7.15625 0l-6.3125 10.40625l6.671875 9.59375l-7.359375 0l-1.828125 -2.796875q-0.53125 -0.84375 -1.09375 -1.71875q-0.546875 -0.890625 -1.078125 -1.71875l-0.15625 0q-0.40625 0.828125 -0.828125 1.6875q-0.40625 0.859375 -0.8125 1.75l-1.484375 2.796875l-7.15625 0z" fill-rule="nonzero"/><path fill="#000000" fill-opacity="0.0" d="m424.8924 188.4252l24.440948 -40.063004" fill-rule="evenodd"/><path stroke="#999999" stroke-width="4.0" stroke-linejoin="round" stroke-linecap="butt" d="m424.8924 188.4252l24.440948 -40.063004" fill-rule="evenodd"/><path fill="#000000" fill-opacity="0.0" d="m533.1916 188.4252l-15.874023 -40.063004" fill-rule="evenodd"/><path stroke="#999999" stroke-width="4.0" stroke-linejoin="round" stroke-linecap="butt" d="m533.1916 188.4252l-15.874023 -40.063004" fill-rule="evenodd"/><path fill="#000000" fill-opacity="0.0" d="m567.1916 222.40945l-49.858276 17.889755" fill-rule="evenodd"/><path stroke="#999999" stroke-width="4.0" stroke-linejoin="round" stroke-linecap="butt" d="m567.1916 222.40945l-49.858276 17.889755" fill-rule="evenodd"/><path fill="#000000" fill-opacity="0.0" d="m55.5521 366.1044l0 0c-2.9999657 -18.46997 6.849514 -36.75412 25.368935 -47.09384c18.519424 -10.339691 42.46089 -10.92157 61.665146 -1.4986877l0 0c6.8027344 -10.739227 19.253723 -18.1539 33.586792 -20.001282c14.333054 -1.8473511 28.864716 2.0895996 39.199432 10.619995l0 0c5.795059 -9.736847 17.173737 -16.278778 30.098328 -17.304352c12.924561 -1.0255737 25.565887 3.610321 33.43814 12.262695l0 0c10.4696045 -10.321075 27.127045 -14.6666565 42.764496 -11.156433c15.637482 3.510254 27.44635 14.245819 30.316864 27.561401l0 0c12.827057 2.9312134 23.511719 10.382782 29.293427 20.429413c5.781708 10.046631 6.093292 21.70282 0.8542175 31.95694l0 0c12.63089 13.77243 15.585602 32.123993 7.7614136 48.20627c-7.8241577 16.082245 -25.251709 27.479004 -45.77893 29.937195c-0.14468384 15.0937805 -10.025452 28.943634 -25.83377 36.211243c-15.80835 7.267639 -35.075745 6.818115 -50.3757 -1.1752319l0 0c-6.5169983 18.077393 -24.860092 31.37857 -47.10443 34.15695c-22.244354 2.7783203 -44.40219 -5.4641724 -56.900513 -21.166565l0 0c-15.320343 7.739746 -33.70346 9.96933 -51.002525 6.185791c-17.299065 -3.7835388 -32.05686 -13.261505 -40.944344 -26.295807l0 0c-15.65546 1.5348206 -30.79213 -5.2605286 -37.897728 -17.01355c-7.1055984 -11.753021 -4.6675205 -25.961761 6.104229 -35.574493l0 0c-13.965076 -6.8861084 -21.0909 -20.550415 -17.661634 -33.867523c3.429268 -13.317108 16.636538 -23.269318 32.73474 -24.666962z" fill-rule="evenodd"/><path fill="#000000" fill-opacity="0.0" d="m40.16953 425.35074l0 0c6.590164 3.2495728 14.203346 4.7236633 21.817352 4.2243347m9.972721 48.36487c3.2742996 -0.3210144 6.4837418 -1.0007629 9.5455475 -2.021759m82.396736 22.13095c-2.3029327 -2.8933105 -4.231064 -5.9850464 -5.751541 -9.222565m109.76045 -3.7683716l0 0c1.1881409 -3.2957764 1.9579468 -6.687866 2.2966003 -10.119629m73.91 -24.9151c0.15402222 -16.069672 -10.7404785 -30.783203 -28.004028 -37.82071m66.02118 -40.321075c-2.7957764 5.4720154 -7.063843 10.326172 -12.469543 14.181854m-17.675476 -66.56964l0 0c0.4763794 2.2097168 0.6968384 4.452667 0.6583557 6.6977234m-73.738464 -23.10205l0 0c-2.6116638 2.5746155 -4.7633057 5.45166 -6.38797 8.541626m-57.14911 -3.501068l0 0c-1.3917847 2.3384705 -2.431076 4.8129883 -3.093933 7.3665466m-69.69336 2.014923l0 0c4.063614 1.993866 7.822998 4.3937073 11.195587 7.1467896m-98.22854 41.446014l0 0c0.41347122 2.5456543 1.0667801 5.059906 1.9538078 7.5192566" fill-rule="evenodd"/><path stroke="#3c78d8" stroke-width="8.0" stroke-linejoin="round" stroke-linecap="butt" d="m55.5521 366.1044l0 0c-2.9999657 -18.46997 6.849514 -36.75412 25.368935 -47.09384c18.519424 -10.339691 42.46089 -10.92157 61.665146 -1.4986877l0 0c6.8027344 -10.739227 19.253723 -18.1539 33.586792 -20.001282c14.333054 -1.8473511 28.864716 2.0895996 39.199432 10.619995l0 0c5.795059 -9.736847 17.173737 -16.278778 30.098328 -17.304352c12.924561 -1.0255737 25.565887 3.610321 33.43814 12.262695l0 0c10.4696045 -10.321075 27.127045 -14.6666565 42.764496 -11.156433c15.637482 3.510254 27.44635 14.245819 30.316864 27.561401l0 0c12.827057 2.9312134 23.511719 10.382782 29.293427 20.429413c5.781708 10.046631 6.093292 21.70282 0.8542175 31.95694l0 0c12.63089 13.77243 15.585602 32.123993 7.7614136 48.20627c-7.8241577 16.082245 -25.251709 27.479004 -45.77893 29.937195c-0.14468384 15.0937805 -10.025452 28.943634 -25.83377 36.211243c-15.80835 7.267639 -35.075745 6.818115 -50.3757 -1.1752319l0 0c-6.5169983 18.077393 -24.860092 31.37857 -47.10443 34.15695c-22.244354 2.7783203 -44.40219 -5.4641724 -56.900513 -21.166565l0 0c-15.320343 7.739746 -33.70346 9.96933 -51.002525 6.185791c-17.299065 -3.7835388 -32.05686 -13.261505 -40.944344 -26.295807l0 0c-15.65546 1.5348206 -30.79213 -5.2605286 -37.897728 -17.01355c-7.1055984 -11.753021 -4.6675205 -25.961761 6.104229 -35.574493l0 0c-13.965076 -6.8861084 -21.0909 -20.550415 -17.661634 -33.867523c3.429268 -13.317108 16.636538 -23.269318 32.73474 -24.666962z" fill-rule="evenodd"/><path stroke="#3c78d8" stroke-width="8.0" stroke-linejoin="round" stroke-linecap="butt" d="m40.16953 425.35074l0 0c6.590164 3.2495728 14.203346 4.7236633 21.817352 4.2243347m9.972721 48.36487c3.2742996 -0.3210144 6.4837418 -1.0007629 9.5455475 -2.021759m82.396736 22.13095c-2.3029327 -2.8933105 -4.231064 -5.9850464 -5.751541 -9.222565m109.76045 -3.7683716l0 0c1.1881409 -3.2957764 1.9579468 -6.687866 2.2966003 -10.119629m73.91 -24.9151c0.15402222 -16.069672 -10.7404785 -30.783203 -28.004028 -37.82071m66.02118 -40.321075c-2.7957764 5.4720154 -7.063843 10.326172 -12.469543 14.181854m-17.675476 -66.56964l0 0c0.4763794 2.2097168 0.6968384 4.452667 0.6583557 6.6977234m-73.738464 -23.10205l0 0c-2.6116638 2.5746155 -4.7633057 5.45166 -6.38797 8.541626m-57.14911 -3.501068l0 0c-1.3917847 2.3384705 -2.431076 4.8129883 -3.093933 7.3665466m-69.69336 2.014923l0 0c4.063614 1.993866 7.822998 4.3937073 11.195587 7.1467896m-98.22854 41.446014l0 0c0.41347122 2.5456543 1.0667801 5.059906 1.9538078 7.5192566" fill-rule="evenodd"/><path fill="#000000" fill-opacity="0.0" d="m152.8924 513.64044l116.8819 0l0 58.42517l-116.8819 0z" fill-rule="evenodd"/><path fill="#3c78d8" d="m183.74263 553.893l6.015625 -19.921875l6.375 0l6.0 19.921875l-5.578125 0l-2.234375 -9.6875q-0.3125 -1.4375 -0.71875 -3.125q-0.390625 -1.6875 -0.71875 -3.1875l-0.125 0q-0.3125 1.5 -0.6875 3.1875q-0.359375 1.6875 -0.6875 3.125l-2.25 9.6875l-5.390625 0zm4.328125 -4.234375l0 -4.078125l9.6875 0l0 4.078125l-9.6875 0zm23.143799 4.609375q-1.96875 0 -4.015625 -0.703125q-2.03125 -0.71875 -3.71875 -2.15625l3.015625 -3.609375q1.125 0.84375 2.421875 1.390625q1.3125 0.53125 2.65625 0.53125q1.203125 0 1.703125 -0.328125q0.515625 -0.34375 0.515625 -0.828125q0 -0.59375 -0.34375 -0.921875q-0.34375 -0.34375 -0.984375 -0.609375q-0.640625 -0.28125 -1.5625 -0.65625l-2.484375 -1.03125q-1.125 -0.4375 -2.09375 -1.1875q-0.96875 -0.75 -1.546875 -1.828125q-0.5625 -1.09375 -0.5625 -2.546875q0 -1.703125 0.953125 -3.09375q0.953125 -1.40625 2.671875 -2.25q1.71875 -0.84375 3.984375 -0.84375q1.78125 0 3.5625 0.671875q1.7968903 0.65625 3.2500153 2.0l-2.6406403 3.3125q-1.078125 -0.703125 -2.0625 -1.0625q-0.96875 -0.375 -2.421875 -0.375q-0.859375 0 -1.40625 0.328125q-0.546875 0.3125 -0.546875 1.015625q0 0.453125 0.359375 0.765625q0.375 0.3125 1.078125 0.59375q0.703125 0.265625 1.6875 0.625l2.296875 0.953125q1.34375 0.5 2.2812653 1.25q0.9375 0.75 1.421875 1.796875q0.5 1.03125 0.5 2.40625q0 1.6875 -0.921875 3.15625q-0.921875 1.453125 -2.7031403 2.34375q-1.765625 0.890625 -4.34375 0.890625zm17.78444 0q-1.65625 0 -3.046875 -0.34375q-1.375 -0.34375 -2.46875 -0.953125q-1.078125 -0.609375 -1.84375 -1.46875l2.390625 -3.3125q0.96875 0.828125 2.140625 1.34375q1.171875 0.5 2.265625 0.5q0.953125 0 1.6875 -0.203125q0.734375 -0.203125 1.140625 -0.609375q0.421875 -0.421875 0.421875 -1.03125q0 -0.734375 -0.453125 -1.25q-0.4375 -0.53125 -1.609375 -0.796875q-1.15625 -0.28125 -3.328125 -0.28125l0 -3.671875q1.75 0 2.78125 -0.28125q1.046875 -0.28125 1.515625 -0.765625q0.484375 -0.5 0.484375 -1.171875q0 -0.890625 -0.640625 -1.328125q-0.640625 -0.453125 -1.8125 -0.453125q-1.046875 0 -1.953125 0.40625q-0.890625 0.390625 -1.90625 1.1875l-2.640625 -3.1875q1.5 -1.1875 3.1875 -1.84375q1.6875 -0.65625 3.5625 -0.65625q2.234375 0 3.921875 0.640625q1.6875 0.640625 2.609375 1.859375q0.9375 1.203125 0.9375 2.984375q0 1.40625 -0.921875 2.453125q-0.90625 1.03125 -2.625 1.75l0 0.109375q1.1875 0.34375 2.140625 0.96875q0.953125 0.625 1.484375 1.546875q0.546875 0.921875 0.546875 2.15625q0 1.828125 -1.125 3.109375q-1.125 1.265625 -2.9375 1.9375q-1.796875 0.65625 -3.90625 0.65625z" fill-rule="nonzero"/><path fill="#3c78d8" d="m94.43307 427.08685l0 0c0 -6.2564697 5.0718613 -11.328308 11.328316 -11.328308l45.343384 0l0 0c3.0044556 0 5.885849 1.193512 8.010315 3.3179626c2.1244812 2.1244812 3.3179932 5.00589 3.3179932 8.010345l0 45.31186c0 6.2564697 -5.071869 11.328308 -11.328308 11.328308l-45.343384 0c-6.2564545 0 -11.328316 -5.0718384 -11.328316 -11.328308z" fill-rule="evenodd"/><path fill="#ffffff" d="m118.50802 461.05777q-1.65625 0 -3.046875 -0.34375q-1.375 -0.34375 -2.46875 -0.953125q-1.078125 -0.609375 -1.84375 -1.46875l2.390625 -3.3125q0.96875 0.828125 2.140625 1.34375q1.171875 0.5 2.265625 0.5q0.953125 0 1.6875 -0.203125q0.734375 -0.203125 1.140625 -0.609375q0.421875 -0.421875 0.421875 -1.03125q0 -0.734375 -0.453125 -1.25q-0.4375 -0.53125 -1.609375 -0.796875q-1.15625 -0.28125 -3.328125 -0.28125l0 -3.671875q1.75 0 2.78125 -0.28125q1.046875 -0.28125 1.515625 -0.765625q0.484375 -0.5 0.484375 -1.171875q0 -0.890625 -0.640625 -1.328125q-0.640625 -0.453125 -1.8125 -0.453125q-1.046875 0 -1.953125 0.40625q-0.890625 0.390625 -1.90625 1.1875l-2.640625 -3.1875q1.5 -1.1875 3.1875 -1.84375q1.6875 -0.65625 3.5625 -0.65625q2.234375 0 3.921875 0.640625q1.6875 0.640625 2.609375 1.859375q0.9375 1.203125 0.9375 2.984375q0 1.40625 -0.921875 2.453125q-0.90625 1.03125 -2.625 1.75l0 0.109375q1.1875 0.34375 2.140625 0.96875q0.953125 0.625 1.484375 1.546875q0.546875 0.921875 0.546875 2.15625q0 1.828125 -1.125 3.109375q-1.125 1.265625 -2.9375 1.9375q-1.796875 0.65625 -3.90625 0.65625zm20.503181 0q-1.046875 0 -2.0625 -0.5q-1.0 -0.515625 -1.890625 -1.53125l-0.125 0l-0.4375 1.65625l-4.09375 0l0 -21.34375l5.265625 0l0 4.96875l-0.1875 2.21875l0.125 0q0.796875 -0.75 1.796875 -1.140625q1.0 -0.40625 2.03125 -0.40625q1.875 0 3.234375 0.96875q1.375 0.96875 2.125 2.703125q0.75 1.734375 0.75 4.09375q0 2.640625 -0.9375 4.515625q-0.9375 1.859375 -2.421875 2.828125q-1.484375 0.96875 -3.171875 0.96875zm-1.265625 -4.296875q0.65625 0 1.1875 -0.359375q0.53125 -0.375 0.859375 -1.234375q0.34375 -0.859375 0.34375 -2.328125q0 -1.265625 -0.265625 -2.046875q-0.25 -0.78125 -0.75 -1.140625q-0.484375 -0.375 -1.25 -0.375q-0.609375 0 -1.140625 0.25q-0.515625 0.25 -1.0625 0.859375l0 5.640625q0.484375 0.390625 1.015625 0.5625q0.546875 0.171875 1.0625 0.171875z" fill-rule="nonzero"/><path fill="#3c78d8" d="m162.43307 342.91098l0 0c0 -6.256439 5.0718536 -11.328308 11.328308 -11.328308l45.343384 0l0 0c3.0044556 0 5.885849 1.193512 8.010315 3.3179932c2.1244812 2.1244812 3.3179932 5.0058594 3.3179932 8.010315l0 45.31189c0 6.256439 -5.071869 11.328308 -11.328308 11.328308l-45.343384 0c-6.2564545 0 -11.328308 -5.071869 -11.328308 -11.328308z" fill-rule="evenodd"/><path fill="#ffffff" d="m186.50803 376.88193q-1.65625 0 -3.046875 -0.34375q-1.375 -0.34375 -2.46875 -0.953125q-1.078125 -0.609375 -1.84375 -1.46875l2.390625 -3.3125q0.96875 0.828125 2.140625 1.34375q1.171875 0.5 2.265625 0.5q0.953125 0 1.6875 -0.203125q0.734375 -0.203125 1.140625 -0.609375q0.421875 -0.421875 0.421875 -1.03125q0 -0.734375 -0.453125 -1.25q-0.4375 -0.53125 -1.609375 -0.796875q-1.15625 -0.28125 -3.328125 -0.28125l0 -3.671875q1.75 0 2.78125 -0.28125q1.046875 -0.28125 1.515625 -0.765625q0.484375 -0.5 0.484375 -1.171875q0 -0.890625 -0.640625 -1.328125q-0.640625 -0.453125 -1.8125 -0.453125q-1.046875 0 -1.953125 0.40625q-0.890625 0.390625 -1.90625 1.1875l-2.640625 -3.1875q1.5 -1.1875 3.1875 -1.84375q1.6875 -0.65625 3.5625 -0.65625q2.234375 0 3.921875 0.640625q1.6875 0.640625 2.609375 1.859375q0.9375 1.203125 0.9375 2.984375q0 1.40625 -0.921875 2.453125q-0.90625 1.03125 -2.625 1.75l0 0.109375q1.1875 0.34375 2.140625 0.96875q0.953125 0.625 1.484375 1.546875q0.546875 0.921875 0.546875 2.15625q0 1.828125 -1.125 3.109375q-1.125 1.265625 -2.9375 1.9375q-1.796875 0.65625 -3.90625 0.65625zm20.409424 0q-2.421875 0 -4.375 -0.953125q-1.9375 -0.953125 -3.078125 -2.75q-1.125 -1.796875 -1.125 -4.34375q0 -2.53125 1.25 -4.328125q1.265625 -1.796875 3.3125 -2.75q2.046875 -0.953125 4.421875 -0.953125q1.796875 0 3.3125 0.5625q1.53125 0.546875 2.46875 1.46875l-2.390625 3.25q-0.859375 -0.578125 -1.609375 -0.8125q-0.75 -0.234375 -1.484375 -0.234375q-1.125 0 -2.015625 0.46875q-0.890625 0.453125 -1.390625 1.3125q-0.484375 0.859375 -0.484375 2.015625q0 1.171875 0.46875 2.03125q0.484375 0.859375 1.328125 1.328125q0.84375 0.453125 1.90625 0.453125q1.140625 0 2.078125 -0.390625q0.9375 -0.40625 1.703125 -0.90625l2.078125 3.3125q-1.40625 1.171875 -3.125 1.703125q-1.71875 0.515625 -3.25 0.515625z" fill-rule="nonzero"/><path fill="#3c78d8" d="m238.87927 396.07898l0 0c0 -6.2564697 5.0718536 -11.328308 11.328308 -11.328308l45.343384 0l0 0c3.0044556 0 5.8858337 1.193512 8.010315 3.3179626c2.1244812 2.1244812 3.3179932 5.00589 3.3179932 8.010345l0 45.31186c0 6.2564697 -5.071869 11.328308 -11.328308 11.328308l-45.343384 0c-6.2564545 0 -11.328308 -5.0718384 -11.328308 -11.328308z" fill-rule="evenodd"/><path fill="#ffffff" d="m262.95422 430.0499q-1.65625 0 -3.046875 -0.34375q-1.375 -0.34375 -2.46875 -0.953125q-1.078125 -0.609375 -1.8437653 -1.46875l2.3906403 -3.3125q0.96875 0.828125 2.140625 1.34375q1.171875 0.5 2.265625 0.5q0.953125 0 1.6875 -0.203125q0.734375 -0.203125 1.140625 -0.609375q0.421875 -0.421875 0.421875 -1.03125q0 -0.734375 -0.453125 -1.25q-0.4375 -0.53125 -1.609375 -0.796875q-1.15625 -0.28125 -3.328125 -0.28125l0 -3.671875q1.75 0 2.78125 -0.28125q1.046875 -0.28125 1.515625 -0.765625q0.484375 -0.5 0.484375 -1.171875q0 -0.890625 -0.640625 -1.328125q-0.640625 -0.453125 -1.8125 -0.453125q-1.046875 0 -1.953125 0.40625q-0.890625 0.390625 -1.90625 1.1875l-2.640625 -3.1875q1.5 -1.1875 3.1875 -1.84375q1.6875 -0.65625 3.5625 -0.65625q2.234375 0 3.921875 0.640625q1.6875 0.640625 2.609375 1.859375q0.9375 1.203125 0.9375 2.984375q0 1.40625 -0.921875 2.453125q-0.90625 1.03125 -2.625 1.75l0 0.109375q1.1875 0.34375 2.140625 0.96875q0.953125 0.625 1.484375 1.546875q0.546875 0.921875 0.546875 2.15625q0 1.828125 -1.125 3.109375q-1.125 1.265625 -2.9375 1.9375q-1.796875 0.65625 -3.90625 0.65625zm16.550049 0q-1.59375 0 -2.703125 -0.65625q-1.09375 -0.671875 -1.6875 -1.734375q-0.578125 -1.078125 -0.578125 -2.34375q0 -2.5625 2.21875 -3.921875q2.21875 -1.375 7.46875 -1.65625q-0.09375 -0.546875 -0.46875 -0.890625q-0.359375 -0.359375 -0.984375 -0.53125q-0.625 -0.171875 -1.484375 -0.171875q-0.65625 0 -1.328125 0.140625q-0.671875 0.140625 -1.421875 0.4375q-0.75 0.28125 -1.671875 0.71875l-1.84375 -3.4375q1.171875 -0.640625 2.359375 -1.09375q1.203125 -0.46875 2.421875 -0.703125q1.234375 -0.234375 2.515625 -0.234375q2.1875 0 3.796875 0.765625q1.609375 0.75 2.484375 2.328125q0.890625 1.578125 0.890625 4.09375l0 8.515625l-4.28125 0l-0.375 -1.59375l-0.125 0q-1.125 0.828125 -2.453125 1.40625q-1.3125 0.5625 -2.75 0.5625zm1.71875 -4.046875q0.921875 0 1.65625 -0.359375q0.734375 -0.359375 1.34375 -0.8125l0 -1.96875q-1.875 0.0625 -2.890625 0.34375q-1.0 0.28125 -1.390625 0.734375q-0.375 0.4375 -0.375 0.953125q0 0.34375 0.171875 0.609375q0.1875 0.25 0.546875 0.375q0.375 0.125 0.9375 0.125z" fill-rule="nonzero"/><path fill="#000000" fill-opacity="0.0" d="m128.43307 415.75854l34.015747 -50.204742" fill-rule="evenodd"/><path stroke="#999999" stroke-width="4.0" stroke-linejoin="round" stroke-linecap="butt" d="m128.43307 415.75854l34.015747 -50.204742" fill-rule="evenodd"/><path fill="#000000" fill-opacity="0.0" d="m238.87927 418.7349l-76.44095 31.023651" fill-rule="evenodd"/><path stroke="#999999" stroke-width="4.0" stroke-linejoin="round" stroke-linecap="butt" d="m238.87927 418.7349l-76.44095 31.023651" fill-rule="evenodd"/><path fill="#000000" fill-opacity="0.0" d="m356.8924 188.4252l-126.456696 177.13385" fill-rule="evenodd"/><path stroke="#999999" stroke-width="4.0" stroke-linejoin="round" stroke-linecap="butt" d="m356.8924 188.4252l-126.456696 177.13385" fill-rule="evenodd"/><path fill="#000000" fill-opacity="0.0" d="m455.5521 462.1044l0 0c-2.9999695 -18.46997 6.849518 -36.75412 25.368958 -47.09384c18.51941 -10.339691 42.460846 -10.92157 61.66513 -1.4986877l0 0c6.8027344 -10.739227 19.253723 -18.1539 33.586792 -20.001282c14.333069 -1.8473511 28.864746 2.0895996 39.1994 10.619995l0 0c5.795105 -9.736847 17.173767 -16.278778 30.098328 -17.304352c12.924622 -1.0255737 25.565918 3.610321 33.43817 12.262695l0 0c10.4696045 -10.321075 27.127014 -14.6666565 42.764526 -11.156433c15.637451 3.510254 27.44629 14.245819 30.316833 27.561401l0 0c12.827087 2.9312134 23.511719 10.382782 29.293457 20.429413c5.7816772 10.046631 6.0932617 21.70282 0.854187 31.95694l0 0c12.63092 13.77243 15.585571 32.123993 7.7614136 48.206238c-7.8241577 16.082275 -25.251709 27.479065 -45.77893 29.937256c-0.14471436 15.09375 -10.025452 28.943604 -25.833801 36.211243c-15.808289 7.267578 -35.075745 6.818115 -50.37567 -1.175293l0 0c-6.516968 18.077454 -24.860107 31.378601 -47.10443 34.156982c-22.244324 2.7783203 -44.40216 -5.4641724 -56.900513 -21.166565l0 0c-15.3203125 7.739746 -33.70349 9.969299 -51.002502 6.185791c-17.299072 -3.7835693 -32.056885 -13.261475 -40.944366 -26.295837l0 0c-15.655457 1.5348511 -30.792114 -5.260498 -37.897736 -17.01355c-7.105591 -11.752991 -4.667511 -25.961731 6.104248 -35.574463l0 0c-13.965088 -6.8861084 -21.090912 -20.550415 -17.661652 -33.867523c3.4292603 -13.317108 16.636536 -23.269318 32.73474 -24.666962z" fill-rule="evenodd"/><path fill="#000000" fill-opacity="0.0" d="m440.16953 521.3507l0 0c6.5901794 3.2495728 14.203339 4.723694 21.817352 4.224365m9.972717 48.36487c3.2743225 -0.3209839 6.483734 -1.0007935 9.545563 -2.0217896m82.39676 22.130981c-2.3029785 -2.8933105 -4.231079 -5.9850464 -5.751587 -9.222534m109.7605 -3.7684326l0 0c1.1881104 -3.2957764 1.9579468 -6.687805 2.2965698 -10.119568m73.90997 -24.915161c0.15405273 -16.069641 -10.7404785 -30.783142 -28.003967 -37.82068m66.02118 -40.321075c-2.7957764 5.4720154 -7.063843 10.326172 -12.469543 14.181854m-17.675476 -66.56964l0 0c0.47631836 2.2097168 0.6968384 4.452667 0.6583252 6.6977234m-73.738464 -23.10205l0 0c-2.6116333 2.5746155 -4.7633057 5.45166 -6.3880005 8.541626m-57.149048 -3.501068l0 0c-1.3917847 2.3384705 -2.4310913 4.8129883 -3.0939941 7.3665466m-69.6933 2.014923l0 0c4.0635986 1.993866 7.822998 4.3937073 11.195557 7.1467896m-98.228546 41.446014l0 0c0.41348267 2.5456543 1.0667725 5.059906 1.9538269 7.5192566" fill-rule="evenodd"/><path stroke="#3c78d8" stroke-width="8.0" stroke-linejoin="round" stroke-linecap="butt" d="m455.5521 462.1044l0 0c-2.9999695 -18.46997 6.849518 -36.75412 25.368958 -47.09384c18.51941 -10.339691 42.460846 -10.92157 61.66513 -1.4986877l0 0c6.8027344 -10.739227 19.253723 -18.1539 33.586792 -20.001282c14.333069 -1.8473511 28.864746 2.0895996 39.1994 10.619995l0 0c5.795105 -9.736847 17.173767 -16.278778 30.098328 -17.304352c12.924622 -1.0255737 25.565918 3.610321 33.43817 12.262695l0 0c10.4696045 -10.321075 27.127014 -14.6666565 42.764526 -11.156433c15.637451 3.510254 27.44629 14.245819 30.316833 27.561401l0 0c12.827087 2.9312134 23.511719 10.382782 29.293457 20.429413c5.7816772 10.046631 6.0932617 21.70282 0.854187 31.95694l0 0c12.63092 13.77243 15.585571 32.123993 7.7614136 48.206238c-7.8241577 16.082275 -25.251709 27.479065 -45.77893 29.937256c-0.14471436 15.09375 -10.025452 28.943604 -25.833801 36.211243c-15.808289 7.267578 -35.075745 6.818115 -50.37567 -1.175293l0 0c-6.516968 18.077454 -24.860107 31.378601 -47.10443 34.156982c-22.244324 2.7783203 -44.40216 -5.4641724 -56.900513 -21.166565l0 0c-15.3203125 7.739746 -33.70349 9.969299 -51.002502 6.185791c-17.299072 -3.7835693 -32.056885 -13.261475 -40.944366 -26.295837l0 0c-15.655457 1.5348511 -30.792114 -5.260498 -37.897736 -17.01355c-7.105591 -11.752991 -4.667511 -25.961731 6.104248 -35.574463l0 0c-13.965088 -6.8861084 -21.090912 -20.550415 -17.661652 -33.867523c3.4292603 -13.317108 16.636536 -23.269318 32.73474 -24.666962z" fill-rule="evenodd"/><path stroke="#3c78d8" stroke-width="8.0" stroke-linejoin="round" stroke-linecap="butt" d="m440.16953 521.3507l0 0c6.5901794 3.2495728 14.203339 4.723694 21.817352 4.224365m9.972717 48.36487c3.2743225 -0.3209839 6.483734 -1.0007935 9.545563 -2.0217896m82.39676 22.130981c-2.3029785 -2.8933105 -4.231079 -5.9850464 -5.751587 -9.222534m109.7605 -3.7684326l0 0c1.1881104 -3.2957764 1.9579468 -6.687805 2.2965698 -10.119568m73.90997 -24.915161c0.15405273 -16.069641 -10.7404785 -30.783142 -28.003967 -37.82068m66.02118 -40.321075c-2.7957764 5.4720154 -7.063843 10.326172 -12.469543 14.181854m-17.675476 -66.56964l0 0c0.47631836 2.2097168 0.6968384 4.452667 0.6583252 6.6977234m-73.738464 -23.10205l0 0c-2.6116333 2.5746155 -4.7633057 5.45166 -6.3880005 8.541626m-57.149048 -3.501068l0 0c-1.3917847 2.3384705 -2.4310913 4.8129883 -3.0939941 7.3665466m-69.6933 2.014923l0 0c4.0635986 1.993866 7.822998 4.3937073 11.195557 7.1467896m-98.228546 41.446014l0 0c0.41348267 2.5456543 1.0667725 5.059906 1.9538269 7.5192566" fill-rule="evenodd"/><path fill="#000000" fill-opacity="0.0" d="m552.8924 609.64044l116.8819 0l0 58.42517l-116.8819 0z" fill-rule="evenodd"/><path fill="#3c78d8" d="m583.7426 649.893l6.015625 -19.921875l6.375 0l6.0 19.921875l-5.578125 0l-2.234375 -9.6875q-0.3125 -1.4375 -0.71875 -3.125q-0.390625 -1.6875 -0.71875 -3.1875l-0.125 0q-0.3125 1.5 -0.6875 3.1875q-0.359375 1.6875 -0.6875 3.125l-2.25 9.6875l-5.390625 0zm4.328125 -4.234375l0 -4.078125l9.6875 0l0 4.078125l-9.6875 0zm23.143799 4.609375q-1.96875 0 -4.015625 -0.703125q-2.03125 -0.71875 -3.71875 -2.15625l3.015625 -3.609375q1.125 0.84375 2.421875 1.390625q1.3125 0.53125 2.65625 0.53125q1.203125 0 1.703125 -0.328125q0.515625 -0.34375 0.515625 -0.828125q0 -0.59375 -0.34375 -0.921875q-0.34375 -0.34375 -0.984375 -0.609375q-0.640625 -0.28125 -1.5625 -0.65625l-2.484375 -1.03125q-1.125 -0.4375 -2.09375 -1.1875q-0.96875 -0.75 -1.546875 -1.828125q-0.5625 -1.09375 -0.5625 -2.546875q0 -1.703125 0.953125 -3.09375q0.953125 -1.40625 2.671875 -2.25q1.71875 -0.84375 3.984375 -0.84375q1.78125 0 3.5625 0.671875q1.796875 0.65625 3.25 2.0l-2.640625 3.3125q-1.078125 -0.703125 -2.0625 -1.0625q-0.96875 -0.375 -2.421875 -0.375q-0.859375 0 -1.40625 0.328125q-0.546875 0.3125 -0.546875 1.015625q0 0.453125 0.359375 0.765625q0.375 0.3125 1.078125 0.59375q0.703125 0.265625 1.6875 0.625l2.296875 0.953125q1.34375 0.5 2.28125 1.25q0.9375 0.75 1.421875 1.796875q0.5 1.03125 0.5 2.40625q0 1.6875 -0.921875 3.15625q-0.921875 1.453125 -2.703125 2.34375q-1.765625 0.890625 -4.34375 0.890625zm11.518799 -0.375l0 -4.234375l5.09375 0l0 -10.046875l-4.296875 0l0 -3.25q1.390625 -0.21875 2.359375 -0.453125q0.984375 -0.25 1.765625 -0.609375q0.78125 -0.359375 1.578125 -0.84375l3.859375 0l0 15.203125l4.171875 0l0 4.234375l-14.53125 0z" fill-rule="nonzero"/><path fill="#3c78d8" d="m465.1916 514.8795l0 0c0 -6.2564697 5.071869 -11.328339 11.328308 -11.328339l45.343384 0l0 0c3.0044556 0 5.8858643 1.193512 8.010315 3.3179932c2.1245117 2.1244507 3.3179932 5.0058594 3.3179932 8.010345l0 45.31183c0 6.2564697 -5.0718384 11.328369 -11.328308 11.328369l-45.343384 0c-6.256439 0 -11.328308 -5.0718994 -11.328308 -11.328369z" fill-rule="evenodd"/><path fill="#ffffff" d="m483.00092 548.4754l0 -4.234375l5.09375 0l0 -10.046875l-4.296875 0l0 -3.25q1.390625 -0.21875 2.359375 -0.453125q0.984375 -0.25 1.765625 -0.609375q0.78125 -0.359375 1.578125 -0.84375l3.859375 0l0 15.203125l4.171875 0l0 4.234375l-14.53125 0zm22.815674 0.375q-1.59375 0 -2.703125 -0.65625q-1.09375 -0.671875 -1.6875 -1.734375q-0.578125 -1.078125 -0.578125 -2.34375q0 -2.5625 2.21875 -3.921875q2.21875 -1.375 7.46875 -1.65625q-0.09375 -0.546875 -0.46875 -0.890625q-0.359375 -0.359375 -0.984375 -0.53125q-0.625 -0.171875 -1.484375 -0.171875q-0.65625 0 -1.328125 0.140625q-0.671875 0.140625 -1.421875 0.4375q-0.75 0.28125 -1.671875 0.71875l-1.84375 -3.4375q1.171875 -0.640625 2.359375 -1.09375q1.203125 -0.46875 2.421875 -0.703125q1.234375 -0.234375 2.515625 -0.234375q2.1875 0 3.796875 0.765625q1.609375 0.75 2.484375 2.328125q0.890625 1.578125 0.890625 4.09375l0 8.515625l-4.28125 0l-0.375 -1.59375l-0.125 0q-1.125 0.828125 -2.453125 1.40625q-1.3125 0.5625 -2.75 0.5625zm1.71875 -4.046875q0.921875 0 1.65625 -0.359375q0.734375 -0.359375 1.34375 -0.8125l0 -1.96875q-1.875 0.0625 -2.890625 0.34375q-1.0 0.28125 -1.390625 0.734375q-0.375 0.4375 -0.375 0.953125q0 0.34375 0.171875 0.609375q0.1875 0.25 0.546875 0.375q0.375 0.125 0.9375 0.125z" fill-rule="nonzero"/><path fill="#3c78d8" d="m517.31757 433.61966l0 0c0 -6.2564697 5.0718994 -11.328308 11.328308 -11.328308l45.343384 0l0 0c3.0044556 0 5.8858643 1.193512 8.010315 3.3179626c2.1245117 2.1244812 3.3179932 5.00589 3.3179932 8.010345l0 45.31186c0 6.2564697 -5.0718384 11.328339 -11.328308 11.328339l-45.343384 0c-6.2564087 0 -11.328308 -5.071869 -11.328308 -11.328339z" fill-rule="evenodd"/><path fill="#ffffff" d="m535.1269 467.21558l0 -4.234375l5.09375 0l0 -10.046875l-4.296875 0l0 -3.25q1.390625 -0.21875 2.359375 -0.453125q0.984375 -0.25 1.765625 -0.609375q0.78125 -0.359375 1.578125 -0.84375l3.859375 0l0 15.203125l4.171875 0l0 4.234375l-14.53125 0zm26.675049 0.375q-2.421875 0 -4.375 -0.953125q-1.9375 -0.953125 -3.078125 -2.75q-1.125 -1.796875 -1.125 -4.34375q0 -2.53125 1.25 -4.328125q1.265625 -1.796875 3.3125 -2.75q2.046875 -0.953125 4.421875 -0.953125q1.796875 0 3.3125 0.5625q1.53125 0.546875 2.46875 1.46875l-2.390625 3.25q-0.859375 -0.578125 -1.609375 -0.8125q-0.75 -0.234375 -1.484375 -0.234375q-1.125 0 -2.015625 0.46875q-0.890625 0.453125 -1.390625 1.3125q-0.484375 0.859375 -0.484375 2.015625q0 1.171875 0.46875 2.03125q0.484375 0.859375 1.328125 1.328125q0.84375 0.453125 1.90625 0.453125q1.140625 0 2.078125 -0.390625q0.9375 -0.40625 1.703125 -0.90625l2.078125 3.3125q-1.40625 1.171875 -3.125 1.703125q-1.71875 0.515625 -3.25 0.515625z" fill-rule="nonzero"/><path fill="#3c78d8" d="m683.0026 438.91098l0 0c0 -6.256439 5.0718384 -11.328308 11.328308 -11.328308l45.343384 0l0 0c3.0044556 0 5.8858643 1.193512 8.010315 3.3179932c2.1244507 2.1244812 3.3179932 5.0058594 3.3179932 8.010315l0 45.31189c0 6.256439 -5.0718384 11.328308 -11.328308 11.328308l-45.343384 0c-6.2564697 0 -11.328308 -5.071869 -11.328308 -11.328308z" fill-rule="evenodd"/><path fill="#ffffff" d="m700.81195 472.50693l0 -4.234375l5.09375 0l0 -10.046875l-4.296875 0l0 -3.25q1.390625 -0.21875 2.359375 -0.453125q0.984375 -0.25 1.765625 -0.609375q0.78125 -0.359375 1.578125 -0.84375l3.859375 0l0 15.203125l4.171875 0l0 4.234375l-14.53125 0zm26.768799 0.375q-1.046875 0 -2.0625 -0.5q-1.0 -0.515625 -1.890625 -1.53125l-0.125 0l-0.4375 1.65625l-4.09375 0l0 -21.34375l5.265625 0l0 4.96875l-0.1875 2.21875l0.125 0q0.796875 -0.75 1.796875 -1.140625q1.0 -0.40625 2.03125 -0.40625q1.875 0 3.234375 0.96875q1.375 0.96875 2.125 2.703125q0.75 1.734375 0.75 4.09375q0 2.640625 -0.9375 4.515625q-0.9375 1.859375 -2.421875 2.828125q-1.484375 0.96875 -3.171875 0.96875zm-1.265625 -4.296875q0.65625 0 1.1875 -0.359375q0.53125 -0.375 0.859375 -1.234375q0.34375 -0.859375 0.34375 -2.328125q0 -1.265625 -0.265625 -2.046875q-0.25 -0.78125 -0.75 -1.140625q-0.484375 -0.375 -1.25 -0.375q-0.609375 0 -1.140625 0.25q-0.515625 0.25 -1.0625 0.859375l0 5.640625q0.484375 0.390625 1.015625 0.5625q0.546875 0.171875 1.0625 0.171875z" fill-rule="nonzero"/><path fill="#3c78d8" d="m597.31757 521.6196l0 0c0 -6.2564087 5.0718994 -11.328278 11.328308 -11.328278l45.343384 0l0 0c3.0044556 0 5.8858643 1.193512 8.010315 3.3179626c2.1245117 2.1244507 3.3179932 5.0058594 3.3179932 8.010315l0 45.31189c0 6.2564697 -5.0718384 11.328308 -11.328308 11.328308l-45.343384 0c-6.2564087 0 -11.328308 -5.0718384 -11.328308 -11.328308z" fill-rule="evenodd"/><path fill="#ffffff" d="m615.1269 555.2156l0 -4.234375l5.09375 0l0 -10.046875l-4.296875 0l0 -3.25q1.390625 -0.21875 2.359375 -0.453125q0.984375 -0.25 1.765625 -0.609375q0.78125 -0.359375 1.578125 -0.84375l3.859375 0l0 15.203125l4.171875 0l0 4.234375l-14.53125 0zm23.878174 0.375q-2.90625 0 -4.65625 -2.15625q-1.75 -2.171875 -1.75 -5.890625q0 -2.5 0.9375 -4.296875q0.9375 -1.796875 2.40625 -2.765625q1.46875 -0.96875 3.0625 -0.96875q1.234375 0 2.078125 0.40625q0.84375 0.390625 1.515625 1.140625l0.125 0l-0.25 -2.21875l0 -4.96875l5.28125 0l0 21.34375l-4.296875 0l-0.375 -1.40625l-0.109375 0q-0.796875 0.765625 -1.859375 1.28125q-1.0625 0.5 -2.109375 0.5zm1.390625 -4.296875q0.640625 0 1.140625 -0.234375q0.515625 -0.234375 0.9375 -0.875l0 -5.640625q-0.453125 -0.421875 -0.96875 -0.578125q-0.5 -0.15625 -1.046875 -0.15625q-0.65625 0 -1.21875 0.359375q-0.5625 0.34375 -0.90625 1.15625q-0.328125 0.8125 -0.328125 2.171875q0 2.046875 0.625 2.921875q0.625 0.875 1.765625 0.875z" fill-rule="nonzero"/><path fill="#000000" fill-opacity="0.0" d="m306.87927 418.7349l210.42517 37.543335" fill-rule="evenodd"/><path stroke="#999999" stroke-width="4.0" stroke-linejoin="round" stroke-linecap="butt" d="m306.87927 418.7349l210.42517 37.543335" fill-rule="evenodd"/><path fill="#000000" fill-opacity="0.0" d="m499.1916 503.55118l52.125977 -13.291321" fill-rule="evenodd"/><path stroke="#999999" stroke-width="4.0" stroke-linejoin="round" stroke-linecap="butt" d="m499.1916 503.55118l52.125977 -13.291321" fill-rule="evenodd"/><path fill="#000000" fill-opacity="0.0" d="m533.1916 537.53546l149.82678 -75.96854" fill-rule="evenodd"/><path stroke="#999999" stroke-width="4.0" stroke-linejoin="round" stroke-linecap="butt" d="m533.1916 537.53546l149.82678 -75.96854" fill-rule="evenodd"/><path fill="#000000" fill-opacity="0.0" d="m533.1916 537.53546l64.12598 6.7401123" fill-rule="evenodd"/><path stroke="#999999" stroke-width="4.0" stroke-linejoin="round" stroke-linecap="butt" d="m533.1916 537.53546l64.12598 6.7401123" fill-rule="evenodd"/><path fill="#000000" fill-opacity="0.0" d="m717.0026 495.55118l-51.68506 48.724396" fill-rule="evenodd"/><path stroke="#999999" stroke-width="4.0" stroke-linejoin="round" stroke-linecap="butt" d="m717.0026 495.55118l-51.68506 48.724396" fill-rule="evenodd"/><path fill="#000000" fill-opacity="0.0" d="m522.9564 522.6116l88.47241 0l0 67.968506l-88.47241 0z" fill-rule="evenodd"/><path fill="#999999" d="m555.0395 566.6758l0 -4.03125l4.140625 0l0 -10.140625l-4.140625 0l0 -4.03125l13.109375 0l0 4.03125l-4.140625 0l0 10.140625l4.140625 0l0 4.03125l-13.109375 0z" fill-rule="nonzero"/><path fill="#999999" d="m571.33954 577.1758l0 -2.578125l3.09375 0l0 -6.109375l-2.609375 0l0 -1.984375q0.84375 -0.125 1.4375 -0.265625q0.59375 -0.15625 1.0625 -0.375q0.484375 -0.21875 0.96875 -0.515625l2.359375 0l0 9.25l2.53125 0l0 2.578125l-8.84375 0z" fill-rule="nonzero"/><path fill="#000000" fill-opacity="0.0" d="m650.9564 506.61154l88.47241 0l0 67.96854l-88.47241 0z" fill-rule="evenodd"/><path fill="#999999" d="m683.0395 550.6758l0 -4.03125l4.140625 0l0 -10.140625l-4.140625 0l0 -4.03125l13.109375 0l0 4.03125l-4.140625 0l0 10.140625l4.140625 0l0 4.03125l-13.109375 0z" fill-rule="nonzero"/><path fill="#999999" d="m698.96454 561.1758l0 -1.828125q1.59375 -1.28125 2.8125 -2.375q1.234375 -1.109375 1.9375 -2.046875q0.71875 -0.9375 0.71875 -1.734375q0 -0.796875 -0.46875 -1.171875q-0.46875 -0.390625 -1.25 -0.390625q-0.65625 0 -1.1875 0.34375q-0.53125 0.34375 -1.015625 0.765625l-1.6875 -1.71875q0.96875 -0.984375 1.953125 -1.4375q0.984375 -0.453125 2.390625 -0.453125q1.265625 0 2.234375 0.484375q0.96875 0.46875 1.515625 1.34375q0.5625 0.875 0.5625 2.046875q0 0.953125 -0.578125 1.9375q-0.578125 0.984375 -1.484375 1.9375q-0.890625 0.9375 -1.859375 1.765625q0.484375 -0.0625 1.078125 -0.109375q0.609375 -0.046875 1.046875 -0.046875l2.390625 0l0 2.6875l-9.109375 0z" fill-rule="nonzero"/><path fill="#000000" fill-opacity="0.0" d="m727.5521 230.1044l0 0c-3.0 -18.46997 6.8494873 -36.754135 25.368896 -47.093826c18.51947 -10.339691 42.460876 -10.92157 61.66516 -1.4987183l0 0c6.8027344 -10.739212 19.253723 -18.1539 33.586792 -20.001251c14.333069 -1.8473663 28.864746 2.0895844 39.1994 10.61998l0 0c5.795105 -9.736862 17.173767 -16.278778 30.098328 -17.304352c12.924622 -1.025589 25.565918 3.6103363 33.43817 12.26268l0 0c10.4696045 -10.321045 27.127014 -14.666641 42.764526 -11.156403c15.637451 3.5102234 27.44629 14.245804 30.316833 27.561386l0 0c12.827026 2.9312134 23.511719 10.382767 29.293457 20.429413c5.7817383 10.046646 6.0932617 21.70282 0.854126 31.95694l0 0c12.630981 13.772415 15.585693 32.123993 7.7614746 48.20627c-7.8242188 16.082245 -25.251709 27.479004 -45.77893 29.937195c-0.14471436 15.0937805 -10.025452 28.943634 -25.833801 36.211243c-15.808289 7.267639 -35.075745 6.818115 -50.37567 -1.1752319l0 0c-6.516968 18.077393 -24.860107 31.37857 -47.10443 34.15695c-22.244324 2.7783508 -44.40216 -5.464203 -56.900513 -21.166565l0 0c-15.3203125 7.739746 -33.70349 9.96933 -51.002502 6.185791c-17.299072 -3.7835388 -32.056885 -13.261505 -40.944336 -26.295807l0 0c-15.655518 1.5348206 -30.792175 -5.2605286 -37.897766 -17.01355c-7.105591 -11.753021 -4.6675415 -25.961761 6.104248 -35.574493l0 0c-13.965088 -6.8861084 -21.090881 -20.550415 -17.661621 -33.867523c3.4292603 -13.317108 16.636536 -23.269318 32.73474 -24.666946z" fill-rule="evenodd"/><path fill="#000000" fill-opacity="0.0" d="m712.16956 289.35074l0 0c6.590149 3.2495728 14.203308 4.7236633 21.817322 4.2243347m9.972717 48.36487c3.274292 -0.3210144 6.4837646 -1.0007629 9.545532 -2.021759m82.39679 22.13095c-2.3029785 -2.8933105 -4.231079 -5.9850464 -5.751587 -9.222565m109.7605 -3.7683716l0 0c1.1881104 -3.2957764 1.9579468 -6.687866 2.2965698 -10.119629m73.90997 -24.9151c0.15405273 -16.069672 -10.7404785 -30.783203 -28.003967 -37.82071m66.02112 -40.321075c-2.7957764 5.4720306 -7.063843 10.326172 -12.469482 14.1818695m-17.675476 -66.56966l0 0c0.4763794 2.209732 0.6968384 4.452667 0.65826416 6.6977234m-73.7384 -23.102036l0 0c-2.6116333 2.574585 -4.7633057 5.45166 -6.3880005 8.541626m-57.149048 -3.5010834l0 0c-1.3917847 2.3384857 -2.4310913 4.8130035 -3.0939941 7.3665314m-69.6933 2.0149384l0 0c4.0635986 1.993866 7.822998 4.3937073 11.195557 7.1467896m-98.228516 41.446014l0 0c0.41345215 2.545639 1.0667725 5.059906 1.9537964 7.5192413" fill-rule="evenodd"/><path stroke="#3c78d8" stroke-width="8.0" stroke-linejoin="round" stroke-linecap="butt" d="m727.5521 230.1044l0 0c-3.0 -18.46997 6.8494873 -36.754135 25.368896 -47.093826c18.51947 -10.339691 42.460876 -10.92157 61.66516 -1.4987183l0 0c6.8027344 -10.739212 19.253723 -18.1539 33.586792 -20.001251c14.333069 -1.8473663 28.864746 2.0895844 39.1994 10.61998l0 0c5.795105 -9.736862 17.173767 -16.278778 30.098328 -17.304352c12.924622 -1.025589 25.565918 3.6103363 33.43817 12.26268l0 0c10.4696045 -10.321045 27.127014 -14.666641 42.764526 -11.156403c15.637451 3.5102234 27.44629 14.245804 30.316833 27.561386l0 0c12.827026 2.9312134 23.511719 10.382767 29.293457 20.429413c5.7817383 10.046646 6.0932617 21.70282 0.854126 31.95694l0 0c12.630981 13.772415 15.585693 32.123993 7.7614746 48.20627c-7.8242188 16.082245 -25.251709 27.479004 -45.77893 29.937195c-0.14471436 15.0937805 -10.025452 28.943634 -25.833801 36.211243c-15.808289 7.267639 -35.075745 6.818115 -50.37567 -1.1752319l0 0c-6.516968 18.077393 -24.860107 31.37857 -47.10443 34.15695c-22.244324 2.7783508 -44.40216 -5.464203 -56.900513 -21.166565l0 0c-15.3203125 7.739746 -33.70349 9.96933 -51.002502 6.185791c-17.299072 -3.7835388 -32.056885 -13.261505 -40.944336 -26.295807l0 0c-15.655518 1.5348206 -30.792175 -5.2605286 -37.897766 -17.01355c-7.105591 -11.753021 -4.6675415 -25.961761 6.104248 -35.574493l0 0c-13.965088 -6.8861084 -21.090881 -20.550415 -17.661621 -33.867523c3.4292603 -13.317108 16.636536 -23.269318 32.73474 -24.666946z" fill-rule="evenodd"/><path stroke="#3c78d8" stroke-width="8.0" stroke-linejoin="round" stroke-linecap="butt" d="m712.16956 289.35074l0 0c6.590149 3.2495728 14.203308 4.7236633 21.817322 4.2243347m9.972717 48.36487c3.274292 -0.3210144 6.4837646 -1.0007629 9.545532 -2.021759m82.39679 22.13095c-2.3029785 -2.8933105 -4.231079 -5.9850464 -5.751587 -9.222565m109.7605 -3.7683716l0 0c1.1881104 -3.2957764 1.9579468 -6.687866 2.2965698 -10.119629m73.90997 -24.9151c0.15405273 -16.069672 -10.7404785 -30.783203 -28.003967 -37.82071m66.02112 -40.321075c-2.7957764 5.4720306 -7.063843 10.326172 -12.469482 14.1818695m-17.675476 -66.56966l0 0c0.4763794 2.209732 0.6968384 4.452667 0.65826416 6.6977234m-73.7384 -23.102036l0 0c-2.6116333 2.574585 -4.7633057 5.45166 -6.3880005 8.541626m-57.149048 -3.5010834l0 0c-1.3917847 2.3384857 -2.4310913 4.8130035 -3.0939941 7.3665314m-69.6933 2.0149384l0 0c4.0635986 1.993866 7.822998 4.3937073 11.195557 7.1467896m-98.228516 41.446014l0 0c0.41345215 2.545639 1.0667725 5.059906 1.9537964 7.5192413" fill-rule="evenodd"/><path fill="#000000" fill-opacity="0.0" d="m824.8924 377.6404l116.8819 0l0 58.4252l-116.8819 0z" fill-rule="evenodd"/><path fill="#3c78d8" d="m855.7426 417.89304l6.015625 -19.921875l6.375 0l6.0 19.921875l-5.578125 0l-2.234375 -9.6875q-0.3125 -1.4375 -0.71875 -3.125q-0.390625 -1.6875 -0.71875 -3.1875l-0.125 0q-0.3125 1.5 -0.6875 3.1875q-0.359375 1.6875 -0.6875 3.125l-2.25 9.6875l-5.390625 0zm4.328125 -4.234375l0 -4.078125l9.6875 0l0 4.078125l-9.6875 0zm23.143799 4.609375q-1.96875 0 -4.015625 -0.703125q-2.03125 -0.71875 -3.71875 -2.15625l3.015625 -3.609375q1.125 0.84375 2.421875 1.390625q1.3125 0.53125 2.65625 0.53125q1.203125 0 1.703125 -0.328125q0.515625 -0.34375 0.515625 -0.828125q0 -0.59375 -0.34375 -0.921875q-0.34375 -0.34375 -0.984375 -0.609375q-0.640625 -0.28125 -1.5625 -0.65625l-2.484375 -1.03125q-1.125 -0.4375 -2.09375 -1.1875q-0.96875 -0.75 -1.546875 -1.828125q-0.5625 -1.09375 -0.5625 -2.546875q0 -1.703125 0.953125 -3.09375q0.953125 -1.40625 2.671875 -2.25q1.71875 -0.84375 3.984375 -0.84375q1.78125 0 3.5625 0.671875q1.796875 0.65625 3.25 2.0l-2.640625 3.3125q-1.078125 -0.703125 -2.0625 -1.0625q-0.96875 -0.375 -2.421875 -0.375q-0.859375 0 -1.40625 0.328125q-0.546875 0.3125 -0.546875 1.015625q0 0.453125 0.359375 0.765625q0.375 0.3125 1.078125 0.59375q0.703125 0.265625 1.6875 0.625l2.296875 0.953125q1.34375 0.5 2.28125 1.25q0.9375 0.75 1.421875 1.796875q0.5 1.03125 0.5 2.40625q0 1.6875 -0.921875 3.15625q-0.921875 1.453125 -2.703125 2.34375q-1.765625 0.890625 -4.34375 0.890625zm10.909424 -0.375l0 -3.0q2.609375 -2.125 4.625 -3.921875q2.03125 -1.8125 3.1875 -3.34375q1.171875 -1.53125 1.171875 -2.859375q0 -1.3125 -0.765625 -1.9375q-0.765625 -0.640625 -2.0625 -0.640625q-1.0625 0 -1.9375 0.578125q-0.875 0.5625 -1.671875 1.265625l-2.796875 -2.8125q1.59375 -1.625 3.21875 -2.375q1.625 -0.75 3.921875 -0.75q2.09375 0 3.6875 0.78125q1.59375 0.78125 2.5 2.21875q0.90625 1.4375 0.90625 3.375q0 1.5625 -0.953125 3.1875q-0.953125 1.625 -2.421875 3.171875q-1.46875 1.546875 -3.0625 2.890625q0.796875 -0.09375 1.78125 -0.171875q1.0 -0.078125 1.703125 -0.078125l3.921875 0l0 4.421875l-14.953125 0z" fill-rule="nonzero"/><path fill="#3c78d8" d="m756.8924 269.76926l0 0c0 -6.256439 5.0718384 -11.328308 11.328308 -11.328308l45.343384 0l0 0c3.0044556 0 5.8858643 1.193512 8.010315 3.3179932c2.1244507 2.1244507 3.3179932 5.0058594 3.3179932 8.010315l0 45.31189c0 6.256439 -5.0718384 11.328308 -11.328308 11.328308l-45.343384 0c-6.2564697 0 -11.328308 -5.071869 -11.328308 -11.328308z" fill-rule="evenodd"/><path fill="#ffffff" d="m774.09235 303.3652l0 -3.0q2.609375 -2.125 4.625 -3.921875q2.03125 -1.8125 3.1875 -3.34375q1.171875 -1.53125 1.171875 -2.859375q0 -1.3125 -0.765625 -1.9375q-0.765625 -0.640625 -2.0625 -0.640625q-1.0625 0 -1.9375 0.578125q-0.875 0.5625 -1.671875 1.265625l-2.796875 -2.8125q1.59375 -1.625 3.21875 -2.375q1.625 -0.75 3.921875 -0.75q2.09375 0 3.6875 0.78125q1.59375 0.78125 2.5 2.21875q0.90625 1.4375 0.90625 3.375q0 1.5625 -0.953125 3.1875q-0.953125 1.625 -2.421875 3.171875q-1.46875 1.546875 -3.0625 2.890625q0.796875 -0.09375 1.78125 -0.171875q1.0 -0.078125 1.703125 -0.078125l3.921875 0l0 4.421875l-14.953125 0zm23.425049 0.375q-1.59375 0 -2.703125 -0.65625q-1.09375 -0.671875 -1.6875 -1.734375q-0.578125 -1.078125 -0.578125 -2.34375q0 -2.5625 2.21875 -3.921875q2.21875 -1.375 7.46875 -1.65625q-0.09375 -0.546875 -0.46875 -0.890625q-0.359375 -0.359375 -0.984375 -0.53125q-0.625 -0.171875 -1.484375 -0.171875q-0.65625 0 -1.328125 0.140625q-0.671875 0.140625 -1.421875 0.4375q-0.75 0.28125 -1.671875 0.71875l-1.84375 -3.4375q1.171875 -0.640625 2.359375 -1.09375q1.203125 -0.46875 2.421875 -0.703125q1.234375 -0.234375 2.515625 -0.234375q2.1875 0 3.796875 0.765625q1.609375 0.75 2.484375 2.328125q0.890625 1.578125 0.890625 4.09375l0 8.515625l-4.28125 0l-0.375 -1.59375l-0.125 0q-1.125 0.828125 -2.453125 1.40625q-1.3125 0.5625 -2.75 0.5625zm1.71875 -4.046875q0.921875 0 1.65625 -0.359375q0.734375 -0.359375 1.34375 -0.8125l0 -1.96875q-1.875 0.0625 -2.890625 0.34375q-1.0 0.28125 -1.390625 0.734375q-0.375 0.4375 -0.375 0.953125q0 0.34375 0.171875 0.609375q0.1875 0.25 0.546875 0.375q0.375 0.125 0.9375 0.125z" fill-rule="nonzero"/><path fill="#3c78d8" d="m849.3333 205.71939l0 0c0 -6.2564545 5.0718994 -11.328308 11.328308 -11.328308l45.343384 0l0 0c3.0044556 0 5.8858643 1.193512 8.010315 3.317978c2.1245117 2.124466 3.3179932 5.0058746 3.3179932 8.01033l0 45.311874c0 6.2564545 -5.0718384 11.328323 -11.328308 11.328323l-45.343384 0c-6.2564087 0 -11.328308 -5.071869 -11.328308 -11.328323z" fill-rule="evenodd"/><path fill="#ffffff" d="m866.53326 239.31532l0 -3.0q2.609375 -2.125 4.625 -3.921875q2.03125 -1.8125 3.1875 -3.34375q1.171875 -1.53125 1.171875 -2.859375q0 -1.3125 -0.765625 -1.9375q-0.765625 -0.640625 -2.0625 -0.640625q-1.0625 0 -1.9375 0.578125q-0.875 0.5625 -1.671875 1.265625l-2.796875 -2.8125q1.59375 -1.625 3.21875 -2.375q1.625 -0.75 3.921875 -0.75q2.09375 0 3.6875 0.78125q1.59375 0.78125 2.5 2.21875q0.90625 1.4375 0.90625 3.375q0 1.5625 -0.953125 3.1875q-0.953125 1.625 -2.421875 3.171875q-1.46875 1.546875 -3.0625 2.890625q0.796875 -0.09375 1.78125 -0.171875q1.0 -0.078125 1.703125 -0.078125l3.921875 0l0 4.421875l-14.953125 0zm27.284424 0.375q-2.421875 0 -4.375 -0.953125q-1.9375 -0.953125 -3.078125 -2.75q-1.125 -1.796875 -1.125 -4.34375q0 -2.53125 1.25 -4.328125q1.265625 -1.796875 3.3125 -2.75q2.046875 -0.953125 4.421875 -0.953125q1.796875 0 3.3125 0.5625q1.53125 0.546875 2.46875 1.46875l-2.390625 3.25q-0.859375 -0.578125 -1.609375 -0.8125q-0.75 -0.234375 -1.484375 -0.234375q-1.125 0 -2.015625 0.46875q-0.890625 0.453125 -1.390625 1.3125q-0.484375 0.859375 -0.484375 2.015625q0 1.171875 0.46875 2.03125q0.484375 0.859375 1.328125 1.328125q0.84375 0.453125 1.90625 0.453125q1.140625 0 2.078125 -0.390625q0.9375 -0.40625 1.703125 -0.90625l2.078125 3.3125q-1.40625 1.171875 -3.125 1.703125q-1.71875 0.515625 -3.25 0.515625z" fill-rule="nonzero"/><path fill="#3c78d8" d="m933.1916 269.76926l0 0c0 -6.256439 5.0718994 -11.328308 11.328308 -11.328308l45.343384 0l0 0c3.0044556 0 5.8858643 1.193512 8.010315 3.3179932c2.1245117 2.1244507 3.3179932 5.0058594 3.3179932 8.010315l0 45.31189c0 6.256439 -5.0718384 11.328308 -11.328308 11.328308l-45.343384 0c-6.2564087 0 -11.328308 -5.071869 -11.328308 -11.328308z" fill-rule="evenodd"/><path fill="#ffffff" d="m950.39154 303.3652l0 -3.0q2.609375 -2.125 4.625 -3.921875q2.03125 -1.8125 3.1875 -3.34375q1.171875 -1.53125 1.171875 -2.859375q0 -1.3125 -0.765625 -1.9375q-0.765625 -0.640625 -2.0625 -0.640625q-1.0625 0 -1.9375 0.578125q-0.875 0.5625 -1.671875 1.265625l-2.796875 -2.8125q1.59375 -1.625 3.21875 -2.375q1.625 -0.75 3.921875 -0.75q2.09375 0 3.6875 0.78125q1.59375 0.78125 2.5 2.21875q0.90625 1.4375 0.90625 3.375q0 1.5625 -0.953125 3.1875q-0.953125 1.625 -2.421875 3.171875q-1.46875 1.546875 -3.0625 2.890625q0.796875 -0.09375 1.78125 -0.171875q1.0 -0.078125 1.703125 -0.078125l3.921875 0l0 4.421875l-14.953125 0zm27.378174 0.375q-1.046875 0 -2.0625 -0.5q-1.0 -0.515625 -1.890625 -1.53125l-0.125 0l-0.4375 1.65625l-4.09375 0l0 -21.34375l5.265625 0l0 4.96875l-0.1875 2.21875l0.125 0q0.796875 -0.75 1.796875 -1.140625q1.0 -0.40625 2.03125 -0.40625q1.875 0 3.234375 0.96875q1.375 0.96875 2.125 2.703125q0.75 1.734375 0.75 4.09375q0 2.640625 -0.9375 4.515625q-0.9375 1.859375 -2.421875 2.828125q-1.484375 0.96875 -3.171875 0.96875zm-1.265625 -4.296875q0.65625 0 1.1875 -0.359375q0.53125 -0.375 0.859375 -1.234375q0.34375 -0.859375 0.34375 -2.328125q0 -1.265625 -0.265625 -2.046875q-0.25 -0.78125 -0.75 -1.140625q-0.484375 -0.375 -1.25 -0.375q-0.609375 0 -1.140625 0.25q-0.515625 0.25 -1.0625 0.859375l0 5.640625q0.484375 0.390625 1.015625 0.5625q0.546875 0.171875 1.0625 0.171875z" fill-rule="nonzero"/><path fill="#000000" fill-opacity="0.0" d="m790.8924 258.44095l58.456665 -30.07875" fill-rule="evenodd"/><path stroke="#999999" stroke-width="4.0" stroke-linejoin="round" stroke-linecap="butt" d="m790.8924 258.44095l58.456665 -30.07875" fill-rule="evenodd"/><path fill="#000000" fill-opacity="0.0" d="m967.1916 258.44095l-49.858276 -30.07875" fill-rule="evenodd"/><path stroke="#999999" stroke-width="4.0" stroke-linejoin="round" stroke-linecap="butt" d="m967.1916 258.44095l-49.858276 -30.07875" fill-rule="evenodd"/><path fill="#000000" fill-opacity="0.0" d="m824.8924 292.4252l108.31494 0" fill-rule="evenodd"/><path stroke="#999999" stroke-width="4.0" stroke-linejoin="round" stroke-linecap="butt" d="m824.8924 292.4252l108.31494 0" fill-rule="evenodd"/><path fill="#000000" fill-opacity="0.0" d="m790.8924 326.40945l-73.88977 101.165344" fill-rule="evenodd"/><path stroke="#999999" stroke-width="4.0" stroke-linejoin="round" stroke-linecap="butt" d="m790.8924 326.40945l-73.88977 101.165344" fill-rule="evenodd"/><path fill="#000000" fill-opacity="0.0" d="m601.1916 188.4252l248.15747 39.936996" fill-rule="evenodd"/><path stroke="#999999" stroke-width="4.0" stroke-linejoin="round" stroke-linecap="butt" stroke-dasharray="16.0,12.0" d="m601.1916 188.4252l248.15747 39.936996" fill-rule="evenodd"/></g></svg>