<svg version="1.1" viewBox="0.0 0.0 974.3280839895014 519.8031496062993" fill="none" stroke="none" stroke-linecap="square" stroke-miterlimit="10" xmlns:xlink="http://www.w3.org/1999/xlink" xmlns="http://www.w3.org/2000/svg"><clipPath id="p.0"><path d="m0 0l974.32806 0l0 519.80316l-974.32806 0l0 -519.80316z" clip-rule="nonzero"/></clipPath><g clip-path="url(#p.0)"><path fill="#000000" fill-opacity="0.0" d="m0 0l974.32806 0l0 519.80316l-974.32806 0z" fill-rule="evenodd"/><path fill="#3c78d8" d="m415.6404 77.43964l0 0c0 -31.12799 25.234222 -56.36221 56.362213 -56.36221l0 0c14.948181 0 29.284119 5.9381447 39.854095 16.50811c10.569977 10.569962 16.508087 24.90591 16.508087 39.8541l0 0c0 31.127983 -25.234192 56.362198 -56.362183 56.362198l0 0c-31.12799 0 -56.362213 -25.234215 -56.362213 -56.362198z" fill-rule="evenodd"/><path fill="#ffffff" d="m458.53232 95.29963l8.234375 -12.828125l-7.734375 -11.828125l9.078125 0l2.015625 3.4375q0.546875 1.046875 1.203125 2.140625q0.671875 1.078125 1.21875 2.109375l0.1875 0q0.40625 -1.03125 0.890625 -2.109375q0.5 -1.09375 0.890625 -2.140625l1.625 -3.4375l8.828125 0l-7.78125 12.8125l8.234375 11.84375l-9.078125 0l-2.265625 -3.453125q-0.640625 -1.03125 -1.34375 -2.109375q-0.6875 -1.09375 -1.328125 -2.125l-0.1875 0q-0.5 1.03125 -1.015625 2.09375q-0.515625 1.0625 -1.015625 2.140625l-1.828125 3.453125l-8.828125 0z" fill-rule="nonzero"/><path fill="#3c78d8" d="m549.1706 259.90027l0 0c0 -31.12799 25.234253 -56.362213 56.362244 -56.362213l0 0c14.948181 0 29.284119 5.938141 39.854065 16.508102c10.569946 10.569977 16.508118 24.905914 16.508118 39.85411l0 0c0 31.12799 -25.234253 56.362213 -56.362183 56.362213l0 0c-31.12799 0 -56.362244 -25.234222 -56.362244 -56.362213z" fill-rule="evenodd"/><path fill="#ffffff" d="m594.1875 277.76025l0 -4.53125l11.34375 -13.515625l-9.96875 0l0 -6.609375l21.703125 0l0 4.53125l-11.4375 13.515625l11.734375 0l0 6.609375l-23.375 0z" fill-rule="nonzero"/><path fill="#3c78d8" d="m282.11023 259.90027l0 0c0 -31.12799 25.234222 -56.362213 56.362213 -56.362213l0 0c14.948181 0 29.284119 5.938141 39.854095 16.508102c10.569977 10.569977 16.508118 24.905914 16.508118 39.85411l0 0c0 31.12799 -25.234222 56.362213 -56.362213 56.362213l0 0c-31.12799 0 -56.362213 -25.234222 -56.362213 -56.362213z" fill-rule="evenodd"/><path fill="#ffffff" d="m330.924 287.0415q-1.140625 0 -2.125 -0.15625q-0.984375 -0.140625 -1.8125 -0.34375l1.46875 -6.40625q0.5 0.140625 0.9375 0.203125q0.453125 0.078125 0.84375 0.078125q1.96875 0 3.03125 -0.6875q1.0625 -0.6875 1.546875 -1.765625l0.40625 -1.09375l-10.359375 -23.765625l8.375 0l3.453125 9.46875q0.640625 1.765625 1.1875 3.625q0.546875 1.84375 1.046875 3.875l0.1875 0q0.453125 -1.875 1.015625 -3.78125q0.5625 -1.90625 1.109375 -3.71875l2.953125 -9.46875l8.0 0l-9.28125 24.265625q-1.28125 3.296875 -2.84375 5.4375q-1.546875 2.15625 -3.71875 3.1875q-2.171875 1.046875 -5.421875 1.046875z" fill-rule="nonzero"/><path fill="#3c78d8" d="m415.6404 442.3609l0 0c0 -31.12799 25.234222 -56.362213 56.362213 -56.362213l0 0c14.948181 0 29.284119 5.938141 39.854095 16.508118c10.569977 10.569946 16.508087 24.905914 16.508087 39.854095l0 0c0 31.12799 -25.234192 56.362183 -56.362183 56.362183l0 0c-31.12799 0 -56.362213 -25.234192 -56.362213 -56.362183z" fill-rule="evenodd"/><path fill="#ffffff" d="m460.86044 460.2209l-3.5625 -24.65625l8.1875 0l1.0 10.34375q0.1875 1.828125 0.328125 3.703125q0.15625 1.875 0.359375 3.796875l0.140625 0q0.203125 -1.921875 0.4375 -3.8125q0.25 -1.90625 0.59375 -3.6875l1.0 -6.40625l5.71875 0l1.078125 6.40625q0.34375 1.828125 0.609375 3.703125q0.28125 1.875 0.53125 3.796875l0.203125 0q0.234375 -1.921875 0.3125 -3.796875q0.078125 -1.875 0.21875 -3.703125l0.796875 -10.34375l7.890625 0l-3.25 24.65625l-9.78125 0l-0.78125 -6.609375q-0.203125 -1.734375 -0.40625 -3.5q-0.1875 -1.78125 -0.390625 -3.796875l-0.1875 0q-0.109375 1.234375 -0.25 2.90625q-0.140625 1.671875 -0.4375 4.390625l-0.796875 6.609375l-9.5625 0z" fill-rule="nonzero"/><path fill="#000000" fill-opacity="0.0" d="m394.83466 259.90027l154.33069 0" fill-rule="evenodd"/><path stroke="#999999" stroke-width="4.0" stroke-linejoin="round" stroke-linecap="butt" d="m394.83466 259.90027l154.33069 0" fill-rule="evenodd"/><path fill="#000000" fill-opacity="0.0" d="m432.14853 117.29373l-53.826782 102.74016" fill-rule="evenodd"/><path stroke="#999999" stroke-width="4.0" stroke-linejoin="round" stroke-linecap="butt" d="m432.14853 117.29373l-53.826782 102.74016" fill-rule="evenodd"/><path fill="#000000" fill-opacity="0.0" d="m511.85672 117.29373l53.82675 102.74016" fill-rule="evenodd"/><path stroke="#999999" stroke-width="4.0" stroke-linejoin="round" stroke-linecap="butt" d="m511.85672 117.29373l53.82675 102.74016" fill-rule="evenodd"/><path fill="#000000" fill-opacity="0.0" d="m432.14853 402.5068l-53.826782 -102.74017" fill-rule="evenodd"/><path stroke="#999999" stroke-width="4.0" stroke-linejoin="round" stroke-linecap="butt" d="m432.14853 402.5068l-53.826782 -102.74017" fill-rule="evenodd"/><path fill="#000000" fill-opacity="0.0" d="m511.85672 402.5068l53.82675 -102.74017" fill-rule="evenodd"/><path stroke="#999999" stroke-width="4.0" stroke-linejoin="round" stroke-linecap="butt" d="m511.85672 402.5068l53.82675 -102.74017" fill-rule="evenodd"/><path fill="#000000" fill-opacity="0.0" d="m245.30708 109.580055l154.3307 0l0 79.90551l-154.3307 0z" fill-rule="evenodd"/><path fill="#cc0000" d="m315.61276 162.93031q-1.734375 0 -3.40625 -0.625q-1.671875 -0.640625 -3.046875 -2.0q-1.359375 -1.375 -2.171875 -3.546875q-0.8125 -2.1875 -0.8125 -5.28125q0 -3.09375 0.828125 -5.390625q0.828125 -2.3125 2.234375 -3.828125q1.40625 -1.515625 3.1875 -2.265625q1.78125 -0.75 3.6875 -0.75q2.5625 0 4.5 0.859375q1.953125 0.859375 3.140625 2.015625l-3.25 3.671875q-0.640625 -0.609375 -1.6875 -1.09375q-1.046875 -0.484375 -2.125 -0.484375q-1.296875 0 -2.421875 0.6875q-1.109375 0.671875 -1.796875 2.265625q-0.671875 1.578125 -0.671875 4.3125q0 2.84375 0.59375 4.328125q0.59375 1.46875 1.453125 2.0q0.859375 0.515625 1.625 0.515625q0.75 0 1.40625 -0.28125q0.671875 -0.296875 1.109375 -1.0q0.4375 -0.703125 0.4375 -1.890625q0 -1.515625 -0.8125 -2.125q-0.8125 -0.609375 -2.0 -0.609375q-0.90625 0 -1.859375 0.484375q-0.953125 0.484375 -1.890625 1.671875l-0.28125 -3.890625q1.1875 -1.25 2.71875 -1.921875q1.53125 -0.671875 2.6875 -0.671875q1.9375 0 3.53125 0.75q1.609375 0.734375 2.5625 2.296875q0.953125 1.5625 0.953125 4.015625q0 2.453125 -1.171875 4.203125q-1.171875 1.734375 -3.078125 2.65625q-1.90625 0.921875 -4.171875 0.921875zm21.021881 0q-2.65625 0 -4.703125 -1.359375q-2.03125 -1.375 -3.171875 -4.03125q-1.125 -2.671875 -1.125 -6.5625q0 -5.875 2.484375 -8.796875q2.484375 -2.9375 6.515625 -2.9375q4.03125 0 6.515625 2.9375q2.484375 2.921875 2.484375 8.796875q0 3.890625 -1.140625 6.5625q-1.125 2.65625 -3.140625 4.03125q-2.015625 1.359375 -4.71875 1.359375zm0 -4.75q0.96875 0 1.765625 -0.609375q0.796875 -0.625 1.28125 -2.1875q0.484375 -1.5625 0.484375 -4.40625q0 -2.84375 -0.484375 -4.359375q-0.484375 -1.515625 -1.28125 -2.0625q-0.796875 -0.5625 -1.765625 -0.5625q-0.9375 0 -1.75 0.5625q-0.796875 0.546875 -1.296875 2.0625q-0.484375 1.515625 -0.484375 4.359375q0 2.84375 0.484375 4.40625q0.5 1.5625 1.296875 2.1875q0.8125 0.609375 1.75 0.609375zm0 -4.328125q-1.21875 0 -2.046875 -0.78125q-0.828125 -0.796875 -0.828125 -2.09375q0 -1.296875 0.828125 -2.09375q0.828125 -0.796875 2.046875 -0.796875q1.265625 0 2.078125 0.796875q0.8125 0.796875 0.8125 2.09375q0 1.296875 -0.8125 2.09375q-0.8125 0.78125 -2.078125 0.78125z" fill-rule="nonzero"/><path fill="#000000" fill-opacity="0.0" d="m369.03778 127.068794l21.600006 0l0 45.25202l-21.600006 0l0 -45.25202z" fill-rule="nonzero"/><path fill="#999999" d="m380.91278 162.49281l0 -12.390625q0 -1.140625 0.09375 -2.6875q0.09375 -1.546875 0.125 -2.703125l-0.140625 0q-0.578125 1.0 -1.265625 2.03125q-0.671875 1.03125 -1.296875 2.0625l-2.375 3.890625l13.25 0l0 4.6875l-19.078125 0l0 -4.328125l8.828125 -13.390625l7.625 0l0 22.828125l-5.765625 0z" fill-rule="nonzero"/><path fill="#000000" fill-opacity="0.0" d="m390.6378 127.068794l0 0l0 45.25202l0 0l0 -45.25202z" fill-rule="nonzero"/><path fill="#999999" d="m369.03778 150.0728l21.600006 0l0 3.2400055l-21.600006 0l0 -3.2400055z" fill-rule="nonzero"/><path fill="#000000" fill-opacity="0.0" d="m314.51968 203.53806l314.9606 0l0 63.02362l-314.9606 0z" fill-rule="evenodd"/><path fill="#999999" d="m471.1375 247.53555q-1.953125 0 -3.578125 -0.40625q-1.609375 -0.390625 -2.890625 -1.109375q-1.265625 -0.71875 -2.171875 -1.734375l2.8125 -3.890625q1.140625 0.984375 2.5 1.578125q1.375 0.59375 2.671875 0.59375q1.125 0 1.984375 -0.234375q0.859375 -0.234375 1.34375 -0.71875q0.5 -0.484375 0.5 -1.21875q0 -0.859375 -0.53125 -1.46875q-0.515625 -0.609375 -1.890625 -0.9375q-1.359375 -0.328125 -3.921875 -0.328125l0 -4.3125q2.046875 0 3.265625 -0.328125q1.234375 -0.328125 1.796875 -0.890625q0.5625 -0.578125 0.5625 -1.375q0 -1.046875 -0.765625 -1.5625q-0.75 -0.53125 -2.125 -0.53125q-1.21875 0 -2.28125 0.46875q-1.0625 0.46875 -2.25 1.40625l-3.09375 -3.734375q1.765625 -1.40625 3.734375 -2.171875q1.984375 -0.78125 4.1875 -0.78125q2.625 0 4.59375 0.75q1.984375 0.75 3.078125 2.171875q1.109375 1.421875 1.109375 3.515625q0 1.65625 -1.078125 2.890625q-1.078125 1.21875 -3.09375 2.046875l0 0.140625q1.390625 0.390625 2.5 1.140625q1.125 0.734375 1.75 1.8125q0.640625 1.078125 0.640625 2.515625q0 2.15625 -1.3125 3.65625q-1.3125 1.5 -3.4375 2.28125q-2.125 0.765625 -4.609375 0.765625z" fill-rule="nonzero"/><path fill="#000000" fill-opacity="0.0" d="m418.51968 117.92315l314.9606 0l0 63.02363l-314.9606 0z" fill-rule="evenodd"/><path fill="#999999" d="m564.5563 161.92065q-1.953125 0 -3.5625 -0.421875q-1.59375 -0.40625 -2.859375 -1.140625q-1.25 -0.75 -2.21875 -1.6875l2.734375 -3.890625q0.75 0.625 1.546875 1.109375q0.796875 0.484375 1.65625 0.78125q0.859375 0.28125 1.765625 0.28125q1.1875 0 2.0625 -0.328125q0.890625 -0.328125 1.359375 -0.96875q0.46875 -0.65625 0.46875 -1.65625q0 -1.484375 -1.046875 -2.21875q-1.046875 -0.734375 -2.5625 -0.734375q-1.0 0 -1.6875 0.21875q-0.6875 0.203125 -1.84375 0.859375l-2.65625 -1.734375l0.578125 -11.734375l14.390625 0l0 5.1875l-9.0625 0l-0.296875 3.3125q0.71875 -0.21875 1.28125 -0.28125q0.5625 -0.078125 1.25 -0.078125q2.078125 0 3.859375 0.765625q1.78125 0.75 2.875 2.3125q1.109375 1.5625 1.109375 3.984375q0 2.546875 -1.28125 4.359375q-1.28125 1.796875 -3.375 2.75q-2.078125 0.953125 -4.484375 0.953125zm22.2406 0q-2.65625 0 -4.703125 -1.359375q-2.03125 -1.375 -3.171875 -4.03125q-1.125 -2.671875 -1.125 -6.5625q0 -5.875 2.484375 -8.796875q2.484375 -2.9375 6.515625 -2.9375q4.03125 0 6.515625 2.9375q2.484375 2.921875 2.484375 8.796875q0 3.890625 -1.140625 6.5625q-1.125 2.65625 -3.140625 4.03125q-2.015625 1.359375 -4.71875 1.359375zm0 -4.75q0.96875 0 1.765625 -0.609375q0.796875 -0.625 1.28125 -2.1875q0.484375 -1.5625 0.484375 -4.40625q0 -2.84375 -0.484375 -4.359375q-0.484375 -1.515625 -1.28125 -2.0625q-0.796875 -0.5625 -1.765625 -0.5625q-0.9375 0 -1.75 0.5625q-0.796875 0.546875 -1.296875 2.0625q-0.484375 1.515625 -0.484375 4.359375q0 2.84375 0.484375 4.40625q0.5 1.5625 1.296875 2.1875q0.8125 0.609375 1.75 0.609375zm0 -4.328125q-1.21875 0 -2.046875 -0.78125q-0.828125 -0.796875 -0.828125 -2.09375q0 -1.296875 0.828125 -2.09375q0.828125 -0.796875 2.046875 -0.796875q1.265625 0 2.078125 0.796875q0.8125 0.796875 0.8125 2.09375q0 1.296875 -0.8125 2.09375q-0.8125 0.78125 -2.078125 0.78125z" fill-rule="nonzero"/><path fill="#000000" fill-opacity="0.0" d="m226.51968 323.53806l314.9606 0l0 63.02362l-314.9606 0z" fill-rule="evenodd"/><path fill="#999999" d="m375.79376 367.09805l0 -4.96875l5.96875 0l0 -11.8125l-5.03125 0l0 -3.8125q1.609375 -0.25 2.765625 -0.53125q1.15625 -0.296875 2.0625 -0.703125q0.921875 -0.421875 1.859375 -1.0l4.546875 0l0 17.859375l4.890625 0l0 4.96875l-17.0625 0z" fill-rule="nonzero"/><path fill="#000000" fill-opacity="0.0" d="m407.6378 323.53806l314.96066 0l0 63.02362l-314.96066 0z" fill-rule="evenodd"/><path fill="#999999" d="m556.91187 367.09805l0 -4.96875l5.96875 0l0 -11.8125l-5.03125 0l0 -3.8125q1.609375 -0.25 2.765625 -0.53125q1.15625 -0.296875 2.0625 -0.703125q0.921875 -0.421875 1.859375 -1.0l4.546875 0l0 17.859375l4.890625 0l0 4.96875l-17.0625 0z" fill-rule="nonzero"/></g></svg>