<svg version="1.1" viewBox="0.0 0.0 960.0 720.0" fill="none" stroke="none" stroke-linecap="square" stroke-miterlimit="10" xmlns:xlink="http://www.w3.org/1999/xlink" xmlns="http://www.w3.org/2000/svg"><clipPath id="p.0"><path d="m0 0l960.0 0l0 720.0l-960.0 0l0 -720.0z" clip-rule="nonzero"/></clipPath><g clip-path="url(#p.0)"><path fill="#000000" fill-opacity="0.0" d="m0 0l960.0 0l0 720.0l-960.0 0z" fill-rule="evenodd"/><path fill="#000000" fill-opacity="0.0" d="m338.26562 119.78592l0 0c-3.9566956 -22.757751 9.0338745 -45.286545 33.45932 -58.02658c24.425415 -12.74004 56.002045 -13.456993 81.33072 -1.8466377l0 0c8.972168 -13.2323 25.39389 -22.36829 44.297913 -24.644512c18.903992 -2.2762222 38.069946 2.5746803 51.7005 13.085396l0 0c7.6431274 -11.997253 22.650574 -20.057877 39.69696 -21.321537c17.046326 -1.2636623 33.719055 4.448475 44.101868 15.1094475l0 0c13.808472 -12.717058 35.778076 -18.071468 56.402466 -13.746347c20.62439 4.325121 36.19922 17.552942 39.98523 33.959717l0 0c16.917664 3.6116982 31.009766 12.79311 38.635315 25.172062c7.6255493 12.378952 8.036499 26.741089 1.126648 39.375694l0 0c16.658997 16.969666 20.55597 39.581528 10.236572 59.397247c-10.319336 19.81572 -33.304688 33.858215 -60.378235 36.887085c-0.19085693 18.597763 -13.222656 35.66284 -34.072388 44.617615c-20.849792 8.954773 -46.26172 8.40094 -66.44098 -1.4480896l0 0c-8.595337 22.274048 -32.788208 38.663086 -62.126465 42.086426c-29.338257 3.4233398 -58.56244 -6.732666 -75.0466 -26.080322l0 0c-20.206116 9.53653 -44.451782 12.283691 -67.26767 7.6217957c-22.815887 -4.661865 -42.28009 -16.340118 -54.00186 -32.40033l0 0c-20.648132 1.8911133 -40.61203 -6.4817505 -49.983673 -20.963211c-9.371643 -14.481445 -6.1560364 -31.988724 8.050934 -43.83304l0 0c-18.41867 -8.484695 -27.816986 -25.321136 -23.294098 -41.729797c4.522888 -16.40866 21.942078 -28.671265 43.174164 -30.393349z" fill-rule="evenodd"/><path fill="#000000" fill-opacity="0.0" d="m317.97742 192.78618l0 0c8.691803 4.003952 18.73291 5.820236 28.775085 5.205002m13.153107 59.59268c4.318512 -0.3955078 8.551483 -1.2330933 12.589722 -2.4911194m108.6738 27.268646c-3.0373535 -3.5650024 -5.5803833 -7.374481 -7.5857544 -11.363586m144.76404 -4.6431885l0 0c1.5670776 -4.0608826 2.5823975 -8.2404175 3.0289917 -12.468872m97.48059 -30.699112c0.20318604 -19.800201 -14.16571 -37.92946 -36.934753 -46.600723m87.07593 -49.68152c-3.687378 6.74234 -9.316528 12.723373 -16.446167 17.474152m-23.312378 -82.02368l0 0c0.6282959 2.7227135 0.9190674 5.4863396 0.86828613 8.252583m-97.25433 -28.465122l0 0c-3.444519 3.1722717 -6.2823486 6.717247 -8.42511 10.524544m-75.37451 -4.313843l0 0c-1.8356323 2.8813553 -3.2063599 5.930317 -4.0805664 9.07666m-91.91922 2.4826965l0 0c5.3595276 2.4567413 10.317841 5.4137 14.765961 8.805904m-129.5545 51.067635l0 0c0.5453186 3.1366043 1.4069824 6.234543 2.5768738 9.264816" fill-rule="evenodd"/><path stroke="#3c78d8" stroke-width="8.0" stroke-linejoin="round" stroke-linecap="butt" d="m338.26562 119.78592l0 0c-3.9566956 -22.757751 9.0338745 -45.286545 33.45932 -58.02658c24.425415 -12.74004 56.002045 -13.456993 81.33072 -1.8466377l0 0c8.972168 -13.2323 25.39389 -22.36829 44.297913 -24.644512c18.903992 -2.2762222 38.069946 2.5746803 51.7005 13.085396l0 0c7.6431274 -11.997253 22.650574 -20.057877 39.69696 -21.321537c17.046326 -1.2636623 33.719055 4.448475 44.101868 15.1094475l0 0c13.808472 -12.717058 35.778076 -18.071468 56.402466 -13.746347c20.62439 4.325121 36.19922 17.552942 39.98523 33.959717l0 0c16.917664 3.6116982 31.009766 12.79311 38.635315 25.172062c7.6255493 12.378952 8.036499 26.741089 1.126648 39.375694l0 0c16.658997 16.969666 20.55597 39.581528 10.236572 59.397247c-10.319336 19.81572 -33.304688 33.858215 -60.378235 36.887085c-0.19085693 18.597763 -13.222656 35.66284 -34.072388 44.617615c-20.849792 8.954773 -46.26172 8.40094 -66.44098 -1.4480896l0 0c-8.595337 22.274048 -32.788208 38.663086 -62.126465 42.086426c-29.338257 3.4233398 -58.56244 -6.732666 -75.0466 -26.080322l0 0c-20.206116 9.53653 -44.451782 12.283691 -67.26767 7.6217957c-22.815887 -4.661865 -42.28009 -16.340118 -54.00186 -32.40033l0 0c-20.648132 1.8911133 -40.61203 -6.4817505 -49.983673 -20.963211c-9.371643 -14.481445 -6.1560364 -31.988724 8.050934 -43.83304l0 0c-18.41867 -8.484695 -27.816986 -25.321136 -23.294098 -41.729797c4.522888 -16.40866 21.942078 -28.671265 43.174164 -30.393349z" fill-rule="evenodd"/><path stroke="#3c78d8" stroke-width="8.0" stroke-linejoin="round" stroke-linecap="butt" d="m317.97742 192.78618l0 0c8.691803 4.003952 18.73291 5.820236 28.775085 5.205002m13.153107 59.59268c4.318512 -0.3955078 8.551483 -1.2330933 12.589722 -2.4911194m108.6738 27.268646c-3.0373535 -3.5650024 -5.5803833 -7.374481 -7.5857544 -11.363586m144.76404 -4.6431885l0 0c1.5670776 -4.0608826 2.5823975 -8.2404175 3.0289917 -12.468872m97.48059 -30.699112c0.20318604 -19.800201 -14.16571 -37.92946 -36.934753 -46.600723m87.07593 -49.68152c-3.687378 6.74234 -9.316528 12.723373 -16.446167 17.474152m-23.312378 -82.02368l0 0c0.6282959 2.7227135 0.9190674 5.4863396 0.86828613 8.252583m-97.25433 -28.465122l0 0c-3.444519 3.1722717 -6.2823486 6.717247 -8.42511 10.524544m-75.37451 -4.313843l0 0c-1.8356323 2.8813553 -3.2063599 5.930317 -4.0805664 9.07666m-91.91922 2.4826965l0 0c5.3595276 2.4567413 10.317841 5.4137 14.765961 8.805904m-129.5545 51.067635l0 0c0.5453186 3.1366043 1.4069824 6.234543 2.5768738 9.264816" fill-rule="evenodd"/><path fill="#000000" fill-opacity="0.0" d="m480.88977 300.0656l116.8819 0l0 58.4252l-116.8819 0z" fill-rule="evenodd"/><path fill="#3c78d8" d="m495.36185 340.3182l0 -4.421875l4.546875 0l0 -11.09375l-4.546875 0l0 -4.40625l14.359375 0l0 4.40625l-4.546875 0l0 11.09375l4.546875 0l0 4.421875l-14.359375 0zm25.456268 0.375q-1.96875 0 -4.015625 -0.703125q-2.03125 -0.71875 -3.71875 -2.15625l3.015625 -3.609375q1.125 0.84375 2.421875 1.390625q1.3125 0.53125 2.65625 0.53125q1.203125 0 1.703125 -0.328125q0.515625 -0.34375 0.515625 -0.828125q0 -0.59375 -0.34375 -0.921875q-0.34375 -0.34375 -0.984375 -0.609375q-0.640625 -0.28125 -1.5625 -0.65625l-2.484375 -1.03125q-1.125 -0.4375 -2.09375 -1.1875q-0.96875 -0.75 -1.546875 -1.828125q-0.5625 -1.09375 -0.5625 -2.546875q0 -1.703125 0.953125 -3.09375q0.953125 -1.40625 2.671875 -2.25q1.71875 -0.84375 3.984375 -0.84375q1.78125 0 3.5625 0.671875q1.796875 0.65625 3.25 2.0l-2.640625 3.3125q-1.078125 -0.703125 -2.0625 -1.0625q-0.96875 -0.375 -2.421875 -0.375q-0.859375 0 -1.40625 0.328125q-0.546875 0.3125 -0.546875 1.015625q0 0.453125 0.359375 0.765625q0.375 0.3125 1.078125 0.59375q0.703125 0.265625 1.6875 0.625l2.296875 0.953125q1.34375 0.5 2.28125 1.25q0.9375 0.75 1.421875 1.796875q0.5 1.03125 0.5 2.40625q0 1.6875 -0.921875 3.15625q-0.921875 1.453125 -2.703125 2.34375q-1.765625 0.890625 -4.34375 0.890625zm11.284424 -0.375l0 -19.921875l7.46875 0q2.15625 0 3.953125 0.609375q1.8125 0.609375 2.90625 2.0625q1.109375 1.4375 1.109375 3.9375q0 2.421875 -1.125 3.984375q-1.109375 1.546875 -2.9375 2.28125q-1.8125 0.734375 -3.90625 0.734375l-2.203125 0l0 6.3125l-5.265625 0zm5.265625 -10.484375l1.96875 0q1.5625 0 2.3125 -0.75q0.75 -0.75 0.75 -2.078125q0 -1.34375 -0.796875 -1.890625q-0.796875 -0.546875 -2.265625 -0.546875l-1.96875 0l0 5.265625zm31.756348 10.484375l0 -4.234375l5.09375 0l0 -10.046875l-4.296875 0l0 -3.25q1.390625 -0.21875 2.359375 -0.453125q0.984375 -0.25 1.765625 -0.609375q0.78125 -0.359375 1.578125 -0.84375l3.859375 0l0 15.203125l4.171875 0l0 4.234375l-14.53125 0z" fill-rule="nonzero"/><path fill="#000000" fill-opacity="0.0" d="m448.8924 665.64044l116.8819 0l0 58.42517l-116.8819 0z" fill-rule="evenodd"/><path fill="#3c78d8" d="m463.36447 705.893l0 -4.421875l4.546875 0l0 -11.09375l-4.546875 0l0 -4.40625l14.359375 0l0 4.40625l-4.546875 0l0 11.09375l4.546875 0l0 4.421875l-14.359375 0zm25.456299 0.375q-1.96875 0 -4.015625 -0.703125q-2.03125 -0.71875 -3.71875 -2.15625l3.015625 -3.609375q1.125 0.84375 2.421875 1.390625q1.3125 0.53125 2.65625 0.53125q1.203125 0 1.703125 -0.328125q0.515625 -0.34375 0.515625 -0.828125q0 -0.59375 -0.34375 -0.921875q-0.34375 -0.34375 -0.984375 -0.609375q-0.640625 -0.28125 -1.5625 -0.65625l-2.484375 -1.03125q-1.125 -0.4375 -2.09375 -1.1875q-0.96875 -0.75 -1.546875 -1.828125q-0.5625 -1.09375 -0.5625 -2.546875q0 -1.703125 0.953125 -3.09375q0.953125 -1.40625 2.671875 -2.25q1.71875 -0.84375 3.984375 -0.84375q1.78125 0 3.5625 0.671875q1.796875 0.65625 3.25 2.0l-2.640625 3.3125q-1.078125 -0.703125 -2.0625 -1.0625q-0.96875 -0.375 -2.421875 -0.375q-0.859375 0 -1.40625 0.328125q-0.546875 0.3125 -0.546875 1.015625q0 0.453125 0.359375 0.765625q0.375 0.3125 1.078125 0.59375q0.703125 0.265625 1.6875 0.625l2.296875 0.953125q1.34375 0.5 2.28125 1.25q0.9375 0.75 1.421875 1.796875q0.5 1.03125 0.5 2.40625q0 1.6875 -0.921875 3.15625q-0.921875 1.453125 -2.703125 2.34375q-1.765625 0.890625 -4.34375 0.890625zm11.284424 -0.375l0 -19.921875l7.46875 0q2.15625 0 3.953125 0.609375q1.8124695 0.609375 2.9062195 2.0625q1.109375 1.4375 1.109375 3.9375q0 2.421875 -1.125 3.984375q-1.109375 1.546875 -2.9374695 2.28125q-1.8125 0.734375 -3.90625 0.734375l-2.203125 0l0 6.3125l-5.265625 0zm5.265625 -10.484375l1.96875 0q1.5625 0 2.3125 -0.75q0.75 -0.75 0.75 -2.078125q0 -1.34375 -0.796875 -1.890625q-0.796875 -0.546875 -2.265625 -0.546875l-1.96875 0l0 5.265625zm31.146942 10.484375l0 -3.0q2.609375 -2.125 4.625 -3.921875q2.03125 -1.8125 3.1875 -3.34375q1.171875 -1.53125 1.171875 -2.859375q0 -1.3125 -0.765625 -1.9375q-0.765625 -0.640625 -2.0625 -0.640625q-1.0625 0 -1.9375 0.578125q-0.875 0.5625 -1.671875 1.265625l-2.796875 -2.8125q1.59375 -1.625 3.21875 -2.375q1.625 -0.75 3.921875 -0.75q2.09375 0 3.6875 0.78125q1.59375 0.78125 2.5 2.21875q0.90625 1.4375 0.90625 3.375q0 1.5625 -0.953125 3.1875q-0.953125 1.625 -2.421875 3.171875q-1.46875 1.546875 -3.0625 2.890625q0.796875 -0.09375 1.78125 -0.171875q1.0 -0.078125 1.703125 -0.078125l3.921875 0l0 4.421875l-14.953125 0z" fill-rule="nonzero"/><path fill="#000000" fill-opacity="0.0" d="m60.67508 106.3511l0 0c-1.6524277 -10.173393 3.7728195 -20.244438 13.973595 -25.939621c10.200783 -5.695175 23.3881 -6.0156784 33.966095 -0.8255005l0 0c3.747055 -5.91523 10.6052475 -9.999298 18.500114 -11.01683c7.894867 -1.01754 15.899124 1.1509552 21.591644 5.8495636l0 0c3.1920013 -5.3631363 9.459564 -8.966476 16.578613 -9.531372c7.119049 -0.56489563 14.082077 1.9886017 18.418243 6.7543793l0 0c5.766815 -5.684906 14.941986 -8.078487 23.555328 -6.145027c8.613358 1.9334564 15.117874 7.8466873 16.699005 15.181007l0 0c7.065323 1.6145401 12.950607 5.7189026 16.135254 11.25267c3.1846466 5.53376 3.3562622 11.954063 0.47050476 17.602112l0 0c6.9572906 7.585945 8.584778 17.69413 4.275116 26.552345c-4.309677 8.858231 -13.909027 15.135651 -25.215744 16.48964c-0.079696655 8.313751 -5.522156 15.942352 -14.2296295 19.94542c-8.707474 4.0030518 -19.320251 3.7554626 -27.747711 -0.64733887l0 0c-3.5896454 9.957169 -13.693298 17.283554 -25.945831 18.813889c-12.252518 1.5303345 -24.45739 -3.0097198 -31.34166 -11.658691l0 0c-8.438667 4.2631073 -18.564377 5.4911804 -28.092964 3.4071808c-9.52858 -2.0839996 -17.657402 -7.304535 -22.552765 -14.4839325l0 0c-8.623264 0.84539795 -16.96077 -2.8975372 -20.874641 -9.37117c-3.9138718 -6.473648 -2.570942 -14.299927 3.3623009 -19.594696l0 0c-7.692173 -3.7929077 -11.6171875 -11.319305 -9.728294 -18.654465c1.8888931 -7.3351593 9.163658 -12.816917 18.030792 -13.586739z" fill-rule="evenodd"/><path fill="#000000" fill-opacity="0.0" d="m52.202126 138.9844l0 0c3.629963 1.7898865 7.8234177 2.601822 12.017326 2.3267822m5.493126 26.639725c1.8035355 -0.17680359 3.5713425 -0.55122375 5.2578354 -1.1136017m45.385376 12.189896c-1.2684937 -1.5936584 -2.330536 -3.2966156 -3.1680374 -5.0798492m60.457726 -2.075653l0 0c0.65444946 -1.8153381 1.0784607 -3.6837158 1.2649994 -5.5739594m40.71074 -13.723434c0.084854126 -8.851273 -5.9160156 -16.955597 -15.425034 -20.83191m36.36548 -22.20913c-1.5399628 3.0140228 -3.8908844 5.687729 -6.8684235 7.81147m-9.735916 -36.667046l0 0c0.26239014 1.2171326 0.38381958 2.4525604 0.36262512 3.6891556m-40.616272 -12.72477l0 0c-1.4385223 1.4181061 -2.6236877 3.0028152 -3.5185852 4.704788m-31.478592 -1.9284134l0 0c-0.7666168 1.2880478 -1.3390808 2.6510315 -1.7041931 4.057541m-38.388153 1.1098328l0 0c2.2382965 1.0982437 4.3090286 2.4200897 6.1667023 3.9365082m-54.105774 22.828758l0 0c0.22774506 1.4021606 0.5875969 2.787033 1.0761871 4.141655" fill-rule="evenodd"/><path stroke="#674ea7" stroke-width="8.0" stroke-linejoin="round" stroke-linecap="butt" d="m60.67508 106.3511l0 0c-1.6524277 -10.173393 3.7728195 -20.244438 13.973595 -25.939621c10.200783 -5.695175 23.3881 -6.0156784 33.966095 -0.8255005l0 0c3.747055 -5.91523 10.6052475 -9.999298 18.500114 -11.01683c7.894867 -1.01754 15.899124 1.1509552 21.591644 5.8495636l0 0c3.1920013 -5.3631363 9.459564 -8.966476 16.578613 -9.531372c7.119049 -0.56489563 14.082077 1.9886017 18.418243 6.7543793l0 0c5.766815 -5.684906 14.941986 -8.078487 23.555328 -6.145027c8.613358 1.9334564 15.117874 7.8466873 16.699005 15.181007l0 0c7.065323 1.6145401 12.950607 5.7189026 16.135254 11.25267c3.1846466 5.53376 3.3562622 11.954063 0.47050476 17.602112l0 0c6.9572906 7.585945 8.584778 17.69413 4.275116 26.552345c-4.309677 8.858231 -13.909027 15.135651 -25.215744 16.48964c-0.079696655 8.313751 -5.522156 15.942352 -14.2296295 19.94542c-8.707474 4.0030518 -19.320251 3.7554626 -27.747711 -0.64733887l0 0c-3.5896454 9.957169 -13.693298 17.283554 -25.945831 18.813889c-12.252518 1.5303345 -24.45739 -3.0097198 -31.34166 -11.658691l0 0c-8.438667 4.2631073 -18.564377 5.4911804 -28.092964 3.4071808c-9.52858 -2.0839996 -17.657402 -7.304535 -22.552765 -14.4839325l0 0c-8.623264 0.84539795 -16.96077 -2.8975372 -20.874641 -9.37117c-3.9138718 -6.473648 -2.570942 -14.299927 3.3623009 -19.594696l0 0c-7.692173 -3.7929077 -11.6171875 -11.319305 -9.728294 -18.654465c1.8888931 -7.3351593 9.163658 -12.816917 18.030792 -13.586739z" fill-rule="evenodd"/><path stroke="#674ea7" stroke-width="8.0" stroke-linejoin="round" stroke-linecap="butt" d="m52.202126 138.9844l0 0c3.629963 1.7898865 7.8234177 2.601822 12.017326 2.3267822m5.493126 26.639725c1.8035355 -0.17680359 3.5713425 -0.55122375 5.2578354 -1.1136017m45.385376 12.189896c-1.2684937 -1.5936584 -2.330536 -3.2966156 -3.1680374 -5.0798492m60.457726 -2.075653l0 0c0.65444946 -1.8153381 1.0784607 -3.6837158 1.2649994 -5.5739594m40.71074 -13.723434c0.084854126 -8.851273 -5.9160156 -16.955597 -15.425034 -20.83191m36.36548 -22.20913c-1.5399628 3.0140228 -3.8908844 5.687729 -6.8684235 7.81147m-9.735916 -36.667046l0 0c0.26239014 1.2171326 0.38381958 2.4525604 0.36262512 3.6891556m-40.616272 -12.72477l0 0c-1.4385223 1.4181061 -2.6236877 3.0028152 -3.5185852 4.704788m-31.478592 -1.9284134l0 0c-0.7666168 1.2880478 -1.3390808 2.6510315 -1.7041931 4.057541m-38.388153 1.1098328l0 0c2.2382965 1.0982437 4.3090286 2.4200897 6.1667023 3.9365082m-54.105774 22.828758l0 0c0.22774506 1.4021606 0.5875969 2.787033 1.0761871 4.141655" fill-rule="evenodd"/><path fill="#000000" fill-opacity="0.0" d="m764.4782 330.09875l0 0c-1.6524048 -10.173401 3.7728271 -20.244446 13.973633 -25.939606c10.200745 -5.6951904 23.388062 -6.015686 33.966064 -0.8255005l0 0c3.7470703 -5.9152527 10.605225 -9.999298 18.500122 -11.016846c7.8948975 -1.0175476 15.899109 1.15094 21.591675 5.8495483l0 0c3.1919556 -5.3631287 9.459534 -8.966461 16.578613 -9.531342c7.1190186 -0.5649109 14.082031 1.9885864 18.418213 6.754364l0 0c5.7668457 -5.684906 14.941956 -8.078491 23.555359 -6.1450195c8.613342 1.9334412 15.117859 7.8466797 16.698975 15.181l0 0c7.0653076 1.6145325 12.950623 5.7189026 16.135254 11.252655c3.1846313 5.533783 3.3562622 11.954071 0.47052002 17.602142l0 0c6.9572754 7.5859375 8.584778 17.694122 4.2750854 26.552338c-4.3096313 8.858215 -13.908997 15.135651 -25.215698 16.489624c-0.079711914 8.313751 -5.522217 15.942352 -14.229675 19.945435c-8.7074585 4.0030518 -19.320251 3.7554626 -27.74768 -0.64733887l0 0c-3.5896606 9.957153 -13.693298 17.283539 -25.945862 18.813873c-12.252502 1.5303345 -24.457397 -3.0097046 -31.341614 -11.658691l0 0c-8.438721 4.2631226 -18.564392 5.4911804 -28.093018 3.407196c-9.528564 -2.084015 -17.657349 -7.304535 -22.552734 -14.483948l0 0c-8.623291 0.84539795 -16.960754 -2.897522 -20.874634 -9.371155c-3.9138794 -6.4736633 -2.570984 -14.299927 3.3623047 -19.594696l0 0c-7.6921997 -3.7929077 -11.6171875 -11.319305 -9.7283325 -18.65448c1.888916 -7.335144 9.163696 -12.816895 18.030823 -13.586731z" fill-rule="evenodd"/><path fill="#000000" fill-opacity="0.0" d="m756.00525 362.73206l0 0c3.630005 1.7898865 7.8234253 2.6018372 12.017334 2.3267822m5.493164 26.63974c1.8035278 -0.17681885 3.57135 -0.551239 5.2578125 -1.113617m45.385376 12.189911c-1.2684937 -1.5936584 -2.3305054 -3.2966309 -3.1680298 -5.0798645m60.457703 -2.075653l0 0c0.65448 -1.8153381 1.0784912 -3.6837158 1.2650146 -5.573944m40.710754 -13.72345c0.08483887 -8.851257 -5.9160156 -16.955597 -15.425049 -20.83191m36.36548 -22.209137c-1.539978 3.014038 -3.8908691 5.687744 -6.868408 7.811493m-9.735901 -36.667053l0 0c0.26239014 1.2171326 0.38378906 2.4525452 0.36260986 3.689148m-40.616272 -12.724762l0 0c-1.4385376 1.4180908 -2.6237183 3.0028076 -3.5186157 4.7048035m-31.478577 -1.9284363l0 0c-0.76660156 1.2880554 -1.3390503 2.6510315 -1.7041626 4.057556m-38.388184 1.1098328l0 0c2.2382812 1.0982361 4.309021 2.4200745 6.166687 3.936493m-54.105774 22.828766l0 0c0.2277832 1.4021606 0.58758545 2.7870178 1.0762329 4.1416626" fill-rule="evenodd"/><path stroke="#e69138" stroke-width="8.0" stroke-linejoin="round" stroke-linecap="butt" d="m764.4782 330.09875l0 0c-1.6524048 -10.173401 3.7728271 -20.244446 13.973633 -25.939606c10.200745 -5.6951904 23.388062 -6.015686 33.966064 -0.8255005l0 0c3.7470703 -5.9152527 10.605225 -9.999298 18.500122 -11.016846c7.8948975 -1.0175476 15.899109 1.15094 21.591675 5.8495483l0 0c3.1919556 -5.3631287 9.459534 -8.966461 16.578613 -9.531342c7.1190186 -0.5649109 14.082031 1.9885864 18.418213 6.754364l0 0c5.7668457 -5.684906 14.941956 -8.078491 23.555359 -6.1450195c8.613342 1.9334412 15.117859 7.8466797 16.698975 15.181l0 0c7.0653076 1.6145325 12.950623 5.7189026 16.135254 11.252655c3.1846313 5.533783 3.3562622 11.954071 0.47052002 17.602142l0 0c6.9572754 7.5859375 8.584778 17.694122 4.2750854 26.552338c-4.3096313 8.858215 -13.908997 15.135651 -25.215698 16.489624c-0.079711914 8.313751 -5.522217 15.942352 -14.229675 19.945435c-8.7074585 4.0030518 -19.320251 3.7554626 -27.74768 -0.64733887l0 0c-3.5896606 9.957153 -13.693298 17.283539 -25.945862 18.813873c-12.252502 1.5303345 -24.457397 -3.0097046 -31.341614 -11.658691l0 0c-8.438721 4.2631226 -18.564392 5.4911804 -28.093018 3.407196c-9.528564 -2.084015 -17.657349 -7.304535 -22.552734 -14.483948l0 0c-8.623291 0.84539795 -16.960754 -2.897522 -20.874634 -9.371155c-3.9138794 -6.4736633 -2.570984 -14.299927 3.3623047 -19.594696l0 0c-7.6921997 -3.7929077 -11.6171875 -11.319305 -9.7283325 -18.65448c1.888916 -7.335144 9.163696 -12.816895 18.030823 -13.586731z" fill-rule="evenodd"/><path stroke="#e69138" stroke-width="8.0" stroke-linejoin="round" stroke-linecap="butt" d="m756.00525 362.73206l0 0c3.630005 1.7898865 7.8234253 2.6018372 12.017334 2.3267822m5.493164 26.63974c1.8035278 -0.17681885 3.57135 -0.551239 5.2578125 -1.113617m45.385376 12.189911c-1.2684937 -1.5936584 -2.3305054 -3.2966309 -3.1680298 -5.0798645m60.457703 -2.075653l0 0c0.65448 -1.8153381 1.0784912 -3.6837158 1.2650146 -5.573944m40.710754 -13.72345c0.08483887 -8.851257 -5.9160156 -16.955597 -15.425049 -20.83191m36.36548 -22.209137c-1.539978 3.014038 -3.8908691 5.687744 -6.868408 7.811493m-9.735901 -36.667053l0 0c0.26239014 1.2171326 0.38378906 2.4525452 0.36260986 3.689148m-40.616272 -12.724762l0 0c-1.4385376 1.4180908 -2.6237183 3.0028076 -3.5186157 4.7048035m-31.478577 -1.9284363l0 0c-0.76660156 1.2880554 -1.3390503 2.6510315 -1.7041626 4.057556m-38.388184 1.1098328l0 0c2.2382812 1.0982361 4.309021 2.4200745 6.166687 3.936493m-54.105774 22.828766l0 0c0.2277832 1.4021606 0.58758545 2.7870178 1.0762329 4.1416626" fill-rule="evenodd"/><path fill="#000000" fill-opacity="0.0" d="m19.585302 182.51706l239.21262 0l0 58.4252l-239.21262 0z" fill-rule="evenodd"/><path fill="#674ea7" d="m58.191357 223.14467q-1.859375 0 -3.5625 -0.625q-1.703125 -0.640625 -3.03125 -1.90625q-1.3125 -1.28125 -2.078125 -3.1875q-0.765625 -1.921875 -0.765625 -4.46875q0 -3.34375 1.3125 -5.6875q1.328125 -2.34375 3.53125 -3.5625q2.203125 -1.234375 4.90625 -1.234375q1.9375 0 3.515625 0.78125q1.578125 0.78125 2.6093788 1.796875l-2.8750038 3.25q-0.671875 -0.609375 -1.453125 -0.9375q-0.78125 -0.34375 -1.796875 -0.34375q-1.21875 0 -2.203125 0.6875q-0.984375 0.6875 -1.578125 1.984375q-0.578125 1.28125 -0.578125 3.078125q0 1.875 0.578125 3.1875q0.59375 1.296875 1.625 1.96875q1.046875 0.671875 2.40625 0.671875q0.96875 0 1.78125 -0.453125q0.8125 -0.46875 1.46875 -1.140625l2.8750038 3.1875q-1.2187538 1.46875 -2.9375038 2.21875q-1.71875 0.734375 -3.75 0.734375zm13.987553 0q-2.578125 0 -3.71875 -1.703125q-1.125 -1.703125 -1.125 -4.5625l0 -9.4375l5.265625 0l0 8.765625q0 1.296875 0.34375 1.875q0.359375 0.578125 1.40625 0.578125q0.671875 0 1.1875 -0.25q0.53125 -0.265625 1.109375 -1.09375l0 -9.875l5.28125 0l0 15.328125l-4.296875 0l-0.359375 -2.015625l-0.125 0q-0.953125 1.09375 -2.15625 1.75q-1.1875 0.640625 -2.8125 0.640625zm20.721924 0q-1.96875 0 -4.0 -0.6875q-2.015625 -0.703125 -3.484375 -1.65625l2.21875 -3.25q1.4375 0.859375 2.984375 1.296875q1.546875 0.421875 3.015625 0.421875q1.015625 0 1.453125 -0.25q0.453125 -0.265625 0.453125 -0.671875q0 -0.265625 -0.171875 -0.453125q-0.171875 -0.1875 -0.5625 -0.3125q-0.375 -0.140625 -1.015625 -0.28125q-0.640625 -0.140625 -1.625 -0.359375q-3.15625 -0.703125 -4.46875 -1.90625q-1.296875 -1.21875 -1.296875 -3.0q0 -2.265625 1.96875 -3.609375q1.984375 -1.359375 5.328125 -1.359375q2.171875 0 3.875 0.703125q1.703125 0.6875 2.9375 1.453125l-2.34375 3.125q-1.1875 -0.703125 -2.484375 -1.046875q-1.28125 -0.359375 -2.46875 -0.359375q-0.5 0 -0.859375 0.09375q-0.34375 0.078125 -0.546875 0.28125q-0.1875 0.203125 -0.1875 0.484375q0 0.484375 0.703125 0.671875q0.703125 0.1875 2.484375 0.609375q2.296875 0.515625 3.59375 1.203125q1.3125 0.671875 1.828125 1.578125q0.515625 0.890625 0.515625 2.1875q0 1.4375 -0.890625 2.59375q-0.890625 1.140625 -2.640625 1.828125q-1.734375 0.671875 -4.3125 0.671875zm21.331299 0q-2.515625 0 -4.015625 -0.859375q-1.5 -0.859375 -2.171875 -2.40625q-0.671875 -1.546875 -0.671875 -3.609375l0 -4.71875l-3.6875 0l0 -3.921875l3.9375 -0.1875l0.671875 -4.59375l4.34375 0l0 4.59375l6.078125 0l0 4.109375l-6.078125 0l0 4.625q0 1.078125 0.328125 1.703125q0.34375 0.625 1.0 0.890625q0.671875 0.265625 1.65625 0.265625q0.796875 0 1.484375 -0.140625q0.6875 -0.140625 1.296875 -0.359375l0.921875 3.8125q-1.015625 0.265625 -2.28125 0.53125q-1.25 0.265625 -2.8125 0.265625zm15.768799 0q-2.03125 0 -3.84375 -0.953125q-1.796875 -0.953125 -2.9375 -2.75q-1.140625 -1.796875 -1.140625 -4.34375q0 -2.53125 1.140625 -4.328125q1.140625 -1.796875 2.9375 -2.75q1.8125 -0.953125 3.84375 -0.953125q2.015625 0 3.828125 0.953125q1.8125 0.953125 2.9375 2.75q1.140625 1.796875 1.140625 4.328125q0 2.546875 -1.140625 4.34375q-1.125 1.796875 -2.9375 2.75q-1.8125 0.953125 -3.828125 0.953125zm0 -4.234375q0.875 0 1.421875 -0.453125q0.5625 -0.46875 0.8125 -1.328125q0.265625 -0.859375 0.265625 -2.03125q0 -1.15625 -0.265625 -2.015625q-0.25 -0.859375 -0.8125 -1.3125q-0.546875 -0.46875 -1.421875 -0.46875q-0.890625 0 -1.453125 0.46875q-0.546875 0.453125 -0.8125 1.3125q-0.25 0.859375 -0.25 2.015625q0 1.171875 0.25 2.03125q0.265625 0.859375 0.8125 1.328125q0.5625 0.453125 1.453125 0.453125zm9.987549 3.859375l0 -15.328125l3.921875 0l0.375 1.84375l0.125 0q0.359375 -0.890625 1.140625 -1.546875q0.78125 -0.671875 2.1093597 -0.671875q0.9375 0 1.625 0.640625q0.703125 0.625 0.9375 1.8125q0.34375 -0.96875 1.171875 -1.703125q0.828125 -0.75 2.140625 -0.75q1.65625 0 2.546875 1.375q0.890625 1.359375 0.890625 3.65625l0 10.671875l-4.96875 0l0 -10.296875q0 -0.921875 -0.515625 -0.921875q-0.3125 0 -0.5625 0.28125q-0.234375 0.265625 -0.453125 0.875l0 10.0625l-3.9843597 0l0 -10.296875q0 -0.5 -0.15625 -0.703125q-0.15625 -0.21875 -0.453125 -0.21875q-0.28125 0 -0.5 0.28125q-0.203125 0.265625 -0.421875 0.875l0 10.0625l-4.96875 0zm27.706284 0.375q-2.421875 0 -4.375 -0.953125q-1.9375 -0.953125 -3.078125 -2.75q-1.125 -1.796875 -1.125 -4.34375q0 -2.5 1.140625 -4.296875q1.15625 -1.796875 3.0 -2.765625q1.84375 -0.96875 3.890625 -0.96875q2.421875 0 4.046875 1.0q1.625 1.0 2.4375 2.6875q0.8125 1.6875 0.8125 3.734375q0 0.671875 -0.078125 1.3125q-0.078125 0.625 -0.140625 0.90625l-11.125 0l0 -3.4375l7.484375 0l-0.734375 0.921875q0 -1.53125 -0.625 -2.328125q-0.609375 -0.796875 -1.890625 -0.796875q-1.015625 0 -1.703125 0.421875q-0.6875 0.421875 -1.0625 1.328125q-0.359375 0.90625 -0.359375 2.28125q0 1.453125 0.46875 2.34375q0.484375 0.890625 1.40625 1.296875q0.9375 0.40625 2.359375 0.40625q0.90625 0 1.78125 -0.21875q0.875 -0.234375 1.890625 -0.6875l1.71875 3.125q-1.375 0.859375 -3.03125 1.328125q-1.65625 0.453125 -3.109375 0.453125zm11.471924 -0.375l0 -15.328125l4.328125 0l0.390625 3.25l0.125 0q1.109375 -1.90625 2.6875 -2.765625q1.578125 -0.859375 3.296875 -0.859375q1.0625 0 1.65625 0.171875q0.609375 0.171875 1.25 0.453125l-1.046875 4.40625q-0.671875 -0.21875 -1.25 -0.3125q-0.578125 -0.109375 -1.40625 -0.109375q-1.328125 0 -2.625 0.78125q-1.28125 0.78125 -2.125 2.703125l0 7.609375l-5.28125 0zm35.803223 0l0 -4.234375l5.09375 0l0 -10.046875l-4.296875 0l0 -3.25q1.390625 -0.21875 2.359375 -0.453125q0.984375 -0.25 1.765625 -0.609375q0.78125 -0.359375 1.578125 -0.84375l3.859375 0l0 15.203125l4.171875 0l0 4.234375l-14.53125 0z" fill-rule="nonzero"/><path fill="#000000" fill-opacity="0.0" d="m729.6483 409.3517l239.21259 0l0 58.4252l-239.21259 0z" fill-rule="evenodd"/><path fill="#e69138" d="m768.25433 449.9793q-1.859375 0 -3.5625 -0.625q-1.703125 -0.640625 -3.03125 -1.90625q-1.3125 -1.28125 -2.078125 -3.1875q-0.765625 -1.921875 -0.765625 -4.46875q0 -3.34375 1.3125 -5.6875q1.328125 -2.34375 3.53125 -3.5625q2.203125 -1.234375 4.90625 -1.234375q1.9375 0 3.515625 0.78125q1.578125 0.78125 2.609375 1.796875l-2.875 3.25q-0.671875 -0.609375 -1.453125 -0.9375q-0.78125 -0.34375 -1.796875 -0.34375q-1.21875 0 -2.203125 0.6875q-0.984375 0.6875 -1.578125 1.984375q-0.578125 1.28125 -0.578125 3.078125q0 1.875 0.578125 3.1875q0.59375 1.296875 1.625 1.96875q1.046875 0.671875 2.40625 0.671875q0.96875 0 1.78125 -0.453125q0.8125 -0.46875 1.46875 -1.140625l2.875 3.1875q-1.21875 1.46875 -2.9375 2.21875q-1.71875 0.734375 -3.75 0.734375zm13.987549 0q-2.578125 0 -3.71875 -1.703125q-1.125 -1.703125 -1.125 -4.5625l0 -9.4375l5.265625 0l0 8.765625q0 1.296875 0.34375 1.875q0.359375 0.578125 1.40625 0.578125q0.671875 0 1.1875 -0.25q0.53125 -0.265625 1.109375 -1.09375l0 -9.875l5.28125 0l0 15.328125l-4.296875 0l-0.359375 -2.015625l-0.125 0q-0.953125 1.09375 -2.15625 1.75q-1.1875 0.640625 -2.8125 0.640625zm20.721924 0q-1.96875 0 -4.0 -0.6875q-2.015625 -0.703125 -3.484375 -1.65625l2.21875 -3.25q1.4375 0.859375 2.984375 1.296875q1.546875 0.421875 3.015625 0.421875q1.015625 0 1.453125 -0.25q0.453125 -0.265625 0.453125 -0.671875q0 -0.265625 -0.171875 -0.453125q-0.171875 -0.1875 -0.5625 -0.3125q-0.375 -0.140625 -1.015625 -0.28125q-0.640625 -0.140625 -1.625 -0.359375q-3.15625 -0.703125 -4.46875 -1.90625q-1.296875 -1.21875 -1.296875 -3.0q0 -2.265625 1.96875 -3.609375q1.984375 -1.359375 5.328125 -1.359375q2.171875 0 3.875 0.703125q1.703125 0.6875 2.9375 1.453125l-2.34375 3.125q-1.1875 -0.703125 -2.484375 -1.046875q-1.28125 -0.359375 -2.46875 -0.359375q-0.5 0 -0.859375 0.09375q-0.34375 0.078125 -0.546875 0.28125q-0.1875 0.203125 -0.1875 0.484375q0 0.484375 0.703125 0.671875q0.703125 0.1875 2.484375 0.609375q2.296875 0.515625 3.59375 1.203125q1.3125 0.671875 1.828125 1.578125q0.515625 0.890625 0.515625 2.1875q0 1.4375 -0.890625 2.59375q-0.890625 1.140625 -2.640625 1.828125q-1.734375 0.671875 -4.3125 0.671875zm21.331299 0q-2.515625 0 -4.015625 -0.859375q-1.5 -0.859375 -2.171875 -2.40625q-0.671875 -1.546875 -0.671875 -3.609375l0 -4.71875l-3.6875 0l0 -3.921875l3.9375 -0.1875l0.671875 -4.59375l4.34375 0l0 4.59375l6.078125 0l0 4.109375l-6.078125 0l0 4.625q0 1.078125 0.328125 1.703125q0.34375 0.625 1.0 0.890625q0.671875 0.265625 1.65625 0.265625q0.796875 0 1.484375 -0.140625q0.6875 -0.140625 1.296875 -0.359375l0.921875 3.8125q-1.015625 0.265625 -2.28125 0.53125q-1.25 0.265625 -2.8125 0.265625zm15.768799 0q-2.03125 0 -3.84375 -0.953125q-1.796875 -0.953125 -2.9375 -2.75q-1.140625 -1.796875 -1.140625 -4.34375q0 -2.53125 1.140625 -4.328125q1.140625 -1.796875 2.9375 -2.75q1.8125 -0.953125 3.84375 -0.953125q2.015625 0 3.828125 0.953125q1.8125 0.953125 2.9375 2.75q1.140625 1.796875 1.140625 4.328125q0 2.546875 -1.140625 4.34375q-1.125 1.796875 -2.9375 2.75q-1.8125 0.953125 -3.828125 0.953125zm0 -4.234375q0.875 0 1.421875 -0.453125q0.5625 -0.46875 0.8125 -1.328125q0.265625 -0.859375 0.265625 -2.03125q0 -1.15625 -0.265625 -2.015625q-0.25 -0.859375 -0.8125 -1.3125q-0.546875 -0.46875 -1.421875 -0.46875q-0.890625 0 -1.453125 0.46875q-0.546875 0.453125 -0.8125 1.3125q-0.25 0.859375 -0.25 2.015625q0 1.171875 0.25 2.03125q0.265625 0.859375 0.8125 1.328125q0.5625 0.453125 1.453125 0.453125zm9.987549 3.859375l0 -15.328125l3.921875 0l0.375 1.84375l0.125 0q0.359375 -0.890625 1.140625 -1.546875q0.78125 -0.671875 2.109375 -0.671875q0.9375 0 1.625 0.640625q0.703125 0.625 0.9375 1.8125q0.34375 -0.96875 1.171875 -1.703125q0.828125 -0.75 2.140625 -0.75q1.65625 0 2.546875 1.375q0.890625 1.359375 0.890625 3.65625l0 10.671875l-4.96875 0l0 -10.296875q0 -0.921875 -0.515625 -0.921875q-0.3125 0 -0.5625 0.28125q-0.234375 0.265625 -0.453125 0.875l0 10.0625l-3.984375 0l0 -10.296875q0 -0.5 -0.15625 -0.703125q-0.15625 -0.21875 -0.453125 -0.21875q-0.28125 0 -0.5 0.28125q-0.203125 0.265625 -0.421875 0.875l0 10.0625l-4.96875 0zm27.706299 0.375q-2.421875 0 -4.375 -0.953125q-1.9375 -0.953125 -3.078125 -2.75q-1.125 -1.796875 -1.125 -4.34375q0 -2.5 1.140625 -4.296875q1.15625 -1.796875 3.0 -2.765625q1.84375 -0.96875 3.890625 -0.96875q2.421875 0 4.046875 1.0q1.625 1.0 2.4375 2.6875q0.8125 1.6875 0.8125 3.734375q0 0.671875 -0.078125 1.3125q-0.078125 0.625 -0.140625 0.90625l-11.125 0l0 -3.4375l7.484375 0l-0.734375 0.921875q0 -1.53125 -0.625 -2.328125q-0.609375 -0.796875 -1.890625 -0.796875q-1.015625 0 -1.703125 0.421875q-0.6875 0.421875 -1.0625 1.328125q-0.359375 0.90625 -0.359375 2.28125q0 1.453125 0.46875 2.34375q0.484375 0.890625 1.40625 1.296875q0.9375 0.40625 2.359375 0.40625q0.90625 0 1.78125 -0.21875q0.875 -0.234375 1.890625 -0.6875l1.71875 3.125q-1.375 0.859375 -3.03125 1.328125q-1.65625 0.453125 -3.109375 0.453125zm11.471924 -0.375l0 -15.328125l4.328125 0l0.390625 3.25l0.125 0q1.109375 -1.90625 2.6875 -2.765625q1.578125 -0.859375 3.296875 -0.859375q1.0625 0 1.65625 0.171875q0.609375 0.171875 1.25 0.453125l-1.046875 4.40625q-0.671875 -0.21875 -1.25 -0.3125q-0.578125 -0.109375 -1.40625 -0.109375q-1.328125 0 -2.625 0.78125q-1.28125 0.78125 -2.125 2.703125l0 7.609375l-5.28125 0zm35.193848 0l0 -3.0q2.609375 -2.125 4.625 -3.921875q2.03125 -1.8125 3.1875 -3.34375q1.171875 -1.53125 1.171875 -2.859375q0 -1.3125 -0.765625 -1.9375q-0.765625 -0.640625 -2.0625 -0.640625q-1.0625 0 -1.9375 0.578125q-0.875 0.5625 -1.671875 1.265625l-2.796875 -2.8125q1.59375 -1.625 3.21875 -2.375q1.625 -0.75 3.921875 -0.75q2.09375 0 3.6875 0.78125q1.59375 0.78125 2.5 2.21875q0.90625 1.4375 0.90625 3.375q0 1.5625 -0.953125 3.1875q-0.953125 1.625 -2.421875 3.171875q-1.46875 1.546875 -3.0625 2.890625q0.796875 -0.09375 1.78125 -0.171875q1.0 -0.078125 1.703125 -0.078125l3.921875 0l0 4.421875l-14.953125 0z" fill-rule="nonzero"/><path fill="#6aa84f" d="m23.700787 414.50223l119.60629 -125.71652l119.60631 125.71652l-119.60631 125.71652z" fill-rule="evenodd"/><path fill="#000000" fill-opacity="0.0" d="m23.700787 348.91077l239.2126 0l0 129.29132l-239.2126 0z" fill-rule="evenodd"/><path fill="#ffffff" d="m81.56667 383.51077l0 -17.328125l11.78125 0l0 3.84375l-7.1875 0l0 2.71875l6.125 0l0 3.828125l-6.125 0l0 3.09375l7.453125 0l0 3.84375l-12.046875 0zm14.478073 0l4.453125 -6.9375l-4.1875 -6.390625l4.90625 0l1.09375 1.859375q0.296875 0.5625 0.65625 1.15625q0.359375 0.578125 0.65625 1.140625l0.09375 0q0.21875 -0.5625 0.484375 -1.140625q0.265625 -0.59375 0.484375 -1.15625l0.875 -1.859375l4.765625 0l-4.203125 6.9375l4.453125 6.390625l-4.90625 0l-1.234375 -1.859375q-0.34375 -0.5625 -0.71875 -1.140625q-0.359375 -0.59375 -0.71875 -1.15625l-0.09375 0q-0.28125 0.5625 -0.5625 1.140625q-0.265625 0.5625 -0.53125 1.15625l-1.0 1.859375l-4.765625 0zm24.384323 0.3125q-2.09375 0 -3.796875 -0.8125q-1.6875 -0.828125 -2.671875 -2.390625q-0.984375 -1.5625 -0.984375 -3.765625q0 -2.21875 1.09375 -3.78125q1.09375 -1.5625 2.875 -2.375q1.78125 -0.828125 3.84375 -0.828125q1.5625 0 2.875 0.484375q1.328125 0.46875 2.15625 1.265625l-2.078125 2.828125q-0.75 -0.5 -1.40625 -0.703125q-0.640625 -0.203125 -1.28125 -0.203125q-0.984375 0 -1.765625 0.40625q-0.765625 0.390625 -1.203125 1.140625q-0.421875 0.75 -0.421875 1.765625q0 1.0 0.40625 1.75q0.421875 0.75 1.15625 1.15625q0.734375 0.390625 1.65625 0.390625q1.0 0 1.8125 -0.34375q0.8125 -0.34375 1.46875 -0.78125l1.8125 2.890625q-1.21875 1.0 -2.71875 1.453125q-1.484375 0.453125 -2.828125 0.453125zm8.5874405 -0.3125l0 -18.546875l4.59375 0l0 4.3125l-0.265625 2.34375l0.09375 0q0.640625 -0.640625 1.6875 -1.1875q1.0625 -0.5625 2.53125 -0.5625q2.21875 0 3.203125 1.484375q1.0 1.46875 1.0 3.953125l0 8.203125l-4.578125 0l0 -7.625q0 -1.125 -0.34375 -1.625q-0.328125 -0.5 -1.203125 -0.5q-0.640625 0 -1.125 0.265625q-0.46875 0.265625 -1.0 0.734375l0 8.75l-4.59375 0zm20.040573 0.3125q-1.375 0 -2.34375 -0.5625q-0.953125 -0.578125 -1.46875 -1.5q-0.5 -0.9375 -0.5 -2.03125q0 -2.25 1.921875 -3.421875q1.9375 -1.1875 6.5 -1.4375q-0.078125 -0.46875 -0.40625 -0.78125q-0.3125 -0.3125 -0.859375 -0.453125q-0.546875 -0.140625 -1.296875 -0.140625q-0.546875 0 -1.140625 0.125q-0.578125 0.109375 -1.234375 0.359375q-0.65625 0.25 -1.453125 0.625l-1.609375 -2.984375q1.015625 -0.5625 2.046875 -0.953125q1.046875 -0.40625 2.109375 -0.59375q1.078125 -0.203125 2.1875 -0.203125q1.90625 0 3.296875 0.65625q1.40625 0.640625 2.171875 2.015625q0.78125 1.375 0.78125 3.5625l0 7.40625l-3.734375 0l-0.328125 -1.390625l-0.09375 0q-1.0 0.71875 -2.140625 1.21875q-1.140625 0.484375 -2.40625 0.484375zm1.5 -3.515625q0.796875 0 1.4375 -0.296875q0.640625 -0.3125 1.171875 -0.71875l0 -1.703125q-1.625 0.0625 -2.5 0.296875q-0.875 0.234375 -1.21875 0.625q-0.328125 0.390625 -0.328125 0.84375q0 0.296875 0.15625 0.53125q0.15625 0.21875 0.46875 0.328125q0.328125 0.09375 0.8125 0.09375zm10.446838 3.203125l0 -13.328125l3.734375 0l0.3125 1.59375l0.109375 0q0.796875 -0.765625 1.890625 -1.328125q1.09375 -0.578125 2.5625 -0.578125q2.21875 0 3.21875 1.484375q1.015625 1.46875 1.015625 3.953125l0 8.203125l-4.578125 0l0 -7.625q0 -1.125 -0.34375 -1.625q-0.328125 -0.5 -1.203125 -0.5q-0.640625 0 -1.125 0.265625q-0.46875 0.265625 -1.0 0.734375l0 8.75l-4.59375 0zm21.462433 5.484375q-1.65625 0 -3.015625 -0.328125q-1.359375 -0.328125 -2.171875 -1.046875q-0.8125 -0.71875 -0.8125 -1.921875q0 -0.828125 0.515625 -1.453125q0.53125 -0.625 1.515625 -1.109375l0 -0.109375q-0.5625 -0.375 -0.953125 -0.921875q-0.390625 -0.546875 -0.390625 -1.359375q0 -0.703125 0.453125 -1.359375q0.453125 -0.671875 1.15625 -1.15625l0 -0.109375q-0.75 -0.46875 -1.28125 -1.359375q-0.53125 -0.90625 -0.53125 -2.046875q0 -1.65625 0.828125 -2.734375q0.828125 -1.078125 2.171875 -1.59375q1.34375 -0.515625 2.890625 -0.515625q1.28125 0 2.265625 0.3125l5.375 0l0 3.3125l-2.390625 0q0.125 0.234375 0.25 0.609375q0.125 0.375 0.125 0.765625q0 1.578125 -0.75 2.546875q-0.75 0.96875 -2.015625 1.421875q-1.265625 0.453125 -2.859375 0.453125q-0.34375 0 -0.78125 -0.03125q-0.421875 -0.046875 -0.90625 -0.140625q-0.234375 0.171875 -0.328125 0.328125q-0.09375 0.140625 -0.09375 0.4375q0 0.421875 0.46875 0.609375q0.484375 0.1875 1.609375 0.1875l2.265625 0q2.640625 0 4.09375 0.8125q1.453125 0.8125 1.453125 2.65625q0 1.4375 -1.0 2.53125q-1.0 1.09375 -2.828125 1.703125q-1.828125 0.609375 -4.328125 0.609375zm0.375 -12.421875q0.453125 0 0.8125 -0.1875q0.359375 -0.203125 0.578125 -0.609375q0.234375 -0.421875 0.234375 -1.0625q0 -0.609375 -0.234375 -1.0q-0.21875 -0.40625 -0.578125 -0.609375q-0.359375 -0.203125 -0.8125 -0.203125q-0.421875 0 -0.796875 0.203125q-0.375 0.203125 -0.59375 0.609375q-0.21875 0.390625 -0.21875 1.0q0 0.640625 0.21875 1.0625q0.21875 0.40625 0.59375 0.609375q0.375 0.1875 0.796875 0.1875zm0.34375 9.609375q0.90625 0 1.59375 -0.15625q0.703125 -0.140625 1.09375 -0.421875q0.40625 -0.28125 0.40625 -0.65625q0 -0.53125 -0.53125 -0.671875q-0.53125 -0.125 -1.546875 -0.125l-1.328125 0q-0.78125 0 -1.234375 -0.046875q-0.453125 -0.03125 -0.796875 -0.109375q-0.34375 0.234375 -0.515625 0.4375q-0.15625 0.21875 -0.15625 0.515625q0 0.640625 0.84375 0.9375q0.84375 0.296875 2.171875 0.296875zm16.899963 -2.359375q-2.109375 0 -3.796875 -0.8125q-1.6875 -0.828125 -2.6875 -2.390625q-0.984375 -1.5625 -0.984375 -3.765625q0 -2.1875 1.0 -3.75q1.0 -1.5625 2.59375 -2.390625q1.609375 -0.84375 3.390625 -0.84375q2.109375 0 3.515625 0.859375q1.421875 0.859375 2.125 2.328125q0.703125 1.46875 0.703125 3.25q0 0.59375 -0.0625 1.140625q-0.0625 0.546875 -0.125 0.78125l-9.671875 0l0 -2.984375l6.5 0l-0.640625 0.796875q0 -1.328125 -0.53125 -2.015625q-0.53125 -0.703125 -1.640625 -0.703125q-0.890625 0 -1.5 0.375q-0.59375 0.375 -0.921875 1.171875q-0.3125 0.78125 -0.3125 1.984375q0 1.25 0.40625 2.03125q0.421875 0.765625 1.234375 1.125q0.8125 0.359375 2.046875 0.359375q0.796875 0 1.546875 -0.203125q0.765625 -0.203125 1.65625 -0.59375l1.484375 2.71875q-1.203125 0.734375 -2.640625 1.140625q-1.4375 0.390625 -2.6875 0.390625z" fill-rule="nonzero"/><path fill="#ffffff" d="m105.02597 415.51077l0 -17.328125l6.5 0q1.875 0 3.4375 0.53125q1.578125 0.53125 2.53125 1.796875q0.96875 1.25 0.96875 3.4375q0 2.09375 -0.984375 3.453125q-0.96875 1.34375 -2.5625 1.984375q-1.578125 0.640625 -3.390625 0.640625l-1.90625 0l0 5.484375l-4.59375 0zm4.59375 -9.109375l1.703125 0q1.359375 0 2.0 -0.65625q0.65625 -0.65625 0.65625 -1.796875q0 -1.171875 -0.6875 -1.65625q-0.6875 -0.484375 -1.96875 -0.484375l-1.703125 0l0 4.59375zm17.696823 9.421875q-1.765625 0 -3.34375 -0.8125q-1.5625 -0.828125 -2.546875 -2.390625q-0.984375 -1.5625 -0.984375 -3.765625q0 -2.21875 0.984375 -3.78125q0.984375 -1.5625 2.546875 -2.375q1.578125 -0.828125 3.34375 -0.828125q1.75 0 3.328125 0.828125q1.578125 0.8125 2.5625 2.375q0.984375 1.5625 0.984375 3.78125q0 2.203125 -0.984375 3.765625q-0.984375 1.5625 -2.5625 2.390625q-1.578125 0.8125 -3.328125 0.8125zm0 -3.671875q0.765625 0 1.25 -0.390625q0.484375 -0.40625 0.703125 -1.15625q0.234375 -0.75 0.234375 -1.75q0 -1.015625 -0.234375 -1.765625q-0.21875 -0.75 -0.703125 -1.140625q-0.484375 -0.40625 -1.25 -0.40625q-0.78125 0 -1.265625 0.40625q-0.46875 0.390625 -0.703125 1.140625q-0.21875 0.75 -0.21875 1.765625q0 1.0 0.21875 1.75q0.234375 0.75 0.703125 1.15625q0.484375 0.390625 1.265625 0.390625zm15.024948 3.359375l0 -9.75l-5.0625 0l0 -3.578125l9.65625 0l0 13.328125l-4.59375 0zm2.140625 -15.140625q-1.28125 0 -2.109375 -0.734375q-0.828125 -0.734375 -0.828125 -1.9375q0 -1.1875 0.828125 -1.953125q0.828125 -0.765625 2.109375 -0.765625q1.28125 0 2.09375 0.765625q0.828125 0.765625 0.828125 1.953125q0 1.203125 -0.828125 1.9375q-0.8125 0.734375 -2.09375 0.734375zm8.524948 15.140625l0 -13.328125l3.734375 0l0.3125 1.59375l0.109375 0q0.796875 -0.765625 1.890625 -1.328125q1.09375 -0.578125 2.5625 -0.578125q2.21875 0 3.21875 1.484375q1.015625 1.46875 1.015625 3.953125l0 8.203125l-4.578125 0l0 -7.625q0 -1.125 -0.34375 -1.625q-0.328125 -0.5 -1.203125 -0.5q-0.640625 0 -1.125 0.265625q-0.46875 0.265625 -1.0 0.734375l0 8.75l-4.59375 0zm24.587448 0.3125q-2.1875 0 -3.5 -0.734375q-1.3125 -0.75 -1.90625 -2.09375q-0.578125 -1.34375 -0.578125 -3.140625l0 -4.09375l-3.1875 0l0 -3.421875l3.40625 -0.15625l0.59375 -4.0l3.78125 0l0 4.0l5.28125 0l0 3.578125l-5.28125 0l0 4.015625q0 0.9375 0.28125 1.484375q0.296875 0.546875 0.875 0.78125q0.578125 0.21875 1.421875 0.21875q0.703125 0 1.296875 -0.109375q0.59375 -0.125 1.140625 -0.3125l0.796875 3.296875q-0.890625 0.234375 -1.984375 0.453125q-1.078125 0.234375 -2.4375 0.234375z" fill-rule="nonzero"/><path fill="#ffffff" d="m66.1383 439.83075l0 -12.125l4.5625 0q1.296875 0 2.390625 0.375q1.109375 0.375 1.78125 1.25q0.671875 0.875 0.671875 2.40625q0 1.46875 -0.6875 2.421875q-0.671875 0.9375 -1.78125 1.390625q-1.109375 0.4375 -2.375 0.4375l-1.34375 0l0 3.84375l-3.21875 0zm3.21875 -6.375l1.1875 0q0.953125 0 1.40625 -0.453125q0.46875 -0.46875 0.46875 -1.265625q0 -0.828125 -0.484375 -1.15625q-0.484375 -0.34375 -1.390625 -0.34375l-1.1875 0l0 3.21875zm10.787506 6.59375q-1.578125 0 -2.265625 -1.03125q-0.6875 -1.03125 -0.6875 -2.765625l0 -5.75l3.203125 0l0 5.328125q0 0.796875 0.21875 1.15625q0.21875 0.34375 0.84375 0.34375q0.421875 0 0.734375 -0.15625q0.3125 -0.15625 0.671875 -0.671875l0 -6.0l3.203125 0l0 9.328125l-2.609375 0l-0.21875 -1.234375l-0.078125 0q-0.578125 0.671875 -1.3125 1.0625q-0.71875 0.390625 -1.703125 0.390625zm13.631256 0q-0.640625 0 -1.25 -0.296875q-0.609375 -0.3125 -1.15625 -0.921875l-0.078125 0l-0.265625 1.0l-2.5 0l0 -12.984375l3.21875 0l0 3.015625l-0.109375 1.34375l0.0625 0q0.484375 -0.4375 1.09375 -0.671875q0.609375 -0.25 1.25 -0.25q1.125 0 1.953125 0.59375q0.84375 0.578125 1.296875 1.640625q0.453125 1.046875 0.453125 2.484375q0 1.59375 -0.578125 2.734375q-0.5625 1.140625 -1.46875 1.734375q-0.890625 0.578125 -1.921875 0.578125zm-0.765625 -2.609375q0.390625 0 0.71875 -0.21875q0.328125 -0.21875 0.53125 -0.734375q0.203125 -0.53125 0.203125 -1.4375q0 -0.765625 -0.15625 -1.234375q-0.15625 -0.484375 -0.453125 -0.703125q-0.296875 -0.21875 -0.765625 -0.21875q-0.375 0 -0.703125 0.15625q-0.3125 0.140625 -0.640625 0.515625l0 3.4375q0.296875 0.234375 0.625 0.34375q0.328125 0.09375 0.640625 0.09375zm12.818756 2.609375q-1.875 0 -2.8125 -1.125q-0.9375 -1.125 -0.9375 -2.9375l0 -6.640625l-2.796875 0l0 -2.5l6.0 0l0 9.25q0 0.8125 0.453125 1.109375q0.46875 0.28125 0.953125 0.28125q0.296875 0 0.609375 -0.0625q0.3125 -0.078125 0.734375 -0.203125l0.6875 2.34375q-0.75 0.234375 -1.375 0.359375q-0.609375 0.125 -1.515625 0.125zm8.818756 -0.21875l0 -6.828125l-3.546875 0l0 -2.5l6.765625 0l0 9.328125l-3.21875 0zm1.5 -10.59375q-0.890625 0 -1.46875 -0.515625q-0.578125 -0.515625 -0.578125 -1.359375q0 -0.828125 0.578125 -1.359375q0.578125 -0.53125 1.46875 -0.53125q0.90625 0 1.484375 0.53125q0.578125 0.53125 0.578125 1.359375q0 0.84375 -0.578125 1.359375q-0.578125 0.515625 -1.484375 0.515625zm11.146881 10.8125q-1.46875 0 -2.65625 -0.578125q-1.1875 -0.578125 -1.875 -1.65625q-0.6875 -1.09375 -0.6875 -2.65625q0 -1.546875 0.765625 -2.625q0.765625 -1.09375 2.015625 -1.671875q1.25 -0.578125 2.6875 -0.578125q1.0937424 0 2.0156174 0.34375q0.9375 0.328125 1.515625 0.875l-1.46875 1.984375q-0.515625 -0.359375 -0.984375 -0.5q-0.453125 -0.140625 -0.8906174 -0.140625q-0.6875 0 -1.234375 0.28125q-0.546875 0.28125 -0.84375 0.8125q-0.296875 0.515625 -0.296875 1.21875q0 0.71875 0.28125 1.25q0.296875 0.515625 0.8125 0.796875q0.515625 0.28125 1.171875 0.28125q0.6874924 0 1.2499924 -0.234375q0.578125 -0.25 1.046875 -0.5625l1.265625 2.015625q-0.859375 0.71875 -1.90625 1.03125q-1.046875 0.3125 -1.9843674 0.3125zm17.200005 -0.21875l0 -12.125l4.5625 0q1.296875 0 2.390625 0.375q1.109375 0.375 1.78125 1.25q0.671875 0.875 0.671875 2.40625q0 1.46875 -0.6875 2.421875q-0.671875 0.9375 -1.78125 1.390625q-1.109375 0.4375 -2.375 0.4375l-1.34375 0l0 3.84375l-3.21875 0zm3.21875 -6.375l1.1875 0q0.953125 0 1.40625 -0.453125q0.46875 -0.46875 0.46875 -1.265625q0 -0.828125 -0.484375 -1.15625q-0.484375 -0.34375 -1.390625 -0.34375l-1.1875 0l0 3.21875zm12.943756 6.59375q-1.46875 0 -2.65625 -0.578125q-1.1875 -0.578125 -1.875 -1.65625q-0.6875 -1.09375 -0.6875 -2.65625q0 -1.515625 0.6875 -2.609375q0.703125 -1.09375 1.828125 -1.671875q1.125 -0.59375 2.375 -0.59375q1.46875 0 2.453125 0.609375q0.984375 0.59375 1.484375 1.625q0.5 1.03125 0.5 2.28125q0 0.40625 -0.046875 0.796875q-0.046875 0.375 -0.09375 0.546875l-6.765625 0l0 -2.09375l4.546875 0l-0.4375 0.5625q0 -0.9375 -0.375 -1.421875q-0.375 -0.484375 -1.15625 -0.484375q-0.625 0 -1.046875 0.265625q-0.40625 0.25 -0.640625 0.8125q-0.21875 0.546875 -0.21875 1.375q0 0.890625 0.28125 1.4375q0.296875 0.53125 0.859375 0.78125q0.578125 0.25 1.4375 0.25q0.546875 0 1.078125 -0.140625q0.546875 -0.140625 1.15625 -0.421875l1.046875 1.90625q-0.84375 0.53125 -1.859375 0.8125q-1.0 0.265625 -1.875 0.265625zm11.193756 0q-1.46875 0 -2.65625 -0.578125q-1.1875 -0.578125 -1.875 -1.65625q-0.6875 -1.09375 -0.6875 -2.65625q0 -1.515625 0.6875 -2.609375q0.703125 -1.09375 1.828125 -1.671875q1.125 -0.59375 2.375 -0.59375q1.46875 0 2.453125 0.609375q0.984375 0.59375 1.484375 1.625q0.5 1.03125 0.5 2.28125q0 0.40625 -0.046875 0.796875q-0.046875 0.375 -0.09375 0.546875l-6.765625 0l0 -2.09375l4.546875 0l-0.4375 0.5625q0 -0.9375 -0.375 -1.421875q-0.375 -0.484375 -1.15625 -0.484375q-0.625 0 -1.046875 0.265625q-0.40625 0.25 -0.640625 0.8125q-0.21875 0.546875 -0.21875 1.375q0 0.890625 0.28125 1.4375q0.296875 0.53125 0.859375 0.78125q0.578125 0.25 1.4375 0.25q0.546875 0 1.078125 -0.140625q0.546875 -0.140625 1.15625 -0.421875l1.046875 1.90625q-0.84375 0.53125 -1.859375 0.8125q-1.0 0.265625 -1.875 0.265625zm6.975006 -0.21875l0 -9.328125l2.640625 0l0.234375 1.984375l0.078125 0q0.671875 -1.15625 1.625 -1.671875q0.96875 -0.53125 2.015625 -0.53125q0.640625 0 1.0 0.109375q0.375 0.09375 0.765625 0.265625l-0.640625 2.671875q-0.40625 -0.125 -0.765625 -0.1875q-0.34375 -0.0625 -0.84375 -0.0625q-0.8125 0 -1.59375 0.484375q-0.78125 0.46875 -1.296875 1.640625l0 4.625l-3.21875 0zm14.178131 0l0 -6.828125l-3.546875 0l0 -2.5l6.765625 0l0 9.328125l-3.21875 0zm1.5 -10.59375q-0.890625 0 -1.46875 -0.515625q-0.578125 -0.515625 -0.578125 -1.359375q0 -0.828125 0.578125 -1.359375q0.578125 -0.53125 1.46875 -0.53125q0.90625 0 1.484375 0.53125q0.578125 0.53125 0.578125 1.359375q0 0.84375 -0.578125 1.359375q-0.578125 0.515625 -1.484375 0.515625zm5.959381 10.59375l0 -9.328125l2.625 0l0.21875 1.125l0.078125 0q0.5625 -0.546875 1.3125 -0.9375q0.765625 -0.40625 1.796875 -0.40625q1.546875 0 2.25 1.03125q0.71875 1.03125 0.71875 2.765625l0 5.75l-3.203125 0l0 -5.328125q0 -0.796875 -0.234375 -1.140625q-0.234375 -0.359375 -0.859375 -0.359375q-0.4375 0 -0.78125 0.1875q-0.328125 0.1875 -0.703125 0.515625l0 6.125l-3.21875 0zm15.021881 3.84375q-1.15625 0 -2.109375 -0.234375q-0.953125 -0.234375 -1.515625 -0.734375q-0.5625 -0.5 -0.5625 -1.34375q0 -0.578125 0.359375 -1.015625q0.359375 -0.4375 1.046875 -0.78125l0 -0.0625q-0.390625 -0.265625 -0.65625 -0.640625q-0.265625 -0.390625 -0.265625 -0.96875q0 -0.484375 0.3125 -0.953125q0.3125 -0.46875 0.796875 -0.796875l0 -0.078125q-0.515625 -0.34375 -0.890625 -0.96875q-0.375 -0.625 -0.375 -1.421875q0 -1.15625 0.578125 -1.90625q0.578125 -0.765625 1.515625 -1.125q0.953125 -0.359375 2.03125 -0.359375q0.890625 0 1.578125 0.21875l3.78125 0l0 2.3125l-1.6875 0q0.09375 0.171875 0.171875 0.4375q0.09375 0.25 0.09375 0.53125q0 1.109375 -0.53125 1.796875q-0.515625 0.671875 -1.40625 0.984375q-0.875 0.3125 -2.0 0.3125q-0.25 0 -0.546875 -0.015625q-0.296875 -0.03125 -0.625 -0.109375q-0.171875 0.125 -0.234375 0.234375q-0.0625 0.09375 -0.0625 0.3125q0 0.296875 0.328125 0.421875q0.34375 0.125 1.125 0.125l1.578125 0q1.84375 0 2.859375 0.578125q1.03125 0.5625 1.03125 1.859375q0 1.0 -0.703125 1.765625q-0.703125 0.765625 -1.984375 1.1875q-1.28125 0.4375 -3.03125 0.4375zm0.265625 -8.6875q0.3125 0 0.5625 -0.140625q0.25 -0.140625 0.40625 -0.421875q0.171875 -0.296875 0.171875 -0.75q0 -0.421875 -0.171875 -0.703125q-0.15625 -0.28125 -0.40625 -0.421875q-0.25 -0.140625 -0.5625 -0.140625q-0.296875 0 -0.5625 0.140625q-0.265625 0.140625 -0.421875 0.421875q-0.140625 0.28125 -0.140625 0.703125q0 0.453125 0.140625 0.75q0.15625 0.28125 0.421875 0.421875q0.265625 0.140625 0.5625 0.140625zm0.234375 6.703125q0.640625 0 1.125 -0.109375q0.484375 -0.09375 0.765625 -0.296875q0.28125 -0.1875 0.28125 -0.453125q0 -0.359375 -0.375 -0.453125q-0.375 -0.09375 -1.078125 -0.09375l-0.9375 0q-0.546875 0 -0.859375 -0.03125q-0.3125 -0.03125 -0.5625 -0.09375q-0.234375 0.171875 -0.34375 0.3125q-0.109375 0.15625 -0.109375 0.359375q0 0.453125 0.578125 0.65625q0.59375 0.203125 1.515625 0.203125z" fill-rule="nonzero"/><path fill="#ffffff" d="m100.32894 462.23074l0 -12.125l3.203125 0l0 9.4375l5.171875 0l0 2.6875l-8.375 0zm14.990631 0.21875q-1.234375 0 -2.328125 -0.578125q-1.09375 -0.578125 -1.796875 -1.65625q-0.6875 -1.09375 -0.6875 -2.65625q0 -1.546875 0.6875 -2.625q0.703125 -1.09375 1.796875 -1.671875q1.09375 -0.578125 2.328125 -0.578125q1.234375 0 2.328125 0.578125q1.109375 0.578125 1.796875 1.671875q0.6875 1.078125 0.6875 2.625q0 1.5625 -0.6875 2.65625q-0.6875 1.078125 -1.796875 1.65625q-1.09375 0.578125 -2.328125 0.578125zm0 -2.5625q0.546875 0 0.875 -0.28125q0.34375 -0.28125 0.5 -0.796875q0.15625 -0.53125 0.15625 -1.25q0 -0.703125 -0.15625 -1.21875q-0.15625 -0.53125 -0.5 -0.8125q-0.328125 -0.28125 -0.875 -0.28125q-0.53125 0 -0.875 0.28125q-0.328125 0.28125 -0.5 0.8125q-0.15625 0.515625 -0.15625 1.21875q0 0.71875 0.15625 1.25q0.171875 0.515625 0.5 0.796875q0.34375 0.28125 0.875 0.28125zm11.975006 2.5625q-1.46875 0 -2.65625 -0.578125q-1.1875 -0.578125 -1.875 -1.65625q-0.6875 -1.09375 -0.6875 -2.65625q0 -1.546875 0.765625 -2.625q0.765625 -1.09375 2.015625 -1.671875q1.25 -0.578125 2.6875 -0.578125q1.0937424 0 2.0156174 0.34375q0.9375 0.328125 1.515625 0.875l-1.46875 1.984375q-0.515625 -0.359375 -0.984375 -0.5q-0.453125 -0.140625 -0.8906174 -0.140625q-0.6875 0 -1.234375 0.28125q-0.546875 0.28125 -0.84375 0.8125q-0.296875 0.515625 -0.296875 1.21875q0 0.71875 0.28125 1.25q0.296875 0.515625 0.8125 0.796875q0.515625 0.28125 1.171875 0.28125q0.6874924 0 1.2499924 -0.234375q0.578125 -0.25 1.046875 -0.5625l1.265625 2.015625q-0.859375 0.71875 -1.90625 1.03125q-1.046875 0.3125 -1.9843674 0.3125zm8.849998 0q-0.96875 0 -1.640625 -0.390625q-0.671875 -0.40625 -1.03125 -1.0625q-0.359375 -0.65625 -0.359375 -1.421875q0 -1.5625 1.359375 -2.390625q1.359375 -0.828125 4.546875 -1.0q-0.0625 -0.328125 -0.28125 -0.546875q-0.21875 -0.21875 -0.609375 -0.3125q-0.375 -0.109375 -0.90625 -0.109375q-0.390625 0 -0.796875 0.09375q-0.40625 0.078125 -0.875 0.25q-0.453125 0.171875 -1.015625 0.4375l-1.109375 -2.09375q0.703125 -0.390625 1.421875 -0.65625q0.734375 -0.28125 1.484375 -0.421875q0.75 -0.140625 1.53125 -0.140625q1.328125 0 2.296875 0.453125q0.984375 0.453125 1.515625 1.421875q0.546875 0.953125 0.546875 2.484375l0 5.1875l-2.609375 0l-0.21875 -0.96875l-0.078125 0q-0.6875 0.5 -1.5 0.84375q-0.796875 0.34375 -1.671875 0.34375zm1.046875 -2.453125q0.5625 0 1.0 -0.21875q0.453125 -0.21875 0.828125 -0.5l0 -1.1875q-1.140625 0.03125 -1.765625 0.203125q-0.609375 0.171875 -0.84375 0.4375q-0.234375 0.265625 -0.234375 0.59375q0 0.203125 0.109375 0.359375q0.125 0.15625 0.34375 0.234375q0.21875 0.078125 0.5625 0.078125zm13.318756 2.453125q-1.53125 0 -2.453125 -0.515625q-0.90625 -0.53125 -1.328125 -1.46875q-0.40625 -0.9375 -0.40625 -2.1875l0 -2.875l-2.234375 0l0 -2.390625l2.390625 -0.109375l0.40625 -2.796875l2.65625 0l0 2.796875l3.6875 0l0 2.5l-3.6875 0l0 2.8125q0 0.65625 0.203125 1.046875q0.203125 0.375 0.59375 0.53125q0.40625 0.15625 1.015625 0.15625q0.484375 0 0.890625 -0.078125q0.421875 -0.078125 0.796875 -0.21875l0.5625 2.3125q-0.609375 0.171875 -1.375 0.328125q-0.765625 0.15625 -1.71875 0.15625zm8.912506 -0.21875l0 -6.828125l-3.546875 0l0 -2.5l6.765625 0l0 9.328125l-3.21875 0zm1.5 -10.59375q-0.890625 0 -1.46875 -0.515625q-0.578125 -0.515625 -0.578125 -1.359375q0 -0.828125 0.578125 -1.359375q0.578125 -0.53125 1.46875 -0.53125q0.90625 0 1.484375 0.53125q0.578125 0.53125 0.578125 1.359375q0 0.84375 -0.578125 1.359375q-0.578125 0.515625 -1.484375 0.515625zm10.365631 10.8125q-1.234375 0 -2.328125 -0.578125q-1.09375 -0.578125 -1.796875 -1.65625q-0.6875 -1.09375 -0.6875 -2.65625q0 -1.546875 0.6875 -2.625q0.703125 -1.09375 1.796875 -1.671875q1.09375 -0.578125 2.328125 -0.578125q1.234375 0 2.328125 0.578125q1.109375 0.578125 1.796875 1.671875q0.6875 1.078125 0.6875 2.625q0 1.5625 -0.6875 2.65625q-0.6875 1.078125 -1.796875 1.65625q-1.09375 0.578125 -2.328125 0.578125zm0 -2.5625q0.546875 0 0.875 -0.28125q0.34375 -0.28125 0.5 -0.796875q0.15625 -0.53125 0.15625 -1.25q0 -0.703125 -0.15625 -1.21875q-0.15625 -0.53125 -0.5 -0.8125q-0.328125 -0.28125 -0.875 -0.28125q-0.53125 0 -0.875 0.28125q-0.328125 0.28125 -0.5 0.8125q-0.15625 0.515625 -0.15625 1.21875q0 0.71875 0.15625 1.25q0.171875 0.515625 0.5 0.796875q0.34375 0.28125 0.875 0.28125zm6.787506 2.34375l0 -9.328125l2.625 0l0.21875 1.125l0.078125 0q0.5625 -0.546875 1.3125 -0.9375q0.765625 -0.40625 1.796875 -0.40625q1.546875 0 2.25 1.03125q0.71875 1.03125 0.71875 2.765625l0 5.75l-3.203125 0l0 -5.328125q0 -0.796875 -0.234375 -1.140625q-0.234375 -0.359375 -0.859375 -0.359375q-0.4375 0 -0.78125 0.1875q-0.328125 0.1875 -0.703125 0.515625l0 6.125l-3.21875 0z" fill-rule="nonzero"/><path fill="#3c78d8" d="m388.01575 80.80206l0 0c0 -6.2564545 5.071869 -11.328308 11.328308 -11.328308l45.343384 0l0 0c3.0044556 0 5.8858643 1.193512 8.010315 3.3179855c2.1244812 2.124466 3.3179932 5.005867 3.3179932 8.010323l0 45.311882c0 6.256462 -5.071869 11.328316 -11.328308 11.328316l-45.343384 0c-6.256439 0 -11.328308 -5.0718536 -11.328308 -11.328316z" fill-rule="evenodd"/><path fill="#ffffff" d="m414.6001 114.398l0 -19.921875l5.265625 0l0 7.421875l4.296875 0l0 -7.421875l5.265625 0l0 19.921875l-5.265625 0l0 -7.90625l-4.296875 0l0 7.90625l-5.265625 0z" fill-rule="nonzero"/><path fill="#000000" fill-opacity="0.0" d="m308.45197 477.84628l0 0c-3.956665 -22.757751 9.0338745 -45.28653 33.45932 -58.02658c24.425446 -12.740021 56.002045 -13.457001 81.33072 -1.8466492l0 0c8.9721985 -13.2323 25.39392 -22.368286 44.297913 -24.6445c18.904022 -2.2762146 38.069946 2.5746765 51.7005 13.085388l0 0c7.6431274 -11.997253 22.650574 -20.057861 39.69696 -21.321533c17.046326 -1.2636414 33.719055 4.4484863 44.101868 15.109467l0 0c13.808472 -12.717072 35.778076 -18.071472 56.402466 -13.746368c20.62439 4.3251343 36.19922 17.552948 39.98523 33.959717l0 0c16.917725 3.6116943 31.009827 12.793121 38.635315 25.172058c7.6255493 12.378967 8.036499 26.741089 1.126648 39.3757l0 0c16.658997 16.969666 20.55597 39.581512 10.236633 59.397247c-10.319397 19.815735 -33.30475 33.858215 -60.378296 36.887085c-0.1907959 18.597778 -13.222656 35.66284 -34.072388 44.617615c-20.849731 8.954773 -46.26172 8.40094 -66.44098 -1.4480591l0 0c-8.595276 22.274048 -32.788208 38.663025 -62.126465 42.086426c-29.338257 3.4233398 -58.56241 -6.732727 -75.04657 -26.080322l0 0c-20.206146 9.536499 -44.451813 12.28363 -67.2677 7.621765c-22.815887 -4.661865 -42.28009 -16.340088 -54.00186 -32.40033l0 0c-20.648132 1.8911133 -40.61203 -6.4817505 -49.983643 -20.963196c-9.371643 -14.481445 -6.1560364 -31.98877 8.050903 -43.83307l0 0c-18.41867 -8.48468 -27.816986 -25.321106 -23.294067 -41.729767c4.522888 -16.40866 21.942078 -28.671265 43.174133 -30.393372z" fill-rule="evenodd"/><path fill="#000000" fill-opacity="0.0" d="m288.16376 550.84656l0 0c8.6918335 4.0039673 18.73291 5.8202515 28.775116 5.204956m13.153107 59.592712c4.318512 -0.3955078 8.551453 -1.2330933 12.589691 -2.4910889m108.67383 27.268616c-3.037384 -3.5650024 -5.580414 -7.3744507 -7.585785 -11.363586m144.76404 -4.6431885l0 0c1.5670776 -4.060913 2.5823975 -8.2404175 3.0290527 -12.468872m97.48053 -30.699097c0.20318604 -19.800232 -14.16571 -37.929443 -36.934753 -46.60077m87.07593 -49.681488c-3.687378 6.74234 -9.316528 12.723389 -16.446167 17.474152m-23.312378 -82.02368l0 0c0.6282959 2.7227173 0.9190674 5.4863586 0.86828613 8.252594m-97.25427 -28.465118l0 0c-3.444519 3.1722717 -6.2824097 6.7172546 -8.425171 10.524536m-75.37445 -4.313843l0 0c-1.8356323 2.8813477 -3.206421 5.9303284 -4.0806274 9.07666m-91.91919 2.4826965l0 0c5.3595276 2.4567566 10.31781 5.4136963 14.76593 8.805908m-129.5545 51.067627l0 0c0.5453491 3.1365967 1.4069824 6.234558 2.5769043 9.264832" fill-rule="evenodd"/><path stroke="#3c78d8" stroke-width="8.0" stroke-linejoin="round" stroke-linecap="butt" d="m308.45197 477.84628l0 0c-3.956665 -22.757751 9.0338745 -45.28653 33.45932 -58.02658c24.425446 -12.740021 56.002045 -13.457001 81.33072 -1.8466492l0 0c8.9721985 -13.2323 25.39392 -22.368286 44.297913 -24.6445c18.904022 -2.2762146 38.069946 2.5746765 51.7005 13.085388l0 0c7.6431274 -11.997253 22.650574 -20.057861 39.69696 -21.321533c17.046326 -1.2636414 33.719055 4.4484863 44.101868 15.109467l0 0c13.808472 -12.717072 35.778076 -18.071472 56.402466 -13.746368c20.62439 4.3251343 36.19922 17.552948 39.98523 33.959717l0 0c16.917725 3.6116943 31.009827 12.793121 38.635315 25.172058c7.6255493 12.378967 8.036499 26.741089 1.126648 39.3757l0 0c16.658997 16.969666 20.55597 39.581512 10.236633 59.397247c-10.319397 19.815735 -33.30475 33.858215 -60.378296 36.887085c-0.1907959 18.597778 -13.222656 35.66284 -34.072388 44.617615c-20.849731 8.954773 -46.26172 8.40094 -66.44098 -1.4480591l0 0c-8.595276 22.274048 -32.788208 38.663025 -62.126465 42.086426c-29.338257 3.4233398 -58.56241 -6.732727 -75.04657 -26.080322l0 0c-20.206146 9.536499 -44.451813 12.28363 -67.2677 7.621765c-22.815887 -4.661865 -42.28009 -16.340088 -54.00186 -32.40033l0 0c-20.648132 1.8911133 -40.61203 -6.4817505 -49.983643 -20.963196c-9.371643 -14.481445 -6.1560364 -31.98877 8.050903 -43.83307l0 0c-18.41867 -8.48468 -27.816986 -25.321106 -23.294067 -41.729767c4.522888 -16.40866 21.942078 -28.671265 43.174133 -30.393372z" fill-rule="evenodd"/><path stroke="#3c78d8" stroke-width="8.0" stroke-linejoin="round" stroke-linecap="butt" d="m288.16376 550.84656l0 0c8.6918335 4.0039673 18.73291 5.8202515 28.775116 5.204956m13.153107 59.592712c4.318512 -0.3955078 8.551453 -1.2330933 12.589691 -2.4910889m108.67383 27.268616c-3.037384 -3.5650024 -5.580414 -7.3744507 -7.585785 -11.363586m144.76404 -4.6431885l0 0c1.5670776 -4.060913 2.5823975 -8.2404175 3.0290527 -12.468872m97.48053 -30.699097c0.20318604 -19.800232 -14.16571 -37.929443 -36.934753 -46.60077m87.07593 -49.681488c-3.687378 6.74234 -9.316528 12.723389 -16.446167 17.474152m-23.312378 -82.02368l0 0c0.6282959 2.7227173 0.9190674 5.4863586 0.86828613 8.252594m-97.25427 -28.465118l0 0c-3.444519 3.1722717 -6.2824097 6.7172546 -8.425171 10.524536m-75.37445 -4.313843l0 0c-1.8356323 2.8813477 -3.206421 5.9303284 -4.0806274 9.07666m-91.91919 2.4826965l0 0c5.3595276 2.4567566 10.31781 5.4136963 14.76593 8.805908m-129.5545 51.067627l0 0c0.5453491 3.1365967 1.4069824 6.234558 2.5769043 9.264832" fill-rule="evenodd"/><path fill="#3c78d8" d="m616.23883 80.80075l0 0c0 -6.2564545 5.0718994 -11.328308 11.328308 -11.328308l45.343384 0l0 0c3.0044556 0 5.8858643 1.193512 8.010315 3.3179855c2.1245117 2.124466 3.3179932 5.005867 3.3179932 8.010323l0 45.311882c0 6.256462 -5.0718384 11.328316 -11.328308 11.328316l-45.343384 0c-6.2564087 0 -11.328308 -5.0718536 -11.328308 -11.328316z" fill-rule="evenodd"/><path fill="#ffffff" d="m651.62006 114.77169q-2.546875 0 -4.6875 -1.125q-2.125 -1.125 -3.40625 -3.390625q-1.265625 -2.265625 -1.265625 -5.671875q0 -3.375 1.265625 -5.71875q1.28125 -2.34375 3.40625 -3.546875q2.140625 -1.21875 4.71875 -1.21875q2.015625 0 3.484375 0.78125q1.484375 0.78125 2.453125 1.796875l-2.875 3.25q-0.609375 -0.609375 -1.296875 -0.9375q-0.6875 -0.34375 -1.765625 -0.34375q-1.078125 0 -1.984375 0.6875q-0.90625 0.6875 -1.4375 1.984375q-0.53125 1.28125 -0.53125 3.078125q0 1.875 0.453125 3.1875q0.46875 1.296875 1.40625 1.96875q0.953125 0.671875 2.375 0.671875q0.359375 0 0.734375 -0.09375q0.390625 -0.09375 0.609375 -0.265625l0 -2.765625l-2.484375 0l0 -4.296875l7.171875 0l0 9.515625q-1.015625 0.90625 -2.734375 1.6875q-1.703125 0.765625 -3.609375 0.765625z" fill-rule="nonzero"/><path fill="#3c78d8" d="m616.23883 192.80075l0 0c0 -6.2564545 5.0718994 -11.328308 11.328308 -11.328308l45.343384 0l0 0c3.0044556 0 5.8858643 1.193512 8.010315 3.317978c2.1245117 2.1244812 3.3179932 5.0058746 3.3179932 8.01033l0 45.31189c0 6.2564545 -5.0718384 11.328308 -11.328308 11.328308l-45.343384 0c-6.2564087 0 -11.328308 -5.0718536 -11.328308 -11.328308z" fill-rule="evenodd"/><path fill="#ffffff" d="m641.04193 226.39668l6.015625 -19.921875l6.375 0l6.0 19.921875l-5.578125 0l-2.234375 -9.6875q-0.3125 -1.4375 -0.71875 -3.125q-0.390625 -1.6875 -0.71875 -3.1875l-0.125 0q-0.3125 1.5 -0.6875 3.1875q-0.359375 1.6875 -0.6875 3.125l-2.25 9.6875l-5.390625 0zm4.328125 -4.234375l0 -4.078125l9.6875 0l0 4.078125l-9.6875 0z" fill-rule="nonzero"/><path fill="#3c78d8" d="m387.8165 192.80075l0 0c0 -6.2564545 5.0718384 -11.328308 11.328308 -11.328308l45.343353 0l0 0c3.0044556 0 5.8858643 1.193512 8.010345 3.317978c2.1244507 2.1244812 3.3179932 5.0058746 3.3179932 8.01033l0 45.31189c0 6.2564545 -5.071869 11.328308 -11.328339 11.328308l-45.343353 0c-6.2564697 0 -11.328308 -5.0718536 -11.328308 -11.328308z" fill-rule="evenodd"/><path fill="#ffffff" d="m414.63522 226.39668l0 -4.421875l4.546875 0l0 -11.09375l-4.546875 0l0 -4.40625l14.359375 0l0 4.40625l-4.546875 0l0 11.09375l4.546875 0l0 4.421875l-14.359375 0z" fill-rule="nonzero"/><path fill="#674ea7" d="m106.276115 103.60821l0 0c0 -6.2564545 5.0718536 -11.328316 11.328308 -11.328316l45.343376 0l0 0c3.0044556 0 5.8858643 1.1935196 8.01033 3.3179855c2.124466 2.1244736 3.317978 5.0058746 3.317978 8.01033l0 45.311882c0 6.2564545 -5.0718536 11.328308 -11.328308 11.328308l-45.343376 0c-6.2564545 0 -11.328308 -5.0718536 -11.328308 -11.328308z" fill-rule="evenodd"/><path fill="#ffffff" d="m139.42296 137.57915q-1.65625 0 -3.515625 -0.703125q-1.859375 -0.71875 -3.265625 -2.578125l2.96875 -3.28125q0.859375 0.9375 1.78125 1.484375q0.921875 0.53125 1.84375 0.53125q1.28125 0 1.96875 -0.65625q0.703125 -0.65625 0.703125 -2.53125l0 -8.15625l-7.578125 0l0 -4.40625l12.84375 0l0 13.0q0 1.984375 -0.75 3.640625q-0.75 1.65625 -2.4375 2.65625q-1.6875 1.0 -4.5625 1.0z" fill-rule="nonzero"/><path fill="#e69138" d="m815.74805 328.5501l0 0c0 -6.2564697 5.0718384 -11.328339 11.328308 -11.328339l45.343384 0l0 0c3.0044556 0 5.8858643 1.1935425 8.010315 3.3179932c2.1244507 2.1244812 3.3179932 5.00589 3.3179932 8.010345l0 45.31186c0 6.2564697 -5.0718994 11.328308 -11.328308 11.328308l-45.343384 0c-6.2564697 0 -11.328308 -5.0718384 -11.328308 -11.328308z" fill-rule="evenodd"/><path fill="#ffffff" d="m842.5199 362.14603l0 -19.921875l7.109375 0q2.078125 0 3.78125 0.4375q1.703125 0.421875 2.6875 1.5q1.0 1.0625 1.0 3.03125q0 1.28125 -0.8125 2.5625q-0.8125 1.265625 -2.546875 1.71875l0 0.125q2.109375 0.40625 3.15625 1.546875q1.0625 1.125 1.0625 3.109375q0 2.0625 -1.046875 3.375q-1.03125 1.296875 -2.78125 1.90625q-1.75 0.609375 -3.890625 0.609375l-7.71875 0zm5.265625 -12.078125l1.71875 0q1.28125 0 1.859375 -0.578125q0.59375 -0.59375 0.59375 -1.5q0 -0.921875 -0.59375 -1.3125q-0.578125 -0.40625 -1.859375 -0.40625l-1.71875 0l0 3.796875zm0 8.03125l2.078125 0q1.578125 0 2.265625 -0.578125q0.6875 -0.59375 0.6875 -1.6875q0 -1.109375 -0.6875 -1.59375q-0.6875 -0.5 -2.265625 -0.5l-2.078125 0l0 4.359375z" fill-rule="nonzero"/><path fill="#3c78d8" d="m480.88977 449.54617l0 0c0 -6.2564697 5.0718384 -11.328339 11.328308 -11.328339l45.343384 0l0 0c3.0044556 0 5.8858643 1.1935425 8.010315 3.3179932c2.1244507 2.1244812 3.3179932 5.00589 3.3179932 8.010345l0 45.31186c0 6.2564697 -5.0718384 11.328308 -11.328308 11.328308l-45.343384 0c-6.2564697 0 -11.328308 -5.0718384 -11.328308 -11.328308z" fill-rule="evenodd"/><path fill="#ffffff" d="m507.66162 483.1421l0 -19.921875l5.71875 0q2.859375 0 5.046875 1.0q2.1875 0.984375 3.421875 3.171875q1.25 2.171875 1.25 5.6875q0 3.53125 -1.234375 5.765625q-1.21875 2.21875 -3.34375 3.265625q-2.125 1.03125 -4.828125 1.03125l-6.03125 0zm5.265625 -4.234375l0.1875 0q1.28125 0 2.328125 -0.484375q1.046875 -0.5 1.65625 -1.75q0.609375 -1.25 0.609375 -3.59375q0 -2.328125 -0.609375 -3.53125q-0.609375 -1.21875 -1.65625 -1.65625q-1.046875 -0.453125 -2.328125 -0.453125l-0.1875 0l0 11.46875z" fill-rule="nonzero"/><path fill="#3c78d8" d="m636.4619 463.16296l0 0c0 -6.2564697 5.0718994 -11.328308 11.328369 -11.328308l45.343323 0l0 0c3.0044556 0 5.8858643 1.193512 8.010376 3.3179626c2.1244507 2.1244812 3.3179321 5.00589 3.3179321 8.010345l0 45.31189c0 6.2564087 -5.0718384 11.328308 -11.328308 11.328308l-45.343323 0c-6.2564697 0 -11.328369 -5.0718994 -11.328369 -11.328308z" fill-rule="evenodd"/><path fill="#ffffff" d="m672.23376 497.13388q-1.859375 0 -3.5625 -0.625q-1.703125 -0.640625 -3.03125 -1.90625q-1.3125 -1.28125 -2.078125 -3.1875q-0.765625 -1.921875 -0.765625 -4.46875q0 -3.34375 1.3125 -5.6875q1.328125 -2.34375 3.53125 -3.5625q2.203125 -1.234375 4.90625 -1.234375q1.9375 0 3.515625 0.78125q1.578125 0.78125 2.609375 1.796875l-2.875 3.25q-0.671875 -0.609375 -1.453125 -0.9375q-0.78125 -0.34375 -1.796875 -0.34375q-1.21875 0 -2.203125 0.6875q-0.984375 0.6875 -1.578125 1.984375q-0.578125 1.28125 -0.578125 3.078125q0 1.875 0.578125 3.1875q0.59375 1.296875 1.625 1.96875q1.046875 0.671875 2.40625 0.671875q0.96875 0 1.78125 -0.453125q0.8125 -0.46875 1.46875 -1.140625l2.875 3.1875q-1.21875 1.46875 -2.9375 2.21875q-1.71875 0.734375 -3.75 0.734375z" fill-rule="nonzero"/><path fill="#3c78d8" d="m473.33334 557.869l0 0c0 -6.2564697 5.0718384 -11.328308 11.328308 -11.328308l45.343353 0l0 0c3.0044556 0 5.8858643 1.1934814 8.010315 3.3179321c2.1245117 2.1245117 3.3179932 5.0059204 3.3179932 8.010376l0 45.31183c0 6.2564697 -5.0718384 11.328369 -11.328308 11.328369l-45.343353 0c-6.2564697 0 -11.328308 -5.0718994 -11.328308 -11.328369z" fill-rule="evenodd"/><path fill="#ffffff" d="m500.71457 591.4649l0 -19.921875l13.5468445 0l0 4.40625l-8.2812195 0l0 3.125l7.0624695 0l0 4.421875l-7.0624695 0l0 3.546875l8.5937195 0l0 4.421875l-13.8593445 0z" fill-rule="nonzero"/><path fill="#3c78d8" d="m337.90158 483.57767l0 0c0 -6.2564697 5.0718384 -11.328339 11.328308 -11.328339l45.343384 0l0 0c3.0044556 0 5.8858337 1.1935425 8.010315 3.3179932c2.1244812 2.1244812 3.3179932 5.00589 3.3179932 8.010345l0 45.31186c0 6.2564697 -5.071869 11.328308 -11.328308 11.328308l-45.343384 0c-6.2564697 0 -11.328308 -5.0718384 -11.328308 -11.328308z" fill-rule="evenodd"/><path fill="#ffffff" d="m365.57968 517.1736l0 -19.921875l13.65625 0l0 4.40625l-8.375 0l0 3.8125l7.171875 0l0 4.40625l-7.171875 0l0 7.296875l-5.28125 0z" fill-rule="nonzero"/><path fill="#000000" fill-opacity="0.0" d="m174.27611 126.264145l213.73228 -22.803146" fill-rule="evenodd"/><path stroke="#999999" stroke-width="4.0" stroke-linejoin="round" stroke-linecap="butt" d="m174.27611 126.264145l213.73228 -22.803146" fill-rule="evenodd"/><path fill="#000000" fill-opacity="0.0" d="m422.01575 137.44226l-0.18896484 44.031494" fill-rule="evenodd"/><path stroke="#999999" stroke-width="4.0" stroke-linejoin="round" stroke-linecap="butt" d="m422.01575 137.44226l-0.18896484 44.031494" fill-rule="evenodd"/><path fill="#000000" fill-opacity="0.0" d="m456.01575 103.45801l160.22046 0" fill-rule="evenodd"/><path stroke="#999999" stroke-width="4.0" stroke-linejoin="round" stroke-linecap="butt" d="m456.01575 103.45801l160.22046 0" fill-rule="evenodd"/><path fill="#000000" fill-opacity="0.0" d="m650.23883 137.44095l0 44.031494" fill-rule="evenodd"/><path stroke="#999999" stroke-width="4.0" stroke-linejoin="round" stroke-linecap="butt" d="m650.23883 137.44095l0 44.031494" fill-rule="evenodd"/><path fill="#000000" fill-opacity="0.0" d="m616.23883 103.456696l-160.40942 112.0" fill-rule="evenodd"/><path stroke="#999999" stroke-width="4.0" stroke-linejoin="round" stroke-linecap="butt" d="m616.23883 103.456696l-160.40942 112.0" fill-rule="evenodd"/><path fill="#000000" fill-opacity="0.0" d="m616.23883 215.4567l-160.40942 0" fill-rule="evenodd"/><path stroke="#999999" stroke-width="4.0" stroke-linejoin="round" stroke-linecap="butt" d="m616.23883 215.4567l-160.40942 0" fill-rule="evenodd"/><path fill="#000000" fill-opacity="0.0" d="m387.8165 215.4567l-244.50395 73.322845" fill-rule="evenodd"/><path stroke="#999999" stroke-width="4.0" stroke-linejoin="round" stroke-linecap="butt" d="m387.8165 215.4567l-244.50395 73.322845" fill-rule="evenodd"/><path fill="#000000" fill-opacity="0.0" d="m143.30708 540.21875l194.58269 -33.984222" fill-rule="evenodd"/><path stroke="#999999" stroke-width="4.0" stroke-linejoin="round" stroke-linecap="butt" d="m143.30708 540.21875l194.58269 -33.984222" fill-rule="evenodd"/><path fill="#000000" fill-opacity="0.0" d="m480.88977 472.2021l-74.99213 34.04724" fill-rule="evenodd"/><path stroke="#999999" stroke-width="4.0" stroke-linejoin="round" stroke-linecap="butt" d="m480.88977 472.2021l-74.99213 34.04724" fill-rule="evenodd"/><path fill="#000000" fill-opacity="0.0" d="m473.33334 580.52496l-67.433075 -74.299255" fill-rule="evenodd"/><path stroke="#999999" stroke-width="4.0" stroke-linejoin="round" stroke-linecap="butt" d="m473.33334 580.52496l-67.433075 -74.299255" fill-rule="evenodd"/><path fill="#000000" fill-opacity="0.0" d="m636.4619 485.8189l-87.55902 -13.606323" fill-rule="evenodd"/><path stroke="#999999" stroke-width="4.0" stroke-linejoin="round" stroke-linecap="butt" d="m636.4619 485.8189l-87.55902 -13.606323" fill-rule="evenodd"/><path fill="#000000" fill-opacity="0.0" d="m650.23883 249.44095l20.220459 202.3937" fill-rule="evenodd"/><path stroke="#999999" stroke-width="4.0" stroke-linejoin="round" stroke-linecap="butt" d="m650.23883 249.44095l20.220459 202.3937" fill-rule="evenodd"/><path fill="#000000" fill-opacity="0.0" d="m815.74805 351.20602l-111.275635 134.6142" fill-rule="evenodd"/><path stroke="#999999" stroke-width="4.0" stroke-linejoin="round" stroke-linecap="butt" d="m815.74805 351.20602l-111.275635 134.6142" fill-rule="evenodd"/><path fill="#000000" fill-opacity="0.0" d="m495.55118 53.842518l87.55905 0l0 58.17323l-87.55905 0z" fill-rule="evenodd"/><path fill="#999999" d="m522.42755 93.56252l0 -4.421875l5.3125 0l0 -10.484375l-4.46875 0l0 -3.390625q1.4375 -0.234375 2.453125 -0.484375q1.03125 -0.265625 1.84375 -0.625q0.8125 -0.375 1.65625 -0.875l4.03125 0l0 15.859375l4.34375 0l0 4.421875l-15.171875 0zm26.496887 0.390625q-2.359375 0 -4.171875 -1.21875q-1.8125 -1.21875 -2.828125 -3.578125q-1.0 -2.375 -1.0 -5.828125q0 -5.21875 2.203125 -7.828125q2.21875 -2.609375 5.796875 -2.609375q3.59375 0 5.796875 2.609375q2.203125 2.609375 2.203125 7.828125q0 3.453125 -1.015625 5.828125q-1.0 2.359375 -2.796875 3.578125q-1.78125 1.21875 -4.1875 1.21875zm0 -4.234375q0.875 0 1.578125 -0.53125q0.703125 -0.546875 1.125 -1.9375q0.4375 -1.40625 0.4375 -3.921875q0 -2.53125 -0.4375 -3.875q-0.421875 -1.34375 -1.125 -1.84375q-0.703125 -0.5 -1.578125 -0.5q-0.828125 0 -1.546875 0.5q-0.71875 0.5 -1.15625 1.84375q-0.421875 1.34375 -0.421875 3.875q0 2.515625 0.421875 3.921875q0.4375 1.390625 1.15625 1.9375q0.71875 0.53125 1.546875 0.53125zm0 -3.84375q-1.078125 0 -1.8125 -0.703125q-0.734375 -0.703125 -0.734375 -1.84375q0 -1.15625 0.734375 -1.859375q0.734375 -0.703125 1.8125 -0.703125q1.125 0 1.84375 0.703125q0.71875 0.703125 0.71875 1.859375q0 1.140625 -0.71875 1.84375q-0.71875 0.703125 -1.84375 0.703125z" fill-rule="nonzero"/><path fill="#000000" fill-opacity="0.0" d="m247.11679 62.062992l87.55905 0l0 58.17323l-87.55905 0z" fill-rule="evenodd"/><path fill="#999999" d="m290.32755 102.17362q-1.734375 0 -3.15625 -0.375q-1.421875 -0.375 -2.546875 -1.015625q-1.125 -0.65625 -1.984375 -1.5l2.4375 -3.453125q0.671875 0.546875 1.375 0.984375q0.703125 0.421875 1.46875 0.6875q0.765625 0.25 1.5625 0.25q1.0625 0 1.84375 -0.28125q0.78125 -0.296875 1.1875 -0.875q0.421875 -0.578125 0.421875 -1.46875q0 -1.3125 -0.921875 -1.96875q-0.921875 -0.65625 -2.265625 -0.65625q-0.90625 0 -1.515625 0.203125q-0.59375 0.1875 -1.625 0.765625l-2.375 -1.546875l0.515625 -10.421875l12.796875 0l0 4.59375l-8.0625 0l-0.25 2.953125q0.640625 -0.1875 1.125 -0.25q0.5 -0.078125 1.109375 -0.078125q1.859375 0 3.4375 0.671875q1.59375 0.671875 2.5625 2.078125q0.984375 1.390625 0.984375 3.53125q0 2.265625 -1.140625 3.875q-1.140625 1.59375 -3.0 2.453125q-1.84375 0.84375 -3.984375 0.84375z" fill-rule="nonzero"/><path fill="#000000" fill-opacity="0.0" d="m358.32526 129.17754l87.55905 0l0 58.173218l-87.55905 0z" fill-rule="evenodd"/><path fill="#999999" d="m401.536 169.28816q-1.734375 0 -3.15625 -0.375q-1.421875 -0.375 -2.546875 -1.015625q-1.125 -0.65625 -1.984375 -1.5l2.4375 -3.453125q0.671875 0.546875 1.375 0.984375q0.703125 0.421875 1.46875 0.6875q0.765625 0.25 1.5625 0.25q1.0625 0 1.84375 -0.28125q0.78125 -0.296875 1.1875 -0.875q0.421875 -0.578125 0.421875 -1.46875q0 -1.3125 -0.921875 -1.96875q-0.921875 -0.65625 -2.265625 -0.65625q-0.90625 0 -1.515625 0.203125q-0.59375 0.1875 -1.625 0.765625l-2.375 -1.546875l0.515625 -10.421875l12.796875 0l0 4.59375l-8.0625 0l-0.25 2.953125q0.640625 -0.1875 1.125 -0.25q0.5 -0.078125 1.109375 -0.078125q1.859375 0 3.4375 0.671875q1.59375 0.671875 2.5625 2.078125q0.984375 1.390625 0.984375 3.53125q0 2.265625 -1.140625 3.875q-1.140625 1.59375 -3.0 2.453125q-1.84375 0.84375 -3.984375 0.84375z" fill-rule="nonzero"/><path fill="#000000" fill-opacity="0.0" d="m221.78477 249.44095l87.55907 0l0 58.173218l-87.55907 0z" fill-rule="evenodd"/><path fill="#999999" d="m264.99554 289.55157q-1.734375 0 -3.15625 -0.375q-1.421875 -0.375 -2.546875 -1.015625q-1.125 -0.65625 -1.984375 -1.5l2.4375 -3.453125q0.671875 0.546875 1.375 0.984375q0.703125 0.421875 1.46875 0.6875q0.765625 0.25 1.5625 0.25q1.0625 0 1.84375 -0.28125q0.78125 -0.296875 1.1875 -0.875q0.421875 -0.578125 0.421875 -1.46875q0 -1.3125 -0.921875 -1.96875q-0.921875 -0.65625 -2.265625 -0.65625q-0.90625 0 -1.515625 0.203125q-0.59375 0.1875 -1.625 0.765625l-2.375 -1.546875l0.515625 -10.421875l12.796875 0l0 4.59375l-8.0625 0l-0.25 2.953125q0.640625 -0.1875 1.125 -0.25q0.5 -0.078125 1.109375 -0.078125q1.859375 0 3.4375 0.671875q1.59375 0.671875 2.5625 2.078125q0.984375 1.390625 0.984375 3.53125q0 2.265625 -1.140625 3.875q-1.140625 1.59375 -3.0 2.453125q-1.84375 0.84375 -3.984375 0.84375z" fill-rule="nonzero"/><path fill="#000000" fill-opacity="0.0" d="m471.28217 112.01575l87.55902 0l0 58.173233l-87.55902 0z" fill-rule="evenodd"/><path fill="#999999" d="m498.1585 151.73575l0 -4.421875l5.3125 0l0 -10.484375l-4.46875 0l0 -3.390625q1.4375 -0.234375 2.453125 -0.484375q1.03125 -0.265625 1.84375 -0.625q0.8125 -0.375 1.65625 -0.875l4.03125 0l0 15.859375l4.34375 0l0 4.421875l-15.171875 0zm25.934448 0.390625q-1.734375 0 -3.15625 -0.375q-1.421875 -0.375 -2.546875 -1.015625q-1.125 -0.65625 -1.984375 -1.5l2.4375 -3.453125q0.671875 0.546875 1.375 0.984375q0.703125 0.421875 1.46875 0.6875q0.765625 0.25 1.5625 0.25q1.0625 0 1.84375 -0.28125q0.78125 -0.296875 1.1875 -0.875q0.421875 -0.578125 0.421875 -1.46875q0 -1.3125 -0.921875 -1.96875q-0.921875 -0.65625 -2.265625 -0.65625q-0.90625 0 -1.515625 0.203125q-0.59375 0.1875 -1.625 0.765625l-2.375 -1.546875l0.515625 -10.421875l12.796875 0l0 4.59375l-8.0625 0l-0.25 2.953125q0.640625 -0.1875 1.125 -0.25q0.5 -0.078125 1.109375 -0.078125q1.859375 0 3.4375 0.671875q1.59375 0.671875 2.5625 2.078125q0.984375 1.390625 0.984375 3.53125q0 2.265625 -1.140625 3.875q-1.140625 1.59375 -3.0 2.453125q-1.84375 0.84375 -3.984375 0.84375z" fill-rule="nonzero"/><path fill="#000000" fill-opacity="0.0" d="m503.54877 205.8435l87.55908 -0.0315094l0 58.173233l-87.55908 0.03149414z" fill-rule="evenodd"/><path fill="#999999" d="m529.7845 245.55406l0 -3.140625q2.734375 -2.2041016 4.84375 -4.0954895q2.109375 -1.8913879 3.328125 -3.4855652q1.21875 -1.5941925 1.21875 -2.9848175q0 -1.375 -0.8125 -2.03096q-0.796875 -0.6559601 -2.140625 -0.65548706q-1.125 4.119873E-4 -2.03125 0.5944824q-0.90625 0.5940857 -1.75 1.3287659l-2.90625 -2.9364624q1.671875 -1.7037201 3.359375 -2.4855804q1.703125 -0.78186035 4.09375 -0.7827301q2.1875 -7.7819824E-4 3.84375 0.8111267q1.671875 0.81188965 2.609375 2.327179q0.9375 1.4996643 0.9375 3.5152893q0 1.625 -1.0 3.3284912q-0.984375 1.703476 -2.515625 3.3134003q-1.53125 1.6099243 -3.203125 3.0167847q0.84375 -0.094055176 1.875 -0.17256165q1.046875 -0.07849121 1.78125 -0.07876587l4.09375 -0.0014648438l0 4.609375l-15.625 0.0056152344zm27.137573 0.38087463q-2.359375 8.392334E-4 -4.171875 -1.2172546q-1.8125 -1.2180939 -2.828125 -3.5771027q-1.0 -2.374649 -1.0 -5.827774q0 -5.21875 2.203125 -7.8289185q2.21875 -2.6101685 5.796875 -2.6114655q3.59375 -0.0012817383 5.796875 2.6072998q2.203125 2.6085815 2.203125 7.8273315q0 3.453125 -1.015625 5.828491q-1.0 2.359726 -2.796875 3.579132q-1.78125 1.2193909 -4.1875 1.2202606zm0 -4.234375q0.875 -3.2043457E-4 1.578125 -0.53182983q0.703125 -0.54711914 1.125 -1.9378967q0.4375 -1.4064178 0.4375 -3.9220428q0 -2.53125 -0.4375 -3.8748322q-0.421875 -1.3435974 -1.125 -1.8433533q-0.703125 -0.4997406 -1.578125 -0.49943542q-0.828125 3.0517578E-4 -1.546875 0.5005646q-0.71875 0.5002594 -1.15625 1.844162q-0.421875 1.3439026 -0.421875 3.8751526q0 2.515625 0.421875 3.9217224q0.4375 1.3904724 1.15625 1.937088q0.71875 0.5309906 1.546875 0.5307007zm0 -3.84375q-1.078125 3.8146973E-4 -1.8125 -0.70248413q-0.734375 -0.70285034 -0.734375 -1.8434753q0 -1.15625 0.734375 -1.8596497q0.734375 -0.7033844 1.8125 -0.7037811q1.125 -3.9672852E-4 1.84375 0.7024689q0.71875 0.7028656 0.71875 1.8591156q0 1.140625 -0.71875 1.8440094q-0.71875 0.7033844 -1.84375 0.7037964z" fill-rule="nonzero"/><path fill="#000000" fill-opacity="0.0" d="m623.5512 125.84252l87.55902 0l0 58.173225l-87.55902 0z" fill-rule="evenodd"/><path fill="#999999" d="m666.76196 165.95314q-1.734375 0 -3.15625 -0.375q-1.421875 -0.375 -2.546875 -1.015625q-1.125 -0.65625 -1.984375 -1.5l2.4375 -3.453125q0.671875 0.546875 1.375 0.984375q0.703125 0.421875 1.46875 0.6875q0.765625 0.25 1.5625 0.25q1.0625 0 1.84375 -0.28125q0.78125 -0.296875 1.1875 -0.875q0.421875 -0.578125 0.421875 -1.46875q0 -1.3125 -0.921875 -1.96875q-0.921875 -0.65625 -2.265625 -0.65625q-0.90625 0 -1.515625 0.203125q-0.59375 0.1875 -1.625 0.765625l-2.375 -1.546875l0.515625 -10.421875l12.796875 0l0 4.59375l-8.0625 0l-0.25 2.953125q0.640625 -0.1875 1.125 -0.25q0.5 -0.078125 1.109375 -0.078125q1.859375 0 3.4375 0.671875q1.59375 0.671875 2.5625 2.078125q0.984375 1.390625 0.984375 3.53125q0 2.265625 -1.140625 3.875q-1.140625 1.59375 -3.0 2.453125q-1.84375 0.84375 -3.984375 0.84375z" fill-rule="nonzero"/><path fill="#000000" fill-opacity="0.0" d="m644.0945 295.63385l87.55908 0l0 58.17325l-87.55908 0z" fill-rule="evenodd"/><path fill="#999999" d="m670.9708 335.35385l0 -4.421875l5.3125 0l0 -10.484375l-4.46875 0l0 -3.390625q1.4375 -0.234375 2.453125 -0.484375q1.03125 -0.265625 1.84375 -0.625q0.8125 -0.375 1.65625 -0.875l4.03125 0l0 15.859375l4.34375 0l0 4.421875l-15.171875 0zm26.496948 0.390625q-2.359375 0 -4.171875 -1.21875q-1.8125 -1.21875 -2.828125 -3.578125q-1.0 -2.375 -1.0 -5.828125q0 -5.21875 2.203125 -7.828125q2.21875 -2.609375 5.796875 -2.609375q3.59375 0 5.796875 2.609375q2.203125 2.609375 2.203125 7.828125q0 3.453125 -1.015625 5.828125q-1.0 2.359375 -2.796875 3.578125q-1.78125 1.21875 -4.1875 1.21875zm0 -4.234375q0.875 0 1.578125 -0.53125q0.703125 -0.546875 1.125 -1.9375q0.4375 -1.40625 0.4375 -3.921875q0 -2.53125 -0.4375 -3.875q-0.421875 -1.34375 -1.125 -1.84375q-0.703125 -0.5 -1.578125 -0.5q-0.828125 0 -1.546875 0.5q-0.71875 0.5 -1.15625 1.84375q-0.421875 1.34375 -0.421875 3.875q0 2.515625 0.421875 3.921875q0.4375 1.390625 1.15625 1.9375q0.71875 0.53125 1.546875 0.53125zm0 -3.84375q-1.078125 0 -1.8125 -0.703125q-0.734375 -0.703125 -0.734375 -1.84375q0 -1.15625 0.734375 -1.859375q0.734375 -0.703125 1.8125 -0.703125q1.125 0 1.84375 0.703125q0.71875 0.703125 0.71875 1.859375q0 1.140625 -0.71875 1.84375q-0.71875 0.703125 -1.84375 0.703125z" fill-rule="nonzero"/><path fill="#000000" fill-opacity="0.0" d="m174.27559 519.80316l87.55907 0l0 58.173218l-87.55907 0z" fill-rule="evenodd"/><path fill="#999999" d="m201.15195 559.52313l0 -4.421875l5.3125 0l0 -10.484375l-4.46875 0l0 -3.390625q1.4375 -0.234375 2.453125 -0.484375q1.03125 -0.265625 1.84375 -0.625q0.8125 -0.375 1.65625 -0.875l4.03125 0l0 15.859375l4.34375 0l0 4.421875l-15.171875 0zm26.496918 0.390625q-2.359375 0 -4.171875 -1.21875q-1.8125 -1.21875 -2.828125 -3.578125q-1.0 -2.375 -1.0 -5.828125q0 -5.21875 2.203125 -7.828125q2.21875 -2.609375 5.796875 -2.609375q3.59375 0 5.796875 2.609375q2.203125 2.609375 2.203125 7.828125q0 3.453125 -1.015625 5.828125q-1.0 2.359375 -2.796875 3.578125q-1.78125 1.21875 -4.1875 1.21875zm0 -4.234375q0.875 0 1.578125 -0.53125q0.703125 -0.546875 1.125 -1.9375q0.4375 -1.40625 0.4375 -3.921875q0 -2.53125 -0.4375 -3.875q-0.421875 -1.34375 -1.125 -1.84375q-0.703125 -0.5 -1.578125 -0.5q-0.828125 0 -1.546875 0.5q-0.71875 0.5 -1.15625 1.84375q-0.421875 1.34375 -0.421875 3.875q0 2.515625 0.421875 3.921875q0.4375 1.390625 1.15625 1.9375q0.71875 0.53125 1.546875 0.53125zm0 -3.84375q-1.078125 0 -1.8125 -0.703125q-0.734375 -0.703125 -0.734375 -1.84375q0 -1.15625 0.734375 -1.859375q0.734375 -0.703125 1.8125 -0.703125q1.125 0 1.84375 0.703125q0.71875 0.703125 0.71875 1.859375q0 1.140625 -0.71875 1.84375q-0.71875 0.703125 -1.84375 0.703125z" fill-rule="nonzero"/><path fill="#000000" fill-opacity="0.0" d="m393.3176 437.2362l87.55905 0l0 58.17325l-87.55905 0z" fill-rule="evenodd"/><path fill="#999999" d="m426.7252 477.34683q-1.71875 0 -3.171875 -0.359375q-1.4375 -0.34375 -2.578125 -0.984375q-1.125 -0.640625 -1.921875 -1.546875l2.484375 -3.453125q1.03125 0.859375 2.25 1.390625q1.21875 0.53125 2.359375 0.53125q1.0 0 1.765625 -0.203125q0.765625 -0.21875 1.1875 -0.640625q0.4375 -0.4375 0.4375 -1.078125q0 -0.765625 -0.46875 -1.3125q-0.453125 -0.546875 -1.671875 -0.828125q-1.21875 -0.296875 -3.484375 -0.296875l0 -3.828125q1.828125 0 2.90625 -0.28125q1.09375 -0.296875 1.59375 -0.8125q0.5 -0.515625 0.5 -1.21875q0 -0.921875 -0.6875 -1.390625q-0.671875 -0.46875 -1.875 -0.46875q-1.09375 0 -2.046875 0.421875q-0.9375 0.421875 -1.984375 1.25l-2.765625 -3.328125q1.578125 -1.25 3.328125 -1.9375q1.765625 -0.6875 3.71875 -0.6875q2.34375 0 4.09375 0.671875q1.765625 0.671875 2.734375 1.9375q0.984375 1.265625 0.984375 3.125q0 1.46875 -0.96875 2.5625q-0.953125 1.078125 -2.75 1.8125l0 0.125q1.25 0.359375 2.234375 1.015625q1.0 0.65625 1.5625 1.625q0.5625 0.953125 0.5625 2.234375q0 1.921875 -1.171875 3.25q-1.171875 1.328125 -3.0625 2.015625q-1.875 0.6875 -4.09375 0.6875zm19.403168 0q-1.734375 0 -3.15625 -0.375q-1.421875 -0.375 -2.546875 -1.015625q-1.125 -0.65625 -1.984375 -1.5l2.4375 -3.453125q0.671875 0.546875 1.375 0.984375q0.703125 0.421875 1.46875 0.6875q0.765625 0.25 1.5625 0.25q1.0625 0 1.84375 -0.28125q0.78125 -0.296875 1.1875 -0.875q0.421875 -0.578125 0.421875 -1.46875q0 -1.3125 -0.921875 -1.96875q-0.921875 -0.65625 -2.265625 -0.65625q-0.90625 0 -1.515625 0.203125q-0.59375 0.1875 -1.625 0.765625l-2.375 -1.546875l0.515625 -10.421875l12.796875 0l0 4.59375l-8.0625 0l-0.25 2.953125q0.640625 -0.1875 1.125 -0.25q0.5 -0.078125 1.109375 -0.078125q1.859375 0 3.4375 0.671875q1.59375 0.671875 2.5625 2.078125q0.984375 1.390625 0.984375 3.53125q0 2.265625 -1.140625 3.875q-1.140625 1.59375 -3.0 2.453125q-1.84375 0.84375 -3.984375 0.84375z" fill-rule="nonzero"/><path fill="#000000" fill-opacity="0.0" d="m387.81628 540.21783l87.55905 0l0 58.173218l-87.55905 0z" fill-rule="evenodd"/><path fill="#999999" d="m431.02704 580.3285q-1.734375 0 -3.15625 -0.375q-1.421875 -0.375 -2.546875 -1.015625q-1.125 -0.65625 -1.984375 -1.5l2.4375 -3.453125q0.671875 0.546875 1.375 0.984375q0.703125 0.421875 1.46875 0.6875q0.765625 0.25 1.5625 0.25q1.0625 0 1.84375 -0.28125q0.78125 -0.296875 1.1875 -0.875q0.421875 -0.578125 0.421875 -1.46875q0 -1.3125 -0.921875 -1.96875q-0.921875 -0.65625 -2.265625 -0.65625q-0.90625 0 -1.515625 0.203125q-0.59375 0.1875 -1.625 0.765625l-2.375 -1.546875l0.515625 -10.421875l12.796875 0l0 4.59375l-8.0625 0l-0.25 2.953125q0.640625 -0.1875 1.125 -0.25q0.5 -0.078125 1.109375 -0.078125q1.859375 0 3.4375 0.671875q1.59375 0.671875 2.5625 2.078125q0.984375 1.390625 0.984375 3.53125q0 2.265625 -1.140625 3.875q-1.140625 1.59375 -3.0 2.453125q-1.84375 0.84375 -3.984375 0.84375z" fill-rule="nonzero"/><path fill="#000000" fill-opacity="0.0" d="m548.895 428.45407l87.55902 0l0 58.173218l-87.55902 0z" fill-rule="evenodd"/><path fill="#999999" d="m575.13074 468.17407l0 -3.140625q2.734375 -2.203125 4.84375 -4.09375q2.109375 -1.890625 3.328125 -3.484375q1.21875 -1.59375 1.21875 -2.984375q0 -1.375 -0.8125 -2.03125q-0.796875 -0.65625 -2.140625 -0.65625q-1.125 0 -2.03125 0.59375q-0.90625 0.59375 -1.75 1.328125l-2.90625 -2.9375q1.671875 -1.703125 3.359375 -2.484375q1.703125 -0.78125 4.09375 -0.78125q2.1875 0 3.84375 0.8125q1.671875 0.8125 2.609375 2.328125q0.9375 1.5 0.9375 3.515625q0 1.625 -1.0 3.328125q-0.984375 1.703125 -2.515625 3.3125q-1.53125 1.609375 -3.203125 3.015625q0.84375 -0.09375 1.875 -0.171875q1.046875 -0.078125 1.78125 -0.078125l4.09375 0l0 4.609375l-15.625 0zm27.137573 0.390625q-2.359375 0 -4.171875 -1.21875q-1.8125 -1.21875 -2.828125 -3.578125q-1.0 -2.375 -1.0 -5.828125q0 -5.21875 2.203125 -7.828125q2.21875 -2.609375 5.796875 -2.609375q3.59375 0 5.796875 2.609375q2.203125 2.609375 2.203125 7.828125q0 3.453125 -1.015625 5.828125q-1.0 2.359375 -2.796875 3.578125q-1.78125 1.21875 -4.1875 1.21875zm0 -4.234375q0.875 0 1.578125 -0.53125q0.703125 -0.546875 1.125 -1.9375q0.4375 -1.40625 0.4375 -3.921875q0 -2.53125 -0.4375 -3.875q-0.421875 -1.34375 -1.125 -1.84375q-0.703125 -0.5 -1.578125 -0.5q-0.828125 0 -1.546875 0.5q-0.71875 0.5 -1.15625 1.84375q-0.421875 1.34375 -0.421875 3.875q0 2.515625 0.421875 3.921875q0.4375 1.390625 1.15625 1.9375q0.71875 0.53125 1.546875 0.53125zm0 -3.84375q-1.078125 0 -1.8125 -0.703125q-0.734375 -0.703125 -0.734375 -1.84375q0 -1.15625 0.734375 -1.859375q0.734375 -0.703125 1.8125 -0.703125q1.125 0 1.84375 0.703125q0.71875 0.703125 0.71875 1.859375q0 1.140625 -0.71875 1.84375q-0.71875 0.703125 -1.84375 0.703125z" fill-rule="nonzero"/><path fill="#000000" fill-opacity="0.0" d="m699.32416 373.7349l87.55902 0l0 58.17325l-87.55902 0z" fill-rule="evenodd"/><path fill="#999999" d="m742.5349 413.84552q-1.734375 0 -3.15625 -0.375q-1.421875 -0.375 -2.546875 -1.015625q-1.125 -0.65625 -1.984375 -1.5l2.4375 -3.453125q0.671875 0.546875 1.375 0.984375q0.703125 0.421875 1.46875 0.6875q0.765625 0.25 1.5625 0.25q1.0625 0 1.84375 -0.28125q0.78125 -0.296875 1.1875 -0.875q0.421875 -0.578125 0.421875 -1.46875q0 -1.3125 -0.921875 -1.96875q-0.921875 -0.65625 -2.265625 -0.65625q-0.90625 0 -1.515625 0.203125q-0.59375 0.1875 -1.625 0.765625l-2.375 -1.546875l0.515625 -10.421875l12.796875 0l0 4.59375l-8.0625 0l-0.25 2.953125q0.640625 -0.1875 1.125 -0.25q0.5 -0.078125 1.109375 -0.078125q1.859375 0 3.4375 0.671875q1.59375 0.671875 2.5625 2.078125q0.984375 1.390625 0.984375 3.53125q0 2.265625 -1.140625 3.875q-1.140625 1.59375 -3.0 2.453125q-1.84375 0.84375 -3.984375 0.84375z" fill-rule="nonzero"/></g></svg>