<svg version="1.1" viewBox="0.0 0.0 722.2624671916011 166.14698162729658" fill="none" stroke="none" stroke-linecap="square" stroke-miterlimit="10" xmlns:xlink="http://www.w3.org/1999/xlink" xmlns="http://www.w3.org/2000/svg"><clipPath id="p.0"><path d="m0 0l722.26245 0l0 166.14699l-722.26245 0l0 -166.14699z" clip-rule="nonzero"/></clipPath><g clip-path="url(#p.0)"><path fill="#000000" fill-opacity="0.0" d="m0 0l722.26245 0l0 166.14699l-722.26245 0z" fill-rule="evenodd"/><path fill="#000000" fill-opacity="0.0" d="m380.0887 70.88976l137.6063 0l0 44.7874l-137.6063 0z" fill-rule="evenodd"/><path fill="#999999" d="m392.85434 95.68601l0 -9.84375l0.640625 0.484375l-2.390625 1.265625l-0.515625 -1.625l3.25 -1.734375l0.90625 0l0 11.453125l-1.890625 0zm-1.921875 0.84375l0 -1.796875l5.78125 0l0 1.796875l-5.78125 0zm13.375244 0l0 -12.125l1.828125 0l4.421875 7.1875l-0.890625 -0.015625l4.484375 -7.171875l1.71875 0l0 12.125l-1.859375 0l0 -4.96875q0 -1.5625 0.078125 -2.8125q0.078125 -1.25 0.265625 -2.484375l0.234375 0.65625l-3.96875 6.125l-1.140625 0l-3.84375 -6.0625l0.1875 -0.71875q0.1875 1.171875 0.265625 2.390625q0.078125 1.21875 0.078125 2.90625l0 4.96875l-1.859375 0zm19.29953 0.171875q-0.59375 0 -1.171875 -0.1875q-0.578125 -0.1875 -1.0625 -0.5q-0.46875 -0.328125 -0.796875 -0.71875q-0.3125 -0.390625 -0.421875 -0.796875l0.453125 -0.234375l0 2.21875l-1.78125 0l0 -12.78125l1.78125 0l0 5.8125l-0.28125 -0.15625q0.09375 -0.40625 0.390625 -0.765625q0.296875 -0.375 0.75 -0.671875q0.453125 -0.3125 0.984375 -0.484375q0.546875 -0.1875 1.109375 -0.1875q1.21875 0 2.171875 0.609375q0.953125 0.59375 1.5 1.671875q0.5625 1.0625 0.5625 2.421875q0 1.375 -0.546875 2.453125q-0.546875 1.0625 -1.5 1.6875q-0.953125 0.609375 -2.140625 0.609375zm-0.296875 -1.625q0.796875 0 1.421875 -0.40625q0.625 -0.40625 0.984375 -1.109375q0.375 -0.703125 0.375 -1.609375q0 -0.875 -0.359375 -1.578125q-0.359375 -0.703125 -0.984375 -1.09375q-0.625 -0.40625 -1.4375 -0.40625q-0.8125 0 -1.4375 0.40625q-0.625 0.390625 -0.984375 1.09375q-0.359375 0.703125 -0.359375 1.578125q0 0.90625 0.359375 1.609375q0.359375 0.703125 0.984375 1.109375q0.625 0.40625 1.4375 0.40625zm6.4322815 5.265625l0 -12.90625l1.796875 0l0 2.078125l-0.28125 -0.15625q0.109375 -0.515625 0.59375 -0.984375q0.484375 -0.484375 1.1875 -0.78125q0.703125 -0.3125 1.453125 -0.3125q1.21875 0 2.171875 0.609375q0.953125 0.59375 1.5 1.65625q0.5625 1.0625 0.5625 2.421875q0 1.359375 -0.546875 2.421875q-0.53125 1.0625 -1.484375 1.6875q-0.953125 0.609375 -2.15625 0.609375q-0.796875 0 -1.546875 -0.3125q-0.734375 -0.328125 -1.265625 -0.828125q-0.515625 -0.5 -0.640625 -1.046875l0.453125 -0.234375l0 6.078125l-1.796875 0zm4.5 -5.296875q0.796875 0 1.421875 -0.390625q0.625 -0.40625 0.984375 -1.09375q0.375 -0.703125 0.375 -1.59375q0 -0.875 -0.359375 -1.5625q-0.359375 -0.6875 -0.984375 -1.078125q-0.625 -0.40625 -1.4375 -0.40625q-0.8125 0 -1.4375 0.390625q-0.625 0.390625 -0.984375 1.09375q-0.359375 0.6875 -0.359375 1.5625q0 0.890625 0.359375 1.59375q0.359375 0.6875 0.984375 1.09375q0.625 0.390625 1.4375 0.390625zm9.4652405 1.65625q-1.140625 0 -2.0625 -0.390625q-0.921875 -0.40625 -1.53125 -1.1875l1.21875 -1.03125q0.515625 0.59375 1.125 0.875q0.625 0.265625 1.40625 0.265625q0.3125 0 0.578125 -0.078125q0.265625 -0.078125 0.46875 -0.234375q0.203125 -0.15625 0.296875 -0.375q0.109375 -0.21875 0.109375 -0.46875q0 -0.453125 -0.328125 -0.734375q-0.171875 -0.125 -0.546875 -0.265625q-0.375 -0.15625 -0.953125 -0.3125q-1.015625 -0.25 -1.65625 -0.578125q-0.640625 -0.328125 -0.984375 -0.75q-0.265625 -0.328125 -0.390625 -0.71875q-0.109375 -0.390625 -0.109375 -0.859375q0 -0.578125 0.25 -1.046875q0.25 -0.484375 0.6875 -0.828125q0.4375 -0.359375 1.03125 -0.546875q0.609375 -0.1875 1.28125 -0.1875q0.640625 0 1.265625 0.171875q0.640625 0.171875 1.171875 0.5q0.546875 0.328125 0.90625 0.78125l-1.015625 1.125q-0.328125 -0.328125 -0.71875 -0.578125q-0.390625 -0.25 -0.796875 -0.390625q-0.390625 -0.140625 -0.71875 -0.140625q-0.359375 0 -0.65625 0.078125q-0.296875 0.0625 -0.5 0.203125q-0.203125 0.125 -0.3125 0.34375q-0.09375 0.203125 -0.09375 0.46875q0.015625 0.21875 0.109375 0.421875q0.09375 0.203125 0.265625 0.34375q0.203125 0.125 0.578125 0.28125q0.375 0.15625 0.96875 0.296875q0.875 0.234375 1.4375 0.5q0.5625 0.265625 0.890625 0.609375q0.34375 0.328125 0.484375 0.765625q0.140625 0.4375 0.140625 0.96875q0 0.78125 -0.453125 1.40625q-0.4375 0.609375 -1.1875 0.953125q-0.734375 0.34375 -1.65625 0.34375z" fill-rule="nonzero"/><path fill="#000000" fill-opacity="0.0" d="m532.0887 70.88976l137.60632 0l0 44.7874l-137.60632 0z" fill-rule="evenodd"/><path fill="#999999" d="m547.18243 96.52976l0 -9.765625l0.4375 0.09375l-3.984375 4.875l-0.0625 -0.203125l7.53125 0l0 1.703125l-8.703125 0l-0.796875 -1.5625l5.953125 -7.265625l1.4375 0l0 12.125l-1.8125 0zm11.204651 0l0 -12.125l1.828125 0l4.421875 7.1875l-0.890625 -0.015625l4.484375 -7.171875l1.71875 0l0 12.125l-1.859375 0l0 -4.96875q0 -1.5625 0.078125 -2.8125q0.078125 -1.25 0.265625 -2.484375l0.234375 0.65625l-3.96875 6.125l-1.140625 0l-3.84375 -6.0625l0.1875 -0.71875q0.1875 1.171875 0.265625 2.390625q0.078125 1.21875 0.078125 2.90625l0 4.96875l-1.859375 0zm19.2995 0.171875q-0.59375 0 -1.171875 -0.1875q-0.578125 -0.1875 -1.0625 -0.5q-0.46875 -0.328125 -0.796875 -0.71875q-0.3125 -0.390625 -0.421875 -0.796875l0.453125 -0.234375l0 2.21875l-1.78125 0l0 -12.78125l1.78125 0l0 5.8125l-0.28125 -0.15625q0.09375 -0.40625 0.390625 -0.765625q0.296875 -0.375 0.75 -0.671875q0.453125 -0.3125 0.984375 -0.484375q0.546875 -0.1875 1.109375 -0.1875q1.21875 0 2.171875 0.609375q0.953125 0.59375 1.5 1.671875q0.5625 1.0625 0.5625 2.421875q0 1.375 -0.546875 2.453125q-0.546875 1.0625 -1.5 1.6875q-0.953125 0.609375 -2.140625 0.609375zm-0.296875 -1.625q0.796875 0 1.421875 -0.40625q0.625 -0.40625 0.984375 -1.109375q0.375 -0.703125 0.375 -1.609375q0 -0.875 -0.359375 -1.578125q-0.359375 -0.703125 -0.984375 -1.09375q-0.625 -0.40625 -1.4375 -0.40625q-0.8125 0 -1.4375 0.40625q-0.625 0.390625 -0.984375 1.09375q-0.359375 0.703125 -0.359375 1.578125q0 0.90625 0.359375 1.609375q0.359375 0.703125 0.984375 1.109375q0.625 0.40625 1.4375 0.40625zm6.432312 5.265625l0 -12.90625l1.796875 0l0 2.078125l-0.28125 -0.15625q0.109375 -0.515625 0.59375 -0.984375q0.484375 -0.484375 1.1875 -0.78125q0.703125 -0.3125 1.453125 -0.3125q1.21875 0 2.171875 0.609375q0.953125 0.59375 1.5 1.65625q0.5625 1.0625 0.5625 2.421875q0 1.359375 -0.546875 2.421875q-0.53125 1.0625 -1.484375 1.6875q-0.953125 0.609375 -2.15625 0.609375q-0.796875 0 -1.546875 -0.3125q-0.734375 -0.328125 -1.265625 -0.828125q-0.515625 -0.5 -0.640625 -1.046875l0.453125 -0.234375l0 6.078125l-1.796875 0zm4.5 -5.296875q0.796875 0 1.421875 -0.390625q0.625 -0.40625 0.984375 -1.09375q0.375 -0.703125 0.375 -1.59375q0 -0.875 -0.359375 -1.5625q-0.359375 -0.6875 -0.984375 -1.078125q-0.625 -0.40625 -1.4375 -0.40625q-0.8125 0 -1.4375 0.390625q-0.625 0.390625 -0.984375 1.09375q-0.359375 0.6875 -0.359375 1.5625q0 0.890625 0.359375 1.59375q0.359375 0.6875 0.984375 1.09375q0.625 0.390625 1.4375 0.390625zm9.46521 1.65625q-1.140625 0 -2.0625 -0.390625q-0.921875 -0.40625 -1.53125 -1.1875l1.21875 -1.03125q0.515625 0.59375 1.125 0.875q0.625 0.265625 1.40625 0.265625q0.3125 0 0.578125 -0.078125q0.265625 -0.078125 0.46875 -0.234375q0.203125 -0.15625 0.296875 -0.375q0.109375 -0.21875 0.109375 -0.46875q0 -0.453125 -0.328125 -0.734375q-0.171875 -0.125 -0.546875 -0.265625q-0.375 -0.15625 -0.953125 -0.3125q-1.015625 -0.25 -1.65625 -0.578125q-0.640625 -0.328125 -0.984375 -0.75q-0.265625 -0.328125 -0.390625 -0.71875q-0.109375 -0.390625 -0.109375 -0.859375q0 -0.578125 0.25 -1.046875q0.25 -0.484375 0.6875 -0.828125q0.4375 -0.359375 1.03125 -0.546875q0.609375 -0.1875 1.28125 -0.1875q0.640625 0 1.265625 0.171875q0.640625 0.171875 1.171875 0.5q0.546875 0.328125 0.90625 0.78125l-1.015625 1.125q-0.328125 -0.328125 -0.71875 -0.578125q-0.390625 -0.25 -0.796875 -0.390625q-0.390625 -0.140625 -0.71875 -0.140625q-0.359375 0 -0.65625 0.078125q-0.296875 0.0625 -0.5 0.203125q-0.203125 0.125 -0.3125 0.34375q-0.09375 0.203125 -0.09375 0.46875q0.015625 0.21875 0.109375 0.421875q0.09375 0.203125 0.265625 0.34375q0.203125 0.125 0.578125 0.28125q0.375 0.15625 0.96875 0.296875q0.875 0.234375 1.4375 0.5q0.5625 0.265625 0.890625 0.609375q0.34375 0.328125 0.484375 0.765625q0.140625 0.4375 0.140625 0.96875q0 0.78125 -0.453125 1.40625q-0.4375 0.609375 -1.1875 0.953125q-0.734375 0.34375 -1.65625 0.34375z" fill-rule="nonzero"/><path fill="#000000" fill-opacity="0.0" d="m229.68872 70.88976l137.6063 0l0 44.7874l-137.6063 0z" fill-rule="evenodd"/><path fill="#999999" d="m244.78247 96.52976l0 -9.765625l0.4375 0.09375l-3.984375 4.875l-0.0625 -0.203125l7.53125 0l0 1.703125l-8.703125 0l-0.796875 -1.5625l5.953125 -7.265625l1.4375 0l0 12.125l-1.8125 0zm11.204605 0l0 -12.125l1.8281097 0l4.421875 7.1875l-0.890625 -0.015625l4.484375 -7.171875l1.71875 0l0 12.125l-1.859375 0l0 -4.96875q0 -1.5625 0.078125 -2.8125q0.078125 -1.25 0.265625 -2.484375l0.234375 0.65625l-3.96875 6.125l-1.140625 0l-3.84375 -6.0625l0.1875 -0.71875q0.1875 1.171875 0.265625 2.390625q0.078125 1.21875 0.078125 2.90625l0 4.96875l-1.8593597 0zm19.299545 0.171875q-0.59375 0 -1.171875 -0.1875q-0.578125 -0.1875 -1.0625 -0.5q-0.46875 -0.328125 -0.796875 -0.71875q-0.3125 -0.390625 -0.421875 -0.796875l0.453125 -0.234375l0 2.21875l-1.78125 0l0 -12.78125l1.78125 0l0 5.8125l-0.28125 -0.15625q0.09375 -0.40625 0.390625 -0.765625q0.296875 -0.375 0.75 -0.671875q0.453125 -0.3125 0.984375 -0.484375q0.546875 -0.1875 1.109375 -0.1875q1.21875 0 2.171875 0.609375q0.953125 0.59375 1.5 1.671875q0.5625 1.0625 0.5625 2.421875q0 1.375 -0.546875 2.453125q-0.546875 1.0625 -1.5 1.6875q-0.953125 0.609375 -2.140625 0.609375zm-0.296875 -1.625q0.796875 0 1.421875 -0.40625q0.625 -0.40625 0.984375 -1.109375q0.375 -0.703125 0.375 -1.609375q0 -0.875 -0.359375 -1.578125q-0.359375 -0.703125 -0.984375 -1.09375q-0.625 -0.40625 -1.4375 -0.40625q-0.8125 0 -1.4375 0.40625q-0.625 0.390625 -0.984375 1.09375q-0.359375 0.703125 -0.359375 1.578125q0 0.90625 0.359375 1.609375q0.359375 0.703125 0.984375 1.109375q0.625 0.40625 1.4375 0.40625zm6.4322815 5.265625l0 -12.90625l1.796875 0l0 2.078125l-0.28125 -0.15625q0.109375 -0.515625 0.59375 -0.984375q0.484375 -0.484375 1.1875 -0.78125q0.703125 -0.3125 1.453125 -0.3125q1.21875 0 2.171875 0.609375q0.953125 0.59375 1.5 1.65625q0.5625 1.0625 0.5625 2.421875q0 1.359375 -0.546875 2.421875q-0.53125 1.0625 -1.484375 1.6875q-0.953125 0.609375 -2.15625 0.609375q-0.796875 0 -1.546875 -0.3125q-0.734375 -0.328125 -1.265625 -0.828125q-0.515625 -0.5 -0.640625 -1.046875l0.453125 -0.234375l0 6.078125l-1.796875 0zm4.5 -5.296875q0.796875 0 1.421875 -0.390625q0.625 -0.40625 0.984375 -1.09375q0.375 -0.703125 0.375 -1.59375q0 -0.875 -0.359375 -1.5625q-0.359375 -0.6875 -0.984375 -1.078125q-0.625 -0.40625 -1.4375 -0.40625q-0.8125 0 -1.4375 0.390625q-0.625 0.390625 -0.984375 1.09375q-0.359375 0.6875 -0.359375 1.5625q0 0.890625 0.359375 1.59375q0.359375 0.6875 0.984375 1.09375q0.625 0.390625 1.4375 0.390625zm9.4652405 1.65625q-1.140625 0 -2.0625 -0.390625q-0.921875 -0.40625 -1.53125 -1.1875l1.21875 -1.03125q0.515625 0.59375 1.125 0.875q0.625 0.265625 1.40625 0.265625q0.3125 0 0.578125 -0.078125q0.265625 -0.078125 0.46875 -0.234375q0.203125 -0.15625 0.296875 -0.375q0.109375 -0.21875 0.109375 -0.46875q0 -0.453125 -0.328125 -0.734375q-0.171875 -0.125 -0.546875 -0.265625q-0.375 -0.15625 -0.953125 -0.3125q-1.015625 -0.25 -1.65625 -0.578125q-0.640625 -0.328125 -0.984375 -0.75q-0.265625 -0.328125 -0.390625 -0.71875q-0.109375 -0.390625 -0.109375 -0.859375q0 -0.578125 0.25 -1.046875q0.25 -0.484375 0.6875 -0.828125q0.4375 -0.359375 1.03125 -0.546875q0.609375 -0.1875 1.28125 -0.1875q0.640625 0 1.265625 0.171875q0.640625 0.171875 1.171875 0.5q0.546875 0.328125 0.90625 0.78125l-1.015625 1.125q-0.328125 -0.328125 -0.71875 -0.578125q-0.390625 -0.25 -0.796875 -0.390625q-0.390625 -0.140625 -0.71875 -0.140625q-0.359375 0 -0.65625 0.078125q-0.296875 0.0625 -0.5 0.203125q-0.203125 0.125 -0.3125 0.34375q-0.09375 0.203125 -0.09375 0.46875q0.015625 0.21875 0.109375 0.421875q0.09375 0.203125 0.265625 0.34375q0.203125 0.125 0.578125 0.28125q0.375 0.15625 0.96875 0.296875q0.875 0.234375 1.4375 0.5q0.5625 0.265625 0.890625 0.609375q0.34375 0.328125 0.484375 0.765625q0.140625 0.4375 0.140625 0.96875q0 0.78125 -0.453125 1.40625q-0.4375 0.609375 -1.1875 0.953125q-0.734375 0.34375 -1.65625 0.34375z" fill-rule="nonzero"/><path fill="#000000" fill-opacity="0.0" d="m227.28871 107.25984l79.71654 0" fill-rule="evenodd"/><path stroke="#999999" stroke-width="1.0" stroke-linejoin="round" stroke-linecap="butt" d="m227.28871 107.25984l79.71654 0" fill-rule="evenodd"/><path fill="#000000" fill-opacity="0.0" d="m385.2546 107.26028l67.93698 0" fill-rule="evenodd"/><path stroke="#999999" stroke-width="1.0" stroke-linejoin="round" stroke-linecap="butt" d="m385.2546 107.26028l67.93698 0" fill-rule="evenodd"/><path fill="#000000" fill-opacity="0.0" d="m531.4239 107.26028l79.653564 0" fill-rule="evenodd"/><path stroke="#999999" stroke-width="1.0" stroke-linejoin="round" stroke-linecap="butt" d="m531.4239 107.26028l79.653564 0" fill-rule="evenodd"/><path fill="#3c78d8" d="m453.18765 81.18179l0 0c0 -7.2015915 5.838043 -13.039627 13.039642 -13.039627l52.156982 0l0 0c3.458313 0 6.7749634 1.3738098 9.220398 3.8192139c2.4453735 2.4454117 3.8192139 5.7620926 3.8192139 9.220413l0 52.156967c0 7.201584 -5.8380737 13.039627 -13.039612 13.039627l-52.156982 0c-7.201599 0 -13.039642 -5.838043 -13.039642 -13.039627z" fill-rule="evenodd"/><path stroke="#3c78d8" stroke-width="1.0" stroke-linejoin="round" stroke-linecap="butt" d="m453.18765 81.18179l0 0c0 -7.2015915 5.838043 -13.039627 13.039642 -13.039627l52.156982 0l0 0c3.458313 0 6.7749634 1.3738098 9.220398 3.8192139c2.4453735 2.4454117 3.8192139 5.7620926 3.8192139 9.220413l0 52.156967c0 7.201584 -5.8380737 13.039627 -13.039612 13.039627l-52.156982 0c-7.201599 0 -13.039642 -5.838043 -13.039642 -13.039627z" fill-rule="evenodd"/><path fill="#ffffff" d="m480.85065 114.74027l0 -14.9375l6.71875 0q1.4375 0 2.59375 0.625q1.15625 0.625 1.8125 1.703125q0.671875 1.078125 0.671875 2.4375q0 1.40625 -0.671875 2.53125q-0.65625 1.109375 -1.8125 1.75q-1.140625 0.640625 -2.59375 0.640625l-3.265625 0l0 5.25l-3.453125 0zm8.28125 0l-3.796875 -6.734375l3.703125 -0.53125l4.234375 7.265625l-4.140625 0zm-4.828125 -8.015625l2.953125 0q0.546875 0 0.953125 -0.25q0.421875 -0.25 0.640625 -0.6875q0.234375 -0.453125 0.234375 -1.03125q0 -0.578125 -0.265625 -1.015625q-0.25 -0.4375 -0.734375 -0.671875q-0.46875 -0.234375 -1.15625 -0.234375l-2.625 0l0 3.890625zm10.909882 8.015625l-0.71875 -1.75l4.359375 -4.75q0.359375 -0.40625 0.78125 -0.921875q0.4375 -0.515625 0.84375 -1.046875q0.40625 -0.546875 0.640625 -1.0625q0.25 -0.515625 0.25 -0.9375q0 -0.4375 -0.203125 -0.75q-0.1875 -0.3125 -0.546875 -0.5q-0.359375 -0.1875 -0.90625 -0.1875q-0.5 0 -0.953125 0.25q-0.4375 0.25 -0.84375 0.765625q-0.390625 0.5 -0.734375 1.25l-2.6875 -1.453125q0.453125 -1.234375 1.265625 -2.171875q0.828125 -0.953125 1.9375 -1.46875q1.109375 -0.53125 2.375 -0.53125q1.3125 0.015625 2.375 0.5625q1.078125 0.546875 1.703125 1.515625q0.625 0.96875 0.625 2.265625q0 0.453125 -0.109375 0.953125q-0.09375 0.484375 -0.3125 1.0q-0.21875 0.515625 -0.578125 1.109375q-0.34375 0.59375 -0.828125 1.234375q-0.484375 0.625 -1.15625 1.359375l-3.390625 3.6875l-0.421875 -1.625l7.46875 0l0 3.203125l-10.234375 0z" fill-rule="nonzero"/><path fill="#3c78d8" d="m611.0735 67.95276l78.6142 0l0 78.61417l-78.6142 0z" fill-rule="evenodd"/><path stroke="#3c78d8" stroke-width="8.0" stroke-linejoin="round" stroke-linecap="butt" d="m611.0735 67.95276l78.6142 0l0 78.61417l-78.6142 0z" fill-rule="evenodd"/><path fill="#ffffff" d="m644.78 114.739845l0 -14.9375l6.59375 0q1.53125 0 2.59375 0.4375q1.078125 0.4375 1.609375 1.265625q0.546875 0.828125 0.546875 1.96875q0 1.28125 -0.625 2.15625q-0.625 0.875 -1.828125 1.171875l-0.03125 -0.40625q1.0 0.21875 1.734375 0.75q0.734375 0.53125 1.140625 1.3125q0.40625 0.78125 0.40625 1.765625q0 1.125 -0.390625 1.96875q-0.375 0.84375 -1.109375 1.421875q-0.71875 0.578125 -1.6875 0.859375q-0.96875 0.265625 -2.140625 0.265625l-6.8125 0zm3.421875 -3.03125l3.25 0q0.609375 0 1.015625 -0.1875q0.421875 -0.1875 0.65625 -0.5625q0.234375 -0.375 0.234375 -0.90625q0 -0.5 -0.25 -0.828125q-0.25 -0.34375 -0.703125 -0.53125q-0.4375 -0.1875 -1.046875 -0.1875l-3.15625 0l0 3.203125zm0 -5.90625l2.65625 0q0.5625 0 0.953125 -0.171875q0.390625 -0.1875 0.59375 -0.515625q0.203125 -0.328125 0.203125 -0.796875q0 -0.6875 -0.46875 -1.078125q-0.46875 -0.40625 -1.40625 -0.40625l-2.53125 0l0 2.96875z" fill-rule="nonzero"/><path fill="#3c78d8" d="m599.35693 72.34646l51.02362 -48.34646l51.02362 48.34646z" fill-rule="evenodd"/><path stroke="#3c78d8" stroke-width="8.0" stroke-linejoin="round" stroke-linecap="butt" d="m599.35693 72.34646l51.02362 -48.34646l51.02362 48.34646z" fill-rule="evenodd"/><path fill="#a4c2f4" d="m40.0 68.14149l78.23622 0l0 48.34645l-78.23622 0z" fill-rule="evenodd"/><path stroke="#999999" stroke-width="1.0" stroke-linejoin="round" stroke-linecap="butt" d="m40.0 68.14149l78.23622 0l0 48.34645l-78.23622 0z" fill-rule="evenodd"/><path fill="#ffffff" d="m57.627136 98.312836l0 -10.59375l0.6875 1.59375l-2.796875 1.328125l-0.546875 -2.84375l3.71875 -1.8125l2.046875 0l0 12.328125l-3.109375 0zm-2.390625 0.921875l0 -2.796875l7.953125 0l0 2.796875l-7.953125 0zm10.013031 0l-0.609375 -1.53125l3.8125 -4.15625q0.3125 -0.359375 0.6875 -0.796875q0.375 -0.453125 0.71875 -0.921875q0.359375 -0.484375 0.578125 -0.921875q0.21875 -0.453125 0.21875 -0.828125q0 -0.375 -0.171875 -0.65625q-0.171875 -0.28125 -0.5 -0.4375q-0.3125 -0.15625 -0.796875 -0.15625q-0.421875 0 -0.8125 0.21875q-0.390625 0.203125 -0.734375 0.65625q-0.34375 0.453125 -0.65625 1.09375l-2.34375 -1.265625q0.390625 -1.078125 1.109375 -1.90625q0.71875 -0.828125 1.6875 -1.28125q0.96875 -0.46875 2.078125 -0.46875q1.15625 0.015625 2.078125 0.5q0.9375 0.46875 1.484375 1.328125q0.5625 0.84375 0.5625 1.984375q0 0.390625 -0.09375 0.828125q-0.09375 0.421875 -0.28125 0.875q-0.1875 0.453125 -0.5 0.96875q-0.3125 0.515625 -0.75 1.078125q-0.421875 0.546875 -1.0 1.1875l-2.953125 3.234375l-0.375 -1.421875l6.53125 0l0 2.796875l-8.96875 0zm14.395508 0.125q-1.484375 0 -2.6875 -0.59375q-1.203125 -0.59375 -1.984375 -1.71875l1.703125 -1.859375q0.765625 0.84375 1.40625 1.15625q0.65625 0.296875 1.46875 0.296875q0.59375 0 1.0625 -0.234375q0.46875 -0.25 0.734375 -0.6875q0.265625 -0.4375 0.265625 -0.984375q0 -0.5625 -0.265625 -1.0q-0.265625 -0.4375 -0.734375 -0.6875q-0.453125 -0.265625 -1.046875 -0.265625q-0.4375 0 -0.8125 0.078125q-0.359375 0.0625 -0.78125 0.25q-0.421875 0.171875 -1.0 0.515625l-1.34375 -1.796875l0.796875 -5.765625l7.5 0l0 2.671875l-5.984375 0l0.828125 -1.046875l-0.625 4.140625l-1.109375 -0.375q0.34375 -0.3125 0.859375 -0.546875q0.515625 -0.25 1.109375 -0.40625q0.59375 -0.171875 1.203125 -0.171875q1.21875 0 2.203125 0.578125q0.984375 0.5625 1.5625 1.578125q0.578125 1.0 0.578125 2.3125q0 1.28125 -0.65625 2.328125q-0.65625 1.03125 -1.765625 1.640625q-1.09375 0.59375 -2.484375 0.59375zm13.464127 -0.125l0 -13.0625l5.765625 0q1.34375 0 2.265625 0.390625q0.9375 0.375 1.40625 1.09375q0.484375 0.71875 0.484375 1.734375q0 1.109375 -0.546875 1.875q-0.546875 0.765625 -1.59375 1.03125l-0.03125 -0.359375q0.875 0.1875 1.515625 0.65625q0.640625 0.46875 0.984375 1.15625q0.359375 0.671875 0.359375 1.53125q0 0.984375 -0.34375 1.71875q-0.328125 0.734375 -0.96875 1.25q-0.625 0.5 -1.46875 0.75q-0.84375 0.234375 -1.875 0.234375l-5.953125 0zm2.984375 -2.65625l2.859375 0q0.515625 0 0.875 -0.15625q0.375 -0.171875 0.578125 -0.5q0.203125 -0.328125 0.203125 -0.796875q0 -0.421875 -0.21875 -0.71875q-0.203125 -0.296875 -0.609375 -0.453125q-0.390625 -0.171875 -0.921875 -0.171875l-2.765625 0l0 2.796875zm0 -5.15625l2.328125 0q0.484375 0 0.828125 -0.15625q0.359375 -0.171875 0.53125 -0.453125q0.171875 -0.296875 0.171875 -0.703125q0 -0.59375 -0.40625 -0.9375q-0.40625 -0.34375 -1.234375 -0.34375l-2.21875 0l0 2.59375z" fill-rule="nonzero"/><path fill="#3c78d8" d="m307.01837 81.18179l0 0c0 -7.2015915 5.838043 -13.039627 13.039642 -13.039627l52.15695 0l0 0c3.458313 0 6.774994 1.3738098 9.220398 3.8192139c2.445404 2.4454117 3.8192444 5.7620926 3.8192444 9.220413l0 52.156967c0 7.201584 -5.838043 13.039627 -13.039642 13.039627l-52.15695 0c-7.201599 0 -13.039642 -5.838043 -13.039642 -13.039627z" fill-rule="evenodd"/><path stroke="#3c78d8" stroke-width="1.0" stroke-linejoin="round" stroke-linecap="butt" d="m307.01837 81.18179l0 0c0 -7.2015915 5.838043 -13.039627 13.039642 -13.039627l52.15695 0l0 0c3.458313 0 6.774994 1.3738098 9.220398 3.8192139c2.445404 2.4454117 3.8192444 5.7620926 3.8192444 9.220413l0 52.156967c0 7.201584 -5.838043 13.039627 -13.039642 13.039627l-52.15695 0c-7.201599 0 -13.039642 -5.838043 -13.039642 -13.039627z" fill-rule="evenodd"/><path fill="#ffffff" d="m334.54272 114.74027l0 -14.9375l6.71875 0q1.4375 0 2.59375 0.625q1.15625 0.625 1.8125 1.703125q0.671875 1.078125 0.671875 2.4375q0 1.40625 -0.671875 2.53125q-0.65625 1.109375 -1.8125 1.75q-1.140625 0.640625 -2.59375 0.640625l-3.265625 0l0 5.25l-3.453125 0zm8.28125 0l-3.796875 -6.734375l3.703125 -0.53125l4.234375 7.265625l-4.140625 0zm-4.828125 -8.015625l2.953125 0q0.546875 0 0.953125 -0.25q0.421875 -0.25 0.640625 -0.6875q0.234375 -0.453125 0.234375 -1.03125q0 -0.578125 -0.265625 -1.015625q-0.25 -0.4375 -0.734375 -0.671875q-0.46875 -0.234375 -1.15625 -0.234375l-2.625 0l0 3.890625zm14.144257 6.96875l0 -12.109375l0.796875 1.8125l-3.203125 1.515625l-0.625 -3.25l4.25 -2.0625l2.34375 0l0 14.09375l-3.5625 0zm-2.734375 1.046875l0 -3.203125l9.09375 0l0 3.203125l-9.09375 0z" fill-rule="nonzero"/><path fill="#3c78d8" d="m148.67455 67.95276l78.61417 0l0 78.61417l-78.61417 0z" fill-rule="evenodd"/><path stroke="#3c78d8" stroke-width="8.0" stroke-linejoin="round" stroke-linecap="butt" d="m148.67455 67.95276l78.61417 0l0 78.61417l-78.61417 0z" fill-rule="evenodd"/><path fill="#ffffff" d="m180.56511 114.739845l5.90625 -14.9375l3.0625 0l5.875 14.9375l-3.671875 0l-2.8125 -7.578125q-0.171875 -0.4375 -0.34375 -0.953125q-0.171875 -0.515625 -0.34375 -1.046875q-0.171875 -0.546875 -0.328125 -1.0625q-0.15625 -0.53125 -0.265625 -0.984375l0.640625 -0.015625q-0.125 0.53125 -0.296875 1.046875q-0.15625 0.5 -0.3125 1.015625q-0.15625 0.5 -0.359375 1.0q-0.1875 0.5 -0.359375 1.03125l-2.8125 7.546875l-3.578125 0zm2.8125 -2.859375l1.125 -2.734375l6.875 0l1.109375 2.734375l-9.109375 0z" fill-rule="nonzero"/><path fill="#3c78d8" d="m136.95801 72.34646l51.02362 -48.34646l51.02362 48.34646z" fill-rule="evenodd"/><path stroke="#3c78d8" stroke-width="8.0" stroke-linejoin="round" stroke-linecap="butt" d="m136.95801 72.34646l51.02362 -48.34646l51.02362 48.34646z" fill-rule="evenodd"/><path fill="#a4c2f4" d="m32.0 76.14149l78.23622 0l0 48.34645l-78.23622 0z" fill-rule="evenodd"/><path stroke="#999999" stroke-width="1.0" stroke-linejoin="round" stroke-linecap="butt" d="m32.0 76.14149l78.23622 0l0 48.34645l-78.23622 0z" fill-rule="evenodd"/><path fill="#ffffff" d="m49.627136 106.312836l0 -10.59375l0.6875 1.59375l-2.796875 1.328125l-0.546875 -2.84375l3.71875 -1.8125l2.046875 0l0 12.328125l-3.109375 0zm-2.390625 0.921875l0 -2.796875l7.953125 0l0 2.796875l-7.953125 0zm10.013031 0l-0.609375 -1.53125l3.8125 -4.15625q0.3125 -0.359375 0.6875 -0.796875q0.375 -0.453125 0.71875 -0.921875q0.359375 -0.484375 0.578125 -0.921875q0.21875 -0.453125 0.21875 -0.828125q0 -0.375 -0.171875 -0.65625q-0.171875 -0.28125 -0.5 -0.4375q-0.3125 -0.15625 -0.796875 -0.15625q-0.421875 0 -0.8125 0.21875q-0.390625 0.203125 -0.734375 0.65625q-0.34375 0.453125 -0.65625 1.09375l-2.34375 -1.265625q0.390625 -1.078125 1.109375 -1.90625q0.71875 -0.828125 1.6875 -1.28125q0.96875 -0.46875 2.078125 -0.46875q1.15625 0.015625 2.078125 0.5q0.9375 0.46875 1.484375 1.328125q0.5625 0.84375 0.5625 1.984375q0 0.390625 -0.09375 0.828125q-0.09375 0.421875 -0.28125 0.875q-0.1875 0.453125 -0.5 0.96875q-0.3125 0.515625 -0.75 1.078125q-0.421875 0.546875 -1.0 1.1875l-2.953125 3.234375l-0.375 -1.421875l6.53125 0l0 2.796875l-8.96875 0zm14.395508 0.125q-1.484375 0 -2.6875 -0.59375q-1.203125 -0.59375 -1.984375 -1.71875l1.703125 -1.859375q0.765625 0.84375 1.40625 1.15625q0.65625 0.296875 1.46875 0.296875q0.59375 0 1.0625 -0.234375q0.46875 -0.25 0.734375 -0.6875q0.265625 -0.4375 0.265625 -0.984375q0 -0.5625 -0.265625 -1.0q-0.265625 -0.4375 -0.734375 -0.6875q-0.453125 -0.265625 -1.046875 -0.265625q-0.4375 0 -0.8125 0.078125q-0.359375 0.0625 -0.78125 0.25q-0.421875 0.171875 -1.0 0.515625l-1.34375 -1.796875l0.796875 -5.765625l7.5 0l0 2.671875l-5.984375 0l0.828125 -1.046875l-0.625 4.140625l-1.109375 -0.375q0.34375 -0.3125 0.859375 -0.546875q0.515625 -0.25 1.109375 -0.40625q0.59375 -0.171875 1.203125 -0.171875q1.21875 0 2.203125 0.578125q0.984375 0.5625 1.5625 1.578125q0.578125 1.0 0.578125 2.3125q0 1.28125 -0.65625 2.328125q-0.65625 1.03125 -1.765625 1.640625q-1.09375 0.59375 -2.484375 0.59375zm13.464127 -0.125l0 -13.0625l5.765625 0q1.34375 0 2.265625 0.390625q0.9375 0.375 1.40625 1.09375q0.484375 0.71875 0.484375 1.734375q0 1.109375 -0.546875 1.875q-0.546875 0.765625 -1.59375 1.03125l-0.03125 -0.359375q0.875 0.1875 1.515625 0.65625q0.640625 0.46875 0.984375 1.15625q0.359375 0.671875 0.359375 1.53125q0 0.984375 -0.34375 1.71875q-0.328125 0.734375 -0.96875 1.25q-0.625 0.5 -1.46875 0.75q-0.84375 0.234375 -1.875 0.234375l-5.953125 0zm2.984375 -2.65625l2.859375 0q0.515625 0 0.875 -0.15625q0.375 -0.171875 0.578125 -0.5q0.203125 -0.328125 0.203125 -0.796875q0 -0.421875 -0.21875 -0.71875q-0.203125 -0.296875 -0.609375 -0.453125q-0.390625 -0.171875 -0.921875 -0.171875l-2.765625 0l0 2.796875zm0 -5.15625l2.328125 0q0.484375 0 0.828125 -0.15625q0.359375 -0.171875 0.53125 -0.453125q0.171875 -0.296875 0.171875 -0.703125q0 -0.59375 -0.40625 -0.9375q-0.40625 -0.34375 -1.234375 -0.34375l-2.21875 0l0 2.59375z" fill-rule="nonzero"/><path fill="#a4c2f4" d="m24.0 84.14149l78.23622 0l0 48.34646l-78.23622 0z" fill-rule="evenodd"/><path stroke="#999999" stroke-width="1.0" stroke-linejoin="round" stroke-linecap="butt" d="m24.0 84.14149l78.23622 0l0 48.34646l-78.23622 0z" fill-rule="evenodd"/><path fill="#ffffff" d="m41.627136 114.312836l0 -10.59375l0.6875 1.59375l-2.796875 1.328125l-0.546875 -2.84375l3.71875 -1.8125l2.046875 0l0 12.328125l-3.109375 0zm-2.390625 0.921875l0 -2.796875l7.953125 0l0 2.796875l-7.953125 0zm10.013031 0l-0.609375 -1.53125l3.8125 -4.15625q0.3125 -0.359375 0.6875 -0.796875q0.375 -0.453125 0.71875 -0.921875q0.359375 -0.484375 0.578125 -0.921875q0.21875 -0.453125 0.21875 -0.828125q0 -0.375 -0.171875 -0.65625q-0.171875 -0.28125 -0.5 -0.4375q-0.3125 -0.15625 -0.796875 -0.15625q-0.421875 0 -0.8125 0.21875q-0.390625 0.203125 -0.734375 0.65625q-0.34375 0.453125 -0.65625 1.09375l-2.34375 -1.265625q0.390625 -1.078125 1.109375 -1.90625q0.71875 -0.828125 1.6875 -1.28125q0.96875 -0.46875 2.078125 -0.46875q1.15625 0.015625 2.078125 0.5q0.9375 0.46875 1.484375 1.328125q0.5625 0.84375 0.5625 1.984375q0 0.390625 -0.09375 0.828125q-0.09375 0.421875 -0.28125 0.875q-0.1875 0.453125 -0.5 0.96875q-0.3125 0.515625 -0.75 1.078125q-0.421875 0.546875 -1.0 1.1875l-2.953125 3.234375l-0.375 -1.421875l6.53125 0l0 2.796875l-8.96875 0zm14.395508 0.125q-1.484375 0 -2.6875 -0.59375q-1.203125 -0.59375 -1.984375 -1.71875l1.703125 -1.859375q0.765625 0.84375 1.40625 1.15625q0.65625 0.296875 1.46875 0.296875q0.59375 0 1.0625 -0.234375q0.46875 -0.25 0.734375 -0.6875q0.265625 -0.4375 0.265625 -0.984375q0 -0.5625 -0.265625 -1.0q-0.265625 -0.4375 -0.734375 -0.6875q-0.453125 -0.265625 -1.046875 -0.265625q-0.4375 0 -0.8125 0.078125q-0.359375 0.0625 -0.78125 0.25q-0.421875 0.171875 -1.0 0.515625l-1.34375 -1.796875l0.796875 -5.765625l7.5 0l0 2.671875l-5.984375 0l0.828125 -1.046875l-0.625 4.140625l-1.109375 -0.375q0.34375 -0.3125 0.859375 -0.546875q0.515625 -0.25 1.109375 -0.40625q0.59375 -0.171875 1.203125 -0.171875q1.21875 0 2.203125 0.578125q0.984375 0.5625 1.5625 1.578125q0.578125 1.0 0.578125 2.3125q0 1.28125 -0.65625 2.328125q-0.65625 1.03125 -1.765625 1.640625q-1.09375 0.59375 -2.484375 0.59375zm13.464127 -0.125l0 -13.0625l5.765625 0q1.34375 0 2.265625 0.390625q0.9375 0.375 1.40625 1.09375q0.484375 0.71875 0.484375 1.734375q0 1.109375 -0.546875 1.875q-0.546875 0.765625 -1.59375 1.03125l-0.03125 -0.359375q0.875 0.1875 1.515625 0.65625q0.640625 0.46875 0.984375 1.15625q0.359375 0.671875 0.359375 1.53125q0 0.984375 -0.34375 1.71875q-0.328125 0.734375 -0.96875 1.25q-0.625 0.5 -1.46875 0.75q-0.84375 0.234375 -1.875 0.234375l-5.953125 0zm2.984375 -2.65625l2.859375 0q0.515625 0 0.875 -0.15625q0.375 -0.171875 0.578125 -0.5q0.203125 -0.328125 0.203125 -0.796875q0 -0.421875 -0.21875 -0.71875q-0.203125 -0.296875 -0.609375 -0.453125q-0.390625 -0.171875 -0.921875 -0.171875l-2.765625 0l0 2.796875zm0 -5.15625l2.328125 0q0.484375 0 0.828125 -0.15625q0.359375 -0.171875 0.53125 -0.453125q0.171875 -0.296875 0.171875 -0.703125q0 -0.59375 -0.40625 -0.9375q-0.40625 -0.34375 -1.234375 -0.34375l-2.21875 0l0 2.59375z" fill-rule="nonzero"/><path fill="#a4c2f4" d="m16.0 92.14149l78.23622 0l0 48.34646l-78.23622 0z" fill-rule="evenodd"/><path stroke="#999999" stroke-width="1.0" stroke-linejoin="round" stroke-linecap="butt" d="m16.0 92.14149l78.23622 0l0 48.34646l-78.23622 0z" fill-rule="evenodd"/><path fill="#ffffff" d="m32.707184 123.35971q-1.484375 0 -2.6875 -0.59375q-1.203125 -0.59375 -1.984375 -1.71875l1.703125 -1.859375q0.765625 0.84375 1.40625 1.15625q0.65625 0.296875 1.46875 0.296875q0.59375 0 1.0625 -0.234375q0.46875 -0.25 0.734375 -0.6875q0.265625 -0.4375 0.265625 -0.984375q0 -0.5625 -0.265625 -1.0q-0.265625 -0.4375 -0.734375 -0.6875q-0.453125 -0.265625 -1.046875 -0.265625q-0.4375 0 -0.8125 0.078125q-0.359375 0.0625 -0.78125 0.25q-0.421875 0.171875 -1.0 0.515625l-1.34375 -1.796875l0.796875 -5.765625l7.5 0l0 2.671875l-5.984375 0l0.828125 -1.046875l-0.625 4.140625l-1.109375 -0.375q0.34375 -0.3125 0.859375 -0.546875q0.515625 -0.25 1.109375 -0.40625q0.59375 -0.171875 1.203125 -0.171875q1.21875 0 2.203125 0.578125q0.984375 0.5625 1.5625 1.578125q0.578125 1.0 0.578125 2.3125q0 1.28125 -0.65625 2.328125q-0.65625 1.03125 -1.765625 1.640625q-1.09375 0.59375 -2.484375 0.59375zm12.13475 0.0625q-1.75 0 -3.0 -0.796875q-1.234375 -0.8125 -1.890625 -2.3125q-0.640625 -1.5 -0.640625 -3.609375q0 -2.109375 0.640625 -3.609375q0.65625 -1.5 1.890625 -2.296875q1.25 -0.8125 3.0 -0.8125q1.765625 0 3.015625 0.8125q1.25 0.796875 1.890625 2.296875q0.65625 1.5 0.65625 3.609375q0 2.109375 -0.65625 3.609375q-0.640625 1.5 -1.890625 2.3125q-1.25 0.796875 -3.015625 0.796875zm0 -2.6875q1.21875 0 1.875 -1.046875q0.671875 -1.046875 0.671875 -2.984375q0 -2.0 -0.671875 -3.0625q-0.65625 -1.078125 -1.875 -1.078125q-1.203125 0 -1.875 1.078125q-0.65625 1.0625 -0.65625 3.0625q0 1.9375 0.65625 2.984375q0.671875 1.046875 1.875 1.046875zm12.592972 2.6875q-1.75 0 -3.0 -0.796875q-1.234375 -0.8125 -1.890625 -2.3125q-0.640625 -1.5 -0.640625 -3.609375q0 -2.109375 0.640625 -3.609375q0.65625 -1.5 1.890625 -2.296875q1.25 -0.8125 3.0 -0.8125q1.765625 0 3.015625 0.8125q1.25 0.796875 1.890625 2.296875q0.65625 1.5 0.65625 3.609375q0 2.109375 -0.65625 3.609375q-0.640625 1.5 -1.890625 2.3125q-1.25 0.796875 -3.015625 0.796875zm0 -2.6875q1.21875 0 1.875 -1.046875q0.671875 -1.046875 0.671875 -2.984375q0 -2.0 -0.671875 -3.0625q-0.65625 -1.078125 -1.875 -1.078125q-1.203125 0 -1.875 1.078125q-0.65625 1.0625 -0.65625 3.0625q0 1.9375 0.65625 2.984375q0.671875 1.046875 1.875 1.046875zm13.922348 2.5l0 -13.0625l5.765625 0q1.34375 0 2.265625 0.390625q0.9375 0.375 1.40625 1.09375q0.484375 0.71875 0.484375 1.734375q0 1.109375 -0.546875 1.875q-0.546875 0.765625 -1.59375 1.03125l-0.03125 -0.359375q0.875 0.1875 1.515625 0.65625q0.640625 0.46875 0.984375 1.15625q0.359375 0.671875 0.359375 1.53125q0 0.984375 -0.34375 1.71875q-0.328125 0.734375 -0.96875 1.25q-0.625 0.5 -1.46875 0.75q-0.84375 0.234375 -1.875 0.234375l-5.953125 0zm2.984375 -2.65625l2.859375 0q0.515625 0 0.875 -0.15625q0.375 -0.171875 0.578125 -0.5q0.203125 -0.328125 0.203125 -0.796875q0 -0.421875 -0.21875 -0.71875q-0.203125 -0.296875 -0.609375 -0.453125q-0.390625 -0.171875 -0.921875 -0.171875l-2.765625 0l0 2.796875zm0 -5.15625l2.328125 0q0.484375 0 0.828125 -0.15625q0.359375 -0.171875 0.53125 -0.453125q0.171875 -0.296875 0.171875 -0.703125q0 -0.59375 -0.40625 -0.9375q-0.40625 -0.34375 -1.234375 -0.34375l-2.21875 0l0 2.59375z" fill-rule="nonzero"/></g></svg>